  0
SECTION
  2
HEADER
  9
$ACADVER
  1
AC1024
  9
$ACADMAINTVER
 70
6
  9
$DWGCODEPAGE
  3
ANSI_1252
  9
$LASTSAVEDBY
  1
ezdxf
  9
$INSBASE
 10
0.0
 20
0.0
 30
0.0
  9
$EXTMIN
 10
1e+20
 20
1e+20
 30
1e+20
  9
$EXTMAX
 10
-1e+20
 20
-1e+20
 30
-1e+20
  9
$LIMMIN
 10
0.0
 20
0.0
  9
$LIMMAX
 10
420.0
 20
297.0
  9
$ORTHOMODE
 70
0
  9
$REGENMODE
 70
1
  9
$FILLMODE
 70
1
  9
$QTEXTMODE
 70
0
  9
$MIRRTEXT
 70
1
  9
$LTSCALE
 40
1.0
  9
$ATTMODE
 70
1
  9
$TEXTSIZE
 40
2.5
  9
$TRACEWID
 40
1.0
  9
$TEXTSTYLE
  7
Standard
  9
$CLAYER
  8
0
  9
$CELTYPE
  6
ByLayer
  9
$CECOLOR
 62
256
  9
$CELTSCALE
 40
1.0
  9
$DISPSILH
 70
0
  9
$DIMSCALE
 40
1.0
  9
$DIMASZ
 40
2.5
  9
$DIMEXO
 40
0.625
  9
$DIMDLI
 40
3.75
  9
$DIMRND
 40
0.0
  9
$DIMDLE
 40
0.0
  9
$DIMEXE
 40
1.25
  9
$DIMTP
 40
0.0
  9
$DIMTM
 40
0.0
  9
$DIMTXT
 40
2.5
  9
$DIMCEN
 40
2.5
  9
$DIMTSZ
 40
0.0
  9
$DIMTOL
 70
0
  9
$DIMLIM
 70
0
  9
$DIMTIH
 70
0
  9
$DIMTOH
 70
0
  9
$DIMSE1
 70
0
  9
$DIMSE2
 70
0
  9
$DIMTAD
 70
1
  9
$DIMZIN
 70
8
  9
$DIMBLK
  1

  9
$DIMASO
 70
1
  9
$DIMSHO
 70
1
  9
$DIMPOST
  1

  9
$DIMAPOST
  1

  9
$DIMALT
 70
0
  9
$DIMALTD
 70
3
  9
$DIMALTF
 40
0.03937007874
  9
$DIMLFAC
 40
1.0
  9
$DIMTOFL
 70
1
  9
$DIMTVP
 40
0.0
  9
$DIMTIX
 70
0
  9
$DIMSOXD
 70
0
  9
$DIMSAH
 70
0
  9
$DIMBLK1
  1

  9
$DIMBLK2
  1

  9
$DIMSTYLE
  2
ISO-25
  9
$DIMCLRD
 70
0
  9
$DIMCLRE
 70
0
  9
$DIMCLRT
 70
0
  9
$DIMTFAC
 40
1.0
  9
$DIMGAP
 40
0.625
  9
$DIMJUST
 70
0
  9
$DIMSD1
 70
0
  9
$DIMSD2
 70
0
  9
$DIMTOLJ
 70
0
  9
$DIMTZIN
 70
8
  9
$DIMALTZ
 70
0
  9
$DIMALTTZ
 70
0
  9
$DIMUPT
 70
0
  9
$DIMDEC
 70
2
  9
$DIMTDEC
 70
2
  9
$DIMALTU
 70
2
  9
$DIMALTTD
 70
3
  9
$DIMTXSTY
  7
Standard
  9
$DIMAUNIT
 70
0
  9
$DIMADEC
 70
0
  9
$DIMALTRND
 40
0.0
  9
$DIMAZIN
 70
0
  9
$DIMDSEP
 70
44
  9
$DIMATFIT
 70
3
  9
$DIMFRAC
 70
0
  9
$DIMLDRBLK
  1

  9
$DIMLUNIT
 70
2
  9
$DIMLWD
 70
-2
  9
$DIMLWE
 70
-2
  9
$DIMTMOVE
 70
0
  9
$DIMFXL
 40
1.0
  9
$DIMFXLON
 70
0
  9
$DIMJOGANG
 40
0.785398163397
  9
$DIMTFILL
 70
0
  9
$DIMTFILLCLR
 70
0
  9
$DIMARCSYM
 70
0
  9
$DIMLTYPE
  6

  9
$DIMLTEX1
  6

  9
$DIMLTEX2
  6

  9
$DIMTXTDIRECTION
 70
0
  9
$LUNITS
 70
2
  9
$LUPREC
 70
4
  9
$SKETCHINC
 40
1.0
  9
$FILLETRAD
 40
10.0
  9
$AUNITS
 70
0
  9
$AUPREC
 70
2
  9
$MENU
  1
.
  9
$ELEVATION
 40
0.0
  9
$PELEVATION
 40
0.0
  9
$THICKNESS
 40
0.0
  9
$LIMCHECK
 70
0
  9
$CHAMFERA
 40
0.0
  9
$CHAMFERB
 40
0.0
  9
$CHAMFERC
 40
0.0
  9
$CHAMFERD
 40
0.0
  9
$SKPOLY
 70
0
  9
$TDCREATE
 40
2460774.692048611
  9
$TDUCREATE
 40
2458532.153996898
  9
$TDUPDATE
 40
2460774.692048611
  9
$TDUUPDATE
 40
2458532.1544311
  9
$TDINDWG
 40
0.0
  9
$TDUSRTIMER
 40
0.0
  9
$USRTIMER
 70
1
  9
$ANGBASE
 50
0.0
  9
$ANGDIR
 70
0
  9
$PDMODE
 70
0
  9
$PDSIZE
 40
0.0
  9
$PLINEWID
 40
0.0
  9
$SPLFRAME
 70
0
  9
$SPLINETYPE
 70
6
  9
$SPLINESEGS
 70
8
  9
$HANDSEED
  5
1EB
  9
$SURFTAB1
 70
6
  9
$SURFTAB2
 70
6
  9
$SURFTYPE
 70
6
  9
$SURFU
 70
6
  9
$SURFV
 70
6
  9
$UCSBASE
  2

  9
$UCSNAME
  2

  9
$UCSORG
 10
0.0
 20
0.0
 30
0.0
  9
$UCSXDIR
 10
1.0
 20
0.0
 30
0.0
  9
$UCSYDIR
 10
0.0
 20
1.0
 30
0.0
  9
$UCSORTHOREF
  2

  9
$UCSORTHOVIEW
 70
0
  9
$UCSORGTOP
 10
0.0
 20
0.0
 30
0.0
  9
$UCSORGBOTTOM
 10
0.0
 20
0.0
 30
0.0
  9
$UCSORGLEFT
 10
0.0
 20
0.0
 30
0.0
  9
$UCSORGRIGHT
 10
0.0
 20
0.0
 30
0.0
  9
$UCSORGFRONT
 10
0.0
 20
0.0
 30
0.0
  9
$UCSORGBACK
 10
0.0
 20
0.0
 30
0.0
  9
$PUCSBASE
  2

  9
$PUCSNAME
  2

  9
$PUCSORG
 10
0.0
 20
0.0
 30
0.0
  9
$PUCSXDIR
 10
1.0
 20
0.0
 30
0.0
  9
$PUCSYDIR
 10
0.0
 20
1.0
 30
0.0
  9
$PUCSORTHOREF
  2

  9
$PUCSORTHOVIEW
 70
0
  9
$PUCSORGTOP
 10
0.0
 20
0.0
 30
0.0
  9
$PUCSORGBOTTOM
 10
0.0
 20
0.0
 30
0.0
  9
$PUCSORGLEFT
 10
0.0
 20
0.0
 30
0.0
  9
$PUCSORGRIGHT
 10
0.0
 20
0.0
 30
0.0
  9
$PUCSORGFRONT
 10
0.0
 20
0.0
 30
0.0
  9
$PUCSORGBACK
 10
0.0
 20
0.0
 30
0.0
  9
$USERI1
 70
0
  9
$USERI2
 70
0
  9
$USERI3
 70
0
  9
$USERI4
 70
0
  9
$USERI5
 70
0
  9
$USERR1
 40
0.0
  9
$USERR2
 40
0.0
  9
$USERR3
 40
0.0
  9
$USERR4
 40
0.0
  9
$USERR5
 40
0.0
  9
$WORLDVIEW
 70
1
  9
$SHADEDGE
 70
3
  9
$SHADEDIF
 70
70
  9
$TILEMODE
 70
1
  9
$MAXACTVP
 70
64
  9
$PINSBASE
 10
0.0
 20
0.0
 30
0.0
  9
$PLIMCHECK
 70
0
  9
$PEXTMIN
 10
1e+20
 20
1e+20
 30
1e+20
  9
$PEXTMAX
 10
-1e+20
 20
-1e+20
 30
-1e+20
  9
$PLIMMIN
 10
0.0
 20
0.0
  9
$PLIMMAX
 10
420.0
 20
297.0
  9
$UNITMODE
 70
0
  9
$VISRETAIN
 70
1
  9
$PLINEGEN
 70
0
  9
$PSLTSCALE
 70
1
  9
$TREEDEPTH
 70
3020
  9
$CMLSTYLE
  2
Standard
  9
$CMLJUST
 70
0
  9
$CMLSCALE
 40
20.0
  9
$PROXYGRAPHICS
 70
1
  9
$MEASUREMENT
 70
1
  9
$CELWEIGHT
370
-1
  9
$ENDCAPS
280
0
  9
$JOINSTYLE
280
0
  9
$LWDISPLAY
290
0
  9
$INSUNITS
 70
6
  9
$HYPERLINKBASE
  1

  9
$STYLESHEET
  1

  9
$XEDIT
290
1
  9
$CEPSNTYPE
380
0
  9
$PSTYLEMODE
290
1
  9
$FINGERPRINTGUID
  2
{6F483426-68BC-41CD-BC97-7EC4E212CBD6}
  9
$VERSIONGUID
  2
{C35C492A-F345-401F-901F-2F33A2F3A0C6}
  9
$EXTNAMES
290
1
  9
$PSVPSCALE
 40
0.0
  9
$OLESTARTUP
290
0
  9
$SORTENTS
280
127
  9
$INDEXCTL
280
0
  9
$HIDETEXT
280
1
  9
$XCLIPFRAME
280
1
  9
$HALOGAP
280
0
  9
$OBSCOLOR
 70
257
  9
$OBSLTYPE
280
0
  9
$INTERSECTIONDISPLAY
280
0
  9
$INTERSECTIONCOLOR
 70
257
  9
$DIMASSOC
280
2
  9
$PROJECTNAME
  1

  9
$CAMERADISPLAY
290
0
  9
$LENSLENGTH
 40
50.0
  9
$CAMERAHEIGHT
 40
0.0
  9
$STEPSPERSEC
 40
24.0
  9
$STEPSIZE
 40
100.0
  9
$3DDWFPREC
 40
2.0
  9
$PSOLWIDTH
 40
0.005
  9
$PSOLHEIGHT
 40
0.08
  9
$LOFTANG1
 40
1.570796326795
  9
$LOFTANG2
 40
1.570796326795
  9
$LOFTMAG1
 40
0.0
  9
$LOFTMAG2
 40
0.0
  9
$LOFTPARAM
 70
7
  9
$LOFTNORMALS
280
1
  9
$LATITUDE
 40
37.795
  9
$LONGITUDE
 40
-122.394
  9
$NORTHDIRECTION
 40
0.0
  9
$TIMEZONE
 70
-8000
  9
$LIGHTGLYPHDISPLAY
280
1
  9
$TILEMODELIGHTSYNCH
280
1
  9
$CMATERIAL
347
20
  9
$SOLIDHIST
280
0
  9
$SHOWHIST
280
1
  9
$DWFFRAME
280
2
  9
$DGNFRAME
280
2
  9
$REALWORLDSCALE
290
1
  9
$INTERFERECOLOR
 62
256
  9
$CSHADOW
280
0
  9
$SHADOWPLANELOCATION
 40
0.0
  0
ENDSEC
  0
SECTION
  2
CLASSES
  0
CLASS
  1
ACDBDICTIONARYWDFLT
  2
AcDbDictionaryWithDefault
  3
ObjectDBX Classes
 90
0
 91
0
280
0
281
0
  0
CLASS
  1
SUN
  2
AcDbSun
  3
SCENEOE
 90
1153
 91
0
280
0
281
0
  0
CLASS
  1
VISUALSTYLE
  2
AcDbVisualStyle
  3
ObjectDBX Classes
 90
4095
 91
0
280
0
281
0
  0
CLASS
  1
MATERIAL
  2
AcDbMaterial
  3
ObjectDBX Classes
 90
1153
 91
0
280
0
281
0
  0
CLASS
  1
SCALE
  2
AcDbScale
  3
ObjectDBX Classes
 90
1153
 91
0
280
0
281
0
  0
CLASS
  1
TABLESTYLE
  2
AcDbTableStyle
  3
ObjectDBX Classes
 90
4095
 91
0
280
0
281
0
  0
CLASS
  1
MLEADERSTYLE
  2
AcDbMLeaderStyle
  3
ACDB_MLEADERSTYLE_CLASS
 90
4095
 91
0
280
0
281
0
  0
CLASS
  1
DICTIONARYVAR
  2
AcDbDictionaryVar
  3
ObjectDBX Classes
 90
0
 91
0
280
0
281
0
  0
CLASS
  1
CELLSTYLEMAP
  2
AcDbCellStyleMap
  3
ObjectDBX Classes
 90
1152
 91
0
280
0
281
0
  0
CLASS
  1
MENTALRAYRENDERSETTINGS
  2
AcDbMentalRayRenderSettings
  3
SCENEOE
 90
1024
 91
0
280
0
281
0
  0
CLASS
  1
ACDBDETAILVIEWSTYLE
  2
AcDbDetailViewStyle
  3
ObjectDBX Classes
 90
1025
 91
0
280
0
281
0
  0
CLASS
  1
ACDBSECTIONVIEWSTYLE
  2
AcDbSectionViewStyle
  3
ObjectDBX Classes
 90
1025
 91
0
280
0
281
0
  0
CLASS
  1
RASTERVARIABLES
  2
AcDbRasterVariables
  3
ISM
 90
0
 91
0
280
0
281
0
  0
CLASS
  1
LAYOUT
  2
AcDbLayout
  3
ObjectDBX Classes
 90
0
 91
0
280
0
281
0
  0
CLASS
  1
ACDBPLACEHOLDER
  2
AcDbPlaceHolder
  3
ObjectDBX Classes
 90
0
 91
0
280
0
281
0
  0
ENDSEC
  0
SECTION
  2
TABLES
  0
TABLE
  2
VPORT
  5
8
330
0
100
AcDbSymbolTable
 70
1
  0
VPORT
  5
23
330
8
100
AcDbSymbolTableRecord
100
AcDbViewportTableRecord
  2
*Active
 70
0
 10
0.0
 20
0.0
 11
1.0
 21
1.0
 12
0.0
 22
0.0
 13
0.0
 23
0.0
 14
0.5
 24
0.5
 15
0.5
 25
0.5
 16
0.0
 26
0.0
 36
1.0
 17
0.0
 27
0.0
 37
0.0
 40
1000.0
 41
1.34
 42
50.0
 43
0.0
 44
0.0
 50
0.0
 51
0.0
 71
0
 72
1000
 73
1
 74
3
 75
0
 76
0
 77
0
 78
0
281
0
 65
0
146
0.0
  0
ENDTAB
  0
TABLE
  2
LTYPE
  5
2
330
0
100
AcDbSymbolTable
 70
3
  0
LTYPE
  5
24
330
2
100
AcDbSymbolTableRecord
100
AcDbLinetypeTableRecord
  2
ByBlock
 70
0
  3

 72
65
 73
0
 40
0.0
  0
LTYPE
  5
25
330
2
100
AcDbSymbolTableRecord
100
AcDbLinetypeTableRecord
  2
ByLayer
 70
0
  3

 72
65
 73
0
 40
0.0
  0
LTYPE
  5
26
330
2
100
AcDbSymbolTableRecord
100
AcDbLinetypeTableRecord
  2
Continuous
 70
0
  3

 72
65
 73
0
 40
0.0
  0
ENDTAB
  0
TABLE
  2
LAYER
  5
1
330
0
100
AcDbSymbolTable
 70
2
  0
LAYER
  5
27
330
1
100
AcDbSymbolTableRecord
100
AcDbLayerTableRecord
  2
0
 70
0
 62
7
  6
Continuous
370
-3
390
13
347
21
  0
LAYER
  5
28
330
1
100
AcDbSymbolTableRecord
100
AcDbLayerTableRecord
  2
Defpoints
 70
0
 62
7
  6
Continuous
290
0
370
-3
390
13
347
21
  0
ENDTAB
  0
TABLE
  2
STYLE
  5
5
330
0
100
AcDbSymbolTable
 70
1
  0
STYLE
  5
29
330
5
100
AcDbSymbolTableRecord
100
AcDbTextStyleTableRecord
  2
Standard
 70
0
 40
0.0
 41
1.0
 50
0.0
 71
0
 42
2.5
  3
txt
  4

  0
ENDTAB
  0
TABLE
  2
VIEW
  5
7
330
0
100
AcDbSymbolTable
 70
0
  0
ENDTAB
  0
TABLE
  2
UCS
  5
6
330
0
100
AcDbSymbolTable
 70
0
  0
ENDTAB
  0
TABLE
  2
APPID
  5
3
330
0
100
AcDbSymbolTable
 70
3
  0
APPID
  5
2A
330
3
100
AcDbSymbolTableRecord
100
AcDbRegAppTableRecord
  2
ACAD
 70
0
  0
APPID
  5
1E8
330
3
100
AcDbSymbolTableRecord
100
AcDbRegAppTableRecord
  2
HATCHBACKGROUNDCOLOR
 70
0
  0
APPID
  5
1E9
330
3
100
AcDbSymbolTableRecord
100
AcDbRegAppTableRecord
  2
EZDXF
 70
0
  0
ENDTAB
  0
TABLE
  2
DIMSTYLE
  5
4
330
0
100
AcDbSymbolTable
 70
1
100
AcDbDimStyleTable
  0
DIMSTYLE
105
2B
330
4
100
AcDbSymbolTableRecord
100
AcDbDimStyleTableRecord
  2
Standard
 70
0
 40
1.0
 41
2.5
 42
0.625
 43
3.75
 44
1.25
 45
0.0
 46
0.0
 47
0.0
 48
0.0
 49
2.5
140
2.5
141
2.5
142
0.0
143
0.03937007874
144
1.0
145
0.0
146
1.0
147
0.625
148
0.0
 69
0
 70
0
 71
0
 72
0
 73
0
 74
0
 75
0
 76
0
 77
1
 78
8
 79
3
170
0
171
3
172
1
173
0
174
0
175
0
176
0
177
0
178
0
179
2
271
2
272
2
273
2
274
3
275
0
276
0
277
2
278
44
279
0
280
0
281
0
282
0
283
0
284
8
285
0
286
0
288
0
289
3
290
0
371
-2
372
-2
  0
ENDTAB
  0
TABLE
  2
BLOCK_RECORD
  5
9
330
0
100
AcDbSymbolTable
 70
2
  0
BLOCK_RECORD
  5
17
330
9
100
AcDbSymbolTableRecord
100
AcDbBlockTableRecord
  2
*Model_Space
340
1A
 70
0
280
1
281
0
  0
BLOCK_RECORD
  5
1B
330
9
100
AcDbSymbolTableRecord
100
AcDbBlockTableRecord
  2
*Paper_Space
340
1E
 70
0
280
1
281
0
  0
ENDTAB
  0
ENDSEC
  0
SECTION
  2
BLOCKS
  0
BLOCK
  5
18
330
17
100
AcDbEntity
  8
0
100
AcDbBlockBegin
  2
*Model_Space
 70
0
 10
0.0
 20
0.0
 30
0.0
  3
*Model_Space
  1

  0
ENDBLK
  5
19
330
17
100
AcDbEntity
  8
0
100
AcDbBlockEnd
  0
BLOCK
  5
1C
330
1B
100
AcDbEntity
  8
0
100
AcDbBlockBegin
  2
*Paper_Space
 70
0
 10
0.0
 20
0.0
 30
0.0
  3
*Paper_Space
  1

  0
ENDBLK
  5
1D
330
1B
100
AcDbEntity
  8
0
100
AcDbBlockEnd
  0
ENDSEC
  0
SECTION
  2
ENTITIES
  0
LINE
  5
2F
330
17
100
AcDbEntity
  8
0
100
AcDbLine
 10
174.516
 20
-148.109
 30
0.0
 11
174.516
 21
-139.109
 31
0.0
  0
LINE
  5
30
330
17
100
AcDbEntity
  8
0
100
AcDbLine
 10
31.6669
 20
-139.109
 30
0.0
 11
174.516
 21
-139.109
 31
0.0
  0
LINE
  5
31
330
17
100
AcDbEntity
  8
0
100
AcDbLine
 10
31.6669
 20
-139.109
 30
0.0
 11
31.6669
 21
-148.109
 31
0.0
  0
LINE
  5
32
330
17
100
AcDbEntity
  8
0
100
AcDbLine
 10
31.6669
 20
-148.109
 30
0.0
 11
174.516
 21
-148.109
 31
0.0
  0
LINE
  5
33
330
17
100
AcDbEntity
  8
0
100
AcDbLine
 10
169.916
 20
-88.1092
 30
0.0
 11
129.241
 21
-88.1092
 31
0.0
  0
LINE
  5
34
330
17
100
AcDbEntity
  8
0
100
AcDbLine
 10
100.419
 20
-88.1092
 30
0.0
 11
81.5357
 21
-88.1093
 31
0.0
  0
LINE
  5
35
330
17
100
AcDbEntity
  8
0
100
AcDbLine
 10
31.6669
 20
-88.1093
 30
0.0
 11
31.6669
 21
-88.1093
 31
0.0
  0
LINE
  5
36
330
17
100
AcDbEntity
  8
0
100
AcDbLine
 10
169.916
 20
-90.1092
 30
0.0
 11
115.716
 21
-90.1092
 31
0.0
  0
LINE
  5
37
330
17
100
AcDbEntity
  8
0
100
AcDbLine
 10
100.419
 20
-90.1092
 30
0.0
 11
81.5357
 21
-90.1093
 31
0.0
  0
LINE
  5
38
330
17
100
AcDbEntity
  8
0
100
AcDbLine
 10
31.6669
 20
-90.1093
 30
0.0
 11
31.6669
 21
-90.1093
 31
0.0
  0
LINE
  5
39
330
17
100
AcDbEntity
  8
0
100
AcDbLine
 10
31.6669
 20
-90.1093
 30
0.0
 11
31.6669
 21
-88.1093
 31
0.0
  0
LINE
  5
3A
330
17
100
AcDbEntity
  8
0
100
AcDbLine
 10
174.516
 20
-81.1092
 30
0.0
 11
174.516
 21
-79.1092
 31
0.0
  0
LINE
  5
3B
330
17
100
AcDbEntity
  8
0
100
AcDbLine
 10
31.6669
 20
-79.1093
 30
0.0
 11
174.516
 21
-79.1092
 31
0.0
  0
LINE
  5
3C
330
17
100
AcDbEntity
  8
0
100
AcDbLine
 10
31.6669
 20
-79.1093
 30
0.0
 11
31.6669
 21
-81.1093
 31
0.0
  0
LINE
  5
3D
330
17
100
AcDbEntity
  8
0
100
AcDbLine
 10
31.6669
 20
-81.1093
 30
0.0
 11
174.516
 21
-81.1092
 31
0.0
  0
LINE
  5
3E
330
17
100
AcDbEntity
  8
0
100
AcDbLine
 10
67.5163
 20
-17.1092
 30
0.0
 11
67.5163
 21
-19.1092
 31
0.0
  0
LINE
  5
3F
330
17
100
AcDbEntity
  8
0
100
AcDbLine
 10
67.5163
 20
-19.1092
 30
0.0
 11
174.516
 21
-19.1092
 31
0.0
  0
LINE
  5
40
330
17
100
AcDbEntity
  8
0
100
AcDbLine
 10
174.516
 20
-19.1092
 30
0.0
 11
174.516
 21
-17.1092
 31
0.0
  0
LINE
  5
41
330
17
100
AcDbEntity
  8
0
100
AcDbLine
 10
67.5163
 20
-17.1092
 30
0.0
 11
174.516
 21
-17.1092
 31
0.0
  0
LINE
  5
42
330
17
100
AcDbEntity
  8
0
100
AcDbLine
 10
65.5354
 20
-131.109
 30
0.0
 11
65.5354
 21
-131.109
 31
0.0
  0
LINE
  5
43
330
17
100
AcDbEntity
  8
0
100
AcDbLine
 10
65.5354
 20
-139.109
 30
0.0
 11
65.5354
 21
-131.109
 31
0.0
  0
LINE
  5
44
330
17
100
AcDbEntity
  8
0
100
AcDbLine
 10
64.5354
 20
-139.109
 30
0.0
 11
64.5354
 21
-131.109
 31
0.0
  0
LINE
  5
45
330
17
100
AcDbEntity
  8
0
100
AcDbLine
 10
53.5354
 20
-139.109
 30
0.0
 11
53.5354
 21
-131.109
 31
0.0
  0
LINE
  5
46
330
17
100
AcDbEntity
  8
0
100
AcDbLine
 10
54.5354
 20
-139.109
 30
0.0
 11
54.5354
 21
-131.109
 31
0.0
  0
LINE
  5
47
330
17
100
AcDbEntity
  8
0
100
AcDbLine
 10
65.5354
 20
-130.109
 30
0.0
 11
65.5354
 21
-130.109
 31
0.0
  0
LINE
  5
48
330
17
100
AcDbEntity
  8
0
100
AcDbLine
 10
65.5354
 20
-121.109
 30
0.0
 11
53.5354
 21
-121.109
 31
0.0
  0
LINE
  5
49
330
17
100
AcDbEntity
  8
0
100
AcDbLine
 10
53.5354
 20
-121.109
 30
0.0
 11
53.5354
 21
-130.109
 31
0.0
  0
LINE
  5
4A
330
17
100
AcDbEntity
  8
0
100
AcDbLine
 10
65.5354
 20
-121.109
 30
0.0
 11
65.5354
 21
-130.109
 31
0.0
  0
LINE
  5
4B
330
17
100
AcDbEntity
  8
0
100
AcDbLine
 10
65.5354
 20
-131.109
 30
0.0
 11
65.5354
 21
-130.109
 31
0.0
  0
LINE
  5
4C
330
17
100
AcDbEntity
  8
0
100
AcDbLine
 10
65.5354
 20
-130.109
 30
0.0
 11
53.5354
 21
-130.109
 31
0.0
  0
LINE
  5
4D
330
17
100
AcDbEntity
  8
0
100
AcDbLine
 10
53.5354
 20
-130.109
 30
0.0
 11
53.5354
 21
-131.109
 31
0.0
  0
LINE
  5
4E
330
17
100
AcDbEntity
  8
0
100
AcDbLine
 10
65.5354
 20
-131.109
 30
0.0
 11
53.5354
 21
-131.109
 31
0.0
  0
LINE
  5
4F
330
17
100
AcDbEntity
  8
0
100
AcDbLine
 10
131.061
 20
-77.1093
 30
0.0
 11
147.916
 21
-77.1092
 31
0.0
  0
LINE
  5
50
330
17
100
AcDbEntity
  8
0
100
AcDbLine
 10
131.061
 20
-82.1092
 30
0.0
 11
131.061
 21
-81.1092
 31
0.0
  0
LINE
  5
51
330
17
100
AcDbEntity
  8
0
100
AcDbLine
 10
131.061
 20
-79.1092
 30
0.0
 11
131.061
 21
-77.1093
 31
0.0
  0
LINE
  5
52
330
17
100
AcDbEntity
  8
0
100
AcDbLine
 10
173.516
 20
-36.6092
 30
0.0
 11
173.416
 21
-36.6092
 31
0.0
  0
LINE
  5
53
330
17
100
AcDbEntity
  8
0
100
AcDbLine
 10
173.416
 20
-37.6092
 30
0.0
 11
173.416
 21
-36.6092
 31
0.0
  0
LINE
  5
54
330
17
100
AcDbEntity
  8
0
100
AcDbLine
 10
173.416
 20
-37.6092
 30
0.0
 11
173.516
 21
-37.6092
 31
0.0
  0
LINE
  5
55
330
17
100
AcDbEntity
  8
0
100
AcDbLine
 10
173.516
 20
-37.6092
 30
0.0
 11
173.516
 21
-36.6092
 31
0.0
  0
LINE
  5
56
330
17
100
AcDbEntity
  8
0
100
AcDbLine
 10
174.516
 20
-79.1092
 30
0.0
 11
174.516
 21
-38.1092
 31
0.0
  0
LINE
  5
57
330
17
100
AcDbEntity
  8
0
100
AcDbLine
 10
174.616
 20
-79.1092
 30
0.0
 11
174.616
 21
-38.1092
 31
0.0
  0
LINE
  5
58
330
17
100
AcDbEntity
  8
0
100
AcDbLine
 10
174.616
 20
-38.1092
 30
0.0
 11
174.616
 21
-38.1092
 31
0.0
  0
LINE
  5
59
330
17
100
AcDbEntity
  8
0
100
AcDbLine
 10
174.616
 20
-79.1092
 30
0.0
 11
174.516
 21
-79.1092
 31
0.0
  0
LINE
  5
5A
330
17
100
AcDbEntity
  8
0
100
AcDbLine
 10
174.616
 20
-36.6092
 30
0.0
 11
174.516
 21
-36.6092
 31
0.0
  0
LINE
  5
5B
330
17
100
AcDbEntity
  8
0
100
AcDbLine
 10
174.516
 20
-38.1092
 30
0.0
 11
174.516
 21
-36.6092
 31
0.0
  0
LINE
  5
5C
330
17
100
AcDbEntity
  8
0
100
AcDbLine
 10
174.516
 20
-38.1092
 30
0.0
 11
174.616
 21
-38.1092
 31
0.0
  0
LINE
  5
5D
330
17
100
AcDbEntity
  8
0
100
AcDbLine
 10
174.616
 20
-38.1092
 30
0.0
 11
174.616
 21
-36.6092
 31
0.0
  0
LINE
  5
5E
330
17
100
AcDbEntity
  8
0
100
AcDbLine
 10
174.516
 20
-79.1092
 30
0.0
 11
174.516
 21
-78.6092
 31
0.0
  0
LINE
  5
5F
330
17
100
AcDbEntity
  8
0
100
AcDbLine
 10
172.516
 20
-78.6092
 30
0.0
 11
174.516
 21
-78.6092
 31
0.0
  0
LINE
  5
60
330
17
100
AcDbEntity
  8
0
100
AcDbLine
 10
172.516
 20
-78.6092
 30
0.0
 11
172.516
 21
-79.1092
 31
0.0
  0
LINE
  5
61
330
17
100
AcDbEntity
  8
0
100
AcDbLine
 10
172.516
 20
-79.1092
 30
0.0
 11
174.516
 21
-79.1092
 31
0.0
  0
LINE
  5
62
330
17
100
AcDbEntity
  8
0
100
AcDbLine
 10
174.016
 20
-78.6092
 30
0.0
 11
174.016
 21
-37.6092
 31
0.0
  0
LINE
  5
63
330
17
100
AcDbEntity
  8
0
100
AcDbLine
 10
173.316
 20
-37.6092
 30
0.0
 11
174.016
 21
-37.6092
 31
0.0
  0
LINE
  5
64
330
17
100
AcDbEntity
  8
0
100
AcDbLine
 10
173.316
 20
-37.6092
 30
0.0
 11
173.316
 21
-78.6092
 31
0.0
  0
LINE
  5
65
330
17
100
AcDbEntity
  8
0
100
AcDbLine
 10
173.316
 20
-78.6092
 30
0.0
 11
174.016
 21
-78.6092
 31
0.0
  0
LINE
  5
66
330
17
100
AcDbEntity
  8
0
100
AcDbLine
 10
174.016
 20
-78.6092
 30
0.0
 11
174.016
 21
-38.1092
 31
0.0
  0
LINE
  5
67
330
17
100
AcDbEntity
  8
0
100
AcDbLine
 10
174.516
 20
-79.1092
 30
0.0
 11
174.516
 21
-38.1092
 31
0.0
  0
LINE
  5
68
330
17
100
AcDbEntity
  8
0
100
AcDbLine
 10
174.516
 20
-37.1092
 30
0.0
 11
174.016
 21
-37.1092
 31
0.0
  0
LINE
  5
69
330
17
100
AcDbEntity
  8
0
100
AcDbLine
 10
174.016
 20
-38.1092
 30
0.0
 11
174.016
 21
-37.1092
 31
0.0
  0
LINE
  5
6A
330
17
100
AcDbEntity
  8
0
100
AcDbLine
 10
174.016
 20
-38.1092
 30
0.0
 11
174.516
 21
-38.1092
 31
0.0
  0
LINE
  5
6B
330
17
100
AcDbEntity
  8
0
100
AcDbLine
 10
174.516
 20
-38.1092
 30
0.0
 11
174.516
 21
-37.1092
 31
0.0
  0
LINE
  5
6C
330
17
100
AcDbEntity
  8
0
100
AcDbLine
 10
174.016
 20
-37.1092
 30
0.0
 11
173.516
 21
-37.1092
 31
0.0
  0
LINE
  5
6D
330
17
100
AcDbEntity
  8
0
100
AcDbLine
 10
173.516
 20
-37.6093
 30
0.0
 11
173.516
 21
-37.1092
 31
0.0
  0
LINE
  5
6E
330
17
100
AcDbEntity
  8
0
100
AcDbLine
 10
173.516
 20
-37.6093
 30
0.0
 11
174.016
 21
-37.6093
 31
0.0
  0
LINE
  5
6F
330
17
100
AcDbEntity
  8
0
100
AcDbLine
 10
174.016
 20
-37.6093
 30
0.0
 11
174.016
 21
-37.1092
 31
0.0
  0
LINE
  5
70
330
17
100
AcDbEntity
  8
0
100
AcDbLine
 10
192.516
 20
-37.1092
 30
0.0
 11
174.516
 21
-37.1092
 31
0.0
  0
LINE
  5
71
330
17
100
AcDbEntity
  8
0
100
AcDbLine
 10
192.516
 20
-35.1092
 30
0.0
 11
192.516
 21
-37.1092
 31
0.0
  0
LINE
  5
72
330
17
100
AcDbEntity
  8
0
100
AcDbLine
 10
192.516
 20
-35.1092
 30
0.0
 11
174.516
 21
-35.1092
 31
0.0
  0
LINE
  5
73
330
17
100
AcDbEntity
  8
0
100
AcDbLine
 10
174.516
 20
-37.1092
 30
0.0
 11
174.516
 21
-35.1092
 31
0.0
  0
LINE
  5
74
330
17
100
AcDbEntity
  8
0
100
AcDbLine
 10
67.5163
 20
-37.1092
 30
0.0
 11
31.6669
 21
-37.1093
 31
0.0
  0
LINE
  5
75
330
17
100
AcDbEntity
  8
0
100
AcDbLine
 10
67.5163
 20
-35.1092
 30
0.0
 11
67.5163
 21
-37.1092
 31
0.0
  0
LINE
  5
76
330
17
100
AcDbEntity
  8
0
100
AcDbLine
 10
67.5163
 20
-35.1092
 30
0.0
 11
31.6669
 21
-35.1093
 31
0.0
  0
LINE
  5
77
330
17
100
AcDbEntity
  8
0
100
AcDbLine
 10
31.6669
 20
-37.1093
 30
0.0
 11
31.6669
 21
-35.1093
 31
0.0
  0
LINE
  5
78
330
17
100
AcDbEntity
  8
0
100
AcDbLine
 10
115.716
 20
-138.609
 30
0.0
 11
115.716
 21
-138.609
 31
0.0
  0
LINE
  5
79
330
17
100
AcDbEntity
  8
0
100
AcDbLine
 10
115.716
 20
-118.409
 30
0.0
 11
115.716
 21
-118.409
 31
0.0
  0
LINE
  5
7A
330
17
100
AcDbEntity
  8
0
100
AcDbLine
 10
115.716
 20
-118.809
 30
0.0
 11
115.716
 21
-118.809
 31
0.0
  0
LINE
  5
7B
330
17
100
AcDbEntity
  8
0
100
AcDbLine
 10
94.8149
 20
-38.1093
 30
0.0
 11
94.8149
 21
-79.1093
 31
0.0
  0
LINE
  5
7C
330
17
100
AcDbEntity
  8
0
100
AcDbLine
 10
110.815
 20
-38.1093
 30
0.0
 11
94.8149
 21
-38.1093
 31
0.0
  0
LINE
  5
7D
330
17
100
AcDbEntity
  8
0
100
AcDbLine
 10
110.815
 20
-79.1092
 30
0.0
 11
110.815
 21
-38.1093
 31
0.0
  0
LINE
  5
7E
330
17
100
AcDbEntity
  8
0
100
AcDbLine
 10
94.8149
 20
-78.6093
 30
0.0
 11
110.815
 21
-78.6092
 31
0.0
  0
LINE
  5
7F
330
17
100
AcDbEntity
  8
0
100
AcDbLine
 10
95.3149
 20
-58.4093
 30
0.0
 11
97.7149
 21
-58.4093
 31
0.0
  0
LINE
  5
80
330
17
100
AcDbEntity
  8
0
100
AcDbLine
 10
95.3149
 20
-58.8093
 30
0.0
 11
97.7149
 21
-58.8093
 31
0.0
  0
LINE
  5
81
330
17
100
AcDbEntity
  8
0
100
AcDbLine
 10
97.7149
 20
-58.8093
 30
0.0
 11
97.7149
 21
-58.4093
 31
0.0
  0
LINE
  5
82
330
17
100
AcDbEntity
  8
0
100
AcDbLine
 10
95.3149
 20
-58.8093
 30
0.0
 11
95.3149
 21
-58.4093
 31
0.0
  0
LINE
  5
83
330
17
100
AcDbEntity
  8
0
100
AcDbLine
 10
174.516
 20
-95.1092
 30
0.0
 11
189.516
 21
-95.1092
 31
0.0
  0
LINE
  5
84
330
17
100
AcDbEntity
  8
0
100
AcDbLine
 10
174.516
 20
-97.1092
 30
0.0
 11
189.516
 21
-97.1092
 31
0.0
  0
LINE
  5
85
330
17
100
AcDbEntity
  8
0
100
AcDbLine
 10
174.516
 20
-97.1092
 30
0.0
 11
174.516
 21
-95.1092
 31
0.0
  0
LINE
  5
86
330
17
100
AcDbEntity
  8
0
100
AcDbLine
 10
31.6669
 20
-97.1093
 30
0.0
 11
31.6669
 21
-95.1093
 31
0.0
  0
LINE
  5
87
330
17
100
AcDbEntity
  8
0
100
AcDbLine
 10
16.6669
 20
-95.1093
 30
0.0
 11
31.6669
 21
-95.1093
 31
0.0
  0
LINE
  5
88
330
17
100
AcDbEntity
  8
0
100
AcDbLine
 10
16.6669
 20
-95.1093
 30
0.0
 11
16.6669
 21
-97.1093
 31
0.0
  0
LINE
  5
89
330
17
100
AcDbEntity
  8
0
100
AcDbLine
 10
16.6669
 20
-97.1093
 30
0.0
 11
31.6669
 21
-97.1093
 31
0.0
  0
LINE
  5
8A
330
17
100
AcDbEntity
  8
0
100
AcDbLine
 10
35.2669
 20
-139.109
 30
0.0
 11
35.2669
 21
-81.1093
 31
0.0
  0
LINE
  5
8B
330
17
100
AcDbEntity
  8
0
100
AcDbLine
 10
169.916
 20
-19.1092
 30
0.0
 11
127.916
 21
-19.1092
 31
0.0
  0
LINE
  5
8C
330
17
100
AcDbEntity
  8
0
100
AcDbLine
 10
174.516
 20
-19.1092
 30
0.0
 11
174.516
 21
-19.1092
 31
0.0
  0
LINE
  5
8D
330
17
100
AcDbEntity
  8
0
100
AcDbLine
 10
174.516
 20
-80.1092
 30
0.0
 11
174.516
 21
-79.1092
 31
0.0
  0
LINE
  5
8E
330
17
100
AcDbEntity
  8
0
100
AcDbLine
 10
174.516
 20
-35.1092
 30
0.0
 11
174.516
 21
-19.1092
 31
0.0
  0
LINE
  5
8F
330
17
100
AcDbEntity
  8
0
100
AcDbLine
 10
68.9663
 20
-40.5093
 30
0.0
 11
68.9663
 21
-75.7093
 31
0.0
  0
LINE
  5
90
330
17
100
AcDbEntity
  8
0
100
AcDbLine
 10
68.7663
 20
-40.5093
 30
0.0
 11
68.9663
 21
-40.5093
 31
0.0
  0
LINE
  5
91
330
17
100
AcDbEntity
  8
0
100
AcDbLine
 10
68.7663
 20
-40.5093
 30
0.0
 11
68.7663
 21
-75.7093
 31
0.0
  0
LINE
  5
92
330
17
100
AcDbEntity
  8
0
100
AcDbLine
 10
68.9663
 20
-75.7093
 30
0.0
 11
68.7663
 21
-75.7093
 31
0.0
  0
LINE
  5
93
330
17
100
AcDbEntity
  8
0
100
AcDbLine
 10
68.5163
 20
-39.1093
 30
0.0
 11
68.5163
 21
-40.5093
 31
0.0
  0
LINE
  5
94
330
17
100
AcDbEntity
  8
0
100
AcDbLine
 10
68.5163
 20
-40.5093
 30
0.0
 11
69.2163
 21
-40.5093
 31
0.0
  0
LINE
  5
95
330
17
100
AcDbEntity
  8
0
100
AcDbLine
 10
69.2163
 20
-39.1093
 30
0.0
 11
69.2163
 21
-40.5093
 31
0.0
  0
LINE
  5
96
330
17
100
AcDbEntity
  8
0
100
AcDbLine
 10
68.5163
 20
-39.1093
 30
0.0
 11
69.2163
 21
-39.1093
 31
0.0
  0
LINE
  5
97
330
17
100
AcDbEntity
  8
0
100
AcDbLine
 10
68.5163
 20
-75.7093
 30
0.0
 11
68.5163
 21
-40.5093
 31
0.0
  0
LINE
  5
98
330
17
100
AcDbEntity
  8
0
100
AcDbLine
 10
69.2163
 20
-75.7093
 30
0.0
 11
69.2163
 21
-40.5093
 31
0.0
  0
LINE
  5
99
330
17
100
AcDbEntity
  8
0
100
AcDbLine
 10
69.2163
 20
-40.5093
 30
0.0
 11
69.2163
 21
-40.5093
 31
0.0
  0
LINE
  5
9A
330
17
100
AcDbEntity
  8
0
100
AcDbLine
 10
69.2163
 20
-75.7093
 30
0.0
 11
69.2163
 21
-75.7093
 31
0.0
  0
LINE
  5
9B
330
17
100
AcDbEntity
  8
0
100
AcDbLine
 10
69.2163
 20
-75.7093
 30
0.0
 11
69.2163
 21
-77.1093
 31
0.0
  0
LINE
  5
9C
330
17
100
AcDbEntity
  8
0
100
AcDbLine
 10
69.2163
 20
-75.7093
 30
0.0
 11
68.5163
 21
-75.7093
 31
0.0
  0
LINE
  5
9D
330
17
100
AcDbEntity
  8
0
100
AcDbLine
 10
68.5163
 20
-75.7093
 30
0.0
 11
68.5163
 21
-77.1093
 31
0.0
  0
LINE
  5
9E
330
17
100
AcDbEntity
  8
0
100
AcDbLine
 10
69.2163
 20
-77.1093
 30
0.0
 11
68.5163
 21
-77.1093
 31
0.0
  0
LINE
  5
9F
330
17
100
AcDbEntity
  8
0
100
AcDbLine
 10
68.5163
 20
-79.1093
 30
0.0
 11
69.5163
 21
-79.1093
 31
0.0
  0
LINE
  5
A0
330
17
100
AcDbEntity
  8
0
100
AcDbLine
 10
69.5163
 20
-79.1093
 30
0.0
 11
69.5163
 21
-77.1093
 31
0.0
  0
LINE
  5
A1
330
17
100
AcDbEntity
  8
0
100
AcDbLine
 10
69.5163
 20
-77.1093
 30
0.0
 11
68.5163
 21
-77.1093
 31
0.0
  0
LINE
  5
A2
330
17
100
AcDbEntity
  8
0
100
AcDbLine
 10
68.5163
 20
-79.1093
 30
0.0
 11
68.5163
 21
-77.1093
 31
0.0
  0
LINE
  5
A3
330
17
100
AcDbEntity
  8
0
100
AcDbLine
 10
69.5163
 20
-77.1093
 30
0.0
 11
69.5163
 21
-39.1093
 31
0.0
  0
LINE
  5
A4
330
17
100
AcDbEntity
  8
0
100
AcDbLine
 10
69.5163
 20
-39.1093
 30
0.0
 11
69.5163
 21
-39.1093
 31
0.0
  0
LINE
  5
A5
330
17
100
AcDbEntity
  8
0
100
AcDbLine
 10
69.5163
 20
-77.1093
 30
0.0
 11
69.5163
 21
-77.1093
 31
0.0
  0
LINE
  5
A6
330
17
100
AcDbEntity
  8
0
100
AcDbLine
 10
69.5163
 20
-37.1093
 30
0.0
 11
68.5163
 21
-37.1093
 31
0.0
  0
LINE
  5
A7
330
17
100
AcDbEntity
  8
0
100
AcDbLine
 10
68.5163
 20
-39.1093
 30
0.0
 11
68.5163
 21
-37.1093
 31
0.0
  0
LINE
  5
A8
330
17
100
AcDbEntity
  8
0
100
AcDbLine
 10
68.5163
 20
-39.1093
 30
0.0
 11
69.5163
 21
-39.1093
 31
0.0
  0
LINE
  5
A9
330
17
100
AcDbEntity
  8
0
100
AcDbLine
 10
69.5163
 20
-39.1093
 30
0.0
 11
69.5163
 21
-37.1093
 31
0.0
  0
LINE
  5
AA
330
17
100
AcDbEntity
  8
0
100
AcDbLine
 10
149.916
 20
-79.1092
 30
0.0
 11
147.916
 21
-79.1092
 31
0.0
  0
LINE
  5
AB
330
17
100
AcDbEntity
  8
0
100
AcDbLine
 10
149.916
 20
-19.1092
 30
0.0
 11
149.916
 21
-79.1092
 31
0.0
  0
LINE
  5
AC
330
17
100
AcDbEntity
  8
0
100
AcDbLine
 10
149.916
 20
-19.1092
 30
0.0
 11
147.916
 21
-19.1092
 31
0.0
  0
LINE
  5
AD
330
17
100
AcDbEntity
  8
0
100
AcDbLine
 10
147.916
 20
-79.1092
 30
0.0
 11
147.916
 21
-19.1092
 31
0.0
  0
LINE
  5
AE
330
17
100
AcDbEntity
  8
0
100
AcDbLine
 10
100.419
 20
-139.109
 30
0.0
 11
100.419
 21
-81.1092
 31
0.0
  0
LINE
  5
AF
330
17
100
AcDbEntity
  8
0
100
AcDbLine
 10
115.716
 20
-139.109
 30
0.0
 11
115.716
 21
-81.1092
 31
0.0
  0
LINE
  5
B0
330
17
100
AcDbEntity
  8
0
100
AcDbLine
 10
198.846
 20
-148.109
 30
0.0
 11
196.846
 21
-148.109
 31
0.0
  0
LINE
  5
B1
330
17
100
AcDbEntity
  8
0
100
AcDbLine
 10
198.846
 20
-118.109
 30
0.0
 11
198.846
 21
-148.109
 31
0.0
  0
LINE
  5
B2
330
17
100
AcDbEntity
  8
0
100
AcDbLine
 10
198.846
 20
-118.109
 30
0.0
 11
196.846
 21
-118.109
 31
0.0
  0
LINE
  5
B3
330
17
100
AcDbEntity
  8
0
100
AcDbLine
 10
196.846
 20
-148.109
 30
0.0
 11
196.846
 21
-118.109
 31
0.0
  0
LINE
  5
B4
330
17
100
AcDbEntity
  8
0
100
AcDbLine
 10
33.6669
 20
-61.1093
 30
0.0
 11
31.6669
 21
-61.1093
 31
0.0
  0
LINE
  5
B5
330
17
100
AcDbEntity
  8
0
100
AcDbLine
 10
31.6669
 20
-81.1093
 30
0.0
 11
31.6669
 21
-81.1093
 31
0.0
  0
LINE
  5
B6
330
17
100
AcDbEntity
  8
0
100
AcDbLine
 10
31.6669
 20
-79.1093
 30
0.0
 11
31.6669
 21
-61.1093
 31
0.0
  0
LINE
  5
B7
330
17
100
AcDbEntity
  8
0
100
AcDbLine
 10
-73.2445
 20
-118.109
 30
0.0
 11
-73.3628
 21
-118.109
 31
0.0
  0
LINE
  5
B8
330
17
100
AcDbEntity
  8
0
100
AcDbLine
 10
-73.2445
 20
-148.109
 30
0.0
 11
-73.3628
 21
-148.109
 31
0.0
  0
LINE
  5
B9
330
17
100
AcDbEntity
  8
0
100
AcDbLine
 10
-73.3628
 20
-148.109
 30
0.0
 11
-73.3628
 21
-118.109
 31
0.0
  0
LINE
  5
BA
330
17
100
AcDbEntity
  8
0
100
AcDbLine
 10
31.617
 20
-118.109
 30
0.0
 11
-73.2445
 21
-118.109
 31
0.0
  0
LINE
  5
BB
330
17
100
AcDbEntity
  8
0
100
AcDbLine
 10
31.617
 20
-148.109
 30
0.0
 11
-73.2445
 21
-148.109
 31
0.0
  0
LINE
  5
BC
330
17
100
AcDbEntity
  8
0
100
AcDbLine
 10
-73.2445
 20
-148.109
 30
0.0
 11
-73.2445
 21
-118.109
 31
0.0
  0
LINE
  5
BD
330
17
100
AcDbEntity
  8
0
100
AcDbLine
 10
87.4541
 20
-110.967
 30
0.0
 11
99.4541
 21
-110.967
 31
0.0
  0
LINE
  5
BE
330
17
100
AcDbEntity
  8
0
100
AcDbLine
 10
87.4541
 20
-110.967
 30
0.0
 11
87.4541
 21
-98.967
 31
0.0
  0
LINE
  5
BF
330
17
100
AcDbEntity
  8
0
100
AcDbLine
 10
87.4541
 20
-98.967
 30
0.0
 11
99.4541
 21
-98.967
 31
0.0
  0
LINE
  5
C0
330
17
100
AcDbEntity
  8
0
100
AcDbLine
 10
99.4541
 20
-110.967
 30
0.0
 11
99.4541
 21
-98.967
 31
0.0
  0
LINE
  5
C1
330
17
100
AcDbEntity
  8
0
100
AcDbLine
 10
93.4541
 20
-96.967
 30
0.0
 11
100.419
 21
-96.967
 31
0.0
  0
LINE
  5
C2
330
17
100
AcDbEntity
  8
0
100
AcDbLine
 10
93.4541
 20
-112.967
 30
0.0
 11
100.419
 21
-112.967
 31
0.0
  0
LINE
  5
C3
330
17
100
AcDbEntity
  8
0
100
AcDbLine
 10
115.716
 20
-139.109
 30
0.0
 11
115.716
 21
-90.1092
 31
0.0
  0
LINE
  5
C4
330
17
100
AcDbEntity
  8
0
100
AcDbLine
 10
196.846
 20
-118.109
 30
0.0
 11
190.016
 21
-118.109
 31
0.0
  0
LINE
  5
C5
330
17
100
AcDbEntity
  8
0
100
AcDbLine
 10
189.516
 20
-118.109
 30
0.0
 11
174.516
 21
-118.109
 31
0.0
  0
LINE
  5
C6
330
17
100
AcDbEntity
  8
0
100
AcDbLine
 10
31.6669
 20
-118.109
 30
0.0
 11
31.617
 21
-118.109
 31
0.0
  0
LINE
  5
C7
330
17
100
AcDbEntity
  8
0
100
AcDbLine
 10
198.769
 20
-148.109
 30
0.0
 11
31.617
 21
-148.109
 31
0.0
  0
LINE
  5
C8
330
17
100
AcDbEntity
  8
0
100
AcDbLine
 10
198.769
 20
-148.109
 30
0.0
 11
198.769
 21
-148.109
 31
0.0
  0
LINE
  5
C9
330
17
100
AcDbEntity
  8
0
100
AcDbLine
 10
72.5163
 20
-139.109
 30
0.0
 11
67.5163
 21
-139.109
 31
0.0
  0
LINE
  5
CA
330
17
100
AcDbEntity
  8
0
100
AcDbLine
 10
72.5163
 20
-79.1093
 30
0.0
 11
72.5163
 21
-139.109
 31
0.0
  0
LINE
  5
CB
330
17
100
AcDbEntity
  8
0
100
AcDbLine
 10
72.5163
 20
-79.1093
 30
0.0
 11
67.5163
 21
-79.1093
 31
0.0
  0
LINE
  5
CC
330
17
100
AcDbEntity
  8
0
100
AcDbLine
 10
67.5163
 20
-139.109
 30
0.0
 11
67.5163
 21
-79.1093
 31
0.0
  0
LINE
  5
CD
330
17
100
AcDbEntity
  8
0
100
AcDbLine
 10
147.916
 20
-19.1092
 30
0.0
 11
147.916
 21
-19.1092
 31
0.0
  0
LINE
  5
CE
330
17
100
AcDbEntity
  8
0
100
AcDbLine
 10
169.916
 20
-19.1092
 30
0.0
 11
149.916
 21
-19.1092
 31
0.0
  0
LINE
  5
CF
330
17
100
AcDbEntity
  8
0
100
AcDbLine
 10
81.5357
 20
-139.109
 30
0.0
 11
81.5357
 21
-81.1092
 31
0.0
  0
LINE
  5
D0
330
17
100
AcDbEntity
  8
0
100
AcDbLine
 10
72.5163
 20
-139.109
 30
0.0
 11
72.5163
 21
-81.1092
 31
0.0
  0
LINE
  5
D1
330
17
100
AcDbEntity
  8
0
100
AcDbLine
 10
100.419
 20
-83.1092
 30
0.0
 11
81.5357
 21
-83.1092
 31
0.0
  0
LINE
  5
D2
330
17
100
AcDbEntity
  8
0
100
AcDbLine
 10
129.916
 20
-19.1092
 30
0.0
 11
127.916
 21
-19.1092
 31
0.0
  0
LINE
  5
D3
330
17
100
AcDbEntity
  8
0
100
AcDbLine
 10
127.916
 20
-79.1092
 30
0.0
 11
127.916
 21
-19.1092
 31
0.0
  0
LINE
  5
D4
330
17
100
AcDbEntity
  8
0
100
AcDbLine
 10
129.916
 20
-79.1092
 30
0.0
 11
127.916
 21
-79.1092
 31
0.0
  0
LINE
  5
D5
330
17
100
AcDbEntity
  8
0
100
AcDbLine
 10
129.916
 20
-19.1092
 30
0.0
 11
129.916
 21
-79.1092
 31
0.0
  0
LINE
  5
D6
330
17
100
AcDbEntity
  8
0
100
AcDbLine
 10
174.516
 20
-19.1092
 30
0.0
 11
169.916
 21
-19.1092
 31
0.0
  0
LINE
  5
D7
330
17
100
AcDbEntity
  8
0
100
AcDbLine
 10
169.916
 20
-37.1092
 30
0.0
 11
169.916
 21
-19.1092
 31
0.0
  0
LINE
  5
D8
330
17
100
AcDbEntity
  8
0
100
AcDbLine
 10
169.916
 20
-37.1092
 30
0.0
 11
174.516
 21
-37.1092
 31
0.0
  0
LINE
  5
D9
330
17
100
AcDbEntity
  8
0
100
AcDbLine
 10
174.516
 20
-19.1092
 30
0.0
 11
174.516
 21
-37.1092
 31
0.0
  0
LINE
  5
DA
330
17
100
AcDbEntity
  8
0
100
AcDbLine
 10
169.916
 20
-37.1092
 30
0.0
 11
169.916
 21
-79.1092
 31
0.0
  0
LINE
  5
DB
330
17
100
AcDbEntity
  8
0
100
AcDbLine
 10
174.516
 20
-17.1092
 30
0.0
 11
172.516
 21
-17.1092
 31
0.0
  0
LINE
  5
DC
330
17
100
AcDbEntity
  8
0
100
AcDbLine
 10
174.516
 20
-1.10924
 30
0.0
 11
174.516
 21
-17.1092
 31
0.0
  0
LINE
  5
DD
330
17
100
AcDbEntity
  8
0
100
AcDbLine
 10
174.516
 20
-1.10924
 30
0.0
 11
172.516
 21
-1.10924
 31
0.0
  0
LINE
  5
DE
330
17
100
AcDbEntity
  8
0
100
AcDbLine
 10
172.516
 20
-17.1092
 30
0.0
 11
172.516
 21
-1.10924
 31
0.0
  0
LINE
  5
DF
330
17
100
AcDbEntity
  8
0
100
AcDbLine
 10
69.5163
 20
-17.1093
 30
0.0
 11
67.5163
 21
-17.1093
 31
0.0
  0
LINE
  5
E0
330
17
100
AcDbEntity
  8
0
100
AcDbLine
 10
69.5163
 20
-1.10925
 30
0.0
 11
69.5163
 21
-17.1093
 31
0.0
  0
LINE
  5
E1
330
17
100
AcDbEntity
  8
0
100
AcDbLine
 10
69.5163
 20
-1.10925
 30
0.0
 11
67.5163
 21
-1.10925
 31
0.0
  0
LINE
  5
E2
330
17
100
AcDbEntity
  8
0
100
AcDbLine
 10
67.5163
 20
-17.1093
 30
0.0
 11
67.5163
 21
-1.10925
 31
0.0
  0
LINE
  5
E3
330
17
100
AcDbEntity
  8
0
100
AcDbLine
 10
69.5163
 20
-1.10925
 30
0.0
 11
69.5163
 21
-1.10925
 31
0.0
  0
LINE
  5
E4
330
17
100
AcDbEntity
  8
0
100
AcDbLine
 10
172.516
 20
-1.10925
 30
0.0
 11
69.5163
 21
-1.10925
 31
0.0
  0
LINE
  5
E5
330
17
100
AcDbEntity
  8
0
100
AcDbLine
 10
69.5163
 20
-17.1092
 30
0.0
 11
69.5163
 21
-1.10925
 31
0.0
  0
LINE
  5
E6
330
17
100
AcDbEntity
  8
0
100
AcDbLine
 10
174.516
 20
-1.10925
 30
0.0
 11
174.516
 21
-1.10925
 31
0.0
  0
LINE
  5
E7
330
17
100
AcDbEntity
  8
0
100
AcDbLine
 10
174.516
 20
-17.1092
 30
0.0
 11
174.516
 21
-17.1092
 31
0.0
  0
LINE
  5
E8
330
17
100
AcDbEntity
  8
0
100
AcDbLine
 10
174.516
 20
-17.1092
 30
0.0
 11
174.516
 21
-1.10925
 31
0.0
  0
LINE
  5
E9
330
17
100
AcDbEntity
  8
0
100
AcDbLine
 10
174.516
 20
-139.109
 30
0.0
 11
174.516
 21
-139.109
 31
0.0
  0
LINE
  5
EA
330
17
100
AcDbEntity
  8
0
100
AcDbLine
 10
174.516
 20
-139.109
 30
0.0
 11
174.516
 21
-97.1092
 31
0.0
  0
LINE
  5
EB
330
17
100
AcDbEntity
  8
0
100
AcDbLine
 10
174.516
 20
-95.1092
 30
0.0
 11
174.516
 21
-89.988
 31
0.0
  0
LINE
  5
EC
330
17
100
AcDbEntity
  8
0
100
AcDbLine
 10
85.4541
 20
-96.967
 30
0.0
 11
85.4541
 21
-112.967
 31
0.0
  0
LINE
  5
ED
330
17
100
AcDbEntity
  8
0
100
AcDbLine
 10
93.4541
 20
-96.967
 30
0.0
 11
85.4541
 21
-96.967
 31
0.0
  0
LINE
  5
EE
330
17
100
AcDbEntity
  8
0
100
AcDbLine
 10
85.4541
 20
-112.967
 30
0.0
 11
93.4541
 21
-112.967
 31
0.0
  0
LINE
  5
EF
330
17
100
AcDbEntity
  8
0
100
AcDbLine
 10
35.2669
 20
-81.1093
 30
0.0
 11
31.6669
 21
-81.1093
 31
0.0
  0
LINE
  5
F0
330
17
100
AcDbEntity
  8
0
100
AcDbLine
 10
31.6669
 20
-139.109
 30
0.0
 11
31.6669
 21
-81.1093
 31
0.0
  0
LINE
  5
F1
330
17
100
AcDbEntity
  8
0
100
AcDbLine
 10
35.2669
 20
-139.109
 30
0.0
 11
31.6669
 21
-139.109
 31
0.0
  0
LINE
  5
F2
330
17
100
AcDbEntity
  8
0
100
AcDbLine
 10
35.2669
 20
-81.1093
 30
0.0
 11
35.2669
 21
-139.109
 31
0.0
  0
LINE
  5
F3
330
17
100
AcDbEntity
  8
0
100
AcDbLine
 10
35.2669
 20
-97.1093
 30
0.0
 11
35.2669
 21
-97.1093
 31
0.0
  0
LINE
  5
F4
330
17
100
AcDbEntity
  8
0
100
AcDbLine
 10
70.9664
 20
-148.109
 30
0.0
 11
70.9664
 21
-148.109
 31
0.0
  0
LINE
  5
F5
330
17
100
AcDbEntity
  8
0
100
AcDbLine
 10
68.9955
 20
-148.109
 30
0.0
 11
68.9955
 21
-148.109
 31
0.0
  0
LINE
  5
F6
330
17
100
AcDbEntity
  8
0
100
AcDbLine
 10
69.0809
 20
-148.109
 30
0.0
 11
69.0809
 21
-148.109
 31
0.0
  0
LINE
  5
F7
330
17
100
AcDbEntity
  8
0
100
AcDbLine
 10
69.2179
 20
-148.109
 30
0.0
 11
69.2179
 21
-148.109
 31
0.0
  0
LINE
  5
F8
330
17
100
AcDbEntity
  8
0
100
AcDbLine
 10
69.3983
 20
-148.109
 30
0.0
 11
69.3983
 21
-148.109
 31
0.0
  0
LINE
  5
F9
330
17
100
AcDbEntity
  8
0
100
AcDbLine
 10
69.6118
 20
-148.109
 30
0.0
 11
69.6118
 21
-148.109
 31
0.0
  0
LINE
  5
FA
330
17
100
AcDbEntity
  8
0
100
AcDbLine
 10
69.8459
 20
-148.109
 30
0.0
 11
69.8459
 21
-148.109
 31
0.0
  0
LINE
  5
FB
330
17
100
AcDbEntity
  8
0
100
AcDbLine
 10
70.0869
 20
-148.109
 30
0.0
 11
70.0869
 21
-148.109
 31
0.0
  0
LINE
  5
FC
330
17
100
AcDbEntity
  8
0
100
AcDbLine
 10
70.321
 20
-148.109
 30
0.0
 11
70.321
 21
-148.109
 31
0.0
  0
LINE
  5
FD
330
17
100
AcDbEntity
  8
0
100
AcDbLine
 10
70.5345
 20
-148.109
 30
0.0
 11
70.5345
 21
-148.109
 31
0.0
  0
LINE
  5
FE
330
17
100
AcDbEntity
  8
0
100
AcDbLine
 10
70.7149
 20
-148.109
 30
0.0
 11
70.7149
 21
-148.109
 31
0.0
  0
LINE
  5
FF
330
17
100
AcDbEntity
  8
0
100
AcDbLine
 10
70.8519
 20
-148.109
 30
0.0
 11
70.8519
 21
-148.109
 31
0.0
  0
LINE
  5
100
330
17
100
AcDbEntity
  8
0
100
AcDbLine
 10
70.9373
 20
-148.109
 30
0.0
 11
70.9373
 21
-148.109
 31
0.0
  0
LINE
  5
101
330
17
100
AcDbEntity
  8
0
100
AcDbLine
 10
70.9373
 20
-148.109
 30
0.0
 11
70.9664
 21
-148.109
 31
0.0
  0
LINE
  5
102
330
17
100
AcDbEntity
  8
0
100
AcDbLine
 10
70.8519
 20
-148.109
 30
0.0
 11
70.9373
 21
-148.109
 31
0.0
  0
LINE
  5
103
330
17
100
AcDbEntity
  8
0
100
AcDbLine
 10
70.7149
 20
-148.109
 30
0.0
 11
70.8519
 21
-148.109
 31
0.0
  0
LINE
  5
104
330
17
100
AcDbEntity
  8
0
100
AcDbLine
 10
70.5345
 20
-148.109
 30
0.0
 11
70.7149
 21
-148.109
 31
0.0
  0
LINE
  5
105
330
17
100
AcDbEntity
  8
0
100
AcDbLine
 10
70.321
 20
-148.109
 30
0.0
 11
70.5345
 21
-148.109
 31
0.0
  0
LINE
  5
106
330
17
100
AcDbEntity
  8
0
100
AcDbLine
 10
70.0869
 20
-148.109
 30
0.0
 11
70.321
 21
-148.109
 31
0.0
  0
LINE
  5
107
330
17
100
AcDbEntity
  8
0
100
AcDbLine
 10
69.8459
 20
-148.109
 30
0.0
 11
70.0869
 21
-148.109
 31
0.0
  0
LINE
  5
108
330
17
100
AcDbEntity
  8
0
100
AcDbLine
 10
69.6118
 20
-148.109
 30
0.0
 11
69.8459
 21
-148.109
 31
0.0
  0
LINE
  5
109
330
17
100
AcDbEntity
  8
0
100
AcDbLine
 10
69.3983
 20
-148.109
 30
0.0
 11
69.6118
 21
-148.109
 31
0.0
  0
LINE
  5
10A
330
17
100
AcDbEntity
  8
0
100
AcDbLine
 10
69.2179
 20
-148.109
 30
0.0
 11
69.3983
 21
-148.109
 31
0.0
  0
LINE
  5
10B
330
17
100
AcDbEntity
  8
0
100
AcDbLine
 10
69.0809
 20
-148.109
 30
0.0
 11
69.2179
 21
-148.109
 31
0.0
  0
LINE
  5
10C
330
17
100
AcDbEntity
  8
0
100
AcDbLine
 10
68.9955
 20
-148.109
 30
0.0
 11
69.0809
 21
-148.109
 31
0.0
  0
LINE
  5
10D
330
17
100
AcDbEntity
  8
0
100
AcDbLine
 10
68.9664
 20
-148.109
 30
0.0
 11
68.9955
 21
-148.109
 31
0.0
  0
LINE
  5
10E
330
17
100
AcDbEntity
  8
0
100
AcDbLine
 10
68.9664
 20
-148.109
 30
0.0
 11
68.9664
 21
-148.109
 31
0.0
  0
LINE
  5
10F
330
17
100
AcDbEntity
  8
0
100
AcDbLine
 10
74.5353
 20
-148.109
 30
0.0
 11
74.5353
 21
-148.109
 31
0.0
  0
LINE
  5
110
330
17
100
AcDbEntity
  8
0
100
AcDbLine
 10
73.5733
 20
-148.109
 30
0.0
 11
73.5733
 21
-148.109
 31
0.0
  0
LINE
  5
111
330
17
100
AcDbEntity
  8
0
100
AcDbLine
 10
73.6817
 20
-148.109
 30
0.0
 11
73.6817
 21
-148.109
 31
0.0
  0
LINE
  5
112
330
17
100
AcDbEntity
  8
0
100
AcDbLine
 10
73.8439
 20
-148.109
 30
0.0
 11
73.8439
 21
-148.109
 31
0.0
  0
LINE
  5
113
330
17
100
AcDbEntity
  8
0
100
AcDbLine
 10
74.0353
 20
-148.109
 30
0.0
 11
74.0353
 21
-148.109
 31
0.0
  0
LINE
  5
114
330
17
100
AcDbEntity
  8
0
100
AcDbLine
 10
74.2266
 20
-148.109
 30
0.0
 11
74.2266
 21
-148.109
 31
0.0
  0
LINE
  5
115
330
17
100
AcDbEntity
  8
0
100
AcDbLine
 10
74.3888
 20
-148.109
 30
0.0
 11
74.3888
 21
-148.109
 31
0.0
  0
LINE
  5
116
330
17
100
AcDbEntity
  8
0
100
AcDbLine
 10
74.4972
 20
-148.109
 30
0.0
 11
74.4972
 21
-148.109
 31
0.0
  0
LINE
  5
117
330
17
100
AcDbEntity
  8
0
100
AcDbLine
 10
74.4972
 20
-148.109
 30
0.0
 11
74.5353
 21
-148.109
 31
0.0
  0
LINE
  5
118
330
17
100
AcDbEntity
  8
0
100
AcDbLine
 10
74.3888
 20
-148.109
 30
0.0
 11
74.4972
 21
-148.109
 31
0.0
  0
LINE
  5
119
330
17
100
AcDbEntity
  8
0
100
AcDbLine
 10
74.2266
 20
-148.109
 30
0.0
 11
74.3888
 21
-148.109
 31
0.0
  0
LINE
  5
11A
330
17
100
AcDbEntity
  8
0
100
AcDbLine
 10
74.0353
 20
-148.109
 30
0.0
 11
74.2266
 21
-148.109
 31
0.0
  0
LINE
  5
11B
330
17
100
AcDbEntity
  8
0
100
AcDbLine
 10
73.8439
 20
-148.109
 30
0.0
 11
74.0353
 21
-148.109
 31
0.0
  0
LINE
  5
11C
330
17
100
AcDbEntity
  8
0
100
AcDbLine
 10
73.6817
 20
-148.109
 30
0.0
 11
73.8439
 21
-148.109
 31
0.0
  0
LINE
  5
11D
330
17
100
AcDbEntity
  8
0
100
AcDbLine
 10
73.5733
 20
-148.109
 30
0.0
 11
73.6817
 21
-148.109
 31
0.0
  0
LINE
  5
11E
330
17
100
AcDbEntity
  8
0
100
AcDbLine
 10
73.5353
 20
-148.109
 30
0.0
 11
73.5733
 21
-148.109
 31
0.0
  0
LINE
  5
11F
330
17
100
AcDbEntity
  8
0
100
AcDbLine
 10
73.5353
 20
-148.109
 30
0.0
 11
73.5353
 21
-148.109
 31
0.0
  0
LINE
  5
120
330
17
100
AcDbEntity
  8
0
100
AcDbLine
 10
112.211
 20
-79.1092
 30
0.0
 11
112.211
 21
-28.1093
 31
0.0
  0
LINE
  5
121
330
17
100
AcDbEntity
  8
0
100
AcDbLine
 10
114.211
 20
-79.1092
 30
0.0
 11
114.211
 21
-28.1093
 31
0.0
  0
LINE
  5
122
330
17
100
AcDbEntity
  8
0
100
AcDbLine
 10
114.211
 20
-28.1093
 30
0.0
 11
112.211
 21
-28.1093
 31
0.0
  0
LINE
  5
123
330
17
100
AcDbEntity
  8
0
100
AcDbLine
 10
129.241
 20
-81.1092
 30
0.0
 11
129.241
 21
-82.1092
 31
0.0
  0
LINE
  5
124
330
17
100
AcDbEntity
  8
0
100
AcDbLine
 10
129.241
 20
-87.7209
 30
0.0
 11
129.241
 21
-88.1092
 31
0.0
  0
LINE
  5
125
330
17
100
AcDbEntity
  8
0
100
AcDbLine
 10
129.241
 20
-88.1092
 30
0.0
 11
129.241
 21
-88.1092
 31
0.0
  0
LINE
  5
126
330
17
100
AcDbEntity
  8
0
100
AcDbLine
 10
129.241
 20
-88.1092
 30
0.0
 11
115.716
 21
-88.1093
 31
0.0
  0
LINE
  5
127
330
17
100
AcDbEntity
  8
0
100
AcDbLine
 10
189.516
 20
-89.9879
 30
0.0
 11
174.516
 21
-89.988
 31
0.0
  0
LINE
  5
128
330
17
100
AcDbEntity
  8
0
100
AcDbLine
 10
174.516
 20
-85.1092
 30
0.0
 11
189.516
 21
-85.1092
 31
0.0
  0
LINE
  5
129
330
17
100
AcDbEntity
  8
0
100
AcDbLine
 10
174.516
 20
-80.1092
 30
0.0
 11
189.516
 21
-80.1092
 31
0.0
  0
LINE
  5
12A
330
17
100
AcDbEntity
  8
0
100
AcDbLine
 10
174.516
 20
-80.1092
 30
0.0
 11
189.516
 21
-80.1092
 31
0.0
  0
LINE
  5
12B
330
17
100
AcDbEntity
  8
0
100
AcDbLine
 10
174.516
 20
-89.988
 30
0.0
 11
174.516
 21
-80.1092
 31
0.0
  0
LINE
  5
12C
330
17
100
AcDbEntity
  8
0
100
AcDbLine
 10
189.516
 20
-87.6573
 30
0.0
 11
189.516
 21
-89.9879
 31
0.0
  0
LINE
  5
12D
330
17
100
AcDbEntity
  8
0
100
AcDbLine
 10
189.516
 20
-80.1092
 30
0.0
 11
189.516
 21
-80.1092
 31
0.0
  0
LINE
  5
12E
330
17
100
AcDbEntity
  8
0
100
AcDbLine
 10
189.516
 20
-80.1092
 30
0.0
 11
189.516
 21
-89.9879
 31
0.0
  0
LINE
  5
12F
330
17
100
AcDbEntity
  8
0
100
AcDbLine
 10
149.835
 20
-81.1092
 30
0.0
 11
149.835
 21
-82.1092
 31
0.0
  0
LINE
  5
130
330
17
100
AcDbEntity
  8
0
100
AcDbLine
 10
149.835
 20
-87.7601
 30
0.0
 11
149.835
 21
-88.1092
 31
0.0
  0
LINE
  5
131
330
17
100
AcDbEntity
  8
0
100
AcDbLine
 10
169.835
 20
-81.1092
 30
0.0
 11
169.835
 21
-88.1092
 31
0.0
  0
LINE
  5
132
330
17
100
AcDbEntity
  8
0
100
AcDbLine
 10
150.011
 20
-87.1092
 30
0.0
 11
129.211
 21
-87.1092
 31
0.0
  0
LINE
  5
133
330
17
100
AcDbEntity
  8
0
100
AcDbLine
 10
150.011
 20
-82.1092
 30
0.0
 11
129.211
 21
-82.1092
 31
0.0
  0
LINE
  5
134
330
17
100
AcDbEntity
  8
0
100
AcDbLine
 10
150.011
 20
-90.1092
 30
0.0
 11
150.011
 21
-90.1092
 31
0.0
  0
LINE
  5
135
330
17
100
AcDbEntity
  8
0
100
AcDbLine
 10
150.011
 20
-87.7601
 30
0.0
 11
150.011
 21
-87.1092
 31
0.0
  0
LINE
  5
136
330
17
100
AcDbEntity
  8
0
100
AcDbLine
 10
150.011
 20
-87.1092
 30
0.0
 11
150.011
 21
-82.1092
 31
0.0
  0
LINE
  5
137
330
17
100
AcDbEntity
  8
0
100
AcDbLine
 10
129.211
 20
-82.1092
 30
0.0
 11
129.211
 21
-82.1092
 31
0.0
  0
LINE
  5
138
330
17
100
AcDbEntity
  8
0
100
AcDbLine
 10
129.211
 20
-82.1092
 30
0.0
 11
129.211
 21
-87.1092
 31
0.0
  0
LINE
  5
139
330
17
100
AcDbEntity
  8
0
100
AcDbLine
 10
129.211
 20
-87.1092
 30
0.0
 11
129.211
 21
-87.1092
 31
0.0
  0
LINE
  5
13A
330
17
100
AcDbEntity
  8
0
100
AcDbLine
 10
129.211
 20
-87.1092
 30
0.0
 11
129.211
 21
-87.7209
 31
0.0
  0
LINE
  5
13B
330
17
100
AcDbEntity
  8
0
100
AcDbLine
 10
129.211
 20
-90.1092
 30
0.0
 11
129.211
 21
-90.1092
 31
0.0
  0
LINE
  5
13C
330
17
100
AcDbEntity
  8
0
100
AcDbLine
 10
129.211
 20
-90.1092
 30
0.0
 11
129.211
 21
-90.1092
 31
0.0
  0
LINE
  5
13D
330
17
100
AcDbEntity
  8
0
100
AcDbLine
 10
67.5163
 20
-79.1092
 30
0.0
 11
67.5163
 21
-37.1093
 31
0.0
  0
LINE
  5
13E
330
17
100
AcDbEntity
  8
0
100
AcDbLine
 10
67.5163
 20
-19.1093
 30
0.0
 11
67.5163
 21
-19.1092
 31
0.0
  0
LINE
  5
13F
330
17
100
AcDbEntity
  8
0
100
AcDbLine
 10
67.5163
 20
-19.1092
 30
0.0
 11
67.5163
 21
-19.1092
 31
0.0
  0
LINE
  5
140
330
17
100
AcDbEntity
  8
0
100
AcDbLine
 10
72.1163
 20
-19.1093
 30
0.0
 11
72.1163
 21
-19.1092
 31
0.0
  0
LINE
  5
141
330
17
100
AcDbEntity
  8
0
100
AcDbLine
 10
69.5163
 20
-19.1093
 30
0.0
 11
67.5163
 21
-19.1093
 31
0.0
  0
LINE
  5
142
330
17
100
AcDbEntity
  8
0
100
AcDbLine
 10
67.5163
 20
-37.1093
 30
0.0
 11
67.5163
 21
-19.1093
 31
0.0
  0
LINE
  5
143
330
17
100
AcDbEntity
  8
0
100
AcDbLine
 10
67.5163
 20
-37.1093
 30
0.0
 11
69.5163
 21
-37.1093
 31
0.0
  0
LINE
  5
144
330
17
100
AcDbEntity
  8
0
100
AcDbLine
 10
69.5163
 20
-19.1093
 30
0.0
 11
69.5163
 21
-37.1093
 31
0.0
  0
LINE
  5
145
330
17
100
AcDbEntity
  8
0
100
AcDbLine
 10
67.5163
 20
-37.1093
 30
0.0
 11
67.5163
 21
-79.1093
 31
0.0
  0
LINE
  5
146
330
17
100
AcDbEntity
  8
0
100
AcDbLine
 10
69.5163
 20
-37.1093
 30
0.0
 11
69.5163
 21
-37.1093
 31
0.0
  0
LINE
  5
147
330
17
100
AcDbEntity
  8
0
100
AcDbLine
 10
69.5163
 20
-79.1093
 30
0.0
 11
69.5163
 21
-37.1093
 31
0.0
  0
LINE
  5
148
330
17
100
AcDbEntity
  8
0
100
AcDbLine
 10
174.516
 20
-119.109
 30
0.0
 11
174.516
 21
-119.109
 31
0.0
  0
LINE
  5
149
330
17
100
AcDbEntity
  8
0
100
AcDbLine
 10
174.516
 20
-93.1092
 30
0.0
 11
174.516
 21
-93.1092
 31
0.0
  0
LINE
  5
14A
330
17
100
AcDbEntity
  8
0
100
AcDbLine
 10
174.516
 20
-119.109
 30
0.0
 11
174.516
 21
-97.1092
 31
0.0
  0
LINE
  5
14B
330
17
100
AcDbEntity
  8
0
100
AcDbLine
 10
174.516
 20
-95.1092
 30
0.0
 11
174.516
 21
-93.1092
 31
0.0
  0
LINE
  5
14C
330
17
100
AcDbEntity
  8
0
100
AcDbLine
 10
174.516
 20
-79.1092
 30
0.0
 11
169.916
 21
-79.1092
 31
0.0
  0
LINE
  5
14D
330
17
100
AcDbEntity
  8
0
100
AcDbLine
 10
169.916
 20
-139.109
 30
0.0
 11
169.916
 21
-79.1092
 31
0.0
  0
LINE
  5
14E
330
17
100
AcDbEntity
  8
0
100
AcDbLine
 10
174.516
 20
-139.109
 30
0.0
 11
169.916
 21
-139.109
 31
0.0
  0
LINE
  5
14F
330
17
100
AcDbEntity
  8
0
100
AcDbLine
 10
174.516
 20
-79.1092
 30
0.0
 11
174.516
 21
-139.109
 31
0.0
  0
LINE
  5
150
330
17
100
AcDbEntity
  8
0
100
AcDbLine
 10
127.916
 20
-19.1092
 30
0.0
 11
69.5163
 21
-19.1093
 31
0.0
  0
LINE
  5
151
330
17
100
AcDbEntity
  8
0
100
AcDbLine
 10
93.8149
 20
-37.1093
 30
0.0
 11
93.8149
 21
-79.1093
 31
0.0
  0
LINE
  5
152
330
17
100
AcDbEntity
  8
0
100
AcDbLine
 10
111.815
 20
-37.1093
 30
0.0
 11
93.8149
 21
-37.1093
 31
0.0
  0
LINE
  5
153
330
17
100
AcDbEntity
  8
0
100
AcDbLine
 10
111.815
 20
-79.1092
 30
0.0
 11
111.815
 21
-37.1093
 31
0.0
  0
LINE
  5
154
330
17
100
AcDbEntity
  8
0
100
AcDbLine
 10
129.916
 20
-19.1093
 30
0.0
 11
129.916
 21
-19.1093
 31
0.0
  0
LINE
  5
155
330
17
100
AcDbEntity
  8
0
100
AcDbLine
 10
129.916
 20
-79.1092
 30
0.0
 11
129.916
 21
-19.1093
 31
0.0
  0
LINE
  5
156
330
17
100
AcDbEntity
  8
0
100
AcDbLine
 10
56.780128479003906
 20
-131.1092517335536
 30
0.0
 11
53.53536605834961
 21
-131.1092517335536
 31
0.0
  0
LINE
  5
157
330
17
100
AcDbEntity
  8
0
100
AcDbLine
 10
56.780128479003906
 20
-130.10925268722792
 30
0.0
 11
53.53536605834961
 21
-130.10925268722792
 31
0.0
  0
LINE
  5
158
330
17
100
AcDbEntity
  8
0
100
AcDbLine
 10
53.53536605834961
 20
-130.10925268722792
 30
0.0
 11
53.53536605834961
 21
-130.37965273453017
 31
0.0
  0
LINE
  5
159
330
17
100
AcDbEntity
  8
0
100
AcDbLine
 10
53.53536605834961
 20
-131.1092517335536
 30
0.0
 11
53.53536605834961
 21
-130.37965273453017
 31
0.0
  0
LINE
  5
15A
330
17
100
AcDbEntity
  8
0
100
AcDbLine
 10
65.53536415100098
 20
-131.1092517335536
 30
0.0
 11
56.780128479003906
 21
-131.1092517335536
 31
0.0
  0
LINE
  5
15B
330
17
100
AcDbEntity
  8
0
100
AcDbLine
 10
65.53536415100098
 20
-130.10925268722792
 30
0.0
 11
56.780128479003906
 21
-130.10925268722792
 31
0.0
  0
LINE
  5
15C
330
17
100
AcDbEntity
  8
0
100
AcDbLine
 10
65.53536415100098
 20
-130.10925268722792
 30
0.0
 11
65.53536415100098
 21
-130.83885645462294
 31
0.0
  0
LINE
  5
15D
330
17
100
AcDbEntity
  8
0
100
AcDbLine
 10
65.53536415100098
 20
-131.1092517335536
 30
0.0
 11
65.53536415100098
 21
-130.83885645462294
 31
0.0
  0
LWPOLYLINE
  5
15E
330
17
100
AcDbEntity
  8
0
100
AcDbPolyline
 90
20
 70
1
 10
174.51632976531982
 20
-88.75822162224075
 10
174.51632976531982
 20
-89.98795604301712
 10
176.04093074798584
 20
-89.98795604301712
 10
189.51632976531982
 20
-89.98795067859909
 10
189.51632976531982
 20
-88.7582210261943
 10
189.51632976531982
 20
-88.52839505268356
 10
189.51632976531982
 20
-88.1929305751445
 10
189.51632976531982
 20
-87.65722310138962
 10
189.51632976531982
 20
-86.66575944019577
 10
189.51632976531982
 20
-84.20629983736298
 10
189.51632976531982
 20
-80.59453031016609
 10
189.51632976531982
 20
-80.10923882914803
 10
175.06259441375732
 20
-80.10923969062141
 10
174.51632976531982
 20
-80.1092397232177
 10
174.51632976531982
 20
-80.59452643586418
 10
174.51632976531982
 20
-84.20629596306107
 10
174.51632976531982
 20
-86.66576003624222
 10
174.51632976531982
 20
-87.65722846580765
 10
174.51632976531982
 20
-88.19293117119095
 10
174.51632976531982
 20
-88.5284004171016
  0
LINE
  5
15F
330
17
100
AcDbEntity
  8
0
100
AcDbLine
 10
173.4163236618042
 20
-36.90557455612442
 30
0.0
 11
173.4163236618042
 21
-37.60924315048477
 31
0.0
  0
LINE
  5
160
330
17
100
AcDbEntity
  8
0
100
AcDbLine
 10
173.51632595062256
 20
-37.60924315048477
 30
0.0
 11
173.51632595062256
 21
-36.90557455612442
 31
0.0
  0
LINE
  5
161
330
17
100
AcDbEntity
  8
0
100
AcDbLine
 10
173.51632595062256
 20
-37.60924315048477
 30
0.0
 11
173.49040508270264
 21
-37.60924315048477
 31
0.0
  0
LINE
  5
162
330
17
100
AcDbEntity
  8
0
100
AcDbLine
 10
173.4163236618042
 20
-37.60924315048477
 30
0.0
 11
173.49040508270264
 21
-37.60924315048477
 31
0.0
  0
LINE
  5
163
330
17
100
AcDbEntity
  8
0
100
AcDbLine
 10
173.4163236618042
 20
-36.60924887253067
 30
0.0
 11
173.4163236618042
 21
-36.90557455612442
 31
0.0
  0
LINE
  5
164
330
17
100
AcDbEntity
  8
0
100
AcDbLine
 10
173.51632595062256
 20
-36.60924887253067
 30
0.0
 11
173.51632595062256
 21
-36.90557455612442
 31
0.0
  0
LINE
  5
165
330
17
100
AcDbEntity
  8
0
100
AcDbLine
 10
173.51632595062256
 20
-36.60924887253067
 30
0.0
 11
173.44455242156982
 21
-36.60924887253067
 31
0.0
  0
LINE
  5
166
330
17
100
AcDbEntity
  8
0
100
AcDbLine
 10
173.4163236618042
 20
-36.60924887253067
 30
0.0
 11
173.44455242156982
 21
-36.60924887253067
 31
0.0
  0
LINE
  5
167
330
17
100
AcDbEntity
  8
0
100
AcDbLine
 10
174.51632976531982
 20
-37.76874517990372
 30
0.0
 11
174.51632976531982
 21
-38.109245057833405
 31
0.0
  0
LINE
  5
168
330
17
100
AcDbEntity
  8
0
100
AcDbLine
 10
174.61633205413818
 20
-37.76874517990372
 30
0.0
 11
174.61633205413818
 21
-38.109245057833405
 31
0.0
  0
LINE
  5
169
330
17
100
AcDbEntity
  8
0
100
AcDbLine
 10
174.61633205413818
 20
-38.109245057833405
 30
0.0
 11
174.59174633026123
 21
-38.109245057833405
 31
0.0
  0
LINE
  5
16A
330
17
100
AcDbEntity
  8
0
100
AcDbLine
 10
174.51632976531982
 20
-38.109245057833405
 30
0.0
 11
174.59174633026123
 21
-38.109245057833405
 31
0.0
  0
LINE
  5
16B
330
17
100
AcDbEntity
  8
0
100
AcDbLine
 10
174.51632976531982
 20
-36.60924887253067
 30
0.0
 11
174.51632976531982
 21
-37.76874517990372
 31
0.0
  0
LINE
  5
16C
330
17
100
AcDbEntity
  8
0
100
AcDbLine
 10
174.61633205413818
 20
-37.76874517990372
 30
0.0
 11
174.61633205413818
 21
-36.60924887253067
 31
0.0
  0
LINE
  5
16D
330
17
100
AcDbEntity
  8
0
100
AcDbLine
 10
174.61633205413818
 20
-36.60924887253067
 30
0.0
 11
174.54455852508545
 21
-36.60924887253067
 31
0.0
  0
LINE
  5
16E
330
17
100
AcDbEntity
  8
0
100
AcDbLine
 10
174.51632976531982
 20
-36.60924887253067
 30
0.0
 11
174.54455852508545
 21
-36.60924887253067
 31
0.0
  0
LINE
  5
16F
330
17
100
AcDbEntity
  8
0
100
AcDbLine
 10
172.5163221359253
 20
-78.60924368692658
 30
0.0
 11
174.0245008468628
 21
-78.60924353791496
 31
0.0
  0
LINE
  5
170
330
17
100
AcDbEntity
  8
0
100
AcDbLine
 10
172.5163221359253
 20
-79.10924559427521
 30
0.0
 11
174.0245008468628
 21
-79.1092454452636
 31
0.0
  0
LINE
  5
171
330
17
100
AcDbEntity
  8
0
100
AcDbLine
 10
172.5163221359253
 20
-79.10924559427521
 30
0.0
 11
172.5163221359253
 21
-78.98628836466095
 31
0.0
  0
LINE
  5
172
330
17
100
AcDbEntity
  8
0
100
AcDbLine
 10
172.5163221359253
 20
-78.60924368692658
 30
0.0
 11
172.5163221359253
 21
-78.98628836466095
 31
0.0
  0
LINE
  5
173
330
17
100
AcDbEntity
  8
0
100
AcDbLine
 10
174.0245008468628
 20
-78.60924353791496
 30
0.0
 11
174.51632976531982
 21
-78.60924353791496
 31
0.0
  0
LINE
  5
174
330
17
100
AcDbEntity
  8
0
100
AcDbLine
 10
174.51632976531982
 20
-79.1092454452636
 30
0.0
 11
174.0245008468628
 21
-79.1092454452636
 31
0.0
  0
LINE
  5
175
330
17
100
AcDbEntity
  8
0
100
AcDbLine
 10
174.51632976531982
 20
-79.1092454452636
 30
0.0
 11
174.51632976531982
 21
-78.7322055359008
 31
0.0
  0
LINE
  5
176
330
17
100
AcDbEntity
  8
0
100
AcDbLine
 10
174.51632976531982
 20
-78.60924353791496
 30
0.0
 11
174.51632976531982
 21
-78.7322055359008
 31
0.0
  0
LINE
  5
177
330
17
100
AcDbEntity
  8
0
100
AcDbLine
 10
173.31634044647217
 20
-37.60924315048477
 30
0.0
 11
173.83483409881592
 21
-37.60924315048477
 31
0.0
  0
LINE
  5
178
330
17
100
AcDbEntity
  8
0
100
AcDbLine
 10
173.31634044647217
 20
-78.60924353791496
 30
0.0
 11
173.83483409881592
 21
-78.60924353791496
 31
0.0
  0
LINE
  5
179
330
17
100
AcDbEntity
  8
0
100
AcDbLine
 10
173.31634044647217
 20
-78.60924353791496
 30
0.0
 11
173.31634044647217
 21
-67.97833537651321
 31
0.0
  0
LINE
  5
17A
330
17
100
AcDbEntity
  8
0
100
AcDbLine
 10
173.31634044647217
 20
-37.60924315048477
 30
0.0
 11
173.31634044647217
 21
-67.97833537651321
 31
0.0
  0
LINE
  5
17B
330
17
100
AcDbEntity
  8
0
100
AcDbLine
 10
173.83483409881592
 20
-37.60924315048477
 30
0.0
 11
174.01633739471436
 21
-37.60924315048477
 31
0.0
  0
LINE
  5
17C
330
17
100
AcDbEntity
  8
0
100
AcDbLine
 10
174.01633739471436
 20
-78.60924353791496
 30
0.0
 11
173.83483409881592
 21
-78.60924353791496
 31
0.0
  0
LINE
  5
17D
330
17
100
AcDbEntity
  8
0
100
AcDbLine
 10
174.01633739471436
 20
-78.60924353791496
 30
0.0
 11
174.01633739471436
 21
-48.24015831543228
 31
0.0
  0
LINE
  5
17E
330
17
100
AcDbEntity
  8
0
100
AcDbLine
 10
174.01633739471436
 20
-37.60924315048477
 30
0.0
 11
174.01633739471436
 21
-48.24015831543228
 31
0.0
  0
LINE
  5
17F
330
17
100
AcDbEntity
  8
0
100
AcDbLine
 10
174.01633739471436
 20
-37.39484762741348
 30
0.0
 11
174.01633739471436
 21
-38.109245057833405
 31
0.0
  0
LINE
  5
180
330
17
100
AcDbEntity
  8
0
100
AcDbLine
 10
174.51632976531982
 20
-38.109245057833405
 30
0.0
 11
174.51632976531982
 21
-37.39484762741348
 31
0.0
  0
LINE
  5
181
330
17
100
AcDbEntity
  8
0
100
AcDbLine
 10
174.51632976531982
 20
-38.109245057833405
 30
0.0
 11
174.39338207244873
 21
-38.109245057833405
 31
0.0
  0
LINE
  5
182
330
17
100
AcDbEntity
  8
0
100
AcDbLine
 10
174.01633739471436
 20
-38.109245057833405
 30
0.0
 11
174.39338207244873
 21
-38.109245057833405
 31
0.0
  0
LINE
  5
183
330
17
100
AcDbEntity
  8
0
100
AcDbLine
 10
174.01633739471436
 20
-37.10924124313614
 30
0.0
 11
174.01633739471436
 21
-37.39484762741348
 31
0.0
  0
LINE
  5
184
330
17
100
AcDbEntity
  8
0
100
AcDbLine
 10
174.51632976531982
 20
-37.10924124313614
 30
0.0
 11
174.51632976531982
 21
-37.39484762741348
 31
0.0
  0
LINE
  5
185
330
17
100
AcDbEntity
  8
0
100
AcDbLine
 10
174.51632976531982
 20
-37.10924124313614
 30
0.0
 11
174.15198802947998
 21
-37.10924124313614
 31
0.0
  0
LINE
  5
186
330
17
100
AcDbEntity
  8
0
100
AcDbLine
 10
174.01633739471436
 20
-37.10924124313614
 30
0.0
 11
174.15198802947998
 21
-37.10924124313614
 31
0.0
  0
LINE
  5
187
330
17
100
AcDbEntity
  8
0
100
AcDbLine
 10
173.51632595062256
 20
-37.482928987276765
 30
0.0
 11
173.51632595062256
 21
-37.60925268722794
 31
0.0
  0
LINE
  5
188
330
17
100
AcDbEntity
  8
0
100
AcDbLine
 10
174.01633739471436
 20
-37.482928987276765
 30
0.0
 11
174.01633739471436
 21
-37.60925268722794
 31
0.0
  0
LINE
  5
189
330
17
100
AcDbEntity
  8
0
100
AcDbLine
 10
174.01633739471436
 20
-37.60925268722794
 30
0.0
 11
173.8866949081421
 21
-37.60925268722794
 31
0.0
  0
LINE
  5
18A
330
17
100
AcDbEntity
  8
0
100
AcDbLine
 10
173.51632595062256
 20
-37.60925268722794
 30
0.0
 11
173.8866949081421
 21
-37.60925268722794
 31
0.0
  0
LINE
  5
18B
330
17
100
AcDbEntity
  8
0
100
AcDbLine
 10
173.51632595062256
 20
-37.10924124313614
 30
0.0
 11
173.51632595062256
 21
-37.482928987276765
 31
0.0
  0
LINE
  5
18C
330
17
100
AcDbEntity
  8
0
100
AcDbLine
 10
174.01633739471436
 20
-37.482928987276765
 30
0.0
 11
174.01633739471436
 21
-37.10924124313614
 31
0.0
  0
LINE
  5
18D
330
17
100
AcDbEntity
  8
0
100
AcDbLine
 10
174.01633739471436
 20
-37.10924124313614
 30
0.0
 11
173.6519956588745
 21
-37.10924124313614
 31
0.0
  0
LINE
  5
18E
330
17
100
AcDbEntity
  8
0
100
AcDbLine
 10
173.51632595062256
 20
-37.10924124313614
 30
0.0
 11
173.6519956588745
 21
-37.10924124313614
 31
0.0
  0
LINE
  5
18F
330
17
100
AcDbEntity
  8
0
100
AcDbLine
 10
68.76628398895264
 20
-40.50924992157242
 30
0.0
 11
68.76628398895264
 21
-59.18955540252945
 31
0.0
  0
LINE
  5
190
330
17
100
AcDbEntity
  8
0
100
AcDbLine
 10
68.96628856658936
 20
-40.50924992157242
 30
0.0
 11
68.96628856658936
 21
-59.18955540252945
 31
0.0
  0
LINE
  5
191
330
17
100
AcDbEntity
  8
0
100
AcDbLine
 10
68.96628856658936
 20
-40.50924992157242
 30
0.0
 11
68.87242794036865
 21
-40.50924992157242
 31
0.0
  0
LINE
  5
192
330
17
100
AcDbEntity
  8
0
100
AcDbLine
 10
68.87242794036865
 20
-40.50924992157242
 30
0.0
 11
68.76628398895264
 21
-40.50924992157242
 31
0.0
  0
LINE
  5
193
330
17
100
AcDbEntity
  8
0
100
AcDbLine
 10
68.76628398895264
 20
-75.709250326884
 30
0.0
 11
68.76628398895264
 21
-59.18955540252945
 31
0.0
  0
LINE
  5
194
330
17
100
AcDbEntity
  8
0
100
AcDbLine
 10
68.96628856658936
 20
-59.18955540252945
 30
0.0
 11
68.96628856658936
 21
-75.709250326884
 31
0.0
  0
LINE
  5
195
330
17
100
AcDbEntity
  8
0
100
AcDbLine
 10
68.96628856658936
 20
-75.709250326884
 30
0.0
 11
68.8601541519165
 21
-75.709250326884
 31
0.0
  0
LINE
  5
196
330
17
100
AcDbEntity
  8
0
100
AcDbLine
 10
68.8601541519165
 20
-75.709250326884
 30
0.0
 11
68.76628398895264
 21
-75.709250326884
 31
0.0
  0
LINE
  5
197
330
17
100
AcDbEntity
  8
0
100
AcDbLine
 10
68.5162878036499
 20
-76.3108710010173
 30
0.0
 11
68.5162878036499
 21
-75.709250326884
 31
0.0
  0
LINE
  5
198
330
17
100
AcDbEntity
  8
0
100
AcDbLine
 10
69.21628475189209
 20
-75.709250326884
 30
0.0
 11
69.21628475189209
 21
-76.3108710010173
 31
0.0
  0
LINE
  5
199
330
17
100
AcDbEntity
  8
0
100
AcDbLine
 10
69.21628475189209
 20
-75.709250326884
 30
0.0
 11
68.84479999542236
 21
-75.709250326884
 31
0.0
  0
LINE
  5
19A
330
17
100
AcDbEntity
  8
0
100
AcDbLine
 10
68.5162878036499
 20
-75.709250326884
 30
0.0
 11
68.84479999542236
 21
-75.709250326884
 31
0.0
  0
LINE
  5
19B
330
17
100
AcDbEntity
  8
0
100
AcDbLine
 10
68.5162878036499
 20
-40.50924992157242
 30
0.0
 11
68.5162878036499
 21
-39.90763639999649
 31
0.0
  0
LINE
  5
19C
330
17
100
AcDbEntity
  8
0
100
AcDbLine
 10
69.21628475189209
 20
-39.90763639999649
 30
0.0
 11
69.21628475189209
 21
-40.50924992157242
 31
0.0
  0
LINE
  5
19D
330
17
100
AcDbEntity
  8
0
100
AcDbLine
 10
69.21628475189209
 20
-40.50924992157242
 30
0.0
 11
68.88777256011963
 21
-40.50924992157242
 31
0.0
  0
LINE
  5
19E
330
17
100
AcDbEntity
  8
0
100
AcDbLine
 10
68.5162878036499
 20
-40.50924992157242
 30
0.0
 11
68.88777256011963
 21
-40.50924992157242
 31
0.0
  0
LINE
  5
19F
330
17
100
AcDbEntity
  8
0
100
AcDbLine
 10
68.5162878036499
 20
-39.109258409273835
 30
0.0
 11
68.5162878036499
 21
-39.90763639999649
 31
0.0
  0
LINE
  5
1A0
330
17
100
AcDbEntity
  8
0
100
AcDbLine
 10
69.21628475189209
 20
-39.109258409273835
 30
0.0
 11
69.21628475189209
 21
-39.90763639999649
 31
0.0
  0
LINE
  5
1A1
330
17
100
AcDbEntity
  8
0
100
AcDbLine
 10
69.21628475189209
 20
-39.109258409273835
 30
0.0
 11
68.88442516326904
 21
-39.109258409273835
 31
0.0
  0
LINE
  5
1A2
330
17
100
AcDbEntity
  8
0
100
AcDbLine
 10
68.88442516326904
 20
-39.109258409273835
 30
0.0
 11
68.5162878036499
 21
-39.109258409273835
 31
0.0
  0
LINE
  5
1A3
330
17
100
AcDbEntity
  8
0
100
AcDbLine
 10
68.5162878036499
 20
-76.3108710010173
 30
0.0
 11
68.5162878036499
 21
-77.10925376011154
 31
0.0
  0
LINE
  5
1A4
330
17
100
AcDbEntity
  8
0
100
AcDbLine
 10
69.21628475189209
 20
-76.3108710010173
 30
0.0
 11
69.21628475189209
 21
-77.10925376011154
 31
0.0
  0
LINE
  5
1A5
330
17
100
AcDbEntity
  8
0
100
AcDbLine
 10
69.21628475189209
 20
-77.10925376011154
 30
0.0
 11
68.84814739227295
 21
-77.10925376011154
 31
0.0
  0
LINE
  5
1A6
330
17
100
AcDbEntity
  8
0
100
AcDbLine
 10
68.84814739227295
 20
-77.10925376011154
 30
0.0
 11
68.5162878036499
 21
-77.10925376011154
 31
0.0
  0
LINE
  5
1A7
330
17
100
AcDbEntity
  8
0
100
AcDbLine
 10
68.5162878036499
 20
-38.05742239547989
 30
0.0
 11
68.5162878036499
 21
-39.109258409273835
 31
0.0
  0
LINE
  5
1A8
330
17
100
AcDbEntity
  8
0
100
AcDbLine
 10
69.51629161834717
 20
-39.109258409273835
 30
0.0
 11
69.51629161834717
 21
-38.05742239547989
 31
0.0
  0
LINE
  5
1A9
330
17
100
AcDbEntity
  8
0
100
AcDbLine
 10
69.51629161834717
 20
-39.109258409273835
 30
0.0
 11
69.0422010421753
 21
-39.109258409273835
 31
0.0
  0
LINE
  5
1AA
330
17
100
AcDbEntity
  8
0
100
AcDbLine
 10
68.5162878036499
 20
-39.109258409273835
 30
0.0
 11
69.0422010421753
 21
-39.109258409273835
 31
0.0
  0
LINE
  5
1AB
330
17
100
AcDbEntity
  8
0
100
AcDbLine
 10
68.5162878036499
 20
-77.10925376011154
 30
0.0
 11
68.5162878036499
 21
-78.1610848565223
 31
0.0
  0
LINE
  5
1AC
330
17
100
AcDbEntity
  8
0
100
AcDbLine
 10
69.51629161834717
 20
-78.1610848565223
 30
0.0
 11
69.51629161834717
 21
-77.10925346208832
 31
0.0
  0
LINE
  5
1AD
330
17
100
AcDbEntity
  8
0
100
AcDbLine
 10
69.51629161834717
 20
-77.10925346208832
 30
0.0
 11
68.99036884307861
 21
-77.10925376011154
 31
0.0
  0
LINE
  5
1AE
330
17
100
AcDbEntity
  8
0
100
AcDbLine
 10
68.5162878036499
 20
-77.10925376011154
 30
0.0
 11
68.99036884307861
 21
-77.10925376011154
 31
0.0
  0
LINE
  5
1AF
330
17
100
AcDbEntity
  8
0
100
AcDbLine
 10
68.5162878036499
 20
-78.1610848565223
 30
0.0
 11
68.5162878036499
 21
-79.1092517782571
 31
0.0
  0
LINE
  5
1B0
330
17
100
AcDbEntity
  8
0
100
AcDbLine
 10
69.51629161834717
 20
-78.1610848565223
 30
0.0
 11
69.51629161834717
 21
-79.1092517037513
 31
0.0
  0
LINE
  5
1B1
330
17
100
AcDbEntity
  8
0
100
AcDbLine
 10
69.51629161834717
 20
-79.1092517037513
 30
0.0
 11
69.08960819244385
 21
-79.1092517037513
 31
0.0
  0
LINE
  5
1B2
330
17
100
AcDbEntity
  8
0
100
AcDbLine
 10
68.5162878036499
 20
-79.1092517782571
 30
0.0
 11
69.08960819244385
 21
-79.1092517037513
 31
0.0
  0
LINE
  5
1B3
330
17
100
AcDbEntity
  8
0
100
AcDbLine
 10
68.5162878036499
 20
-37.109250779879304
 30
0.0
 11
68.5162878036499
 21
-38.05742239547989
 31
0.0
  0
LINE
  5
1B4
330
17
100
AcDbEntity
  8
0
100
AcDbLine
 10
69.51629161834717
 20
-37.109250779879304
 30
0.0
 11
69.51629161834717
 21
-38.05742239547989
 31
0.0
  0
LINE
  5
1B5
330
17
100
AcDbEntity
  8
0
100
AcDbLine
 10
69.51629161834717
 20
-37.109250779879304
 30
0.0
 11
68.94296169281006
 21
-37.109250779879304
 31
0.0
  0
LINE
  5
1B6
330
17
100
AcDbEntity
  8
0
100
AcDbLine
 10
68.5162878036499
 20
-37.109250779879304
 30
0.0
 11
68.94296169281006
 21
-37.109250779879304
 31
0.0
  0
LINE
  5
1B7
330
17
100
AcDbEntity
  8
0
100
AcDbLine
 10
111.17145538330078
 20
-148.10924982620497
 30
0.0
 11
198.84628295898438
 21
-148.1092450578334
 31
0.0
  0
LINE
  5
1B8
330
17
100
AcDbEntity
  8
0
100
AcDbLine
 10
31.6347599029541
 20
-148.10925459457656
 30
0.0
 11
111.17145538330078
 21
-148.10924982620497
 31
0.0
  0
LINE
  5
1B9
330
17
100
AcDbEntity
  8
0
100
AcDbLine
 10
-98.22872161865234
 20
-148.10926413131972
 30
0.0
 11
-96.3229751586914
 21
-148.10926413131972
 31
0.0
  0
LINE
  5
1BA
330
17
100
AcDbEntity
  8
0
100
AcDbLine
 10
-96.3229751586914
 20
-148.10926413131972
 30
0.0
 11
31.6347599029541
 21
-148.10925459457656
 31
0.0
  0
LWPOLYLINE
  5
1BB
330
17
100
AcDbEntity
  8
0
100
AcDbPolyline
 90
8
 70
1
 10
67.516
 20
-18.634
 10
67.516
 20
-19.109
 10
92.596
 20
-19.109
 10
174.516
 20
-19.109
 10
174.516
 20
-18.305
 10
174.516
 20
-17.109
 10
92.596
 20
-17.109
 10
67.516
 20
-17.109
  0
LWPOLYLINE
  5
1BC
330
17
100
AcDbEntity
  8
0
100
AcDbPolyline
 90
8
 70
1
 10
31.667
 20
-35.109
 10
31.667
 20
-35.476
 10
31.667
 20
-37.109
 10
40.069
 20
-37.109
 10
67.516
 20
-37.109
 10
67.516
 20
-36.64
 10
67.516
 20
-35.109
 10
40.069
 20
-35.109
  0
LWPOLYLINE
  5
1BD
330
17
100
AcDbEntity
  8
0
100
AcDbPolyline
 90
8
 70
1
 10
174.516
 20
-35.109
 10
174.516
 20
-35.578
 10
174.516
 20
-37.109
 10
188.297
 20
-37.109
 10
192.516
 20
-37.109
 10
192.516
 20
-36.742
 10
192.516
 20
-35.109
 10
188.297
 20
-35.109
  0
LWPOLYLINE
  5
1BE
330
17
100
AcDbEntity
  8
0
100
AcDbPolyline
 90
8
 70
1
 10
31.667
 20
-81.109
 10
65.149
 20
-81.109
 10
174.516
 20
-81.109
 10
174.516
 20
-79.578
 10
174.516
 20
-79.109
 10
65.149
 20
-79.109
 10
31.667
 20
-79.109
 10
31.667
 20
-80.64
  0
LWPOLYLINE
  5
1BF
330
17
100
AcDbEntity
  8
0
100
AcDbPolyline
 90
8
 70
1
 10
16.667
 20
-97.109
 10
25.635
 20
-97.109
 10
31.667
 20
-97.109
 10
31.667
 20
-96.305
 10
31.667
 20
-95.109
 10
22.698
 20
-95.109
 10
16.667
 20
-95.109
 10
16.667
 20
-95.913
  0
LWPOLYLINE
  5
1C0
330
17
100
AcDbEntity
  8
0
100
AcDbPolyline
 90
8
 70
1
 10
117.077
 20
-139.109
 10
31.667
 20
-139.109
 10
31.667
 20
-142.728
 10
31.667
 20
-148.109
 10
117.077
 20
-148.109
 10
174.516
 20
-148.109
 10
174.516
 20
-144.49
 10
174.516
 20
-139.109
  0
LWPOLYLINE
  5
1C1
330
17
100
AcDbEntity
  8
0
100
AcDbPolyline
 90
8
 70
1
 10
67.516
 20
-10.676
 10
67.516
 20
-17.109
 10
68.332
 20
-17.109
 10
69.516
 20
-17.109
 10
69.516
 20
-7.497
 10
69.516
 20
-1.109
 10
68.729
 20
-1.109
 10
67.516
 20
-1.109
  0
LWPOLYLINE
  5
1C2
330
17
100
AcDbEntity
  8
0
100
AcDbPolyline
 90
8
 70
1
 10
172.516
 20
-10.721
 10
172.516
 20
-17.109
 10
173.303
 20
-17.109
 10
174.516
 20
-17.109
 10
174.516
 20
-7.543
 10
174.516
 20
-1.109
 10
173.701
 20
-1.109
 10
172.516
 20
-1.109
  0
LWPOLYLINE
  5
1C3
330
17
100
AcDbEntity
  8
0
100
AcDbPolyline
 90
8
 70
1
 10
69.516
 20
-22.853
 10
69.516
 20
-19.109
 10
69.149
 20
-19.109
 10
67.516
 20
-19.109
 10
67.516
 20
-23.848
 10
67.516
 20
-37.109
 10
67.899
 20
-37.109
 10
69.516
 20
-37.109
  0
LWPOLYLINE
  5
1C4
330
17
100
AcDbEntity
  8
0
100
AcDbPolyline
 90
8
 70
1
 10
173.268
 20
-37.109
 10
174.516
 20
-37.109
 10
174.516
 20
-33.426
 10
174.516
 20
-19.109
 10
172.599
 20
-19.109
 10
169.916
 20
-19.109
 10
169.916
 20
-33.426
 10
169.916
 20
-37.109
  0
LWPOLYLINE
  5
1C5
330
17
100
AcDbEntity
  8
0
100
AcDbPolyline
 90
10
 70
1
 10
129.916
 20
-25.998
 10
129.916
 20
-19.109
 10
128.312
 20
-19.109
 10
127.916
 20
-19.109
 10
127.916
 20
-24.68
 10
127.916
 20
-67.968
 10
127.916
 20
-79.109
 10
128.473
 20
-79.109
 10
129.916
 20
-79.109
 10
129.916
 20
-65.332
  0
LWPOLYLINE
  5
1C6
330
17
100
AcDbEntity
  8
0
100
AcDbPolyline
 90
8
 70
1
 10
147.916
 20
-76.897
 10
147.916
 20
-79.109
 10
147.999
 20
-79.109
 10
149.916
 20
-79.109
 10
149.916
 20
-28.071
 10
149.916
 20
-19.109
 10
149.648
 20
-19.109
 10
147.916
 20
-19.109
  0
LWPOLYLINE
  5
1C7
330
17
100
AcDbEntity
  8
0
100
AcDbPolyline
 90
8
 70
1
 10
67.516
 20
-112.366
 10
67.516
 20
-139.109
 10
70.034
 20
-139.109
 10
72.516
 20
-139.109
 10
72.516
 20
-109.326
 10
72.516
 20
-79.109
 10
70.288
 20
-79.109
 10
67.516
 20
-79.109
  0
LWPOLYLINE
  5
1C8
330
17
100
AcDbEntity
  8
0
100
AcDbPolyline
 90
12
 70
1
 10
174.516
 20
-126.677
 10
174.516
 20
-103.974
 10
174.516
 20
-87.812
 10
174.516
 20
-79.109
 10
172.599
 20
-79.109
 10
169.916
 20
-79.109
 10
169.916
 20
-87.504
 10
169.916
 20
-103.095
 10
169.916
 20
-127.116
 10
169.916
 20
-139.109
 10
172.599
 20
-139.109
 10
174.516
 20
-139.109
  0
LWPOLYLINE
  5
1C9
330
17
100
AcDbEntity
  8
0
100
AcDbPolyline
 90
15
 70
1
 10
31.667
 20
-111.143
 10
31.667
 20
-130.473
 10
31.667
 20
-136.218
 10
31.667
 20
-139.109
 10
32.172
 20
-139.109
 10
35.267
 20
-139.109
 10
35.267
 20
-130.473
 10
35.267
 20
-111.143
 10
35.267
 20
-97.109
 10
35.267
 20
-94.866
 10
35.267
 20
-81.109
 10
33.152
 20
-81.109
 10
31.667
 20
-81.109
 10
31.667
 20
-95.039
 10
31.667
 20
-97.109
  0
LWPOLYLINE
  5
1CA
330
17
100
AcDbEntity
  8
0
100
AcDbPolyline
 90
8
 70
1
 10
196.846
 20
-148.109
 10
197.798
 20
-148.109
 10
198.846
 20
-148.109
 10
198.846
 20
-132.379
 10
198.846
 20
-118.109
 10
197.895
 20
-118.109
 10
196.846
 20
-118.109
 10
196.846
 20
-133.839
  0
LWPOLYLINE
  5
1CB
330
17
100
AcDbEntity
  8
0
100
AcDbPolyline
 90
8
 70
1
 10
67.516
 20
-19.109
 10
92.596
 20
-19.109
 10
174.516
 20
-19.109
 10
174.516
 20
-18.305
 10
174.516
 20
-17.109
 10
92.596
 20
-17.109
 10
67.516
 20
-17.109
 10
67.516
 20
-18.634
  0
LWPOLYLINE
  5
1CC
330
17
100
AcDbEntity
  8
0
100
AcDbPolyline
 90
8
 70
1
 10
31.667
 20
-35.109
 10
31.667
 20
-35.476
 10
31.667
 20
-37.109
 10
40.069
 20
-37.109
 10
67.516
 20
-37.109
 10
67.516
 20
-36.64
 10
67.516
 20
-35.109
 10
40.069
 20
-35.109
  0
LWPOLYLINE
  5
1CD
330
17
100
AcDbEntity
  8
0
100
AcDbPolyline
 90
8
 70
1
 10
174.516
 20
-35.109
 10
174.516
 20
-35.578
 10
174.516
 20
-37.109
 10
188.297
 20
-37.109
 10
192.516
 20
-37.109
 10
192.516
 20
-36.742
 10
192.516
 20
-35.109
 10
188.297
 20
-35.109
  0
LWPOLYLINE
  5
1CE
330
17
100
AcDbEntity
  8
0
100
AcDbPolyline
 90
8
 70
1
 10
31.667
 20
-81.109
 10
65.149
 20
-81.109
 10
174.516
 20
-81.109
 10
174.516
 20
-79.578
 10
174.516
 20
-79.109
 10
65.149
 20
-79.109
 10
31.667
 20
-79.109
 10
31.667
 20
-80.64
  0
LWPOLYLINE
  5
1CF
330
17
100
AcDbEntity
  8
0
100
AcDbPolyline
 90
8
 70
1
 10
16.667
 20
-97.109
 10
25.635
 20
-97.109
 10
31.667
 20
-97.109
 10
31.667
 20
-96.305
 10
31.667
 20
-95.109
 10
22.698
 20
-95.109
 10
16.667
 20
-95.109
 10
16.667
 20
-95.913
  0
LWPOLYLINE
  5
1D0
330
17
100
AcDbEntity
  8
0
100
AcDbPolyline
 90
8
 70
1
 10
117.077
 20
-139.109
 10
31.667
 20
-139.109
 10
31.667
 20
-142.728
 10
31.667
 20
-148.109
 10
117.077
 20
-148.109
 10
174.516
 20
-148.109
 10
174.516
 20
-144.49
 10
174.516
 20
-139.109
  0
LWPOLYLINE
  5
1D1
330
17
100
AcDbEntity
  8
0
100
AcDbPolyline
 90
8
 70
1
 10
67.516
 20
-10.676
 10
67.516
 20
-17.109
 10
68.332
 20
-17.109
 10
69.516
 20
-17.109
 10
69.516
 20
-7.497
 10
69.516
 20
-1.109
 10
68.729
 20
-1.109
 10
67.516
 20
-1.109
  0
LWPOLYLINE
  5
1D2
330
17
100
AcDbEntity
  8
0
100
AcDbPolyline
 90
8
 70
1
 10
172.516
 20
-10.721
 10
172.516
 20
-17.109
 10
173.303
 20
-17.109
 10
174.516
 20
-17.109
 10
174.516
 20
-7.543
 10
174.516
 20
-1.109
 10
173.701
 20
-1.109
 10
172.516
 20
-1.109
  0
LWPOLYLINE
  5
1D3
330
17
100
AcDbEntity
  8
0
100
AcDbPolyline
 90
8
 70
1
 10
69.516
 20
-22.853
 10
69.516
 20
-19.109
 10
69.149
 20
-19.109
 10
67.516
 20
-19.109
 10
67.516
 20
-23.848
 10
67.516
 20
-37.109
 10
67.899
 20
-37.109
 10
69.516
 20
-37.109
  0
LWPOLYLINE
  5
1D4
330
17
100
AcDbEntity
  8
0
100
AcDbPolyline
 90
8
 70
1
 10
173.268
 20
-37.109
 10
174.516
 20
-37.109
 10
174.516
 20
-33.426
 10
174.516
 20
-19.109
 10
172.599
 20
-19.109
 10
169.916
 20
-19.109
 10
169.916
 20
-33.426
 10
169.916
 20
-37.109
  0
LWPOLYLINE
  5
1D5
330
17
100
AcDbEntity
  8
0
100
AcDbPolyline
 90
10
 70
1
 10
129.916
 20
-25.998
 10
129.916
 20
-19.109
 10
128.312
 20
-19.109
 10
127.916
 20
-19.109
 10
127.916
 20
-24.68
 10
127.916
 20
-67.968
 10
127.916
 20
-79.109
 10
128.473
 20
-79.109
 10
129.916
 20
-79.109
 10
129.916
 20
-65.332
  0
LWPOLYLINE
  5
1D6
330
17
100
AcDbEntity
  8
0
100
AcDbPolyline
 90
8
 70
1
 10
147.916
 20
-76.897
 10
147.916
 20
-79.109
 10
147.999
 20
-79.109
 10
149.916
 20
-79.109
 10
149.916
 20
-28.071
 10
149.916
 20
-19.109
 10
149.648
 20
-19.109
 10
147.916
 20
-19.109
  0
LWPOLYLINE
  5
1D7
330
17
100
AcDbEntity
  8
0
100
AcDbPolyline
 90
8
 70
1
 10
67.516
 20
-112.366
 10
67.516
 20
-139.109
 10
70.034
 20
-139.109
 10
72.516
 20
-139.109
 10
72.516
 20
-109.326
 10
72.516
 20
-79.109
 10
70.288
 20
-79.109
 10
67.516
 20
-79.109
  0
LWPOLYLINE
  5
1D8
330
17
100
AcDbEntity
  8
0
100
AcDbPolyline
 90
12
 70
1
 10
174.516
 20
-126.677
 10
174.516
 20
-103.974
 10
174.516
 20
-87.812
 10
174.516
 20
-79.109
 10
172.599
 20
-79.109
 10
169.916
 20
-79.109
 10
169.916
 20
-87.504
 10
169.916
 20
-103.095
 10
169.916
 20
-127.116
 10
169.916
 20
-139.109
 10
172.599
 20
-139.109
 10
174.516
 20
-139.109
  0
LWPOLYLINE
  5
1D9
330
17
100
AcDbEntity
  8
0
100
AcDbPolyline
 90
15
 70
1
 10
31.667
 20
-111.143
 10
31.667
 20
-130.473
 10
31.667
 20
-136.218
 10
31.667
 20
-139.109
 10
32.172
 20
-139.109
 10
35.267
 20
-139.109
 10
35.267
 20
-130.473
 10
35.267
 20
-111.143
 10
35.267
 20
-97.109
 10
35.267
 20
-94.866
 10
35.267
 20
-81.109
 10
33.152
 20
-81.109
 10
31.667
 20
-81.109
 10
31.667
 20
-95.039
 10
31.667
 20
-97.109
  0
LWPOLYLINE
  5
1DA
330
17
100
AcDbEntity
  8
0
100
AcDbPolyline
 90
8
 70
1
 10
196.846
 20
-148.109
 10
197.798
 20
-148.109
 10
198.846
 20
-148.109
 10
198.846
 20
-132.379
 10
198.846
 20
-118.109
 10
197.895
 20
-118.109
 10
196.846
 20
-118.109
 10
196.846
 20
-133.839
  0
LINE
  5
1DB
330
17
100
AcDbEntity
  8
0
100
AcDbLine
 10
189.516
 20
-148.109
 30
0.0
 11
190.016
 21
-148.109
 31
0.0
  0
LINE
  5
1DC
330
17
100
AcDbEntity
  8
0
100
AcDbLine
 10
190.016
 20
-148.109
 30
0.0
 11
190.016
 21
-37.1092
 31
0.0
  0
LINE
  5
1DD
330
17
100
AcDbEntity
  8
0
100
AcDbLine
 10
189.516
 20
-148.109
 30
0.0
 11
189.516
 21
-89.9879
 31
0.0
  0
LINE
  5
1DE
330
17
100
AcDbEntity
  8
0
100
AcDbLine
 10
189.516
 20
-87.6573
 30
0.0
 11
189.516
 21
-37.1092
 31
0.0
  0
LINE
  5
1DF
330
17
100
AcDbEntity
  8
0
100
AcDbLine
 10
33.6669
 20
-60.6093
 30
0.0
 11
33.6669
 21
-61.1093
 31
0.0
  0
LINE
  5
1E0
330
17
100
AcDbEntity
  8
0
100
AcDbLine
 10
33.6669
 20
-61.1093
 30
0.0
 11
34.1669
 21
-61.1093
 31
0.0
  0
LINE
  5
1E1
330
17
100
AcDbEntity
  8
0
100
AcDbLine
 10
34.1669
 20
-61.1093
 30
0.0
 11
34.1669
 21
-60.6093
 31
0.0
  0
LINE
  5
1E2
330
17
100
AcDbEntity
  8
0
100
AcDbLine
 10
34.1669
 20
-60.6093
 30
0.0
 11
33.6669
 21
-60.6093
 31
0.0
  0
LINE
  5
1E3
330
17
100
AcDbEntity
  8
0
100
AcDbLine
 10
33.6669
 20
-61.1092
 30
0.0
 11
33.6669
 21
-81.1093
 31
0.0
  0
LINE
  5
1E4
330
17
100
AcDbEntity
  8
0
100
AcDbLine
 10
33.6669
 20
-81.1093
 30
0.0
 11
34.1669
 21
-81.1093
 31
0.0
  0
LINE
  5
1E5
330
17
100
AcDbEntity
  8
0
100
AcDbLine
 10
34.1669
 20
-81.1093
 30
0.0
 11
34.1669
 21
-61.1092
 31
0.0
  0
LINE
  5
1E6
330
17
100
AcDbEntity
  8
0
100
AcDbLine
 10
33.6669
 20
-61.1092
 30
0.0
 11
34.1669
 21
-61.1092
 31
0.0
  0
LWPOLYLINE
  5
1E7
330
17
100
AcDbEntity
  8
0
100
AcDbPolyline
 90
8
 70
1
 10
33.99830341339111
 20
-60.60925459457657
 10
33.66692066192627
 20
-60.60925459457657
 10
33.66692066192627
 20
-60.777864213717194
 10
33.66692066192627
 20
-61.10924696518204
 10
33.83553981781006
 20
-61.10924696518204
 10
34.1669225692749
 20
-61.10924696518204
 10
34.1669225692749
 20
-60.94063734604141
 10
34.1669225692749
 20
-60.60925459457657
  0
ENDSEC
  0
SECTION
  2
OBJECTS
  0
DICTIONARY
  5
A
330
0
100
AcDbDictionary
280
0
281
1
  3
ACAD_COLOR
350
B
  3
ACAD_GROUP
350
C
  3
ACAD_LAYOUT
350
D
  3
ACAD_MATERIAL
350
E
  3
ACAD_MLEADERSTYLE
350
F
  3
ACAD_MLINESTYLE
350
10
  3
ACAD_PLOTSETTINGS
350
11
  3
ACAD_PLOTSTYLENAME
350
12
  3
ACAD_SCALELIST
350
14
  3
ACAD_TABLESTYLE
350
15
  3
ACAD_VISUALSTYLE
350
16
  3
EZDXF_META
350
2D
  0
DICTIONARY
  5
B
330
A
100
AcDbDictionary
280
0
281
1
  0
DICTIONARY
  5
C
330
A
100
AcDbDictionary
280
0
281
1
  0
DICTIONARY
  5
D
330
A
100
AcDbDictionary
280
0
281
1
  3
Model
350
1A
  3
Layout1
350
1E
  0
DICTIONARY
  5
E
330
A
100
AcDbDictionary
280
0
281
1
  3
ByBlock
350
1F
  3
ByLayer
350
20
  3
Global
350
21
  0
DICTIONARY
  5
F
330
A
100
AcDbDictionary
280
0
281
1
  3
Standard
350
2C
  0
DICTIONARY
  5
10
330
A
100
AcDbDictionary
280
0
281
1
  3
Standard
350
22
  0
DICTIONARY
  5
11
330
A
100
AcDbDictionary
280
0
281
1
  0
ACDBDICTIONARYWDFLT
  5
12
330
A
100
AcDbDictionary
280
0
281
1
  3
Normal
350
13
100
AcDbDictionaryWithDefault
340
13
  0
ACDBPLACEHOLDER
  5
13
330
12
  0
DICTIONARY
  5
14
330
A
100
AcDbDictionary
280
0
281
1
  0
DICTIONARY
  5
15
330
A
100
AcDbDictionary
280
0
281
1
  0
DICTIONARY
  5
16
330
A
100
AcDbDictionary
280
0
281
1
  0
LAYOUT
  5
1A
330
D
100
AcDbPlotSettings
  1

  4
A3
  6

 40
7.5
 41
20.0
 42
7.5
 43
20.0
 44
420.0
 45
297.0
 46
0.0
 47
0.0
 48
0.0
 49
0.0
140
0.0
141
0.0
142
1.0
143
1.0
 70
1024
 72
1
 73
0
 74
5
  7

 75
16
 76
0
 77
2
 78
300
147
1.0
148
0.0
149
0.0
100
AcDbLayout
  1
Model
 70
1
 71
0
 10
0.0
 20
0.0
 11
420.0
 21
297.0
 12
0.0
 22
0.0
 32
0.0
 14
1e+20
 24
1e+20
 34
1e+20
 15
-1e+20
 25
-1e+20
 35
-1e+20
146
0.0
 13
0.0
 23
0.0
 33
0.0
 16
1.0
 26
0.0
 36
0.0
 17
0.0
 27
1.0
 37
0.0
 76
1
330
17
  0
LAYOUT
  5
1E
330
D
100
AcDbPlotSettings
  1

  4
A3
  6

 40
7.5
 41
20.0
 42
7.5
 43
20.0
 44
420.0
 45
297.0
 46
0.0
 47
0.0
 48
0.0
 49
0.0
140
0.0
141
0.0
142
1.0
143
1.0
 70
0
 72
1
 73
0
 74
5
  7

 75
16
 76
0
 77
2
 78
300
147
1.0
148
0.0
149
0.0
100
AcDbLayout
  1
Layout1
 70
1
 71
1
 10
0.0
 20
0.0
 11
420.0
 21
297.0
 12
0.0
 22
0.0
 32
0.0
 14
1e+20
 24
1e+20
 34
1e+20
 15
-1e+20
 25
-1e+20
 35
-1e+20
146
0.0
 13
0.0
 23
0.0
 33
0.0
 16
1.0
 26
0.0
 36
0.0
 17
0.0
 27
1.0
 37
0.0
 76
1
330
1B
  0
MATERIAL
  5
1F
102
{ACAD_REACTORS
330
E
102
}
330
E
100
AcDbMaterial
  1
ByBlock
  2

 70
0
 40
1.0
 71
1
 41
1.0
 91
-1023410177
 42
1.0
 72
1
  3

 73
1
 74
1
 75
1
 44
0.5
 73
0
 45
1.0
 46
1.0
 77
1
  4

 78
1
 79
1
170
1
 48
1.0
171
1
  6

172
1
173
1
174
1
140
1.0
141
1.0
175
1
  7

176
1
177
1
178
1
143
1.0
179
1
  8

270
1
271
1
272
1
145
1.0
146
1.0
273
1
  9

274
1
275
1
276
1
 42
1.0
 72
1
  3

 73
1
 74
1
 75
1
 94
63
  0
MATERIAL
  5
20
102
{ACAD_REACTORS
330
E
102
}
330
E
100
AcDbMaterial
  1
ByLayer
  2

 70
0
 40
1.0
 71
1
 41
1.0
 91
-1023410177
 42
1.0
 72
1
  3

 73
1
 74
1
 75
1
 44
0.5
 73
0
 45
1.0
 46
1.0
 77
1
  4

 78
1
 79
1
170
1
 48
1.0
171
1
  6

172
1
173
1
174
1
140
1.0
141
1.0
175
1
  7

176
1
177
1
178
1
143
1.0
179
1
  8

270
1
271
1
272
1
145
1.0
146
1.0
273
1
  9

274
1
275
1
276
1
 42
1.0
 72
1
  3

 73
1
 74
1
 75
1
 94
63
  0
MATERIAL
  5
21
102
{ACAD_REACTORS
330
E
102
}
330
E
100
AcDbMaterial
  1
Global
  2

 70
0
 40
1.0
 71
1
 41
1.0
 91
-1023410177
 42
1.0
 72
1
  3

 73
1
 74
1
 75
1
 44
0.5
 73
0
 45
1.0
 46
1.0
 77
1
  4

 78
1
 79
1
170
1
 48
1.0
171
1
  6

172
1
173
1
174
1
140
1.0
141
1.0
175
1
  7

176
1
177
1
178
1
143
1.0
179
1
  8

270
1
271
1
272
1
145
1.0
146
1.0
273
1
  9

274
1
275
1
276
1
 42
1.0
 72
1
  3

 73
1
 74
1
 75
1
 94
63
  0
MLINESTYLE
  5
22
102
{ACAD_REACTORS
330
10
102
}
330
10
100
AcDbMlineStyle
  2
Standard
 70
0
  3

 62
256
 51
90.0
 52
90.0
 71
2
 49
0.5
 62
256
  6
BYLAYER
 49
-0.5
 62
256
  6
BYLAYER
  0
MLEADERSTYLE
  5
2C
102
{ACAD_REACTORS
330
F
102
}
330
F
100
AcDbMLeaderStyle
179
2
170
2
171
1
172
0
 90
2
 40
0.0
 41
0.0
173
1
 91
-1056964608
 92
-2
290
1
 42
2.0
291
1
 43
8.0
  3
Standard
 44
4.0
300

342
29
174
1
175
1
176
0
178
1
 93
-1056964608
 45
4.0
292
0
297
0
 46
4.0
 94
-1056964608
 47
1.0
 49
1.0
140
1.0
294
1
141
0.0
177
0
142
1.0
295
0
296
0
143
3.75
271
0
272
9
273
9
  0
DICTIONARY
  5
2D
330
A
100
AcDbDictionary
280
1
281
1
  3
CREATED_BY_EZDXF
350
2E
  3
WRITTEN_BY_EZDXF
350
1EA
  0
DICTIONARYVAR
  5
2E
330
2D
100
DictionaryVariables
280
0
  1
1.4.0 @ 2025-04-08T11:06:33.747057+00:00
  0
DICTIONARYVAR
  5
1EA
330
2D
100
DictionaryVariables
280
0
  1
1.4.0 @ 2025-04-08T11:06:33.762682+00:00
  0
ENDSEC
  0
EOF
