  0
SECTION
  2
HEADER
  9
$ACADVER
  1
AC1024
  9
$ACADMAINTVER
 70
6
  9
$DWGCODEPAGE
  3
ANSI_1252
  9
$LASTSAVEDBY
  1
ezdxf
  9
$INSBASE
 10
0.0
 20
0.0
 30
0.0
  9
$EXTMIN
 10
1e+20
 20
1e+20
 30
1e+20
  9
$EXTMAX
 10
-1e+20
 20
-1e+20
 30
-1e+20
  9
$LIMMIN
 10
0.0
 20
0.0
  9
$LIMMAX
 10
420.0
 20
297.0
  9
$ORTHOMODE
 70
0
  9
$REGENMODE
 70
1
  9
$FILLMODE
 70
1
  9
$QTEXTMODE
 70
0
  9
$MIRRTEXT
 70
1
  9
$LTSCALE
 40
1.0
  9
$ATTMODE
 70
1
  9
$TEXTSIZE
 40
2.5
  9
$TRACEWID
 40
1.0
  9
$TEXTSTYLE
  7
Standard
  9
$CLAYER
  8
0
  9
$CELTYPE
  6
ByLayer
  9
$CECOLOR
 62
256
  9
$CELTSCALE
 40
1.0
  9
$DISPSILH
 70
0
  9
$DIMSCALE
 40
1.0
  9
$DIMASZ
 40
2.5
  9
$DIMEXO
 40
0.625
  9
$DIMDLI
 40
3.75
  9
$DIMRND
 40
0.0
  9
$DIMDLE
 40
0.0
  9
$DIMEXE
 40
1.25
  9
$DIMTP
 40
0.0
  9
$DIMTM
 40
0.0
  9
$DIMTXT
 40
2.5
  9
$DIMCEN
 40
2.5
  9
$DIMTSZ
 40
0.0
  9
$DIMTOL
 70
0
  9
$DIMLIM
 70
0
  9
$DIMTIH
 70
0
  9
$DIMTOH
 70
0
  9
$DIMSE1
 70
0
  9
$DIMSE2
 70
0
  9
$DIMTAD
 70
1
  9
$DIMZIN
 70
8
  9
$DIMBLK
  1

  9
$DIMASO
 70
1
  9
$DIMSHO
 70
1
  9
$DIMPOST
  1

  9
$DIMAPOST
  1

  9
$DIMALT
 70
0
  9
$DIMALTD
 70
3
  9
$DIMALTF
 40
0.03937007874
  9
$DIMLFAC
 40
1.0
  9
$DIMTOFL
 70
1
  9
$DIMTVP
 40
0.0
  9
$DIMTIX
 70
0
  9
$DIMSOXD
 70
0
  9
$DIMSAH
 70
0
  9
$DIMBLK1
  1

  9
$DIMBLK2
  1

  9
$DIMSTYLE
  2
ISO-25
  9
$DIMCLRD
 70
0
  9
$DIMCLRE
 70
0
  9
$DIMCLRT
 70
0
  9
$DIMTFAC
 40
1.0
  9
$DIMGAP
 40
0.625
  9
$DIMJUST
 70
0
  9
$DIMSD1
 70
0
  9
$DIMSD2
 70
0
  9
$DIMTOLJ
 70
0
  9
$DIMTZIN
 70
8
  9
$DIMALTZ
 70
0
  9
$DIMALTTZ
 70
0
  9
$DIMUPT
 70
0
  9
$DIMDEC
 70
2
  9
$DIMTDEC
 70
2
  9
$DIMALTU
 70
2
  9
$DIMALTTD
 70
3
  9
$DIMTXSTY
  7
Standard
  9
$DIMAUNIT
 70
0
  9
$DIMADEC
 70
0
  9
$DIMALTRND
 40
0.0
  9
$DIMAZIN
 70
0
  9
$DIMDSEP
 70
44
  9
$DIMATFIT
 70
3
  9
$DIMFRAC
 70
0
  9
$DIMLDRBLK
  1

  9
$DIMLUNIT
 70
2
  9
$DIMLWD
 70
-2
  9
$DIMLWE
 70
-2
  9
$DIMTMOVE
 70
0
  9
$DIMFXL
 40
1.0
  9
$DIMFXLON
 70
0
  9
$DIMJOGANG
 40
0.785398163397
  9
$DIMTFILL
 70
0
  9
$DIMTFILLCLR
 70
0
  9
$DIMARCSYM
 70
0
  9
$DIMLTYPE
  6

  9
$DIMLTEX1
  6

  9
$DIMLTEX2
  6

  9
$DIMTXTDIRECTION
 70
0
  9
$LUNITS
 70
2
  9
$LUPREC
 70
4
  9
$SKETCHINC
 40
1.0
  9
$FILLETRAD
 40
10.0
  9
$AUNITS
 70
0
  9
$AUPREC
 70
2
  9
$MENU
  1
.
  9
$ELEVATION
 40
0.0
  9
$PELEVATION
 40
0.0
  9
$THICKNESS
 40
0.0
  9
$LIMCHECK
 70
0
  9
$CHAMFERA
 40
0.0
  9
$CHAMFERB
 40
0.0
  9
$CHAMFERC
 40
0.0
  9
$CHAMFERD
 40
0.0
  9
$SKPOLY
 70
0
  9
$TDCREATE
 40
2460774.6815046296
  9
$TDUCREATE
 40
2458532.153996898
  9
$TDUPDATE
 40
2460774.6815046296
  9
$TDUUPDATE
 40
2458532.1544311
  9
$TDINDWG
 40
0.0
  9
$TDUSRTIMER
 40
0.0
  9
$USRTIMER
 70
1
  9
$ANGBASE
 50
0.0
  9
$ANGDIR
 70
0
  9
$PDMODE
 70
0
  9
$PDSIZE
 40
0.0
  9
$PLINEWID
 40
0.0
  9
$SPLFRAME
 70
0
  9
$SPLINETYPE
 70
6
  9
$SPLINESEGS
 70
8
  9
$HANDSEED
  5
4E8
  9
$SURFTAB1
 70
6
  9
$SURFTAB2
 70
6
  9
$SURFTYPE
 70
6
  9
$SURFU
 70
6
  9
$SURFV
 70
6
  9
$UCSBASE
  2

  9
$UCSNAME
  2

  9
$UCSORG
 10
0.0
 20
0.0
 30
0.0
  9
$UCSXDIR
 10
1.0
 20
0.0
 30
0.0
  9
$UCSYDIR
 10
0.0
 20
1.0
 30
0.0
  9
$UCSORTHOREF
  2

  9
$UCSORTHOVIEW
 70
0
  9
$UCSORGTOP
 10
0.0
 20
0.0
 30
0.0
  9
$UCSORGBOTTOM
 10
0.0
 20
0.0
 30
0.0
  9
$UCSORGLEFT
 10
0.0
 20
0.0
 30
0.0
  9
$UCSORGRIGHT
 10
0.0
 20
0.0
 30
0.0
  9
$UCSORGFRONT
 10
0.0
 20
0.0
 30
0.0
  9
$UCSORGBACK
 10
0.0
 20
0.0
 30
0.0
  9
$PUCSBASE
  2

  9
$PUCSNAME
  2

  9
$PUCSORG
 10
0.0
 20
0.0
 30
0.0
  9
$PUCSXDIR
 10
1.0
 20
0.0
 30
0.0
  9
$PUCSYDIR
 10
0.0
 20
1.0
 30
0.0
  9
$PUCSORTHOREF
  2

  9
$PUCSORTHOVIEW
 70
0
  9
$PUCSORGTOP
 10
0.0
 20
0.0
 30
0.0
  9
$PUCSORGBOTTOM
 10
0.0
 20
0.0
 30
0.0
  9
$PUCSORGLEFT
 10
0.0
 20
0.0
 30
0.0
  9
$PUCSORGRIGHT
 10
0.0
 20
0.0
 30
0.0
  9
$PUCSORGFRONT
 10
0.0
 20
0.0
 30
0.0
  9
$PUCSORGBACK
 10
0.0
 20
0.0
 30
0.0
  9
$USERI1
 70
0
  9
$USERI2
 70
0
  9
$USERI3
 70
0
  9
$USERI4
 70
0
  9
$USERI5
 70
0
  9
$USERR1
 40
0.0
  9
$USERR2
 40
0.0
  9
$USERR3
 40
0.0
  9
$USERR4
 40
0.0
  9
$USERR5
 40
0.0
  9
$WORLDVIEW
 70
1
  9
$SHADEDGE
 70
3
  9
$SHADEDIF
 70
70
  9
$TILEMODE
 70
1
  9
$MAXACTVP
 70
64
  9
$PINSBASE
 10
0.0
 20
0.0
 30
0.0
  9
$PLIMCHECK
 70
0
  9
$PEXTMIN
 10
1e+20
 20
1e+20
 30
1e+20
  9
$PEXTMAX
 10
-1e+20
 20
-1e+20
 30
-1e+20
  9
$PLIMMIN
 10
0.0
 20
0.0
  9
$PLIMMAX
 10
420.0
 20
297.0
  9
$UNITMODE
 70
0
  9
$VISRETAIN
 70
1
  9
$PLINEGEN
 70
0
  9
$PSLTSCALE
 70
1
  9
$TREEDEPTH
 70
3020
  9
$CMLSTYLE
  2
Standard
  9
$CMLJUST
 70
0
  9
$CMLSCALE
 40
20.0
  9
$PROXYGRAPHICS
 70
1
  9
$MEASUREMENT
 70
1
  9
$CELWEIGHT
370
-1
  9
$ENDCAPS
280
0
  9
$JOINSTYLE
280
0
  9
$LWDISPLAY
290
0
  9
$INSUNITS
 70
6
  9
$HYPERLINKBASE
  1

  9
$STYLESHEET
  1

  9
$XEDIT
290
1
  9
$CEPSNTYPE
380
0
  9
$PSTYLEMODE
290
1
  9
$FINGERPRINTGUID
  2
{5000AF01-967C-45B1-8D02-6D28BA7FE5F6}
  9
$VERSIONGUID
  2
{93B56F2F-7B6B-47B2-821B-49A545ACBC94}
  9
$EXTNAMES
290
1
  9
$PSVPSCALE
 40
0.0
  9
$OLESTARTUP
290
0
  9
$SORTENTS
280
127
  9
$INDEXCTL
280
0
  9
$HIDETEXT
280
1
  9
$XCLIPFRAME
280
1
  9
$HALOGAP
280
0
  9
$OBSCOLOR
 70
257
  9
$OBSLTYPE
280
0
  9
$INTERSECTIONDISPLAY
280
0
  9
$INTERSECTIONCOLOR
 70
257
  9
$DIMASSOC
280
2
  9
$PROJECTNAME
  1

  9
$CAMERADISPLAY
290
0
  9
$LENSLENGTH
 40
50.0
  9
$CAMERAHEIGHT
 40
0.0
  9
$STEPSPERSEC
 40
24.0
  9
$STEPSIZE
 40
100.0
  9
$3DDWFPREC
 40
2.0
  9
$PSOLWIDTH
 40
0.005
  9
$PSOLHEIGHT
 40
0.08
  9
$LOFTANG1
 40
1.570796326795
  9
$LOFTANG2
 40
1.570796326795
  9
$LOFTMAG1
 40
0.0
  9
$LOFTMAG2
 40
0.0
  9
$LOFTPARAM
 70
7
  9
$LOFTNORMALS
280
1
  9
$LATITUDE
 40
37.795
  9
$LONGITUDE
 40
-122.394
  9
$NORTHDIRECTION
 40
0.0
  9
$TIMEZONE
 70
-8000
  9
$LIGHTGLYPHDISPLAY
280
1
  9
$TILEMODELIGHTSYNCH
280
1
  9
$CMATERIAL
347
20
  9
$SOLIDHIST
280
0
  9
$SHOWHIST
280
1
  9
$DWFFRAME
280
2
  9
$DGNFRAME
280
2
  9
$REALWORLDSCALE
290
1
  9
$INTERFERECOLOR
 62
256
  9
$CSHADOW
280
0
  9
$SHADOWPLANELOCATION
 40
0.0
  0
ENDSEC
  0
SECTION
  2
CLASSES
  0
CLASS
  1
ACDBDICTIONARYWDFLT
  2
AcDbDictionaryWithDefault
  3
ObjectDBX Classes
 90
0
 91
0
280
0
281
0
  0
CLASS
  1
SUN
  2
AcDbSun
  3
SCENEOE
 90
1153
 91
0
280
0
281
0
  0
CLASS
  1
VISUALSTYLE
  2
AcDbVisualStyle
  3
ObjectDBX Classes
 90
4095
 91
0
280
0
281
0
  0
CLASS
  1
MATERIAL
  2
AcDbMaterial
  3
ObjectDBX Classes
 90
1153
 91
0
280
0
281
0
  0
CLASS
  1
SCALE
  2
AcDbScale
  3
ObjectDBX Classes
 90
1153
 91
0
280
0
281
0
  0
CLASS
  1
TABLESTYLE
  2
AcDbTableStyle
  3
ObjectDBX Classes
 90
4095
 91
0
280
0
281
0
  0
CLASS
  1
MLEADERSTYLE
  2
AcDbMLeaderStyle
  3
ACDB_MLEADERSTYLE_CLASS
 90
4095
 91
0
280
0
281
0
  0
CLASS
  1
DICTIONARYVAR
  2
AcDbDictionaryVar
  3
ObjectDBX Classes
 90
0
 91
0
280
0
281
0
  0
CLASS
  1
CELLSTYLEMAP
  2
AcDbCellStyleMap
  3
ObjectDBX Classes
 90
1152
 91
0
280
0
281
0
  0
CLASS
  1
MENTALRAYRENDERSETTINGS
  2
AcDbMentalRayRenderSettings
  3
SCENEOE
 90
1024
 91
0
280
0
281
0
  0
CLASS
  1
ACDBDETAILVIEWSTYLE
  2
AcDbDetailViewStyle
  3
ObjectDBX Classes
 90
1025
 91
0
280
0
281
0
  0
CLASS
  1
ACDBSECTIONVIEWSTYLE
  2
AcDbSectionViewStyle
  3
ObjectDBX Classes
 90
1025
 91
0
280
0
281
0
  0
CLASS
  1
RASTERVARIABLES
  2
AcDbRasterVariables
  3
ISM
 90
0
 91
0
280
0
281
0
  0
CLASS
  1
LAYOUT
  2
AcDbLayout
  3
ObjectDBX Classes
 90
0
 91
0
280
0
281
0
  0
CLASS
  1
ACDBPLACEHOLDER
  2
AcDbPlaceHolder
  3
ObjectDBX Classes
 90
0
 91
0
280
0
281
0
  0
ENDSEC
  0
SECTION
  2
TABLES
  0
TABLE
  2
VPORT
  5
8
330
0
100
AcDbSymbolTable
 70
1
  0
VPORT
  5
23
330
8
100
AcDbSymbolTableRecord
100
AcDbViewportTableRecord
  2
*Active
 70
0
 10
0.0
 20
0.0
 11
1.0
 21
1.0
 12
0.0
 22
0.0
 13
0.0
 23
0.0
 14
0.5
 24
0.5
 15
0.5
 25
0.5
 16
0.0
 26
0.0
 36
1.0
 17
0.0
 27
0.0
 37
0.0
 40
1000.0
 41
1.34
 42
50.0
 43
0.0
 44
0.0
 50
0.0
 51
0.0
 71
0
 72
1000
 73
1
 74
3
 75
0
 76
0
 77
0
 78
0
281
0
 65
0
146
0.0
  0
ENDTAB
  0
TABLE
  2
LTYPE
  5
2
330
0
100
AcDbSymbolTable
 70
3
  0
LTYPE
  5
24
330
2
100
AcDbSymbolTableRecord
100
AcDbLinetypeTableRecord
  2
ByBlock
 70
0
  3

 72
65
 73
0
 40
0.0
  0
LTYPE
  5
25
330
2
100
AcDbSymbolTableRecord
100
AcDbLinetypeTableRecord
  2
ByLayer
 70
0
  3

 72
65
 73
0
 40
0.0
  0
LTYPE
  5
26
330
2
100
AcDbSymbolTableRecord
100
AcDbLinetypeTableRecord
  2
Continuous
 70
0
  3

 72
65
 73
0
 40
0.0
  0
ENDTAB
  0
TABLE
  2
LAYER
  5
1
330
0
100
AcDbSymbolTable
 70
2
  0
LAYER
  5
27
330
1
100
AcDbSymbolTableRecord
100
AcDbLayerTableRecord
  2
0
 70
0
 62
7
  6
Continuous
370
-3
390
13
347
21
  0
LAYER
  5
28
330
1
100
AcDbSymbolTableRecord
100
AcDbLayerTableRecord
  2
Defpoints
 70
0
 62
7
  6
Continuous
290
0
370
-3
390
13
347
21
  0
ENDTAB
  0
TABLE
  2
STYLE
  5
5
330
0
100
AcDbSymbolTable
 70
1
  0
STYLE
  5
29
330
5
100
AcDbSymbolTableRecord
100
AcDbTextStyleTableRecord
  2
Standard
 70
0
 40
0.0
 41
1.0
 50
0.0
 71
0
 42
2.5
  3
txt
  4

  0
ENDTAB
  0
TABLE
  2
VIEW
  5
7
330
0
100
AcDbSymbolTable
 70
0
  0
ENDTAB
  0
TABLE
  2
UCS
  5
6
330
0
100
AcDbSymbolTable
 70
0
  0
ENDTAB
  0
TABLE
  2
APPID
  5
3
330
0
100
AcDbSymbolTable
 70
3
  0
APPID
  5
2A
330
3
100
AcDbSymbolTableRecord
100
AcDbRegAppTableRecord
  2
ACAD
 70
0
  0
APPID
  5
4E5
330
3
100
AcDbSymbolTableRecord
100
AcDbRegAppTableRecord
  2
HATCHBACKGROUNDCOLOR
 70
0
  0
APPID
  5
4E6
330
3
100
AcDbSymbolTableRecord
100
AcDbRegAppTableRecord
  2
EZDXF
 70
0
  0
ENDTAB
  0
TABLE
  2
DIMSTYLE
  5
4
330
0
100
AcDbSymbolTable
 70
1
100
AcDbDimStyleTable
  0
DIMSTYLE
105
2B
330
4
100
AcDbSymbolTableRecord
100
AcDbDimStyleTableRecord
  2
Standard
 70
0
 40
1.0
 41
2.5
 42
0.625
 43
3.75
 44
1.25
 45
0.0
 46
0.0
 47
0.0
 48
0.0
 49
2.5
140
2.5
141
2.5
142
0.0
143
0.03937007874
144
1.0
145
0.0
146
1.0
147
0.625
148
0.0
 69
0
 70
0
 71
0
 72
0
 73
0
 74
0
 75
0
 76
0
 77
1
 78
8
 79
3
170
0
171
3
172
1
173
0
174
0
175
0
176
0
177
0
178
0
179
2
271
2
272
2
273
2
274
3
275
0
276
0
277
2
278
44
279
0
280
0
281
0
282
0
283
0
284
8
285
0
286
0
288
0
289
3
290
0
371
-2
372
-2
  0
ENDTAB
  0
TABLE
  2
BLOCK_RECORD
  5
9
330
0
100
AcDbSymbolTable
 70
2
  0
BLOCK_RECORD
  5
17
330
9
100
AcDbSymbolTableRecord
100
AcDbBlockTableRecord
  2
*Model_Space
340
1A
 70
0
280
1
281
0
  0
BLOCK_RECORD
  5
1B
330
9
100
AcDbSymbolTableRecord
100
AcDbBlockTableRecord
  2
*Paper_Space
340
1E
 70
0
280
1
281
0
  0
ENDTAB
  0
ENDSEC
  0
SECTION
  2
BLOCKS
  0
BLOCK
  5
18
330
17
100
AcDbEntity
  8
0
100
AcDbBlockBegin
  2
*Model_Space
 70
0
 10
0.0
 20
0.0
 30
0.0
  3
*Model_Space
  1

  0
ENDBLK
  5
19
330
17
100
AcDbEntity
  8
0
100
AcDbBlockEnd
  0
BLOCK
  5
1C
330
1B
100
AcDbEntity
  8
0
100
AcDbBlockBegin
  2
*Paper_Space
 70
0
 10
0.0
 20
0.0
 30
0.0
  3
*Paper_Space
  1

  0
ENDBLK
  5
1D
330
1B
100
AcDbEntity
  8
0
100
AcDbBlockEnd
  0
ENDSEC
  0
SECTION
  2
ENTITIES
  0
LINE
  5
2F
330
17
100
AcDbEntity
  8
0
100
AcDbLine
 10
45.7
 20
-129.861
 30
0.0
 11
45.7
 21
-138.861
 31
0.0
  0
LINE
  5
30
330
17
100
AcDbEntity
  8
0
100
AcDbLine
 10
45.7
 20
-138.861
 30
0.0
 11
186.6
 21
-138.861
 31
0.0
  0
LINE
  5
31
330
17
100
AcDbEntity
  8
0
100
AcDbLine
 10
186.6
 20
-138.861
 30
0.0
 11
186.6
 21
-129.861
 31
0.0
  0
LINE
  5
32
330
17
100
AcDbEntity
  8
0
100
AcDbLine
 10
45.7
 20
-129.861
 30
0.0
 11
186.6
 21
-129.861
 31
0.0
  0
LINE
  5
33
330
17
100
AcDbEntity
  8
0
100
AcDbLine
 10
45.7
 20
-69.8614
 30
0.0
 11
45.7
 21
-71.8614
 31
0.0
  0
LINE
  5
34
330
17
100
AcDbEntity
  8
0
100
AcDbLine
 10
45.7
 20
-71.8614
 30
0.0
 11
119.7
 21
-71.8614
 31
0.0
  0
LINE
  5
35
330
17
100
AcDbEntity
  8
0
100
AcDbLine
 10
119.7
 20
-71.8614
 30
0.0
 11
119.7
 21
-69.8614
 31
0.0
  0
LINE
  5
36
330
17
100
AcDbEntity
  8
0
100
AcDbLine
 10
45.7
 20
-69.8614
 30
0.0
 11
119.7
 21
-69.8614
 31
0.0
  0
LINE
  5
37
330
17
100
AcDbEntity
  8
0
100
AcDbLine
 10
186.6
 20
-78.8614
 30
0.0
 11
119.7
 21
-78.8614
 31
0.0
  0
LINE
  5
38
330
17
100
AcDbEntity
  8
0
100
AcDbLine
 10
119.7
 20
-80.8614
 30
0.0
 11
119.7
 21
-78.8614
 31
0.0
  0
LINE
  5
39
330
17
100
AcDbEntity
  8
0
100
AcDbLine
 10
186.6
 20
-80.8614
 30
0.0
 11
119.7
 21
-80.8614
 31
0.0
  0
LINE
  5
3A
330
17
100
AcDbEntity
  8
0
100
AcDbLine
 10
186.6
 20
-78.8614
 30
0.0
 11
186.6
 21
-80.8614
 31
0.0
  0
LINE
  5
3B
330
17
100
AcDbEntity
  8
0
100
AcDbLine
 10
45.7
 20
-7.86141
 30
0.0
 11
45.7
 21
-9.86141
 31
0.0
  0
LINE
  5
3C
330
17
100
AcDbEntity
  8
0
100
AcDbLine
 10
45.7
 20
-9.86141
 30
0.0
 11
186.6
 21
-9.8614
 31
0.0
  0
LINE
  5
3D
330
17
100
AcDbEntity
  8
0
100
AcDbLine
 10
186.6
 20
-9.8614
 30
0.0
 11
186.6
 21
-7.8614
 31
0.0
  0
LINE
  5
3E
330
17
100
AcDbEntity
  8
0
100
AcDbLine
 10
45.7
 20
-7.86141
 30
0.0
 11
186.6
 21
-7.8614
 31
0.0
  0
LINE
  5
3F
330
17
100
AcDbEntity
  8
0
100
AcDbLine
 10
50.7
 20
-87.8614
 30
0.0
 11
50.7
 21
-71.8614
 31
0.0
  0
LINE
  5
40
330
17
100
AcDbEntity
  8
0
100
AcDbLine
 10
62.7
 20
-129.861
 30
0.0
 11
62.7
 21
-71.8614
 31
0.0
  0
LINE
  5
41
330
17
100
AcDbEntity
  8
0
100
AcDbLine
 10
70.547
 20
-58.8614
 30
0.0
 11
70.547
 21
-69.8614
 31
0.0
  0
LINE
  5
42
330
17
100
AcDbEntity
  8
0
100
AcDbLine
 10
70.547
 20
-69.8614
 30
0.0
 11
97.947
 21
-69.8614
 31
0.0
  0
LINE
  5
43
330
17
100
AcDbEntity
  8
0
100
AcDbLine
 10
97.947
 20
-69.8614
 30
0.0
 11
97.947
 21
-58.8614
 31
0.0
  0
LINE
  5
44
330
17
100
AcDbEntity
  8
0
100
AcDbLine
 10
70.547
 20
-58.8614
 30
0.0
 11
97.947
 21
-58.8614
 31
0.0
  0
LINE
  5
45
330
17
100
AcDbEntity
  8
0
100
AcDbLine
 10
45.6
 20
-129.861
 30
0.0
 11
45.6
 21
-129.861
 31
0.0
  0
LINE
  5
46
330
17
100
AcDbEntity
  8
0
100
AcDbLine
 10
45.7
 20
-129.861
 30
0.0
 11
45.7
 21
-129.861
 31
0.0
  0
LINE
  5
47
330
17
100
AcDbEntity
  8
0
100
AcDbLine
 10
45.6
 20
-87.8614
 30
0.0
 11
45.6
 21
-129.861
 31
0.0
  0
LINE
  5
48
330
17
100
AcDbEntity
  8
0
100
AcDbLine
 10
45.6
 20
-129.861
 30
0.0
 11
45.7
 21
-129.861
 31
0.0
  0
LINE
  5
49
330
17
100
AcDbEntity
  8
0
100
AcDbLine
 10
45.7
 20
-87.3614
 30
0.0
 11
45.7
 21
-87.3614
 31
0.0
  0
LINE
  5
4A
330
17
100
AcDbEntity
  8
0
100
AcDbLine
 10
45.6
 20
-109.161
 30
0.0
 11
45.4
 21
-109.161
 31
0.0
  0
LINE
  5
4B
330
17
100
AcDbEntity
  8
0
100
AcDbLine
 10
45.6
 20
-109.561
 30
0.0
 11
45.4
 21
-109.561
 31
0.0
  0
LINE
  5
4C
330
17
100
AcDbEntity
  8
0
100
AcDbLine
 10
45.4
 20
-109.561
 30
0.0
 11
45.4
 21
-109.161
 31
0.0
  0
LINE
  5
4D
330
17
100
AcDbEntity
  8
0
100
AcDbLine
 10
130.277
 20
-129.361
 30
0.0
 11
130.277
 21
-129.861
 31
0.0
  0
LINE
  5
4E
330
17
100
AcDbEntity
  8
0
100
AcDbLine
 10
112.0
 20
-129.361
 30
0.0
 11
129.777
 21
-129.361
 31
0.0
  0
LINE
  5
4F
330
17
100
AcDbEntity
  8
0
100
AcDbLine
 10
129.777
 20
-129.861
 30
0.0
 11
129.777
 21
-129.361
 31
0.0
  0
LINE
  5
50
330
17
100
AcDbEntity
  8
0
100
AcDbLine
 10
129.277
 20
-109.161
 30
0.0
 11
126.877
 21
-109.161
 31
0.0
  0
LINE
  5
51
330
17
100
AcDbEntity
  8
0
100
AcDbLine
 10
129.277
 20
-109.561
 30
0.0
 11
126.877
 21
-109.561
 31
0.0
  0
LINE
  5
52
330
17
100
AcDbEntity
  8
0
100
AcDbLine
 10
126.877
 20
-109.561
 30
0.0
 11
126.877
 21
-109.161
 31
0.0
  0
LINE
  5
53
330
17
100
AcDbEntity
  8
0
100
AcDbLine
 10
129.277
 20
-109.561
 30
0.0
 11
129.277
 21
-109.161
 31
0.0
  0
LINE
  5
54
330
17
100
AcDbEntity
  8
0
100
AcDbLine
 10
112.0
 20
-88.3614
 30
0.0
 11
130.277
 21
-88.3614
 31
0.0
  0
LINE
  5
55
330
17
100
AcDbEntity
  8
0
100
AcDbLine
 10
129.777
 20
-129.361
 30
0.0
 11
130.277
 21
-129.361
 31
0.0
  0
LINE
  5
56
330
17
100
AcDbEntity
  8
0
100
AcDbLine
 10
130.277
 20
-129.361
 30
0.0
 11
130.277
 21
-88.3614
 31
0.0
  0
LINE
  5
57
330
17
100
AcDbEntity
  8
0
100
AcDbLine
 10
116.942
 20
-27.3614
 30
0.0
 11
116.842
 21
-27.3614
 31
0.0
  0
LINE
  5
58
330
17
100
AcDbEntity
  8
0
100
AcDbLine
 10
116.842
 20
-27.3614
 30
0.0
 11
116.842
 21
-28.3614
 31
0.0
  0
LINE
  5
59
330
17
100
AcDbEntity
  8
0
100
AcDbLine
 10
116.842
 20
-28.3614
 30
0.0
 11
116.942
 21
-28.3614
 31
0.0
  0
LINE
  5
5A
330
17
100
AcDbEntity
  8
0
100
AcDbLine
 10
116.942
 20
-27.3614
 30
0.0
 11
116.942
 21
-28.3614
 31
0.0
  0
LINE
  5
5B
330
17
100
AcDbEntity
  8
0
100
AcDbLine
 10
115.842
 20
-27.3614
 30
0.0
 11
115.742
 21
-27.3614
 31
0.0
  0
LINE
  5
5C
330
17
100
AcDbEntity
  8
0
100
AcDbLine
 10
115.742
 20
-27.3614
 30
0.0
 11
115.742
 21
-28.8614
 31
0.0
  0
LINE
  5
5D
330
17
100
AcDbEntity
  8
0
100
AcDbLine
 10
115.742
 20
-28.8614
 30
0.0
 11
115.842
 21
-28.8614
 31
0.0
  0
LINE
  5
5E
330
17
100
AcDbEntity
  8
0
100
AcDbLine
 10
115.842
 20
-27.3614
 30
0.0
 11
115.842
 21
-28.8614
 31
0.0
  0
LINE
  5
5F
330
17
100
AcDbEntity
  8
0
100
AcDbLine
 10
115.842
 20
-28.8614
 30
0.0
 11
115.842
 21
-49.1614
 31
0.0
  0
LINE
  5
60
330
17
100
AcDbEntity
  8
0
100
AcDbLine
 10
115.842
 20
-49.5614
 30
0.0
 11
115.842
 21
-69.3614
 31
0.0
  0
LINE
  5
61
330
17
100
AcDbEntity
  8
0
100
AcDbLine
 10
115.742
 20
-28.8614
 30
0.0
 11
115.742
 21
-49.1614
 31
0.0
  0
LINE
  5
62
330
17
100
AcDbEntity
  8
0
100
AcDbLine
 10
115.742
 20
-49.5614
 30
0.0
 11
115.742
 21
-69.8614
 31
0.0
  0
LINE
  5
63
330
17
100
AcDbEntity
  8
0
100
AcDbLine
 10
115.842
 20
-69.3614
 30
0.0
 11
115.842
 21
-69.8614
 31
0.0
  0
LINE
  5
64
330
17
100
AcDbEntity
  8
0
100
AcDbLine
 10
115.842
 20
-69.8614
 30
0.0
 11
117.842
 21
-69.8614
 31
0.0
  0
LINE
  5
65
330
17
100
AcDbEntity
  8
0
100
AcDbLine
 10
117.842
 20
-69.8614
 30
0.0
 11
117.842
 21
-69.3614
 31
0.0
  0
LINE
  5
66
330
17
100
AcDbEntity
  8
0
100
AcDbLine
 10
115.842
 20
-69.3614
 30
0.0
 11
117.842
 21
-69.3614
 31
0.0
  0
LINE
  5
67
330
17
100
AcDbEntity
  8
0
100
AcDbLine
 10
117.442
 20
-49.1614
 30
0.0
 11
117.042
 21
-49.1614
 31
0.0
  0
LINE
  5
68
330
17
100
AcDbEntity
  8
0
100
AcDbLine
 10
117.442
 20
-49.5614
 30
0.0
 11
117.042
 21
-49.5614
 31
0.0
  0
LINE
  5
69
330
17
100
AcDbEntity
  8
0
100
AcDbLine
 10
117.042
 20
-49.5614
 30
0.0
 11
117.042
 21
-49.1614
 31
0.0
  0
LINE
  5
6A
330
17
100
AcDbEntity
  8
0
100
AcDbLine
 10
117.442
 20
-49.5614
 30
0.0
 11
117.442
 21
-49.5614
 31
0.0
  0
LINE
  5
6B
330
17
100
AcDbEntity
  8
0
100
AcDbLine
 10
117.842
 20
-49.1614
 30
0.0
 11
117.442
 21
-49.1614
 31
0.0
  0
LINE
  5
6C
330
17
100
AcDbEntity
  8
0
100
AcDbLine
 10
117.842
 20
-49.5614
 30
0.0
 11
117.442
 21
-49.5614
 31
0.0
  0
LINE
  5
6D
330
17
100
AcDbEntity
  8
0
100
AcDbLine
 10
117.442
 20
-49.5614
 30
0.0
 11
117.442
 21
-49.1614
 31
0.0
  0
LINE
  5
6E
330
17
100
AcDbEntity
  8
0
100
AcDbLine
 10
117.842
 20
-49.5614
 30
0.0
 11
117.842
 21
-49.1614
 31
0.0
  0
LINE
  5
6F
330
17
100
AcDbEntity
  8
0
100
AcDbLine
 10
115.942
 20
-49.1614
 30
0.0
 11
116.342
 21
-49.1614
 31
0.0
  0
LINE
  5
70
330
17
100
AcDbEntity
  8
0
100
AcDbLine
 10
115.942
 20
-49.5614
 30
0.0
 11
116.342
 21
-49.5614
 31
0.0
  0
LINE
  5
71
330
17
100
AcDbEntity
  8
0
100
AcDbLine
 10
115.942
 20
-49.5614
 30
0.0
 11
115.942
 21
-49.5614
 31
0.0
  0
LINE
  5
72
330
17
100
AcDbEntity
  8
0
100
AcDbLine
 10
115.542
 20
-49.1614
 30
0.0
 11
115.942
 21
-49.1614
 31
0.0
  0
LINE
  5
73
330
17
100
AcDbEntity
  8
0
100
AcDbLine
 10
115.542
 20
-49.5614
 30
0.0
 11
115.942
 21
-49.5614
 31
0.0
  0
LINE
  5
74
330
17
100
AcDbEntity
  8
0
100
AcDbLine
 10
115.942
 20
-49.5614
 30
0.0
 11
115.942
 21
-49.1614
 31
0.0
  0
LINE
  5
75
330
17
100
AcDbEntity
  8
0
100
AcDbLine
 10
115.542
 20
-49.5614
 30
0.0
 11
115.542
 21
-49.1614
 31
0.0
  0
LINE
  5
76
330
17
100
AcDbEntity
  8
0
100
AcDbLine
 10
116.342
 20
-28.3614
 30
0.0
 11
116.342
 21
-69.3614
 31
0.0
  0
LINE
  5
77
330
17
100
AcDbEntity
  8
0
100
AcDbLine
 10
116.342
 20
-69.3614
 30
0.0
 11
117.042
 21
-69.3614
 31
0.0
  0
LINE
  5
78
330
17
100
AcDbEntity
  8
0
100
AcDbLine
 10
117.042
 20
-69.3614
 30
0.0
 11
117.042
 21
-28.3614
 31
0.0
  0
LINE
  5
79
330
17
100
AcDbEntity
  8
0
100
AcDbLine
 10
116.342
 20
-28.3614
 30
0.0
 11
117.042
 21
-28.3614
 31
0.0
  0
LINE
  5
7A
330
17
100
AcDbEntity
  8
0
100
AcDbLine
 10
116.342
 20
-27.8614
 30
0.0
 11
115.842
 21
-27.8614
 31
0.0
  0
LINE
  5
7B
330
17
100
AcDbEntity
  8
0
100
AcDbLine
 10
115.842
 20
-27.8614
 30
0.0
 11
115.842
 21
-28.8614
 31
0.0
  0
LINE
  5
7C
330
17
100
AcDbEntity
  8
0
100
AcDbLine
 10
115.842
 20
-28.8614
 30
0.0
 11
116.342
 21
-28.8614
 31
0.0
  0
LINE
  5
7D
330
17
100
AcDbEntity
  8
0
100
AcDbLine
 10
116.342
 20
-27.8614
 30
0.0
 11
116.342
 21
-28.8614
 31
0.0
  0
LINE
  5
7E
330
17
100
AcDbEntity
  8
0
100
AcDbLine
 10
115.842
 20
-28.8614
 30
0.0
 11
115.842
 21
-49.1614
 31
0.0
  0
LINE
  5
7F
330
17
100
AcDbEntity
  8
0
100
AcDbLine
 10
115.842
 20
-49.5614
 30
0.0
 11
115.842
 21
-69.3614
 31
0.0
  0
LINE
  5
80
330
17
100
AcDbEntity
  8
0
100
AcDbLine
 10
116.842
 20
-27.8614
 30
0.0
 11
116.342
 21
-27.8614
 31
0.0
  0
LINE
  5
81
330
17
100
AcDbEntity
  8
0
100
AcDbLine
 10
116.342
 20
-27.8614
 30
0.0
 11
116.342
 21
-28.3614
 31
0.0
  0
LINE
  5
82
330
17
100
AcDbEntity
  8
0
100
AcDbLine
 10
116.342
 20
-28.3614
 30
0.0
 11
116.842
 21
-28.3614
 31
0.0
  0
LINE
  5
83
330
17
100
AcDbEntity
  8
0
100
AcDbLine
 10
116.842
 20
-27.8614
 30
0.0
 11
116.842
 21
-28.3614
 31
0.0
  0
LINE
  5
84
330
17
100
AcDbEntity
  8
0
100
AcDbLine
 10
48.7811
 20
-87.3614
 30
0.0
 11
48.6811
 21
-87.3614
 31
0.0
  0
LINE
  5
85
330
17
100
AcDbEntity
  8
0
100
AcDbLine
 10
48.6811
 20
-88.3614
 30
0.0
 11
48.6811
 21
-87.3614
 31
0.0
  0
LINE
  5
86
330
17
100
AcDbEntity
  8
0
100
AcDbLine
 10
48.6811
 20
-88.3614
 30
0.0
 11
48.7811
 21
-88.3614
 31
0.0
  0
LINE
  5
87
330
17
100
AcDbEntity
  8
0
100
AcDbLine
 10
48.7811
 20
-88.3614
 30
0.0
 11
48.7811
 21
-87.3614
 31
0.0
  0
LINE
  5
88
330
17
100
AcDbEntity
  8
0
100
AcDbLine
 10
49.7811
 20
-129.861
 30
0.0
 11
49.7811
 21
-88.8614
 31
0.0
  0
LINE
  5
89
330
17
100
AcDbEntity
  8
0
100
AcDbLine
 10
49.8811
 20
-129.861
 30
0.0
 11
49.8811
 21
-88.8614
 31
0.0
  0
LINE
  5
8A
330
17
100
AcDbEntity
  8
0
100
AcDbLine
 10
49.8811
 20
-88.8614
 30
0.0
 11
49.8811
 21
-88.8614
 31
0.0
  0
LINE
  5
8B
330
17
100
AcDbEntity
  8
0
100
AcDbLine
 10
49.8811
 20
-87.3614
 30
0.0
 11
49.7811
 21
-87.3614
 31
0.0
  0
LINE
  5
8C
330
17
100
AcDbEntity
  8
0
100
AcDbLine
 10
49.7811
 20
-88.8614
 30
0.0
 11
49.7811
 21
-87.3614
 31
0.0
  0
LINE
  5
8D
330
17
100
AcDbEntity
  8
0
100
AcDbLine
 10
49.7811
 20
-88.8614
 30
0.0
 11
49.8811
 21
-88.8614
 31
0.0
  0
LINE
  5
8E
330
17
100
AcDbEntity
  8
0
100
AcDbLine
 10
49.8811
 20
-88.8614
 30
0.0
 11
49.8811
 21
-87.3614
 31
0.0
  0
LINE
  5
8F
330
17
100
AcDbEntity
  8
0
100
AcDbLine
 10
49.7811
 20
-129.861
 30
0.0
 11
49.7811
 21
-129.361
 31
0.0
  0
LINE
  5
90
330
17
100
AcDbEntity
  8
0
100
AcDbLine
 10
47.7811
 20
-129.361
 30
0.0
 11
49.7811
 21
-129.361
 31
0.0
  0
LINE
  5
91
330
17
100
AcDbEntity
  8
0
100
AcDbLine
 10
47.7811
 20
-129.361
 30
0.0
 11
47.7811
 21
-129.861
 31
0.0
  0
LINE
  5
92
330
17
100
AcDbEntity
  8
0
100
AcDbLine
 10
47.7811
 20
-129.861
 30
0.0
 11
49.7811
 21
-129.861
 31
0.0
  0
LINE
  5
93
330
17
100
AcDbEntity
  8
0
100
AcDbLine
 10
49.2811
 20
-129.361
 30
0.0
 11
49.2811
 21
-88.3614
 31
0.0
  0
LINE
  5
94
330
17
100
AcDbEntity
  8
0
100
AcDbLine
 10
48.5811
 20
-88.3614
 30
0.0
 11
49.2811
 21
-88.3614
 31
0.0
  0
LINE
  5
95
330
17
100
AcDbEntity
  8
0
100
AcDbLine
 10
48.5811
 20
-88.3614
 30
0.0
 11
48.5811
 21
-129.361
 31
0.0
  0
LINE
  5
96
330
17
100
AcDbEntity
  8
0
100
AcDbLine
 10
48.5811
 20
-129.361
 30
0.0
 11
49.2811
 21
-129.361
 31
0.0
  0
LINE
  5
97
330
17
100
AcDbEntity
  8
0
100
AcDbLine
 10
49.2811
 20
-129.361
 30
0.0
 11
49.2811
 21
-88.8614
 31
0.0
  0
LINE
  5
98
330
17
100
AcDbEntity
  8
0
100
AcDbLine
 10
49.7811
 20
-129.861
 30
0.0
 11
49.7811
 21
-88.8614
 31
0.0
  0
LINE
  5
99
330
17
100
AcDbEntity
  8
0
100
AcDbLine
 10
49.7811
 20
-87.8614
 30
0.0
 11
49.2811
 21
-87.8614
 31
0.0
  0
LINE
  5
9A
330
17
100
AcDbEntity
  8
0
100
AcDbLine
 10
49.2811
 20
-88.8614
 30
0.0
 11
49.2811
 21
-87.8614
 31
0.0
  0
LINE
  5
9B
330
17
100
AcDbEntity
  8
0
100
AcDbLine
 10
49.2811
 20
-88.8614
 30
0.0
 11
49.7811
 21
-88.8614
 31
0.0
  0
LINE
  5
9C
330
17
100
AcDbEntity
  8
0
100
AcDbLine
 10
49.7811
 20
-88.8614
 30
0.0
 11
49.7811
 21
-87.8614
 31
0.0
  0
LINE
  5
9D
330
17
100
AcDbEntity
  8
0
100
AcDbLine
 10
49.2811
 20
-87.8614
 30
0.0
 11
48.7811
 21
-87.8614
 31
0.0
  0
LINE
  5
9E
330
17
100
AcDbEntity
  8
0
100
AcDbLine
 10
48.7811
 20
-88.3614
 30
0.0
 11
48.7811
 21
-87.8614
 31
0.0
  0
LINE
  5
9F
330
17
100
AcDbEntity
  8
0
100
AcDbLine
 10
48.7811
 20
-88.3614
 30
0.0
 11
49.2811
 21
-88.3614
 31
0.0
  0
LINE
  5
A0
330
17
100
AcDbEntity
  8
0
100
AcDbLine
 10
49.2811
 20
-88.3614
 30
0.0
 11
49.2811
 21
-87.8614
 31
0.0
  0
LINE
  5
A1
330
17
100
AcDbEntity
  8
0
100
AcDbLine
 10
45.7
 20
-25.8614
 30
0.0
 11
25.2155
 21
-25.8614
 31
0.0
  0
LINE
  5
A2
330
17
100
AcDbEntity
  8
0
100
AcDbLine
 10
25.2155
 20
-27.8614
 30
0.0
 11
25.2155
 21
-25.8614
 31
0.0
  0
LINE
  5
A3
330
17
100
AcDbEntity
  8
0
100
AcDbLine
 10
45.7
 20
-27.8614
 30
0.0
 11
25.2155
 21
-27.8614
 31
0.0
  0
LINE
  5
A4
330
17
100
AcDbEntity
  8
0
100
AcDbLine
 10
45.7
 20
-25.8614
 30
0.0
 11
45.7
 21
-27.8614
 31
0.0
  0
LINE
  5
A5
330
17
100
AcDbEntity
  8
0
100
AcDbLine
 10
134.2
 20
-129.861
 30
0.0
 11
134.2
 21
-80.8614
 31
0.0
  0
LINE
  5
A6
330
17
100
AcDbEntity
  8
0
100
AcDbLine
 10
186.6
 20
-85.8614
 30
0.0
 11
186.6
 21
-87.8614
 31
0.0
  0
LINE
  5
A7
330
17
100
AcDbEntity
  8
0
100
AcDbLine
 10
186.6
 20
-87.8614
 30
0.0
 11
201.6
 21
-87.8614
 31
0.0
  0
LINE
  5
A8
330
17
100
AcDbEntity
  8
0
100
AcDbLine
 10
201.6
 20
-87.8614
 30
0.0
 11
201.6
 21
-85.8614
 31
0.0
  0
LINE
  5
A9
330
17
100
AcDbEntity
  8
0
100
AcDbLine
 10
186.6
 20
-85.8614
 30
0.0
 11
201.6
 21
-85.8614
 31
0.0
  0
LINE
  5
AA
330
17
100
AcDbEntity
  8
0
100
AcDbLine
 10
30.4681
 20
-85.8614
 30
0.0
 11
30.4681
 21
-87.8614
 31
0.0
  0
LINE
  5
AB
330
17
100
AcDbEntity
  8
0
100
AcDbLine
 10
30.4681
 20
-87.8614
 30
0.0
 11
45.7
 21
-87.8614
 31
0.0
  0
LINE
  5
AC
330
17
100
AcDbEntity
  8
0
100
AcDbLine
 10
45.7
 20
-87.8614
 30
0.0
 11
45.7
 21
-85.8614
 31
0.0
  0
LINE
  5
AD
330
17
100
AcDbEntity
  8
0
100
AcDbLine
 10
30.4681
 20
-85.8614
 30
0.0
 11
45.7
 21
-85.8614
 31
0.0
  0
LINE
  5
AE
330
17
100
AcDbEntity
  8
0
100
AcDbLine
 10
186.6
 20
-87.8614
 30
0.0
 11
186.6
 21
-87.8614
 31
0.0
  0
LINE
  5
AF
330
17
100
AcDbEntity
  8
0
100
AcDbLine
 10
45.7
 20
-87.8614
 30
0.0
 11
45.7
 21
-87.8614
 31
0.0
  0
LINE
  5
B0
330
17
100
AcDbEntity
  8
0
100
AcDbLine
 10
76.702
 20
-111.861
 30
0.0
 11
76.702
 21
-111.861
 31
0.0
  0
LINE
  5
B1
330
17
100
AcDbEntity
  8
0
100
AcDbLine
 10
76.702
 20
-111.861
 30
0.0
 11
76.702
 21
-117.261
 31
0.0
  0
LINE
  5
B2
330
17
100
AcDbEntity
  8
0
100
AcDbLine
 10
76.702
 20
-111.861
 30
0.0
 11
76.702
 21
-111.861
 31
0.0
  0
LINE
  5
B3
330
17
100
AcDbEntity
  8
0
100
AcDbLine
 10
76.702
 20
-111.861
 30
0.0
 11
76.702
 21
-117.261
 31
0.0
  0
LINE
  5
B4
330
17
100
AcDbEntity
  8
0
100
AcDbLine
 10
76.702
 20
-111.861
 30
0.0
 11
65.702
 21
-111.861
 31
0.0
  0
LINE
  5
B5
330
17
100
AcDbEntity
  8
0
100
AcDbLine
 10
65.702
 20
-111.861
 30
0.0
 11
65.702
 21
-121.861
 31
0.0
  0
LINE
  5
B6
330
17
100
AcDbEntity
  8
0
100
AcDbLine
 10
76.702
 20
-121.861
 30
0.0
 11
76.702
 21
-129.861
 31
0.0
  0
LINE
  5
B7
330
17
100
AcDbEntity
  8
0
100
AcDbLine
 10
76.702
 20
-121.861
 30
0.0
 11
65.702
 21
-121.861
 31
0.0
  0
LINE
  5
B8
330
17
100
AcDbEntity
  8
0
100
AcDbLine
 10
65.702
 20
-121.861
 30
0.0
 11
65.702
 21
-129.861
 31
0.0
  0
LINE
  5
B9
330
17
100
AcDbEntity
  8
0
100
AcDbLine
 10
78.202
 20
-117.261
 30
0.0
 11
78.202
 21
-117.261
 31
0.0
  0
LINE
  5
BA
330
17
100
AcDbEntity
  8
0
100
AcDbLine
 10
78.202
 20
-117.261
 30
0.0
 11
78.202
 21
-117.261
 31
0.0
  0
LINE
  5
BB
330
17
100
AcDbEntity
  8
0
100
AcDbLine
 10
78.202
 20
-117.261
 30
0.0
 11
78.202
 21
-129.861
 31
0.0
  0
LINE
  5
BC
330
17
100
AcDbEntity
  8
0
100
AcDbLine
 10
78.202
 20
-117.261
 30
0.0
 11
78.202
 21
-129.861
 31
0.0
  0
LINE
  5
BD
330
17
100
AcDbEntity
  8
0
100
AcDbLine
 10
78.202
 20
-117.261
 30
0.0
 11
76.702
 21
-117.261
 31
0.0
  0
LINE
  5
BE
330
17
100
AcDbEntity
  8
0
100
AcDbLine
 10
76.702
 20
-129.861
 30
0.0
 11
76.702
 21
-117.261
 31
0.0
  0
LINE
  5
BF
330
17
100
AcDbEntity
  8
0
100
AcDbLine
 10
65.702
 20
-117.261
 30
0.0
 11
65.702
 21
-117.261
 31
0.0
  0
LINE
  5
C0
330
17
100
AcDbEntity
  8
0
100
AcDbLine
 10
65.702
 20
-117.261
 30
0.0
 11
65.702
 21
-117.261
 31
0.0
  0
LINE
  5
C1
330
17
100
AcDbEntity
  8
0
100
AcDbLine
 10
65.702
 20
-117.261
 30
0.0
 11
64.202
 21
-117.261
 31
0.0
  0
LINE
  5
C2
330
17
100
AcDbEntity
  8
0
100
AcDbLine
 10
65.702
 20
-117.261
 30
0.0
 11
65.702
 21
-129.861
 31
0.0
  0
LINE
  5
C3
330
17
100
AcDbEntity
  8
0
100
AcDbLine
 10
64.202
 20
-117.261
 30
0.0
 11
64.202
 21
-129.861
 31
0.0
  0
LINE
  5
C4
330
17
100
AcDbEntity
  8
0
100
AcDbLine
 10
91.3597
 20
-111.861
 30
0.0
 11
91.3597
 21
-111.861
 31
0.0
  0
LINE
  5
C5
330
17
100
AcDbEntity
  8
0
100
AcDbLine
 10
91.3597
 20
-111.861
 30
0.0
 11
91.3597
 21
-117.261
 31
0.0
  0
LINE
  5
C6
330
17
100
AcDbEntity
  8
0
100
AcDbLine
 10
91.3597
 20
-111.861
 30
0.0
 11
91.3597
 21
-111.861
 31
0.0
  0
LINE
  5
C7
330
17
100
AcDbEntity
  8
0
100
AcDbLine
 10
91.3597
 20
-111.861
 30
0.0
 11
91.3597
 21
-117.261
 31
0.0
  0
LINE
  5
C8
330
17
100
AcDbEntity
  8
0
100
AcDbLine
 10
91.3597
 20
-111.861
 30
0.0
 11
80.3597
 21
-111.861
 31
0.0
  0
LINE
  5
C9
330
17
100
AcDbEntity
  8
0
100
AcDbLine
 10
80.3597
 20
-111.861
 30
0.0
 11
80.3597
 21
-121.861
 31
0.0
  0
LINE
  5
CA
330
17
100
AcDbEntity
  8
0
100
AcDbLine
 10
91.3597
 20
-121.861
 30
0.0
 11
91.3597
 21
-129.861
 31
0.0
  0
LINE
  5
CB
330
17
100
AcDbEntity
  8
0
100
AcDbLine
 10
91.3597
 20
-121.861
 30
0.0
 11
80.3597
 21
-121.861
 31
0.0
  0
LINE
  5
CC
330
17
100
AcDbEntity
  8
0
100
AcDbLine
 10
80.3597
 20
-121.861
 30
0.0
 11
80.3597
 21
-129.861
 31
0.0
  0
LINE
  5
CD
330
17
100
AcDbEntity
  8
0
100
AcDbLine
 10
92.8597
 20
-117.261
 30
0.0
 11
92.8597
 21
-117.261
 31
0.0
  0
LINE
  5
CE
330
17
100
AcDbEntity
  8
0
100
AcDbLine
 10
92.8597
 20
-117.261
 30
0.0
 11
92.8597
 21
-117.261
 31
0.0
  0
LINE
  5
CF
330
17
100
AcDbEntity
  8
0
100
AcDbLine
 10
92.8597
 20
-117.261
 30
0.0
 11
92.8597
 21
-129.861
 31
0.0
  0
LINE
  5
D0
330
17
100
AcDbEntity
  8
0
100
AcDbLine
 10
92.8597
 20
-117.261
 30
0.0
 11
92.8597
 21
-129.861
 31
0.0
  0
LINE
  5
D1
330
17
100
AcDbEntity
  8
0
100
AcDbLine
 10
92.8597
 20
-117.261
 30
0.0
 11
91.3597
 21
-117.261
 31
0.0
  0
LINE
  5
D2
330
17
100
AcDbEntity
  8
0
100
AcDbLine
 10
91.3597
 20
-129.861
 30
0.0
 11
91.3597
 21
-117.261
 31
0.0
  0
LINE
  5
D3
330
17
100
AcDbEntity
  8
0
100
AcDbLine
 10
80.3597
 20
-117.261
 30
0.0
 11
80.3597
 21
-117.261
 31
0.0
  0
LINE
  5
D4
330
17
100
AcDbEntity
  8
0
100
AcDbLine
 10
80.3597
 20
-117.261
 30
0.0
 11
80.3597
 21
-117.261
 31
0.0
  0
LINE
  5
D5
330
17
100
AcDbEntity
  8
0
100
AcDbLine
 10
80.3597
 20
-117.261
 30
0.0
 11
78.8597
 21
-117.261
 31
0.0
  0
LINE
  5
D6
330
17
100
AcDbEntity
  8
0
100
AcDbLine
 10
80.3597
 20
-117.261
 30
0.0
 11
80.3597
 21
-129.861
 31
0.0
  0
LINE
  5
D7
330
17
100
AcDbEntity
  8
0
100
AcDbLine
 10
78.8597
 20
-117.261
 30
0.0
 11
78.8597
 21
-129.861
 31
0.0
  0
LINE
  5
D8
330
17
100
AcDbEntity
  8
0
100
AcDbLine
 10
186.6
 20
-9.8614
 30
0.0
 11
181.6
 21
-9.8614
 31
0.0
  0
LINE
  5
D9
330
17
100
AcDbEntity
  8
0
100
AcDbLine
 10
181.6
 20
-78.8614
 30
0.0
 11
181.6
 21
-9.8614
 31
0.0
  0
LINE
  5
DA
330
17
100
AcDbEntity
  8
0
100
AcDbLine
 10
186.6
 20
-78.8614
 30
0.0
 11
181.6
 21
-78.8614
 31
0.0
  0
LINE
  5
DB
330
17
100
AcDbEntity
  8
0
100
AcDbLine
 10
186.6
 20
-9.8614
 30
0.0
 11
186.6
 21
-78.8614
 31
0.0
  0
LINE
  5
DC
330
17
100
AcDbEntity
  8
0
100
AcDbLine
 10
30.2
 20
-118.861
 30
0.0
 11
28.8
 21
-118.861
 31
0.0
  0
LINE
  5
DD
330
17
100
AcDbEntity
  8
0
100
AcDbLine
 10
28.8
 20
-138.861
 30
0.0
 11
28.8
 21
-118.861
 31
0.0
  0
LINE
  5
DE
330
17
100
AcDbEntity
  8
0
100
AcDbLine
 10
30.2
 20
-138.861
 30
0.0
 11
28.8
 21
-138.861
 31
0.0
  0
LINE
  5
DF
330
17
100
AcDbEntity
  8
0
100
AcDbLine
 10
30.2
 20
-118.861
 30
0.0
 11
30.2
 21
-138.861
 31
0.0
  0
LINE
  5
E0
330
17
100
AcDbEntity
  8
0
100
AcDbLine
 10
112.0
 20
-69.8614
 30
0.0
 11
110.0
 21
-69.8614
 31
0.0
  0
LINE
  5
E1
330
17
100
AcDbEntity
  8
0
100
AcDbLine
 10
110.0
 20
-129.861
 30
0.0
 11
110.0
 21
-69.8614
 31
0.0
  0
LINE
  5
E2
330
17
100
AcDbEntity
  8
0
100
AcDbLine
 10
112.0
 20
-129.861
 30
0.0
 11
110.0
 21
-129.861
 31
0.0
  0
LINE
  5
E3
330
17
100
AcDbEntity
  8
0
100
AcDbLine
 10
112.0
 20
-69.8614
 30
0.0
 11
112.0
 21
-129.861
 31
0.0
  0
LINE
  5
E4
330
17
100
AcDbEntity
  8
0
100
AcDbLine
 10
17.3
 20
-134.861
 30
0.0
 11
17.3
 21
-134.861
 31
0.0
  0
LINE
  5
E5
330
17
100
AcDbEntity
  8
0
100
AcDbLine
 10
17.3
 20
-138.861
 30
0.0
 11
15.3
 21
-138.861
 31
0.0
  0
LINE
  5
E6
330
17
100
AcDbEntity
  8
0
100
AcDbLine
 10
15.3
 20
-138.861
 30
0.0
 11
15.3
 21
-138.861
 31
0.0
  0
LINE
  5
E7
330
17
100
AcDbEntity
  8
0
100
AcDbLine
 10
17.3
 20
-138.861
 30
0.0
 11
17.3
 21
-134.861
 31
0.0
  0
LINE
  5
E8
330
17
100
AcDbEntity
  8
0
100
AcDbLine
 10
97.947
 20
-66.4614
 30
0.0
 11
110.422
 21
-66.4614
 31
0.0
  0
LINE
  5
E9
330
17
100
AcDbEntity
  8
0
100
AcDbLine
 10
110.422
 20
-66.4614
 30
0.0
 11
110.422
 21
-31.2614
 31
0.0
  0
LINE
  5
EA
330
17
100
AcDbEntity
  8
0
100
AcDbLine
 10
110.422
 20
-31.2614
 30
0.0
 11
95.222
 21
-31.2614
 31
0.0
  0
LINE
  5
EB
330
17
100
AcDbEntity
  8
0
100
AcDbLine
 10
95.222
 20
-31.2614
 30
0.0
 11
95.222
 21
-58.8614
 31
0.0
  0
LINE
  5
EC
330
17
100
AcDbEntity
  8
0
100
AcDbLine
 10
93.822
 20
-29.8614
 30
0.0
 11
93.822
 21
-58.8614
 31
0.0
  0
LINE
  5
ED
330
17
100
AcDbEntity
  8
0
100
AcDbLine
 10
93.822
 20
-29.8614
 30
0.0
 11
93.822
 21
-27.8614
 31
0.0
  0
LINE
  5
EE
330
17
100
AcDbEntity
  8
0
100
AcDbLine
 10
111.822
 20
-29.8614
 30
0.0
 11
93.822
 21
-29.8614
 31
0.0
  0
LINE
  5
EF
330
17
100
AcDbEntity
  8
0
100
AcDbLine
 10
111.822
 20
-67.8614
 30
0.0
 11
111.822
 21
-29.8614
 31
0.0
  0
LINE
  5
F0
330
17
100
AcDbEntity
  8
0
100
AcDbLine
 10
97.947
 20
-67.8614
 30
0.0
 11
111.822
 21
-67.8614
 31
0.0
  0
LINE
  5
F1
330
17
100
AcDbEntity
  8
0
100
AcDbLine
 10
92.422
 20
-58.8614
 30
0.0
 11
92.422
 21
-31.2614
 31
0.0
  0
LINE
  5
F2
330
17
100
AcDbEntity
  8
0
100
AcDbLine
 10
92.422
 20
-31.2614
 30
0.0
 11
75.222
 21
-31.2614
 31
0.0
  0
LINE
  5
F3
330
17
100
AcDbEntity
  8
0
100
AcDbLine
 10
75.222
 20
-31.2614
 30
0.0
 11
75.222
 21
-58.8614
 31
0.0
  0
LINE
  5
F4
330
17
100
AcDbEntity
  8
0
100
AcDbLine
 10
73.822
 20
-29.8614
 30
0.0
 11
73.822
 21
-58.8614
 31
0.0
  0
LINE
  5
F5
330
17
100
AcDbEntity
  8
0
100
AcDbLine
 10
93.822
 20
-58.8614
 30
0.0
 11
93.822
 21
-29.8614
 31
0.0
  0
LINE
  5
F6
330
17
100
AcDbEntity
  8
0
100
AcDbLine
 10
73.822
 20
-29.8614
 30
0.0
 11
73.822
 21
-27.8614
 31
0.0
  0
LINE
  5
F7
330
17
100
AcDbEntity
  8
0
100
AcDbLine
 10
93.822
 20
-29.8614
 30
0.0
 11
73.822
 21
-29.8614
 31
0.0
  0
LINE
  5
F8
330
17
100
AcDbEntity
  8
0
100
AcDbLine
 10
93.822
 20
-27.8614
 30
0.0
 11
93.822
 21
-29.8614
 31
0.0
  0
LINE
  5
F9
330
17
100
AcDbEntity
  8
0
100
AcDbLine
 10
57.222
 20
-66.4614
 30
0.0
 11
70.547
 21
-66.4614
 31
0.0
  0
LINE
  5
FA
330
17
100
AcDbEntity
  8
0
100
AcDbLine
 10
72.422
 20
-58.8614
 30
0.0
 11
72.422
 21
-31.2614
 31
0.0
  0
LINE
  5
FB
330
17
100
AcDbEntity
  8
0
100
AcDbLine
 10
72.422
 20
-31.2614
 30
0.0
 11
57.222
 21
-31.2614
 31
0.0
  0
LINE
  5
FC
330
17
100
AcDbEntity
  8
0
100
AcDbLine
 10
57.222
 20
-31.2614
 30
0.0
 11
57.222
 21
-66.4614
 31
0.0
  0
LINE
  5
FD
330
17
100
AcDbEntity
  8
0
100
AcDbLine
 10
73.822
 20
-58.8614
 30
0.0
 11
73.822
 21
-29.8614
 31
0.0
  0
LINE
  5
FE
330
17
100
AcDbEntity
  8
0
100
AcDbLine
 10
55.822
 20
-67.8614
 30
0.0
 11
70.547
 21
-67.8614
 31
0.0
  0
LINE
  5
FF
330
17
100
AcDbEntity
  8
0
100
AcDbLine
 10
55.822
 20
-29.8614
 30
0.0
 11
55.822
 21
-67.8614
 31
0.0
  0
LINE
  5
100
330
17
100
AcDbEntity
  8
0
100
AcDbLine
 10
73.822
 20
-29.8614
 30
0.0
 11
55.822
 21
-29.8614
 31
0.0
  0
LINE
  5
101
330
17
100
AcDbEntity
  8
0
100
AcDbLine
 10
73.822
 20
-27.8614
 30
0.0
 11
73.822
 21
-29.8614
 31
0.0
  0
LINE
  5
102
330
17
100
AcDbEntity
  8
0
100
AcDbLine
 10
191.567
 20
-108.861
 30
0.0
 11
190.346
 21
-108.861
 31
0.0
  0
LINE
  5
103
330
17
100
AcDbEntity
  8
0
100
AcDbLine
 10
188.346
 20
-108.861
 30
0.0
 11
187.906
 21
-108.861
 31
0.0
  0
LINE
  5
104
330
17
100
AcDbEntity
  8
0
100
AcDbLine
 10
186.906
 20
-108.861
 30
0.0
 11
186.6
 21
-108.861
 31
0.0
  0
LINE
  5
105
330
17
100
AcDbEntity
  8
0
100
AcDbLine
 10
190.189
 20
-138.861
 30
0.0
 11
101.425
 21
-138.861
 31
0.0
  0
LINE
  5
106
330
17
100
AcDbEntity
  8
0
100
AcDbLine
 10
186.6
 20
-78.8614
 30
0.0
 11
186.6
 21
-78.8614
 31
0.0
  0
LINE
  5
107
330
17
100
AcDbEntity
  8
0
100
AcDbLine
 10
186.6
 20
-78.8614
 30
0.0
 11
186.6
 21
-77.124
 31
0.0
  0
LINE
  5
108
330
17
100
AcDbEntity
  8
0
100
AcDbLine
 10
186.6
 20
-76.124
 30
0.0
 11
186.6
 21
-72.8614
 31
0.0
  0
LINE
  5
109
330
17
100
AcDbEntity
  8
0
100
AcDbLine
 10
17.3
 20
-134.861
 30
0.0
 11
15.3
 21
-134.861
 31
0.0
  0
LINE
  5
10A
330
17
100
AcDbEntity
  8
0
100
AcDbLine
 10
15.3
 20
-138.861
 30
0.0
 11
15.3
 21
-134.861
 31
0.0
  0
LINE
  5
10B
330
17
100
AcDbEntity
  8
0
100
AcDbLine
 10
17.3
 20
-138.861
 30
0.0
 11
15.3
 21
-138.861
 31
0.0
  0
LINE
  5
10C
330
17
100
AcDbEntity
  8
0
100
AcDbLine
 10
17.3
 20
-134.861
 30
0.0
 11
17.3
 21
-138.861
 31
0.0
  0
LINE
  5
10D
330
17
100
AcDbEntity
  8
0
100
AcDbLine
 10
186.6
 20
-51.8614
 30
0.0
 11
186.6
 21
-51.8614
 31
0.0
  0
LINE
  5
10E
330
17
100
AcDbEntity
  8
0
100
AcDbLine
 10
186.6
 20
-70.8614
 30
0.0
 11
186.6
 21
-61.4483
 31
0.0
  0
LINE
  5
10F
330
17
100
AcDbEntity
  8
0
100
AcDbLine
 10
186.6
 20
-60.4483
 30
0.0
 11
186.6
 21
-51.8614
 31
0.0
  0
LINE
  5
110
330
17
100
AcDbEntity
  8
0
100
AcDbLine
 10
196.319
 20
-108.861
 30
0.0
 11
190.346
 21
-108.861
 31
0.0
  0
LINE
  5
111
330
17
100
AcDbEntity
  8
0
100
AcDbLine
 10
196.322
 20
-138.861
 30
0.0
 11
190.189
 21
-138.861
 31
0.0
  0
LINE
  5
112
330
17
100
AcDbEntity
  8
0
100
AcDbLine
 10
198.319
 20
-108.861
 30
0.0
 11
198.319
 21
-108.861
 31
0.0
  0
LINE
  5
113
330
17
100
AcDbEntity
  8
0
100
AcDbLine
 10
198.319
 20
-138.861
 30
0.0
 11
196.322
 21
-138.861
 31
0.0
  0
LINE
  5
114
330
17
100
AcDbEntity
  8
0
100
AcDbLine
 10
196.322
 20
-138.861
 30
0.0
 11
196.322
 21
-138.861
 31
0.0
  0
LINE
  5
115
330
17
100
AcDbEntity
  8
0
100
AcDbLine
 10
198.319
 20
-138.861
 30
0.0
 11
198.319
 21
-108.861
 31
0.0
  0
LINE
  5
116
330
17
100
AcDbEntity
  8
0
100
AcDbLine
 10
16.9741
 20
-108.861
 30
0.0
 11
15.3
 21
-108.861
 31
0.0
  0
LINE
  5
117
330
17
100
AcDbEntity
  8
0
100
AcDbLine
 10
15.3
 20
-134.861
 30
0.0
 11
15.3
 21
-108.861
 31
0.0
  0
LINE
  5
118
330
17
100
AcDbEntity
  8
0
100
AcDbLine
 10
45.6
 20
-108.861
 30
0.0
 11
44.5421
 21
-108.861
 31
0.0
  0
LINE
  5
119
330
17
100
AcDbEntity
  8
0
100
AcDbLine
 10
44.0421
 20
-108.861
 30
0.0
 11
42.5421
 21
-108.861
 31
0.0
  0
LINE
  5
11A
330
17
100
AcDbEntity
  8
0
100
AcDbLine
 10
42.0421
 20
-108.861
 30
0.0
 11
40.5421
 21
-108.861
 31
0.0
  0
LINE
  5
11B
330
17
100
AcDbEntity
  8
0
100
AcDbLine
 10
40.0421
 20
-108.861
 30
0.0
 11
38.5421
 21
-108.861
 31
0.0
  0
LINE
  5
11C
330
17
100
AcDbEntity
  8
0
100
AcDbLine
 10
38.0421
 20
-108.861
 30
0.0
 11
36.5421
 21
-108.861
 31
0.0
  0
LINE
  5
11D
330
17
100
AcDbEntity
  8
0
100
AcDbLine
 10
36.0421
 20
-108.861
 30
0.0
 11
34.5421
 21
-108.861
 31
0.0
  0
LINE
  5
11E
330
17
100
AcDbEntity
  8
0
100
AcDbLine
 10
34.0421
 20
-108.861
 30
0.0
 11
32.5421
 21
-108.861
 31
0.0
  0
LINE
  5
11F
330
17
100
AcDbEntity
  8
0
100
AcDbLine
 10
32.0421
 20
-108.861
 30
0.0
 11
30.7
 21
-108.861
 31
0.0
  0
LINE
  5
120
330
17
100
AcDbEntity
  8
0
100
AcDbLine
 10
30.2
 20
-108.861
 30
0.0
 11
16.9741
 21
-108.861
 31
0.0
  0
LINE
  5
121
330
17
100
AcDbEntity
  8
0
100
AcDbLine
 10
101.425
 20
-138.861
 30
0.0
 11
45.6607
 21
-138.861
 31
0.0
  0
LINE
  5
122
330
17
100
AcDbEntity
  8
0
100
AcDbLine
 10
34.4803
 20
-138.861
 30
0.0
 11
16.9741
 21
-138.861
 31
0.0
  0
LINE
  5
123
330
17
100
AcDbEntity
  8
0
100
AcDbLine
 10
16.9741
 20
-134.861
 30
0.0
 11
16.9741
 21
-108.861
 31
0.0
  0
LINE
  5
124
330
17
100
AcDbEntity
  8
0
100
AcDbLine
 10
198.319
 20
-138.861
 30
0.0
 11
196.319
 21
-138.861
 31
0.0
  0
LINE
  5
125
330
17
100
AcDbEntity
  8
0
100
AcDbLine
 10
198.319
 20
-108.861
 30
0.0
 11
198.319
 21
-138.861
 31
0.0
  0
LINE
  5
126
330
17
100
AcDbEntity
  8
0
100
AcDbLine
 10
198.319
 20
-108.861
 30
0.0
 11
196.319
 21
-108.861
 31
0.0
  0
LINE
  5
127
330
17
100
AcDbEntity
  8
0
100
AcDbLine
 10
196.319
 20
-138.861
 30
0.0
 11
196.319
 21
-108.861
 31
0.0
  0
LINE
  5
128
330
17
100
AcDbEntity
  8
0
100
AcDbLine
 10
181.6
 20
-103.719
 30
0.0
 11
181.6
 21
-103.719
 31
0.0
  0
LINE
  5
129
330
17
100
AcDbEntity
  8
0
100
AcDbLine
 10
181.6
 20
-87.7191
 30
0.0
 11
181.6
 21
-87.7191
 31
0.0
  0
LINE
  5
12A
330
17
100
AcDbEntity
  8
0
100
AcDbLine
 10
181.6
 20
-87.7191
 30
0.0
 11
181.6
 21
-103.719
 31
0.0
  0
LINE
  5
12B
330
17
100
AcDbEntity
  8
0
100
AcDbLine
 10
133.022
 20
-56.8614
 30
0.0
 11
137.053
 21
-56.8614
 31
0.0
  0
LINE
  5
12C
330
17
100
AcDbEntity
  8
0
100
AcDbLine
 10
125.053
 20
-56.4614
 30
0.0
 11
125.053
 21
-44.8614
 31
0.0
  0
LINE
  5
12D
330
17
100
AcDbEntity
  8
0
100
AcDbLine
 10
125.053
 20
-44.8614
 30
0.0
 11
137.053
 21
-44.8614
 31
0.0
  0
LINE
  5
12E
330
17
100
AcDbEntity
  8
0
100
AcDbLine
 10
137.053
 20
-56.8614
 30
0.0
 11
137.053
 21
-51.8614
 31
0.0
  0
LINE
  5
12F
330
17
100
AcDbEntity
  8
0
100
AcDbLine
 10
137.053
 20
-48.8614
 30
0.0
 11
137.053
 21
-44.8614
 31
0.0
  0
LINE
  5
130
330
17
100
AcDbEntity
  8
0
100
AcDbLine
 10
138.053
 20
-57.8614
 30
0.0
 11
138.053
 21
-57.8614
 31
0.0
  0
LINE
  5
131
330
17
100
AcDbEntity
  8
0
100
AcDbLine
 10
138.053
 20
-43.8614
 30
0.0
 11
138.053
 21
-43.8614
 31
0.0
  0
LINE
  5
132
330
17
100
AcDbEntity
  8
0
100
AcDbLine
 10
139.053
 20
-42.8614
 30
0.0
 11
139.053
 21
-48.8614
 31
0.0
  0
LINE
  5
133
330
17
100
AcDbEntity
  8
0
100
AcDbLine
 10
139.053
 20
-53.8614
 30
0.0
 11
139.053
 21
-58.8614
 31
0.0
  0
LINE
  5
134
330
17
100
AcDbEntity
  8
0
100
AcDbLine
 10
94.6
 20
-129.861
 30
0.0
 11
94.6
 21
-71.8614
 31
0.0
  0
LINE
  5
135
330
17
100
AcDbEntity
  8
0
100
AcDbLine
 10
79.6744
 20
-88.8614
 30
0.0
 11
94.1744
 21
-88.8614
 31
0.0
  0
LINE
  5
136
330
17
100
AcDbEntity
  8
0
100
AcDbLine
 10
79.6744
 20
-112.861
 30
0.0
 11
80.3597
 21
-112.861
 31
0.0
  0
LINE
  5
137
330
17
100
AcDbEntity
  8
0
100
AcDbLine
 10
91.3597
 20
-112.861
 30
0.0
 11
94.1744
 21
-112.861
 31
0.0
  0
LINE
  5
138
330
17
100
AcDbEntity
  8
0
100
AcDbLine
 10
93.1744
 20
-111.861
 30
0.0
 11
91.3597
 21
-111.861
 31
0.0
  0
LINE
  5
139
330
17
100
AcDbEntity
  8
0
100
AcDbLine
 10
93.1744
 20
-111.861
 30
0.0
 11
93.1744
 21
-89.8614
 31
0.0
  0
LINE
  5
13A
330
17
100
AcDbEntity
  8
0
100
AcDbLine
 10
93.1744
 20
-89.8614
 30
0.0
 11
80.6744
 21
-89.8614
 31
0.0
  0
LINE
  5
13B
330
17
100
AcDbEntity
  8
0
100
AcDbLine
 10
80.6744
 20
-111.861
 30
0.0
 11
80.6744
 21
-89.8614
 31
0.0
  0
LINE
  5
13C
330
17
100
AcDbEntity
  8
0
100
AcDbLine
 10
78.6744
 20
-89.8614
 30
0.0
 11
78.6744
 21
-89.8614
 31
0.0
  0
LINE
  5
13D
330
17
100
AcDbEntity
  8
0
100
AcDbLine
 10
78.6744
 20
-111.861
 30
0.0
 11
78.6744
 21
-111.861
 31
0.0
  0
LINE
  5
13E
330
17
100
AcDbEntity
  8
0
100
AcDbLine
 10
79.6744
 20
-88.8614
 30
0.0
 11
65.1744
 21
-88.8614
 31
0.0
  0
LINE
  5
13F
330
17
100
AcDbEntity
  8
0
100
AcDbLine
 10
79.6744
 20
-112.861
 30
0.0
 11
76.702
 21
-112.861
 31
0.0
  0
LINE
  5
140
330
17
100
AcDbEntity
  8
0
100
AcDbLine
 10
65.702
 20
-112.861
 30
0.0
 11
65.1744
 21
-112.861
 31
0.0
  0
LINE
  5
141
330
17
100
AcDbEntity
  8
0
100
AcDbLine
 10
78.6744
 20
-111.861
 30
0.0
 11
76.702
 21
-111.861
 31
0.0
  0
LINE
  5
142
330
17
100
AcDbEntity
  8
0
100
AcDbLine
 10
78.6744
 20
-111.861
 30
0.0
 11
78.6744
 21
-89.8614
 31
0.0
  0
LINE
  5
143
330
17
100
AcDbEntity
  8
0
100
AcDbLine
 10
78.6744
 20
-89.8614
 30
0.0
 11
66.1744
 21
-89.8614
 31
0.0
  0
LINE
  5
144
330
17
100
AcDbEntity
  8
0
100
AcDbLine
 10
66.1744
 20
-111.861
 30
0.0
 11
66.1744
 21
-89.8614
 31
0.0
  0
LINE
  5
145
330
17
100
AcDbEntity
  8
0
100
AcDbLine
 10
94.6
 20
-87.8614
 30
0.0
 11
64.1744
 21
-87.8614
 31
0.0
  0
LINE
  5
146
330
17
100
AcDbEntity
  8
0
100
AcDbLine
 10
94.6
 20
-113.861
 30
0.0
 11
91.3597
 21
-113.861
 31
0.0
  0
LINE
  5
147
330
17
100
AcDbEntity
  8
0
100
AcDbLine
 10
80.3597
 20
-113.861
 30
0.0
 11
76.702
 21
-113.861
 31
0.0
  0
LINE
  5
148
330
17
100
AcDbEntity
  8
0
100
AcDbLine
 10
65.702
 20
-113.861
 30
0.0
 11
64.1744
 21
-113.861
 31
0.0
  0
LINE
  5
149
330
17
100
AcDbEntity
  8
0
100
AcDbLine
 10
64.1744
 20
-113.861
 30
0.0
 11
64.1744
 21
-87.8614
 31
0.0
  0
LINE
  5
14A
330
17
100
AcDbEntity
  8
0
100
AcDbLine
 10
94.1744
 20
-112.861
 30
0.0
 11
91.3597
 21
-112.861
 31
0.0
  0
LINE
  5
14B
330
17
100
AcDbEntity
  8
0
100
AcDbLine
 10
80.3597
 20
-112.861
 30
0.0
 11
76.702
 21
-112.861
 31
0.0
  0
LINE
  5
14C
330
17
100
AcDbEntity
  8
0
100
AcDbLine
 10
65.702
 20
-112.861
 30
0.0
 11
65.1744
 21
-112.861
 31
0.0
  0
LINE
  5
14D
330
17
100
AcDbEntity
  8
0
100
AcDbLine
 10
94.1744
 20
-88.8614
 30
0.0
 11
65.1744
 21
-88.8614
 31
0.0
  0
LINE
  5
14E
330
17
100
AcDbEntity
  8
0
100
AcDbLine
 10
46.5
 20
-28.8614
 30
0.0
 11
45.7
 21
-28.8614
 31
0.0
  0
LINE
  5
14F
330
17
100
AcDbEntity
  8
0
100
AcDbLine
 10
46.5
 20
-52.8614
 30
0.0
 11
45.7
 21
-52.8614
 31
0.0
  0
LINE
  5
150
330
17
100
AcDbEntity
  8
0
100
AcDbLine
 10
46.5
 20
-52.8614
 30
0.0
 11
46.5
 21
-28.8614
 31
0.0
  0
LINE
  5
151
330
17
100
AcDbEntity
  8
0
100
AcDbLine
 10
45.7
 20
-52.8614
 30
0.0
 11
45.7
 21
-52.8614
 31
0.0
  0
LINE
  5
152
330
17
100
AcDbEntity
  8
0
100
AcDbLine
 10
45.7
 20
-52.8614
 30
0.0
 11
45.7
 21
-52.8614
 31
0.0
  0
LINE
  5
153
330
17
100
AcDbEntity
  8
0
100
AcDbLine
 10
47.1
 20
-28.8614
 30
0.0
 11
45.7
 21
-28.8614
 31
0.0
  0
LINE
  5
154
330
17
100
AcDbEntity
  8
0
100
AcDbLine
 10
45.7
 20
-27.8614
 30
0.0
 11
47.1
 21
-27.8614
 31
0.0
  0
LINE
  5
155
330
17
100
AcDbEntity
  8
0
100
AcDbLine
 10
47.1
 20
-28.8614
 30
0.0
 11
47.1
 21
-28.8614
 31
0.0
  0
LINE
  5
156
330
17
100
AcDbEntity
  8
0
100
AcDbLine
 10
47.1
 20
-52.8614
 30
0.0
 11
45.7
 21
-52.8614
 31
0.0
  0
LINE
  5
157
330
17
100
AcDbEntity
  8
0
100
AcDbLine
 10
47.1
 20
-52.8614
 30
0.0
 11
47.1
 21
-52.8614
 31
0.0
  0
LINE
  5
158
330
17
100
AcDbEntity
  8
0
100
AcDbLine
 10
47.1
 20
-53.8614
 30
0.0
 11
45.7
 21
-53.8614
 31
0.0
  0
LINE
  5
159
330
17
100
AcDbEntity
  8
0
100
AcDbLine
 10
47.1
 20
-28.8614
 30
0.0
 11
47.1
 21
-52.8614
 31
0.0
  0
LINE
  5
15A
330
17
100
AcDbEntity
  8
0
100
AcDbLine
 10
47.1
 20
-52.8614
 30
0.0
 11
47.1
 21
-52.8614
 31
0.0
  0
LINE
  5
15B
330
17
100
AcDbEntity
  8
0
100
AcDbLine
 10
47.1
 20
-52.8614
 30
0.0
 11
47.1
 21
-52.8614
 31
0.0
  0
LINE
  5
15C
330
17
100
AcDbEntity
  8
0
100
AcDbLine
 10
47.1
 20
-27.8614
 30
0.0
 11
47.1
 21
-53.8614
 31
0.0
  0
LINE
  5
15D
330
17
100
AcDbEntity
  8
0
100
AcDbLine
 10
47.1
 20
-27.8614
 30
0.0
 11
47.1
 21
-53.8614
 31
0.0
  0
LINE
  5
15E
330
17
100
AcDbEntity
  8
0
100
AcDbLine
 10
45.7
 20
-52.8614
 30
0.0
 11
45.7
 21
-52.8614
 31
0.0
  0
LINE
  5
15F
330
17
100
AcDbEntity
  8
0
100
AcDbLine
 10
45.7
 20
-53.8614
 30
0.0
 11
45.7
 21
-27.8614
 31
0.0
  0
LINE
  5
160
330
17
100
AcDbEntity
  8
0
100
AcDbLine
 10
45.7
 20
-27.8614
 30
0.0
 11
45.7
 21
-27.8614
 31
0.0
  0
LINE
  5
161
330
17
100
AcDbEntity
  8
0
100
AcDbLine
 10
45.7
 20
-53.8614
 30
0.0
 11
45.7
 21
-52.8614
 31
0.0
  0
LINE
  5
162
330
17
100
AcDbEntity
  8
0
100
AcDbLine
 10
45.7
 20
-28.8614
 30
0.0
 11
45.7
 21
-27.8614
 31
0.0
  0
LINE
  5
163
330
17
100
AcDbEntity
  8
0
100
AcDbLine
 10
148.677
 20
-71.8614
 30
0.0
 11
119.7
 21
-71.8614
 31
0.0
  0
LINE
  5
164
330
17
100
AcDbEntity
  8
0
100
AcDbLine
 10
119.7
 20
-73.8614
 30
0.0
 11
119.7
 21
-71.8614
 31
0.0
  0
LINE
  5
165
330
17
100
AcDbEntity
  8
0
100
AcDbLine
 10
148.677
 20
-73.8614
 30
0.0
 11
119.7
 21
-73.8614
 31
0.0
  0
LINE
  5
166
330
17
100
AcDbEntity
  8
0
100
AcDbLine
 10
148.677
 20
-71.8614
 30
0.0
 11
148.677
 21
-73.8614
 31
0.0
  0
LINE
  5
167
330
17
100
AcDbEntity
  8
0
100
AcDbLine
 10
184.6
 20
8.13859
 30
0.0
 11
47.7
 21
8.13859
 31
0.0
  0
LINE
  5
168
330
17
100
AcDbEntity
  8
0
100
AcDbLine
 10
186.6
 20
8.13859
 30
0.0
 11
186.6
 21
8.13859
 31
0.0
  0
LINE
  5
169
330
17
100
AcDbEntity
  8
0
100
AcDbLine
 10
186.6
 20
-7.86141
 30
0.0
 11
186.6
 21
-7.86141
 31
0.0
  0
LINE
  5
16A
330
17
100
AcDbEntity
  8
0
100
AcDbLine
 10
186.6
 20
-7.86141
 30
0.0
 11
186.6
 21
8.13859
 31
0.0
  0
LINE
  5
16B
330
17
100
AcDbEntity
  8
0
100
AcDbLine
 10
47.7
 20
8.13859
 30
0.0
 11
47.7
 21
8.13859
 31
0.0
  0
LINE
  5
16C
330
17
100
AcDbEntity
  8
0
100
AcDbLine
 10
47.7
 20
-7.86141
 30
0.0
 11
47.7
 21
8.13859
 31
0.0
  0
LINE
  5
16D
330
17
100
AcDbEntity
  8
0
100
AcDbLine
 10
47.7
 20
-7.86141
 30
0.0
 11
45.7
 21
-7.86141
 31
0.0
  0
LINE
  5
16E
330
17
100
AcDbEntity
  8
0
100
AcDbLine
 10
47.7
 20
8.13859
 30
0.0
 11
47.7
 21
-7.86141
 31
0.0
  0
LINE
  5
16F
330
17
100
AcDbEntity
  8
0
100
AcDbLine
 10
47.7
 20
8.13859
 30
0.0
 11
45.7
 21
8.13859
 31
0.0
  0
LINE
  5
170
330
17
100
AcDbEntity
  8
0
100
AcDbLine
 10
45.7
 20
-7.86141
 30
0.0
 11
45.7
 21
8.13859
 31
0.0
  0
LINE
  5
171
330
17
100
AcDbEntity
  8
0
100
AcDbLine
 10
186.6
 20
-7.8614
 30
0.0
 11
184.6
 21
-7.8614
 31
0.0
  0
LINE
  5
172
330
17
100
AcDbEntity
  8
0
100
AcDbLine
 10
186.6
 20
8.1386
 30
0.0
 11
186.6
 21
-7.8614
 31
0.0
  0
LINE
  5
173
330
17
100
AcDbEntity
  8
0
100
AcDbLine
 10
186.6
 20
8.1386
 30
0.0
 11
184.6
 21
8.1386
 31
0.0
  0
LINE
  5
174
330
17
100
AcDbEntity
  8
0
100
AcDbLine
 10
184.6
 20
-7.8614
 30
0.0
 11
184.6
 21
8.1386
 31
0.0
  0
LINE
  5
175
330
17
100
AcDbEntity
  8
0
100
AcDbLine
 10
163.245
 20
-32.8614
 30
0.0
 11
181.245
 21
-32.8614
 31
0.0
  0
LINE
  5
176
330
17
100
AcDbEntity
  8
0
100
AcDbLine
 10
181.245
 20
-74.8614
 30
0.0
 11
181.245
 21
-32.8614
 31
0.0
  0
LINE
  5
177
330
17
100
AcDbEntity
  8
0
100
AcDbLine
 10
163.245
 20
-74.8614
 30
0.0
 11
163.245
 21
-32.8614
 31
0.0
  0
LINE
  5
178
330
17
100
AcDbEntity
  8
0
100
AcDbLine
 10
181.6
 20
-74.8614
 30
0.0
 11
150.677
 21
-74.8614
 31
0.0
  0
LINE
  5
179
330
17
100
AcDbEntity
  8
0
100
AcDbLine
 10
150.677
 20
-76.8614
 30
0.0
 11
150.677
 21
-74.8614
 31
0.0
  0
LINE
  5
17A
330
17
100
AcDbEntity
  8
0
100
AcDbLine
 10
181.6
 20
-76.8614
 30
0.0
 11
150.677
 21
-76.8614
 31
0.0
  0
LINE
  5
17B
330
17
100
AcDbEntity
  8
0
100
AcDbLine
 10
181.6
 20
-74.8614
 30
0.0
 11
181.6
 21
-76.8614
 31
0.0
  0
LINE
  5
17C
330
17
100
AcDbEntity
  8
0
100
AcDbLine
 10
186.6
 20
-129.861
 30
0.0
 11
181.6
 21
-129.861
 31
0.0
  0
LINE
  5
17D
330
17
100
AcDbEntity
  8
0
100
AcDbLine
 10
186.6
 20
-78.8614
 30
0.0
 11
186.6
 21
-129.861
 31
0.0
  0
LINE
  5
17E
330
17
100
AcDbEntity
  8
0
100
AcDbLine
 10
186.6
 20
-78.8614
 30
0.0
 11
181.6
 21
-78.8614
 31
0.0
  0
LINE
  5
17F
330
17
100
AcDbEntity
  8
0
100
AcDbLine
 10
181.6
 20
-129.861
 30
0.0
 11
181.6
 21
-78.8614
 31
0.0
  0
LINE
  5
180
330
17
100
AcDbEntity
  8
0
100
AcDbLine
 10
186.6
 20
-127.861
 30
0.0
 11
186.6
 21
-121.045
 31
0.0
  0
LINE
  5
181
330
17
100
AcDbEntity
  8
0
100
AcDbLine
 10
186.6
 20
-120.045
 30
0.0
 11
186.6
 21
-80.8614
 31
0.0
  0
LINE
  5
182
330
17
100
AcDbEntity
  8
0
100
AcDbLine
 10
64.1744
 20
-87.8614
 30
0.0
 11
64.1744
 21
-113.861
 31
0.0
  0
LINE
  5
183
330
17
100
AcDbEntity
  8
0
100
AcDbLine
 10
94.6
 20
-87.8614
 30
0.0
 11
64.1744
 21
-87.8614
 31
0.0
  0
LINE
  5
184
330
17
100
AcDbEntity
  8
0
100
AcDbLine
 10
64.1744
 20
-113.861
 30
0.0
 11
65.702
 21
-113.861
 31
0.0
  0
LINE
  5
185
330
17
100
AcDbEntity
  8
0
100
AcDbLine
 10
76.702
 20
-113.861
 30
0.0
 11
80.3597
 21
-113.861
 31
0.0
  0
LINE
  5
186
330
17
100
AcDbEntity
  8
0
100
AcDbLine
 10
91.3597
 20
-113.861
 30
0.0
 11
94.6
 21
-113.861
 31
0.0
  0
LINE
  5
187
330
17
100
AcDbEntity
  8
0
100
AcDbLine
 10
115.1
 20
-71.8614
 30
0.0
 11
112.0
 21
-71.8614
 31
0.0
  0
LINE
  5
188
330
17
100
AcDbEntity
  8
0
100
AcDbLine
 10
94.6
 20
-71.8614
 30
0.0
 11
62.7
 21
-71.8614
 31
0.0
  0
LINE
  5
189
330
17
100
AcDbEntity
  8
0
100
AcDbLine
 10
130.777
 20
-87.8614
 30
0.0
 11
112.0
 21
-87.8614
 31
0.0
  0
LINE
  5
18A
330
17
100
AcDbEntity
  8
0
100
AcDbLine
 10
130.777
 20
-129.861
 30
0.0
 11
130.777
 21
-87.8614
 31
0.0
  0
LINE
  5
18B
330
17
100
AcDbEntity
  8
0
100
AcDbLine
 10
50.7
 20
-71.8614
 30
0.0
 11
50.7
 21
-71.8614
 31
0.0
  0
LINE
  5
18C
330
17
100
AcDbEntity
  8
0
100
AcDbLine
 10
138.018
 20
-48.8614
 30
0.0
 11
138.018
 21
-51.8614
 31
0.0
  0
LINE
  5
18D
330
17
100
AcDbEntity
  8
0
100
AcDbLine
 10
137.763
 20
-51.8614
 30
0.0
 11
137.763
 21
-48.8614
 31
0.0
  0
LINE
  5
18E
330
17
100
AcDbEntity
  8
0
100
AcDbLine
 10
144.763
 20
-51.8614
 30
0.0
 11
144.763
 21
-48.8614
 31
0.0
  0
LINE
  5
18F
330
17
100
AcDbEntity
  8
0
100
AcDbLine
 10
137.877
 20
-48.8614
 30
0.0
 11
138.018
 21
-48.8614
 31
0.0
  0
LINE
  5
190
330
17
100
AcDbEntity
  8
0
100
AcDbLine
 10
137.792
 20
-48.8614
 30
0.0
 11
137.877
 21
-48.8614
 31
0.0
  0
LINE
  5
191
330
17
100
AcDbEntity
  8
0
100
AcDbLine
 10
137.763
 20
-48.8614
 30
0.0
 11
137.792
 21
-48.8614
 31
0.0
  0
LINE
  5
192
330
17
100
AcDbEntity
  8
0
100
AcDbLine
 10
138.018
 20
-48.8614
 30
0.0
 11
144.763
 21
-48.8614
 31
0.0
  0
LINE
  5
193
330
17
100
AcDbEntity
  8
0
100
AcDbLine
 10
137.877
 20
-51.8614
 30
0.0
 11
138.018
 21
-51.8614
 31
0.0
  0
LINE
  5
194
330
17
100
AcDbEntity
  8
0
100
AcDbLine
 10
137.792
 20
-51.8614
 30
0.0
 11
137.877
 21
-51.8614
 31
0.0
  0
LINE
  5
195
330
17
100
AcDbEntity
  8
0
100
AcDbLine
 10
137.763
 20
-51.8614
 30
0.0
 11
137.792
 21
-51.8614
 31
0.0
  0
LINE
  5
196
330
17
100
AcDbEntity
  8
0
100
AcDbLine
 10
138.018
 20
-51.8614
 30
0.0
 11
144.763
 21
-51.8614
 31
0.0
  0
LINE
  5
197
330
17
100
AcDbEntity
  8
0
100
AcDbLine
 10
144.763
 20
-48.8614
 30
0.0
 11
145.863
 21
-48.8614
 31
0.0
  0
LINE
  5
198
330
17
100
AcDbEntity
  8
0
100
AcDbLine
 10
144.763
 20
-51.8614
 30
0.0
 11
145.863
 21
-51.8614
 31
0.0
  0
LINE
  5
199
330
17
100
AcDbEntity
  8
0
100
AcDbLine
 10
145.863
 20
-48.8614
 30
0.0
 11
144.763
 21
-48.8614
 31
0.0
  0
LINE
  5
19A
330
17
100
AcDbEntity
  8
0
100
AcDbLine
 10
145.863
 20
-51.8614
 30
0.0
 11
144.763
 21
-51.8614
 31
0.0
  0
LINE
  5
19B
330
17
100
AcDbEntity
  8
0
100
AcDbLine
 10
136.863
 20
-48.8614
 30
0.0
 11
136.863
 21
-51.8614
 31
0.0
  0
LINE
  5
19C
330
17
100
AcDbEntity
  8
0
100
AcDbLine
 10
146.863
 20
-51.8614
 30
0.0
 11
146.863
 21
-48.8614
 31
0.0
  0
LINE
  5
19D
330
17
100
AcDbEntity
  8
0
100
AcDbLine
 10
136.888
 20
-48.8614
 30
0.0
 11
136.863
 21
-48.8614
 31
0.0
  0
LINE
  5
19E
330
17
100
AcDbEntity
  8
0
100
AcDbLine
 10
136.962
 20
-48.8614
 30
0.0
 11
136.888
 21
-48.8614
 31
0.0
  0
LINE
  5
19F
330
17
100
AcDbEntity
  8
0
100
AcDbLine
 10
137.081
 20
-48.8614
 30
0.0
 11
136.962
 21
-48.8614
 31
0.0
  0
LINE
  5
1A0
330
17
100
AcDbEntity
  8
0
100
AcDbLine
 10
137.239
 20
-48.8614
 30
0.0
 11
137.081
 21
-48.8614
 31
0.0
  0
LINE
  5
1A1
330
17
100
AcDbEntity
  8
0
100
AcDbLine
 10
137.429
 20
-48.8614
 30
0.0
 11
137.239
 21
-48.8614
 31
0.0
  0
LINE
  5
1A2
330
17
100
AcDbEntity
  8
0
100
AcDbLine
 10
137.64
 20
-48.8614
 30
0.0
 11
137.429
 21
-48.8614
 31
0.0
  0
LINE
  5
1A3
330
17
100
AcDbEntity
  8
0
100
AcDbLine
 10
137.763
 20
-48.8614
 30
0.0
 11
137.64
 21
-48.8614
 31
0.0
  0
LINE
  5
1A4
330
17
100
AcDbEntity
  8
0
100
AcDbLine
 10
136.863
 20
-48.8614
 30
0.0
 11
136.863
 21
-48.8614
 31
0.0
  0
LINE
  5
1A5
330
17
100
AcDbEntity
  8
0
100
AcDbLine
 10
136.863
 20
-48.8614
 30
0.0
 11
138.018
 21
-48.8614
 31
0.0
  0
LINE
  5
1A6
330
17
100
AcDbEntity
  8
0
100
AcDbLine
 10
144.763
 20
-48.8614
 30
0.0
 11
146.863
 21
-48.8614
 31
0.0
  0
LINE
  5
1A7
330
17
100
AcDbEntity
  8
0
100
AcDbLine
 10
146.863
 20
-48.8614
 30
0.0
 11
146.863
 21
-48.8614
 31
0.0
  0
LINE
  5
1A8
330
17
100
AcDbEntity
  8
0
100
AcDbLine
 10
146.085
 20
-48.8614
 30
0.0
 11
145.863
 21
-48.8614
 31
0.0
  0
LINE
  5
1A9
330
17
100
AcDbEntity
  8
0
100
AcDbLine
 10
146.297
 20
-48.8614
 30
0.0
 11
146.085
 21
-48.8614
 31
0.0
  0
LINE
  5
1AA
330
17
100
AcDbEntity
  8
0
100
AcDbLine
 10
146.486
 20
-48.8614
 30
0.0
 11
146.297
 21
-48.8614
 31
0.0
  0
LINE
  5
1AB
330
17
100
AcDbEntity
  8
0
100
AcDbLine
 10
146.645
 20
-48.8614
 30
0.0
 11
146.486
 21
-48.8614
 31
0.0
  0
LINE
  5
1AC
330
17
100
AcDbEntity
  8
0
100
AcDbLine
 10
146.764
 20
-48.8614
 30
0.0
 11
146.645
 21
-48.8614
 31
0.0
  0
LINE
  5
1AD
330
17
100
AcDbEntity
  8
0
100
AcDbLine
 10
146.838
 20
-48.8614
 30
0.0
 11
146.764
 21
-48.8614
 31
0.0
  0
LINE
  5
1AE
330
17
100
AcDbEntity
  8
0
100
AcDbLine
 10
146.863
 20
-48.8614
 30
0.0
 11
146.838
 21
-48.8614
 31
0.0
  0
LINE
  5
1AF
330
17
100
AcDbEntity
  8
0
100
AcDbLine
 10
136.888
 20
-51.8614
 30
0.0
 11
136.863
 21
-51.8614
 31
0.0
  0
LINE
  5
1B0
330
17
100
AcDbEntity
  8
0
100
AcDbLine
 10
136.962
 20
-51.8614
 30
0.0
 11
136.888
 21
-51.8614
 31
0.0
  0
LINE
  5
1B1
330
17
100
AcDbEntity
  8
0
100
AcDbLine
 10
137.081
 20
-51.8614
 30
0.0
 11
136.962
 21
-51.8614
 31
0.0
  0
LINE
  5
1B2
330
17
100
AcDbEntity
  8
0
100
AcDbLine
 10
137.239
 20
-51.8614
 30
0.0
 11
137.081
 21
-51.8614
 31
0.0
  0
LINE
  5
1B3
330
17
100
AcDbEntity
  8
0
100
AcDbLine
 10
137.429
 20
-51.8614
 30
0.0
 11
137.239
 21
-51.8614
 31
0.0
  0
LINE
  5
1B4
330
17
100
AcDbEntity
  8
0
100
AcDbLine
 10
137.64
 20
-51.8614
 30
0.0
 11
137.429
 21
-51.8614
 31
0.0
  0
LINE
  5
1B5
330
17
100
AcDbEntity
  8
0
100
AcDbLine
 10
137.763
 20
-51.8614
 30
0.0
 11
137.64
 21
-51.8614
 31
0.0
  0
LINE
  5
1B6
330
17
100
AcDbEntity
  8
0
100
AcDbLine
 10
136.863
 20
-51.8614
 30
0.0
 11
136.863
 21
-51.8614
 31
0.0
  0
LINE
  5
1B7
330
17
100
AcDbEntity
  8
0
100
AcDbLine
 10
136.863
 20
-51.8614
 30
0.0
 11
138.018
 21
-51.8614
 31
0.0
  0
LINE
  5
1B8
330
17
100
AcDbEntity
  8
0
100
AcDbLine
 10
144.763
 20
-51.8614
 30
0.0
 11
146.863
 21
-51.8614
 31
0.0
  0
LINE
  5
1B9
330
17
100
AcDbEntity
  8
0
100
AcDbLine
 10
146.863
 20
-51.8614
 30
0.0
 11
146.863
 21
-51.8614
 31
0.0
  0
LINE
  5
1BA
330
17
100
AcDbEntity
  8
0
100
AcDbLine
 10
146.085
 20
-51.8614
 30
0.0
 11
145.863
 21
-51.8614
 31
0.0
  0
LINE
  5
1BB
330
17
100
AcDbEntity
  8
0
100
AcDbLine
 10
146.297
 20
-51.8614
 30
0.0
 11
146.085
 21
-51.8614
 31
0.0
  0
LINE
  5
1BC
330
17
100
AcDbEntity
  8
0
100
AcDbLine
 10
146.486
 20
-51.8614
 30
0.0
 11
146.297
 21
-51.8614
 31
0.0
  0
LINE
  5
1BD
330
17
100
AcDbEntity
  8
0
100
AcDbLine
 10
146.645
 20
-51.8614
 30
0.0
 11
146.486
 21
-51.8614
 31
0.0
  0
LINE
  5
1BE
330
17
100
AcDbEntity
  8
0
100
AcDbLine
 10
146.764
 20
-51.8614
 30
0.0
 11
146.645
 21
-51.8614
 31
0.0
  0
LINE
  5
1BF
330
17
100
AcDbEntity
  8
0
100
AcDbLine
 10
146.838
 20
-51.8614
 30
0.0
 11
146.764
 21
-51.8614
 31
0.0
  0
LINE
  5
1C0
330
17
100
AcDbEntity
  8
0
100
AcDbLine
 10
146.863
 20
-51.8614
 30
0.0
 11
146.838
 21
-51.8614
 31
0.0
  0
LINE
  5
1C1
330
17
100
AcDbEntity
  8
0
100
AcDbLine
 10
145.863
 20
-48.8614
 30
0.0
 11
144.763
 21
-48.8614
 31
0.0
  0
LINE
  5
1C2
330
17
100
AcDbEntity
  8
0
100
AcDbLine
 10
145.863
 20
-51.8614
 30
0.0
 11
144.763
 21
-51.8614
 31
0.0
  0
LINE
  5
1C3
330
17
100
AcDbEntity
  8
0
100
AcDbLine
 10
138.018
 20
-51.8614
 30
0.0
 11
138.018
 21
-53.8614
 31
0.0
  0
LINE
  5
1C4
330
17
100
AcDbEntity
  8
0
100
AcDbLine
 10
137.763
 20
-53.8614
 30
0.0
 11
137.763
 21
-51.8614
 31
0.0
  0
LINE
  5
1C5
330
17
100
AcDbEntity
  8
0
100
AcDbLine
 10
144.763
 20
-53.8614
 30
0.0
 11
144.763
 21
-51.8614
 31
0.0
  0
LINE
  5
1C6
330
17
100
AcDbEntity
  8
0
100
AcDbLine
 10
137.877
 20
-51.8614
 30
0.0
 11
138.018
 21
-51.8614
 31
0.0
  0
LINE
  5
1C7
330
17
100
AcDbEntity
  8
0
100
AcDbLine
 10
137.792
 20
-51.8614
 30
0.0
 11
137.877
 21
-51.8614
 31
0.0
  0
LINE
  5
1C8
330
17
100
AcDbEntity
  8
0
100
AcDbLine
 10
137.763
 20
-51.8614
 30
0.0
 11
137.792
 21
-51.8614
 31
0.0
  0
LINE
  5
1C9
330
17
100
AcDbEntity
  8
0
100
AcDbLine
 10
138.018
 20
-51.8614
 30
0.0
 11
144.763
 21
-51.8614
 31
0.0
  0
LINE
  5
1CA
330
17
100
AcDbEntity
  8
0
100
AcDbLine
 10
137.877
 20
-53.8614
 30
0.0
 11
138.018
 21
-53.8614
 31
0.0
  0
LINE
  5
1CB
330
17
100
AcDbEntity
  8
0
100
AcDbLine
 10
137.792
 20
-53.8614
 30
0.0
 11
137.877
 21
-53.8614
 31
0.0
  0
LINE
  5
1CC
330
17
100
AcDbEntity
  8
0
100
AcDbLine
 10
137.763
 20
-53.8614
 30
0.0
 11
137.792
 21
-53.8614
 31
0.0
  0
LINE
  5
1CD
330
17
100
AcDbEntity
  8
0
100
AcDbLine
 10
138.018
 20
-53.8614
 30
0.0
 11
144.763
 21
-53.8614
 31
0.0
  0
LINE
  5
1CE
330
17
100
AcDbEntity
  8
0
100
AcDbLine
 10
153.037
 20
-51.7328
 30
0.0
 11
153.037
 21
-54.7328
 31
0.0
  0
LINE
  5
1CF
330
17
100
AcDbEntity
  8
0
100
AcDbLine
 10
153.037
 20
-51.7328
 30
0.0
 11
159.913
 21
-51.7328
 31
0.0
  0
LINE
  5
1D0
330
17
100
AcDbEntity
  8
0
100
AcDbLine
 10
153.037
 20
-54.7328
 30
0.0
 11
159.913
 21
-54.7328
 31
0.0
  0
LINE
  5
1D1
330
17
100
AcDbEntity
  8
0
100
AcDbLine
 10
159.913
 20
-51.7328
 30
0.0
 11
159.913
 21
-54.7328
 31
0.0
  0
LINE
  5
1D2
330
17
100
AcDbEntity
  8
0
100
AcDbLine
 10
160.023
 20
-51.7328
 30
0.0
 11
160.037
 21
-51.7328
 31
0.0
  0
LINE
  5
1D3
330
17
100
AcDbEntity
  8
0
100
AcDbLine
 10
159.982
 20
-51.7328
 30
0.0
 11
160.023
 21
-51.7328
 31
0.0
  0
LINE
  5
1D4
330
17
100
AcDbEntity
  8
0
100
AcDbLine
 10
159.913
 20
-51.7328
 30
0.0
 11
159.982
 21
-51.7328
 31
0.0
  0
LINE
  5
1D5
330
17
100
AcDbEntity
  8
0
100
AcDbLine
 10
160.037
 20
-54.7328
 30
0.0
 11
160.037
 21
-51.7328
 31
0.0
  0
LINE
  5
1D6
330
17
100
AcDbEntity
  8
0
100
AcDbLine
 10
160.023
 20
-54.7328
 30
0.0
 11
160.037
 21
-54.7328
 31
0.0
  0
LINE
  5
1D7
330
17
100
AcDbEntity
  8
0
100
AcDbLine
 10
159.982
 20
-54.7328
 30
0.0
 11
160.023
 21
-54.7328
 31
0.0
  0
LINE
  5
1D8
330
17
100
AcDbEntity
  8
0
100
AcDbLine
 10
159.913
 20
-54.7328
 30
0.0
 11
159.982
 21
-54.7328
 31
0.0
  0
LINE
  5
1D9
330
17
100
AcDbEntity
  8
0
100
AcDbLine
 10
150.937
 20
-51.7328
 30
0.0
 11
150.937
 21
-54.7328
 31
0.0
  0
LINE
  5
1DA
330
17
100
AcDbEntity
  8
0
100
AcDbLine
 10
150.937
 20
-51.7328
 30
0.0
 11
153.037
 21
-51.7328
 31
0.0
  0
LINE
  5
1DB
330
17
100
AcDbEntity
  8
0
100
AcDbLine
 10
159.913
 20
-51.7328
 30
0.0
 11
160.937
 21
-51.7328
 31
0.0
  0
LINE
  5
1DC
330
17
100
AcDbEntity
  8
0
100
AcDbLine
 10
153.037
 20
-51.7328
 30
0.0
 11
151.937
 21
-51.7328
 31
0.0
  0
LINE
  5
1DD
330
17
100
AcDbEntity
  8
0
100
AcDbLine
 10
150.962
 20
-51.7328
 30
0.0
 11
150.937
 21
-51.7328
 31
0.0
  0
LINE
  5
1DE
330
17
100
AcDbEntity
  8
0
100
AcDbLine
 10
151.036
 20
-51.7328
 30
0.0
 11
150.962
 21
-51.7328
 31
0.0
  0
LINE
  5
1DF
330
17
100
AcDbEntity
  8
0
100
AcDbLine
 10
151.155
 20
-51.7328
 30
0.0
 11
151.036
 21
-51.7328
 31
0.0
  0
LINE
  5
1E0
330
17
100
AcDbEntity
  8
0
100
AcDbLine
 10
151.314
 20
-51.7328
 30
0.0
 11
151.155
 21
-51.7328
 31
0.0
  0
LINE
  5
1E1
330
17
100
AcDbEntity
  8
0
100
AcDbLine
 10
151.503
 20
-51.7328
 30
0.0
 11
151.314
 21
-51.7328
 31
0.0
  0
LINE
  5
1E2
330
17
100
AcDbEntity
  8
0
100
AcDbLine
 10
151.715
 20
-51.7328
 30
0.0
 11
151.503
 21
-51.7328
 31
0.0
  0
LINE
  5
1E3
330
17
100
AcDbEntity
  8
0
100
AcDbLine
 10
151.937
 20
-51.7328
 30
0.0
 11
151.715
 21
-51.7328
 31
0.0
  0
LINE
  5
1E4
330
17
100
AcDbEntity
  8
0
100
AcDbLine
 10
150.937
 20
-51.7328
 30
0.0
 11
150.937
 21
-51.7328
 31
0.0
  0
LINE
  5
1E5
330
17
100
AcDbEntity
  8
0
100
AcDbLine
 10
160.16
 20
-51.7328
 30
0.0
 11
160.037
 21
-51.7328
 31
0.0
  0
LINE
  5
1E6
330
17
100
AcDbEntity
  8
0
100
AcDbLine
 10
160.371
 20
-51.7328
 30
0.0
 11
160.16
 21
-51.7328
 31
0.0
  0
LINE
  5
1E7
330
17
100
AcDbEntity
  8
0
100
AcDbLine
 10
160.561
 20
-51.7328
 30
0.0
 11
160.371
 21
-51.7328
 31
0.0
  0
LINE
  5
1E8
330
17
100
AcDbEntity
  8
0
100
AcDbLine
 10
160.719
 20
-51.7328
 30
0.0
 11
160.561
 21
-51.7328
 31
0.0
  0
LINE
  5
1E9
330
17
100
AcDbEntity
  8
0
100
AcDbLine
 10
160.838
 20
-51.7328
 30
0.0
 11
160.719
 21
-51.7328
 31
0.0
  0
LINE
  5
1EA
330
17
100
AcDbEntity
  8
0
100
AcDbLine
 10
160.912
 20
-51.7328
 30
0.0
 11
160.838
 21
-51.7328
 31
0.0
  0
LINE
  5
1EB
330
17
100
AcDbEntity
  8
0
100
AcDbLine
 10
160.937
 20
-51.7328
 30
0.0
 11
160.912
 21
-51.7328
 31
0.0
  0
LINE
  5
1EC
330
17
100
AcDbEntity
  8
0
100
AcDbLine
 10
150.937
 20
-54.7328
 30
0.0
 11
153.037
 21
-54.7328
 31
0.0
  0
LINE
  5
1ED
330
17
100
AcDbEntity
  8
0
100
AcDbLine
 10
159.913
 20
-54.7328
 30
0.0
 11
160.937
 21
-54.7328
 31
0.0
  0
LINE
  5
1EE
330
17
100
AcDbEntity
  8
0
100
AcDbLine
 10
160.16
 20
-54.7328
 30
0.0
 11
160.037
 21
-54.7328
 31
0.0
  0
LINE
  5
1EF
330
17
100
AcDbEntity
  8
0
100
AcDbLine
 10
160.371
 20
-54.7328
 30
0.0
 11
160.16
 21
-54.7328
 31
0.0
  0
LINE
  5
1F0
330
17
100
AcDbEntity
  8
0
100
AcDbLine
 10
160.561
 20
-54.7328
 30
0.0
 11
160.371
 21
-54.7328
 31
0.0
  0
LINE
  5
1F1
330
17
100
AcDbEntity
  8
0
100
AcDbLine
 10
160.719
 20
-54.7328
 30
0.0
 11
160.561
 21
-54.7328
 31
0.0
  0
LINE
  5
1F2
330
17
100
AcDbEntity
  8
0
100
AcDbLine
 10
160.838
 20
-54.7328
 30
0.0
 11
160.719
 21
-54.7328
 31
0.0
  0
LINE
  5
1F3
330
17
100
AcDbEntity
  8
0
100
AcDbLine
 10
160.912
 20
-54.7328
 30
0.0
 11
160.838
 21
-54.7328
 31
0.0
  0
LINE
  5
1F4
330
17
100
AcDbEntity
  8
0
100
AcDbLine
 10
160.937
 20
-54.7328
 30
0.0
 11
160.912
 21
-54.7328
 31
0.0
  0
LINE
  5
1F5
330
17
100
AcDbEntity
  8
0
100
AcDbLine
 10
153.037
 20
-54.7328
 30
0.0
 11
151.937
 21
-54.7328
 31
0.0
  0
LINE
  5
1F6
330
17
100
AcDbEntity
  8
0
100
AcDbLine
 10
150.962
 20
-54.7328
 30
0.0
 11
150.937
 21
-54.7328
 31
0.0
  0
LINE
  5
1F7
330
17
100
AcDbEntity
  8
0
100
AcDbLine
 10
151.036
 20
-54.7328
 30
0.0
 11
150.962
 21
-54.7328
 31
0.0
  0
LINE
  5
1F8
330
17
100
AcDbEntity
  8
0
100
AcDbLine
 10
151.155
 20
-54.7328
 30
0.0
 11
151.036
 21
-54.7328
 31
0.0
  0
LINE
  5
1F9
330
17
100
AcDbEntity
  8
0
100
AcDbLine
 10
151.314
 20
-54.7328
 30
0.0
 11
151.155
 21
-54.7328
 31
0.0
  0
LINE
  5
1FA
330
17
100
AcDbEntity
  8
0
100
AcDbLine
 10
151.503
 20
-54.7328
 30
0.0
 11
151.314
 21
-54.7328
 31
0.0
  0
LINE
  5
1FB
330
17
100
AcDbEntity
  8
0
100
AcDbLine
 10
151.715
 20
-54.7328
 30
0.0
 11
151.503
 21
-54.7328
 31
0.0
  0
LINE
  5
1FC
330
17
100
AcDbEntity
  8
0
100
AcDbLine
 10
151.937
 20
-54.7328
 30
0.0
 11
151.715
 21
-54.7328
 31
0.0
  0
LINE
  5
1FD
330
17
100
AcDbEntity
  8
0
100
AcDbLine
 10
150.937
 20
-54.7328
 30
0.0
 11
150.937
 21
-54.7328
 31
0.0
  0
LINE
  5
1FE
330
17
100
AcDbEntity
  8
0
100
AcDbLine
 10
160.937
 20
-54.7328
 30
0.0
 11
160.937
 21
-51.7328
 31
0.0
  0
LINE
  5
1FF
330
17
100
AcDbEntity
  8
0
100
AcDbLine
 10
160.937
 20
-51.7328
 30
0.0
 11
160.937
 21
-51.7328
 31
0.0
  0
LINE
  5
200
330
17
100
AcDbEntity
  8
0
100
AcDbLine
 10
160.937
 20
-54.7328
 30
0.0
 11
160.937
 21
-54.7328
 31
0.0
  0
LINE
  5
201
330
17
100
AcDbEntity
  8
0
100
AcDbLine
 10
153.037
 20
-54.7328
 30
0.0
 11
153.037
 21
-56.7328
 31
0.0
  0
LINE
  5
202
330
17
100
AcDbEntity
  8
0
100
AcDbLine
 10
153.037
 20
-54.7328
 30
0.0
 11
159.913
 21
-54.7328
 31
0.0
  0
LINE
  5
203
330
17
100
AcDbEntity
  8
0
100
AcDbLine
 10
153.037
 20
-56.7328
 30
0.0
 11
159.913
 21
-56.7328
 31
0.0
  0
LINE
  5
204
330
17
100
AcDbEntity
  8
0
100
AcDbLine
 10
159.913
 20
-54.7328
 30
0.0
 11
159.913
 21
-56.7328
 31
0.0
  0
LINE
  5
205
330
17
100
AcDbEntity
  8
0
100
AcDbLine
 10
160.023
 20
-54.7328
 30
0.0
 11
160.037
 21
-54.7328
 31
0.0
  0
LINE
  5
206
330
17
100
AcDbEntity
  8
0
100
AcDbLine
 10
159.982
 20
-54.7328
 30
0.0
 11
160.023
 21
-54.7328
 31
0.0
  0
LINE
  5
207
330
17
100
AcDbEntity
  8
0
100
AcDbLine
 10
159.913
 20
-54.7328
 30
0.0
 11
159.982
 21
-54.7328
 31
0.0
  0
LINE
  5
208
330
17
100
AcDbEntity
  8
0
100
AcDbLine
 10
160.037
 20
-56.7328
 30
0.0
 11
160.037
 21
-54.7328
 31
0.0
  0
LINE
  5
209
330
17
100
AcDbEntity
  8
0
100
AcDbLine
 10
160.023
 20
-56.7328
 30
0.0
 11
160.037
 21
-56.7328
 31
0.0
  0
LINE
  5
20A
330
17
100
AcDbEntity
  8
0
100
AcDbLine
 10
159.982
 20
-56.7328
 30
0.0
 11
160.023
 21
-56.7328
 31
0.0
  0
LINE
  5
20B
330
17
100
AcDbEntity
  8
0
100
AcDbLine
 10
159.913
 20
-56.7328
 30
0.0
 11
159.982
 21
-56.7328
 31
0.0
  0
LINE
  5
20C
330
17
100
AcDbEntity
  8
0
100
AcDbLine
 10
188.346
 20
-94.2914
 30
0.0
 11
188.346
 21
-87.8614
 31
0.0
  0
LINE
  5
20D
330
17
100
AcDbEntity
  8
0
100
AcDbLine
 10
188.346
 20
-85.8614
 30
0.0
 11
188.346
 21
-77.124
 31
0.0
  0
LINE
  5
20E
330
17
100
AcDbEntity
  8
0
100
AcDbLine
 10
188.346
 20
-76.124
 30
0.0
 11
188.346
 21
-72.8614
 31
0.0
  0
LINE
  5
20F
330
17
100
AcDbEntity
  8
0
100
AcDbLine
 10
188.346
 20
-70.8614
 30
0.0
 11
188.346
 21
-49.7213
 31
0.0
  0
LINE
  5
210
330
17
100
AcDbEntity
  8
0
100
AcDbLine
 10
188.346
 20
-94.2914
 30
0.0
 11
188.346
 21
-138.861
 31
0.0
  0
LINE
  5
211
330
17
100
AcDbEntity
  8
0
100
AcDbLine
 10
190.346
 20
-94.2914
 30
0.0
 11
190.346
 21
-87.8614
 31
0.0
  0
LINE
  5
212
330
17
100
AcDbEntity
  8
0
100
AcDbLine
 10
190.346
 20
-85.8614
 30
0.0
 11
190.346
 21
-49.7213
 31
0.0
  0
LINE
  5
213
330
17
100
AcDbEntity
  8
0
100
AcDbLine
 10
190.346
 20
-94.2914
 30
0.0
 11
190.346
 21
-138.861
 31
0.0
  0
LINE
  5
214
330
17
100
AcDbEntity
  8
0
100
AcDbLine
 10
189.346
 20
-49.7213
 30
0.0
 11
189.346
 21
-49.7213
 31
0.0
  0
LINE
  5
215
330
17
100
AcDbEntity
  8
0
100
AcDbLine
 10
189.585
 20
-49.7213
 30
0.0
 11
189.585
 21
-49.7213
 31
0.0
  0
LINE
  5
216
330
17
100
AcDbEntity
  8
0
100
AcDbLine
 10
189.811
 20
-49.7213
 30
0.0
 11
189.811
 21
-49.7213
 31
0.0
  0
LINE
  5
217
330
17
100
AcDbEntity
  8
0
100
AcDbLine
 10
190.009
 20
-49.7213
 30
0.0
 11
190.009
 21
-49.7213
 31
0.0
  0
LINE
  5
218
330
17
100
AcDbEntity
  8
0
100
AcDbLine
 10
190.169
 20
-49.7213
 30
0.0
 11
190.169
 21
-49.7213
 31
0.0
  0
LINE
  5
219
330
17
100
AcDbEntity
  8
0
100
AcDbLine
 10
190.281
 20
-49.7213
 30
0.0
 11
190.281
 21
-49.7213
 31
0.0
  0
LINE
  5
21A
330
17
100
AcDbEntity
  8
0
100
AcDbLine
 10
190.339
 20
-49.7213
 30
0.0
 11
190.339
 21
-49.7213
 31
0.0
  0
LINE
  5
21B
330
17
100
AcDbEntity
  8
0
100
AcDbLine
 10
190.339
 20
-49.7213
 30
0.0
 11
190.346
 21
-49.7213
 31
0.0
  0
LINE
  5
21C
330
17
100
AcDbEntity
  8
0
100
AcDbLine
 10
190.281
 20
-49.7213
 30
0.0
 11
190.339
 21
-49.7213
 31
0.0
  0
LINE
  5
21D
330
17
100
AcDbEntity
  8
0
100
AcDbLine
 10
190.169
 20
-49.7213
 30
0.0
 11
190.281
 21
-49.7213
 31
0.0
  0
LINE
  5
21E
330
17
100
AcDbEntity
  8
0
100
AcDbLine
 10
190.009
 20
-49.7213
 30
0.0
 11
190.169
 21
-49.7213
 31
0.0
  0
LINE
  5
21F
330
17
100
AcDbEntity
  8
0
100
AcDbLine
 10
189.811
 20
-49.7213
 30
0.0
 11
190.009
 21
-49.7213
 31
0.0
  0
LINE
  5
220
330
17
100
AcDbEntity
  8
0
100
AcDbLine
 10
189.585
 20
-49.7213
 30
0.0
 11
189.811
 21
-49.7213
 31
0.0
  0
LINE
  5
221
330
17
100
AcDbEntity
  8
0
100
AcDbLine
 10
189.346
 20
-49.7213
 30
0.0
 11
189.585
 21
-49.7213
 31
0.0
  0
LINE
  5
222
330
17
100
AcDbEntity
  8
0
100
AcDbLine
 10
189.106
 20
-49.7213
 30
0.0
 11
189.346
 21
-49.7213
 31
0.0
  0
LINE
  5
223
330
17
100
AcDbEntity
  8
0
100
AcDbLine
 10
188.881
 20
-49.7213
 30
0.0
 11
189.106
 21
-49.7213
 31
0.0
  0
LINE
  5
224
330
17
100
AcDbEntity
  8
0
100
AcDbLine
 10
188.683
 20
-49.7213
 30
0.0
 11
188.881
 21
-49.7213
 31
0.0
  0
LINE
  5
225
330
17
100
AcDbEntity
  8
0
100
AcDbLine
 10
188.523
 20
-49.7213
 30
0.0
 11
188.683
 21
-49.7213
 31
0.0
  0
LINE
  5
226
330
17
100
AcDbEntity
  8
0
100
AcDbLine
 10
188.411
 20
-49.7213
 30
0.0
 11
188.523
 21
-49.7213
 31
0.0
  0
LINE
  5
227
330
17
100
AcDbEntity
  8
0
100
AcDbLine
 10
188.353
 20
-49.7213
 30
0.0
 11
188.411
 21
-49.7213
 31
0.0
  0
LINE
  5
228
330
17
100
AcDbEntity
  8
0
100
AcDbLine
 10
188.346
 20
-49.7213
 30
0.0
 11
188.353
 21
-49.7213
 31
0.0
  0
LINE
  5
229
330
17
100
AcDbEntity
  8
0
100
AcDbLine
 10
188.353
 20
-49.7213
 30
0.0
 11
188.353
 21
-49.7213
 31
0.0
  0
LINE
  5
22A
330
17
100
AcDbEntity
  8
0
100
AcDbLine
 10
188.411
 20
-49.7213
 30
0.0
 11
188.411
 21
-49.7213
 31
0.0
  0
LINE
  5
22B
330
17
100
AcDbEntity
  8
0
100
AcDbLine
 10
188.523
 20
-49.7213
 30
0.0
 11
188.523
 21
-49.7213
 31
0.0
  0
LINE
  5
22C
330
17
100
AcDbEntity
  8
0
100
AcDbLine
 10
188.683
 20
-49.7213
 30
0.0
 11
188.683
 21
-49.7213
 31
0.0
  0
LINE
  5
22D
330
17
100
AcDbEntity
  8
0
100
AcDbLine
 10
188.881
 20
-49.7213
 30
0.0
 11
188.881
 21
-49.7213
 31
0.0
  0
LINE
  5
22E
330
17
100
AcDbEntity
  8
0
100
AcDbLine
 10
189.106
 20
-49.7213
 30
0.0
 11
189.106
 21
-49.7213
 31
0.0
  0
LINE
  5
22F
330
17
100
AcDbEntity
  8
0
100
AcDbLine
 10
189.346
 20
-138.861
 30
0.0
 11
189.346
 21
-138.861
 31
0.0
  0
LINE
  5
230
330
17
100
AcDbEntity
  8
0
100
AcDbLine
 10
189.585
 20
-138.861
 30
0.0
 11
189.585
 21
-138.861
 31
0.0
  0
LINE
  5
231
330
17
100
AcDbEntity
  8
0
100
AcDbLine
 10
189.811
 20
-138.861
 30
0.0
 11
189.811
 21
-138.861
 31
0.0
  0
LINE
  5
232
330
17
100
AcDbEntity
  8
0
100
AcDbLine
 10
190.009
 20
-138.861
 30
0.0
 11
190.009
 21
-138.861
 31
0.0
  0
LINE
  5
233
330
17
100
AcDbEntity
  8
0
100
AcDbLine
 10
190.169
 20
-138.861
 30
0.0
 11
190.169
 21
-138.861
 31
0.0
  0
LINE
  5
234
330
17
100
AcDbEntity
  8
0
100
AcDbLine
 10
190.281
 20
-138.861
 30
0.0
 11
190.281
 21
-138.861
 31
0.0
  0
LINE
  5
235
330
17
100
AcDbEntity
  8
0
100
AcDbLine
 10
190.339
 20
-138.861
 30
0.0
 11
190.339
 21
-138.861
 31
0.0
  0
LINE
  5
236
330
17
100
AcDbEntity
  8
0
100
AcDbLine
 10
190.339
 20
-138.861
 30
0.0
 11
190.346
 21
-138.861
 31
0.0
  0
LINE
  5
237
330
17
100
AcDbEntity
  8
0
100
AcDbLine
 10
190.281
 20
-138.861
 30
0.0
 11
190.339
 21
-138.861
 31
0.0
  0
LINE
  5
238
330
17
100
AcDbEntity
  8
0
100
AcDbLine
 10
190.169
 20
-138.861
 30
0.0
 11
190.281
 21
-138.861
 31
0.0
  0
LINE
  5
239
330
17
100
AcDbEntity
  8
0
100
AcDbLine
 10
190.009
 20
-138.861
 30
0.0
 11
190.169
 21
-138.861
 31
0.0
  0
LINE
  5
23A
330
17
100
AcDbEntity
  8
0
100
AcDbLine
 10
189.811
 20
-138.861
 30
0.0
 11
190.009
 21
-138.861
 31
0.0
  0
LINE
  5
23B
330
17
100
AcDbEntity
  8
0
100
AcDbLine
 10
189.585
 20
-138.861
 30
0.0
 11
189.811
 21
-138.861
 31
0.0
  0
LINE
  5
23C
330
17
100
AcDbEntity
  8
0
100
AcDbLine
 10
189.346
 20
-138.861
 30
0.0
 11
189.585
 21
-138.861
 31
0.0
  0
LINE
  5
23D
330
17
100
AcDbEntity
  8
0
100
AcDbLine
 10
189.107
 20
-138.861
 30
0.0
 11
189.346
 21
-138.861
 31
0.0
  0
LINE
  5
23E
330
17
100
AcDbEntity
  8
0
100
AcDbLine
 10
188.881
 20
-138.861
 30
0.0
 11
189.107
 21
-138.861
 31
0.0
  0
LINE
  5
23F
330
17
100
AcDbEntity
  8
0
100
AcDbLine
 10
188.683
 20
-138.861
 30
0.0
 11
188.881
 21
-138.861
 31
0.0
  0
LINE
  5
240
330
17
100
AcDbEntity
  8
0
100
AcDbLine
 10
188.523
 20
-138.861
 30
0.0
 11
188.683
 21
-138.861
 31
0.0
  0
LINE
  5
241
330
17
100
AcDbEntity
  8
0
100
AcDbLine
 10
188.411
 20
-138.861
 30
0.0
 11
188.523
 21
-138.861
 31
0.0
  0
LINE
  5
242
330
17
100
AcDbEntity
  8
0
100
AcDbLine
 10
188.353
 20
-138.861
 30
0.0
 11
188.411
 21
-138.861
 31
0.0
  0
LINE
  5
243
330
17
100
AcDbEntity
  8
0
100
AcDbLine
 10
188.346
 20
-138.861
 30
0.0
 11
188.353
 21
-138.861
 31
0.0
  0
LINE
  5
244
330
17
100
AcDbEntity
  8
0
100
AcDbLine
 10
188.353
 20
-138.861
 30
0.0
 11
188.353
 21
-138.861
 31
0.0
  0
LINE
  5
245
330
17
100
AcDbEntity
  8
0
100
AcDbLine
 10
188.411
 20
-138.861
 30
0.0
 11
188.411
 21
-138.861
 31
0.0
  0
LINE
  5
246
330
17
100
AcDbEntity
  8
0
100
AcDbLine
 10
188.523
 20
-138.861
 30
0.0
 11
188.523
 21
-138.861
 31
0.0
  0
LINE
  5
247
330
17
100
AcDbEntity
  8
0
100
AcDbLine
 10
188.683
 20
-138.861
 30
0.0
 11
188.683
 21
-138.861
 31
0.0
  0
LINE
  5
248
330
17
100
AcDbEntity
  8
0
100
AcDbLine
 10
188.881
 20
-138.861
 30
0.0
 11
188.881
 21
-138.861
 31
0.0
  0
LINE
  5
249
330
17
100
AcDbEntity
  8
0
100
AcDbLine
 10
189.107
 20
-138.861
 30
0.0
 11
189.107
 21
-138.861
 31
0.0
  0
LINE
  5
24A
330
17
100
AcDbEntity
  8
0
100
AcDbLine
 10
133.022
 20
-56.4614
 30
0.0
 11
122.022
 21
-56.4614
 31
0.0
  0
LINE
  5
24B
330
17
100
AcDbEntity
  8
0
100
AcDbLine
 10
133.022
 20
-67.8614
 30
0.0
 11
133.022
 21
-67.8614
 31
0.0
  0
LINE
  5
24C
330
17
100
AcDbEntity
  8
0
100
AcDbLine
 10
122.022
 20
-63.8614
 30
0.0
 11
122.022
 21
-56.4614
 31
0.0
  0
LINE
  5
24D
330
17
100
AcDbEntity
  8
0
100
AcDbLine
 10
133.022
 20
-66.8614
 30
0.0
 11
133.022
 21
-56.4614
 31
0.0
  0
LINE
  5
24E
330
17
100
AcDbEntity
  8
0
100
AcDbLine
 10
133.022
 20
-67.8614
 30
0.0
 11
122.022
 21
-67.8614
 31
0.0
  0
LINE
  5
24F
330
17
100
AcDbEntity
  8
0
100
AcDbLine
 10
122.022
 20
-71.8614
 30
0.0
 11
122.022
 21
-67.8614
 31
0.0
  0
LINE
  5
250
330
17
100
AcDbEntity
  8
0
100
AcDbLine
 10
133.022
 20
-71.8614
 30
0.0
 11
133.022
 21
-67.8614
 31
0.0
  0
LINE
  5
251
330
17
100
AcDbEntity
  8
0
100
AcDbLine
 10
122.135
 20
-66.8614
 30
0.0
 11
122.022
 21
-66.8614
 31
0.0
  0
LINE
  5
252
330
17
100
AcDbEntity
  8
0
100
AcDbLine
 10
122.468
 20
-66.8614
 30
0.0
 11
122.135
 21
-66.8614
 31
0.0
  0
LINE
  5
253
330
17
100
AcDbEntity
  8
0
100
AcDbLine
 10
123.004
 20
-66.8614
 30
0.0
 11
122.468
 21
-66.8614
 31
0.0
  0
LINE
  5
254
330
17
100
AcDbEntity
  8
0
100
AcDbLine
 10
123.717
 20
-66.8614
 30
0.0
 11
123.004
 21
-66.8614
 31
0.0
  0
LINE
  5
255
330
17
100
AcDbEntity
  8
0
100
AcDbLine
 10
124.57
 20
-66.8614
 30
0.0
 11
123.717
 21
-66.8614
 31
0.0
  0
LINE
  5
256
330
17
100
AcDbEntity
  8
0
100
AcDbLine
 10
125.521
 20
-66.8614
 30
0.0
 11
124.57
 21
-66.8614
 31
0.0
  0
LINE
  5
257
330
17
100
AcDbEntity
  8
0
100
AcDbLine
 10
126.522
 20
-66.8614
 30
0.0
 11
125.521
 21
-66.8614
 31
0.0
  0
LINE
  5
258
330
17
100
AcDbEntity
  8
0
100
AcDbLine
 10
122.135
 20
-67.8614
 30
0.0
 11
122.041
 21
-67.8614
 31
0.0
  0
LINE
  5
259
330
17
100
AcDbEntity
  8
0
100
AcDbLine
 10
122.468
 20
-67.8614
 30
0.0
 11
122.135
 21
-67.8614
 31
0.0
  0
LINE
  5
25A
330
17
100
AcDbEntity
  8
0
100
AcDbLine
 10
123.004
 20
-67.8614
 30
0.0
 11
122.468
 21
-67.8614
 31
0.0
  0
LINE
  5
25B
330
17
100
AcDbEntity
  8
0
100
AcDbLine
 10
123.717
 20
-67.8614
 30
0.0
 11
123.004
 21
-67.8614
 31
0.0
  0
LINE
  5
25C
330
17
100
AcDbEntity
  8
0
100
AcDbLine
 10
124.57
 20
-67.8614
 30
0.0
 11
123.717
 21
-67.8614
 31
0.0
  0
LINE
  5
25D
330
17
100
AcDbEntity
  8
0
100
AcDbLine
 10
125.521
 20
-67.8614
 30
0.0
 11
124.57
 21
-67.8614
 31
0.0
  0
LINE
  5
25E
330
17
100
AcDbEntity
  8
0
100
AcDbLine
 10
126.522
 20
-67.8614
 30
0.0
 11
125.521
 21
-67.8614
 31
0.0
  0
LINE
  5
25F
330
17
100
AcDbEntity
  8
0
100
AcDbLine
 10
122.022
 20
-67.8614
 30
0.0
 11
122.022
 21
-66.8614
 31
0.0
  0
LINE
  5
260
330
17
100
AcDbEntity
  8
0
100
AcDbLine
 10
128.522
 20
-66.8614
 30
0.0
 11
126.522
 21
-66.8614
 31
0.0
  0
LINE
  5
261
330
17
100
AcDbEntity
  8
0
100
AcDbLine
 10
128.522
 20
-67.8614
 30
0.0
 11
126.522
 21
-67.8614
 31
0.0
  0
LINE
  5
262
330
17
100
AcDbEntity
  8
0
100
AcDbLine
 10
129.524
 20
-66.8614
 30
0.0
 11
128.522
 21
-66.8614
 31
0.0
  0
LINE
  5
263
330
17
100
AcDbEntity
  8
0
100
AcDbLine
 10
130.475
 20
-66.8614
 30
0.0
 11
129.524
 21
-66.8614
 31
0.0
  0
LINE
  5
264
330
17
100
AcDbEntity
  8
0
100
AcDbLine
 10
131.328
 20
-66.8614
 30
0.0
 11
130.475
 21
-66.8614
 31
0.0
  0
LINE
  5
265
330
17
100
AcDbEntity
  8
0
100
AcDbLine
 10
132.041
 20
-66.8614
 30
0.0
 11
131.328
 21
-66.8614
 31
0.0
  0
LINE
  5
266
330
17
100
AcDbEntity
  8
0
100
AcDbLine
 10
132.577
 20
-66.8614
 30
0.0
 11
132.041
 21
-66.8614
 31
0.0
  0
LINE
  5
267
330
17
100
AcDbEntity
  8
0
100
AcDbLine
 10
132.91
 20
-66.8614
 30
0.0
 11
132.577
 21
-66.8614
 31
0.0
  0
LINE
  5
268
330
17
100
AcDbEntity
  8
0
100
AcDbLine
 10
133.022
 20
-66.8614
 30
0.0
 11
132.91
 21
-66.8614
 31
0.0
  0
LINE
  5
269
330
17
100
AcDbEntity
  8
0
100
AcDbLine
 10
129.524
 20
-67.8614
 30
0.0
 11
128.522
 21
-67.8614
 31
0.0
  0
LINE
  5
26A
330
17
100
AcDbEntity
  8
0
100
AcDbLine
 10
130.475
 20
-67.8614
 30
0.0
 11
129.524
 21
-67.8614
 31
0.0
  0
LINE
  5
26B
330
17
100
AcDbEntity
  8
0
100
AcDbLine
 10
131.328
 20
-67.8614
 30
0.0
 11
130.475
 21
-67.8614
 31
0.0
  0
LINE
  5
26C
330
17
100
AcDbEntity
  8
0
100
AcDbLine
 10
132.041
 20
-67.8614
 30
0.0
 11
131.328
 21
-67.8614
 31
0.0
  0
LINE
  5
26D
330
17
100
AcDbEntity
  8
0
100
AcDbLine
 10
132.577
 20
-67.8614
 30
0.0
 11
132.041
 21
-67.8614
 31
0.0
  0
LINE
  5
26E
330
17
100
AcDbEntity
  8
0
100
AcDbLine
 10
132.91
 20
-67.8614
 30
0.0
 11
132.577
 21
-67.8614
 31
0.0
  0
LINE
  5
26F
330
17
100
AcDbEntity
  8
0
100
AcDbLine
 10
133.004
 20
-67.8614
 30
0.0
 11
132.91
 21
-67.8614
 31
0.0
  0
LINE
  5
270
330
17
100
AcDbEntity
  8
0
100
AcDbLine
 10
133.022
 20
-67.8614
 30
0.0
 11
133.022
 21
-66.8614
 31
0.0
  0
LINE
  5
271
330
17
100
AcDbEntity
  8
0
100
AcDbLine
 10
132.91
 20
-63.8614
 30
0.0
 11
133.022
 21
-63.8614
 31
0.0
  0
LINE
  5
272
330
17
100
AcDbEntity
  8
0
100
AcDbLine
 10
132.577
 20
-63.8614
 30
0.0
 11
132.91
 21
-63.8614
 31
0.0
  0
LINE
  5
273
330
17
100
AcDbEntity
  8
0
100
AcDbLine
 10
132.041
 20
-63.8614
 30
0.0
 11
132.577
 21
-63.8614
 31
0.0
  0
LINE
  5
274
330
17
100
AcDbEntity
  8
0
100
AcDbLine
 10
131.328
 20
-63.8614
 30
0.0
 11
132.041
 21
-63.8614
 31
0.0
  0
LINE
  5
275
330
17
100
AcDbEntity
  8
0
100
AcDbLine
 10
130.475
 20
-63.8614
 30
0.0
 11
131.328
 21
-63.8614
 31
0.0
  0
LINE
  5
276
330
17
100
AcDbEntity
  8
0
100
AcDbLine
 10
129.524
 20
-63.8614
 30
0.0
 11
130.475
 21
-63.8614
 31
0.0
  0
LINE
  5
277
330
17
100
AcDbEntity
  8
0
100
AcDbLine
 10
128.522
 20
-63.8614
 30
0.0
 11
129.524
 21
-63.8614
 31
0.0
  0
LINE
  5
278
330
17
100
AcDbEntity
  8
0
100
AcDbLine
 10
132.91
 20
-66.8614
 30
0.0
 11
133.022
 21
-66.8614
 31
0.0
  0
LINE
  5
279
330
17
100
AcDbEntity
  8
0
100
AcDbLine
 10
132.577
 20
-66.8614
 30
0.0
 11
132.91
 21
-66.8614
 31
0.0
  0
LINE
  5
27A
330
17
100
AcDbEntity
  8
0
100
AcDbLine
 10
132.041
 20
-66.8614
 30
0.0
 11
132.577
 21
-66.8614
 31
0.0
  0
LINE
  5
27B
330
17
100
AcDbEntity
  8
0
100
AcDbLine
 10
131.328
 20
-66.8614
 30
0.0
 11
132.041
 21
-66.8614
 31
0.0
  0
LINE
  5
27C
330
17
100
AcDbEntity
  8
0
100
AcDbLine
 10
130.475
 20
-66.8614
 30
0.0
 11
131.328
 21
-66.8614
 31
0.0
  0
LINE
  5
27D
330
17
100
AcDbEntity
  8
0
100
AcDbLine
 10
129.524
 20
-66.8614
 30
0.0
 11
130.475
 21
-66.8614
 31
0.0
  0
LINE
  5
27E
330
17
100
AcDbEntity
  8
0
100
AcDbLine
 10
128.522
 20
-66.8614
 30
0.0
 11
129.524
 21
-66.8614
 31
0.0
  0
LINE
  5
27F
330
17
100
AcDbEntity
  8
0
100
AcDbLine
 10
133.022
 20
-66.8614
 30
0.0
 11
133.022
 21
-63.8614
 31
0.0
  0
LINE
  5
280
330
17
100
AcDbEntity
  8
0
100
AcDbLine
 10
126.522
 20
-63.8614
 30
0.0
 11
128.522
 21
-63.8614
 31
0.0
  0
LINE
  5
281
330
17
100
AcDbEntity
  8
0
100
AcDbLine
 10
126.522
 20
-66.8614
 30
0.0
 11
128.522
 21
-66.8614
 31
0.0
  0
LINE
  5
282
330
17
100
AcDbEntity
  8
0
100
AcDbLine
 10
125.521
 20
-63.8614
 30
0.0
 11
126.522
 21
-63.8614
 31
0.0
  0
LINE
  5
283
330
17
100
AcDbEntity
  8
0
100
AcDbLine
 10
124.57
 20
-63.8614
 30
0.0
 11
125.521
 21
-63.8614
 31
0.0
  0
LINE
  5
284
330
17
100
AcDbEntity
  8
0
100
AcDbLine
 10
123.717
 20
-63.8614
 30
0.0
 11
124.57
 21
-63.8614
 31
0.0
  0
LINE
  5
285
330
17
100
AcDbEntity
  8
0
100
AcDbLine
 10
123.004
 20
-63.8614
 30
0.0
 11
123.717
 21
-63.8614
 31
0.0
  0
LINE
  5
286
330
17
100
AcDbEntity
  8
0
100
AcDbLine
 10
122.468
 20
-63.8614
 30
0.0
 11
123.004
 21
-63.8614
 31
0.0
  0
LINE
  5
287
330
17
100
AcDbEntity
  8
0
100
AcDbLine
 10
122.135
 20
-63.8614
 30
0.0
 11
122.468
 21
-63.8614
 31
0.0
  0
LINE
  5
288
330
17
100
AcDbEntity
  8
0
100
AcDbLine
 10
122.022
 20
-63.8614
 30
0.0
 11
122.135
 21
-63.8614
 31
0.0
  0
LINE
  5
289
330
17
100
AcDbEntity
  8
0
100
AcDbLine
 10
125.521
 20
-66.8614
 30
0.0
 11
126.522
 21
-66.8614
 31
0.0
  0
LINE
  5
28A
330
17
100
AcDbEntity
  8
0
100
AcDbLine
 10
124.57
 20
-66.8614
 30
0.0
 11
125.521
 21
-66.8614
 31
0.0
  0
LINE
  5
28B
330
17
100
AcDbEntity
  8
0
100
AcDbLine
 10
123.717
 20
-66.8614
 30
0.0
 11
124.57
 21
-66.8614
 31
0.0
  0
LINE
  5
28C
330
17
100
AcDbEntity
  8
0
100
AcDbLine
 10
123.004
 20
-66.8614
 30
0.0
 11
123.717
 21
-66.8614
 31
0.0
  0
LINE
  5
28D
330
17
100
AcDbEntity
  8
0
100
AcDbLine
 10
122.468
 20
-66.8614
 30
0.0
 11
123.004
 21
-66.8614
 31
0.0
  0
LINE
  5
28E
330
17
100
AcDbEntity
  8
0
100
AcDbLine
 10
122.135
 20
-66.8614
 30
0.0
 11
122.468
 21
-66.8614
 31
0.0
  0
LINE
  5
28F
330
17
100
AcDbEntity
  8
0
100
AcDbLine
 10
122.022
 20
-66.8614
 30
0.0
 11
122.135
 21
-66.8614
 31
0.0
  0
LINE
  5
290
330
17
100
AcDbEntity
  8
0
100
AcDbLine
 10
122.022
 20
-66.8614
 30
0.0
 11
122.022
 21
-63.8614
 31
0.0
  0
LINE
  5
291
330
17
100
AcDbEntity
  8
0
100
AcDbLine
 10
162.497
 20
-59.4614
 30
0.0
 11
156.268
 21
-59.4614
 31
0.0
  0
LINE
  5
292
330
17
100
AcDbEntity
  8
0
100
AcDbLine
 10
155.268
 20
-59.4614
 30
0.0
 11
151.497
 21
-59.4614
 31
0.0
  0
LINE
  5
293
330
17
100
AcDbEntity
  8
0
100
AcDbLine
 10
162.497
 20
-70.8614
 30
0.0
 11
162.497
 21
-70.8614
 31
0.0
  0
LINE
  5
294
330
17
100
AcDbEntity
  8
0
100
AcDbLine
 10
151.497
 20
-66.8614
 30
0.0
 11
151.497
 21
-61.4483
 31
0.0
  0
LINE
  5
295
330
17
100
AcDbEntity
  8
0
100
AcDbLine
 10
151.497
 20
-60.4483
 30
0.0
 11
151.497
 21
-59.4614
 31
0.0
  0
LINE
  5
296
330
17
100
AcDbEntity
  8
0
100
AcDbLine
 10
162.497
 20
-69.8614
 30
0.0
 11
162.497
 21
-59.4614
 31
0.0
  0
LINE
  5
297
330
17
100
AcDbEntity
  8
0
100
AcDbLine
 10
162.497
 20
-70.8614
 30
0.0
 11
151.497
 21
-70.8614
 31
0.0
  0
LINE
  5
298
330
17
100
AcDbEntity
  8
0
100
AcDbLine
 10
151.497
 20
-74.8614
 30
0.0
 11
151.497
 21
-70.8614
 31
0.0
  0
LINE
  5
299
330
17
100
AcDbEntity
  8
0
100
AcDbLine
 10
162.497
 20
-74.8614
 30
0.0
 11
162.497
 21
-70.8614
 31
0.0
  0
LINE
  5
29A
330
17
100
AcDbEntity
  8
0
100
AcDbLine
 10
151.61
 20
-69.8614
 30
0.0
 11
151.497
 21
-69.8614
 31
0.0
  0
LINE
  5
29B
330
17
100
AcDbEntity
  8
0
100
AcDbLine
 10
151.943
 20
-69.8614
 30
0.0
 11
151.61
 21
-69.8614
 31
0.0
  0
LINE
  5
29C
330
17
100
AcDbEntity
  8
0
100
AcDbLine
 10
152.479
 20
-69.8614
 30
0.0
 11
151.943
 21
-69.8614
 31
0.0
  0
LINE
  5
29D
330
17
100
AcDbEntity
  8
0
100
AcDbLine
 10
153.191
 20
-69.8614
 30
0.0
 11
152.479
 21
-69.8614
 31
0.0
  0
LINE
  5
29E
330
17
100
AcDbEntity
  8
0
100
AcDbLine
 10
154.045
 20
-69.8614
 30
0.0
 11
153.191
 21
-69.8614
 31
0.0
  0
LINE
  5
29F
330
17
100
AcDbEntity
  8
0
100
AcDbLine
 10
154.996
 20
-69.8614
 30
0.0
 11
154.045
 21
-69.8614
 31
0.0
  0
LINE
  5
2A0
330
17
100
AcDbEntity
  8
0
100
AcDbLine
 10
155.997
 20
-69.8614
 30
0.0
 11
154.996
 21
-69.8614
 31
0.0
  0
LINE
  5
2A1
330
17
100
AcDbEntity
  8
0
100
AcDbLine
 10
151.61
 20
-70.8614
 30
0.0
 11
151.516
 21
-70.8614
 31
0.0
  0
LINE
  5
2A2
330
17
100
AcDbEntity
  8
0
100
AcDbLine
 10
151.943
 20
-70.8614
 30
0.0
 11
151.61
 21
-70.8614
 31
0.0
  0
LINE
  5
2A3
330
17
100
AcDbEntity
  8
0
100
AcDbLine
 10
152.479
 20
-70.8614
 30
0.0
 11
151.943
 21
-70.8614
 31
0.0
  0
LINE
  5
2A4
330
17
100
AcDbEntity
  8
0
100
AcDbLine
 10
153.191
 20
-70.8614
 30
0.0
 11
152.479
 21
-70.8614
 31
0.0
  0
LINE
  5
2A5
330
17
100
AcDbEntity
  8
0
100
AcDbLine
 10
154.045
 20
-70.8614
 30
0.0
 11
153.191
 21
-70.8614
 31
0.0
  0
LINE
  5
2A6
330
17
100
AcDbEntity
  8
0
100
AcDbLine
 10
154.996
 20
-70.8614
 30
0.0
 11
154.045
 21
-70.8614
 31
0.0
  0
LINE
  5
2A7
330
17
100
AcDbEntity
  8
0
100
AcDbLine
 10
155.997
 20
-70.8614
 30
0.0
 11
154.996
 21
-70.8614
 31
0.0
  0
LINE
  5
2A8
330
17
100
AcDbEntity
  8
0
100
AcDbLine
 10
151.497
 20
-70.8614
 30
0.0
 11
151.497
 21
-69.8614
 31
0.0
  0
LINE
  5
2A9
330
17
100
AcDbEntity
  8
0
100
AcDbLine
 10
157.997
 20
-69.8614
 30
0.0
 11
155.997
 21
-69.8614
 31
0.0
  0
LINE
  5
2AA
330
17
100
AcDbEntity
  8
0
100
AcDbLine
 10
157.997
 20
-70.8614
 30
0.0
 11
155.997
 21
-70.8614
 31
0.0
  0
LINE
  5
2AB
330
17
100
AcDbEntity
  8
0
100
AcDbLine
 10
158.998
 20
-69.8614
 30
0.0
 11
157.997
 21
-69.8614
 31
0.0
  0
LINE
  5
2AC
330
17
100
AcDbEntity
  8
0
100
AcDbLine
 10
159.95
 20
-69.8614
 30
0.0
 11
158.998
 21
-69.8614
 31
0.0
  0
LINE
  5
2AD
330
17
100
AcDbEntity
  8
0
100
AcDbLine
 10
160.803
 20
-69.8614
 30
0.0
 11
159.95
 21
-69.8614
 31
0.0
  0
LINE
  5
2AE
330
17
100
AcDbEntity
  8
0
100
AcDbLine
 10
161.515
 20
-69.8614
 30
0.0
 11
160.803
 21
-69.8614
 31
0.0
  0
LINE
  5
2AF
330
17
100
AcDbEntity
  8
0
100
AcDbLine
 10
162.051
 20
-69.8614
 30
0.0
 11
161.515
 21
-69.8614
 31
0.0
  0
LINE
  5
2B0
330
17
100
AcDbEntity
  8
0
100
AcDbLine
 10
162.384
 20
-69.8614
 30
0.0
 11
162.051
 21
-69.8614
 31
0.0
  0
LINE
  5
2B1
330
17
100
AcDbEntity
  8
0
100
AcDbLine
 10
162.497
 20
-69.8614
 30
0.0
 11
162.384
 21
-69.8614
 31
0.0
  0
LINE
  5
2B2
330
17
100
AcDbEntity
  8
0
100
AcDbLine
 10
158.998
 20
-70.8614
 30
0.0
 11
157.997
 21
-70.8614
 31
0.0
  0
LINE
  5
2B3
330
17
100
AcDbEntity
  8
0
100
AcDbLine
 10
159.95
 20
-70.8614
 30
0.0
 11
158.998
 21
-70.8614
 31
0.0
  0
LINE
  5
2B4
330
17
100
AcDbEntity
  8
0
100
AcDbLine
 10
160.803
 20
-70.8614
 30
0.0
 11
159.95
 21
-70.8614
 31
0.0
  0
LINE
  5
2B5
330
17
100
AcDbEntity
  8
0
100
AcDbLine
 10
161.515
 20
-70.8614
 30
0.0
 11
160.803
 21
-70.8614
 31
0.0
  0
LINE
  5
2B6
330
17
100
AcDbEntity
  8
0
100
AcDbLine
 10
162.051
 20
-70.8614
 30
0.0
 11
161.515
 21
-70.8614
 31
0.0
  0
LINE
  5
2B7
330
17
100
AcDbEntity
  8
0
100
AcDbLine
 10
162.384
 20
-70.8614
 30
0.0
 11
162.051
 21
-70.8614
 31
0.0
  0
LINE
  5
2B8
330
17
100
AcDbEntity
  8
0
100
AcDbLine
 10
162.478
 20
-70.8614
 30
0.0
 11
162.384
 21
-70.8614
 31
0.0
  0
LINE
  5
2B9
330
17
100
AcDbEntity
  8
0
100
AcDbLine
 10
162.497
 20
-70.8614
 30
0.0
 11
162.497
 21
-69.8614
 31
0.0
  0
LINE
  5
2BA
330
17
100
AcDbEntity
  8
0
100
AcDbLine
 10
162.384
 20
-66.8614
 30
0.0
 11
162.497
 21
-66.8614
 31
0.0
  0
LINE
  5
2BB
330
17
100
AcDbEntity
  8
0
100
AcDbLine
 10
162.051
 20
-66.8614
 30
0.0
 11
162.384
 21
-66.8614
 31
0.0
  0
LINE
  5
2BC
330
17
100
AcDbEntity
  8
0
100
AcDbLine
 10
161.515
 20
-66.8614
 30
0.0
 11
162.051
 21
-66.8614
 31
0.0
  0
LINE
  5
2BD
330
17
100
AcDbEntity
  8
0
100
AcDbLine
 10
160.803
 20
-66.8614
 30
0.0
 11
161.515
 21
-66.8614
 31
0.0
  0
LINE
  5
2BE
330
17
100
AcDbEntity
  8
0
100
AcDbLine
 10
159.95
 20
-66.8614
 30
0.0
 11
160.803
 21
-66.8614
 31
0.0
  0
LINE
  5
2BF
330
17
100
AcDbEntity
  8
0
100
AcDbLine
 10
158.998
 20
-66.8614
 30
0.0
 11
159.95
 21
-66.8614
 31
0.0
  0
LINE
  5
2C0
330
17
100
AcDbEntity
  8
0
100
AcDbLine
 10
157.997
 20
-66.8614
 30
0.0
 11
158.998
 21
-66.8614
 31
0.0
  0
LINE
  5
2C1
330
17
100
AcDbEntity
  8
0
100
AcDbLine
 10
162.384
 20
-69.8614
 30
0.0
 11
162.497
 21
-69.8614
 31
0.0
  0
LINE
  5
2C2
330
17
100
AcDbEntity
  8
0
100
AcDbLine
 10
162.051
 20
-69.8614
 30
0.0
 11
162.384
 21
-69.8614
 31
0.0
  0
LINE
  5
2C3
330
17
100
AcDbEntity
  8
0
100
AcDbLine
 10
161.515
 20
-69.8614
 30
0.0
 11
162.051
 21
-69.8614
 31
0.0
  0
LINE
  5
2C4
330
17
100
AcDbEntity
  8
0
100
AcDbLine
 10
160.803
 20
-69.8614
 30
0.0
 11
161.515
 21
-69.8614
 31
0.0
  0
LINE
  5
2C5
330
17
100
AcDbEntity
  8
0
100
AcDbLine
 10
159.95
 20
-69.8614
 30
0.0
 11
160.803
 21
-69.8614
 31
0.0
  0
LINE
  5
2C6
330
17
100
AcDbEntity
  8
0
100
AcDbLine
 10
158.998
 20
-69.8614
 30
0.0
 11
159.95
 21
-69.8614
 31
0.0
  0
LINE
  5
2C7
330
17
100
AcDbEntity
  8
0
100
AcDbLine
 10
157.997
 20
-69.8614
 30
0.0
 11
158.998
 21
-69.8614
 31
0.0
  0
LINE
  5
2C8
330
17
100
AcDbEntity
  8
0
100
AcDbLine
 10
162.497
 20
-69.8614
 30
0.0
 11
162.497
 21
-66.8614
 31
0.0
  0
LINE
  5
2C9
330
17
100
AcDbEntity
  8
0
100
AcDbLine
 10
155.997
 20
-66.8614
 30
0.0
 11
157.997
 21
-66.8614
 31
0.0
  0
LINE
  5
2CA
330
17
100
AcDbEntity
  8
0
100
AcDbLine
 10
155.997
 20
-69.8614
 30
0.0
 11
157.997
 21
-69.8614
 31
0.0
  0
LINE
  5
2CB
330
17
100
AcDbEntity
  8
0
100
AcDbLine
 10
154.996
 20
-66.8614
 30
0.0
 11
155.997
 21
-66.8614
 31
0.0
  0
LINE
  5
2CC
330
17
100
AcDbEntity
  8
0
100
AcDbLine
 10
154.045
 20
-66.8614
 30
0.0
 11
154.996
 21
-66.8614
 31
0.0
  0
LINE
  5
2CD
330
17
100
AcDbEntity
  8
0
100
AcDbLine
 10
153.191
 20
-66.8614
 30
0.0
 11
154.045
 21
-66.8614
 31
0.0
  0
LINE
  5
2CE
330
17
100
AcDbEntity
  8
0
100
AcDbLine
 10
152.479
 20
-66.8614
 30
0.0
 11
153.191
 21
-66.8614
 31
0.0
  0
LINE
  5
2CF
330
17
100
AcDbEntity
  8
0
100
AcDbLine
 10
151.943
 20
-66.8614
 30
0.0
 11
152.479
 21
-66.8614
 31
0.0
  0
LINE
  5
2D0
330
17
100
AcDbEntity
  8
0
100
AcDbLine
 10
151.61
 20
-66.8614
 30
0.0
 11
151.943
 21
-66.8614
 31
0.0
  0
LINE
  5
2D1
330
17
100
AcDbEntity
  8
0
100
AcDbLine
 10
151.497
 20
-66.8614
 30
0.0
 11
151.61
 21
-66.8614
 31
0.0
  0
LINE
  5
2D2
330
17
100
AcDbEntity
  8
0
100
AcDbLine
 10
154.996
 20
-69.8614
 30
0.0
 11
155.997
 21
-69.8614
 31
0.0
  0
LINE
  5
2D3
330
17
100
AcDbEntity
  8
0
100
AcDbLine
 10
154.045
 20
-69.8614
 30
0.0
 11
154.996
 21
-69.8614
 31
0.0
  0
LINE
  5
2D4
330
17
100
AcDbEntity
  8
0
100
AcDbLine
 10
153.191
 20
-69.8614
 30
0.0
 11
154.045
 21
-69.8614
 31
0.0
  0
LINE
  5
2D5
330
17
100
AcDbEntity
  8
0
100
AcDbLine
 10
152.479
 20
-69.8614
 30
0.0
 11
153.191
 21
-69.8614
 31
0.0
  0
LINE
  5
2D6
330
17
100
AcDbEntity
  8
0
100
AcDbLine
 10
151.943
 20
-69.8614
 30
0.0
 11
152.479
 21
-69.8614
 31
0.0
  0
LINE
  5
2D7
330
17
100
AcDbEntity
  8
0
100
AcDbLine
 10
151.61
 20
-69.8614
 30
0.0
 11
151.943
 21
-69.8614
 31
0.0
  0
LINE
  5
2D8
330
17
100
AcDbEntity
  8
0
100
AcDbLine
 10
151.497
 20
-69.8614
 30
0.0
 11
151.61
 21
-69.8614
 31
0.0
  0
LINE
  5
2D9
330
17
100
AcDbEntity
  8
0
100
AcDbLine
 10
151.497
 20
-69.8614
 30
0.0
 11
151.497
 21
-66.8614
 31
0.0
  0
LINE
  5
2DA
330
17
100
AcDbEntity
  8
0
100
AcDbLine
 10
186.6
 20
-60.4483
 30
0.0
 11
186.906
 21
-60.4483
 31
0.0
  0
LINE
  5
2DB
330
17
100
AcDbEntity
  8
0
100
AcDbLine
 10
186.6
 20
-61.4483
 30
0.0
 11
186.906
 21
-61.4483
 31
0.0
  0
LINE
  5
2DC
330
17
100
AcDbEntity
  8
0
100
AcDbLine
 10
186.906
 20
-138.861
 30
0.0
 11
186.906
 21
-87.8614
 31
0.0
  0
LINE
  5
2DD
330
17
100
AcDbEntity
  8
0
100
AcDbLine
 10
186.906
 20
-85.8614
 30
0.0
 11
186.906
 21
-77.1222
 31
0.0
  0
LINE
  5
2DE
330
17
100
AcDbEntity
  8
0
100
AcDbLine
 10
186.906
 20
-76.1259
 30
0.0
 11
186.906
 21
-51.4275
 31
0.0
  0
LINE
  5
2DF
330
17
100
AcDbEntity
  8
0
100
AcDbLine
 10
187.906
 20
-138.861
 30
0.0
 11
187.906
 21
-87.8614
 31
0.0
  0
LINE
  5
2E0
330
17
100
AcDbEntity
  8
0
100
AcDbLine
 10
187.906
 20
-85.8614
 30
0.0
 11
187.906
 21
-77.1222
 31
0.0
  0
LINE
  5
2E1
330
17
100
AcDbEntity
  8
0
100
AcDbLine
 10
187.906
 20
-76.1259
 30
0.0
 11
187.906
 21
-51.4275
 31
0.0
  0
LINE
  5
2E2
330
17
100
AcDbEntity
  8
0
100
AcDbLine
 10
187.406
 20
-51.4275
 30
0.0
 11
187.406
 21
-51.4275
 31
0.0
  0
LINE
  5
2E3
330
17
100
AcDbEntity
  8
0
100
AcDbLine
 10
187.597
 20
-51.4275
 30
0.0
 11
187.597
 21
-51.4275
 31
0.0
  0
LINE
  5
2E4
330
17
100
AcDbEntity
  8
0
100
AcDbLine
 10
187.759
 20
-51.4275
 30
0.0
 11
187.759
 21
-51.4275
 31
0.0
  0
LINE
  5
2E5
330
17
100
AcDbEntity
  8
0
100
AcDbLine
 10
187.868
 20
-51.4275
 30
0.0
 11
187.868
 21
-51.4275
 31
0.0
  0
LINE
  5
2E6
330
17
100
AcDbEntity
  8
0
100
AcDbLine
 10
187.868
 20
-51.4275
 30
0.0
 11
187.906
 21
-51.4275
 31
0.0
  0
LINE
  5
2E7
330
17
100
AcDbEntity
  8
0
100
AcDbLine
 10
187.759
 20
-51.4275
 30
0.0
 11
187.868
 21
-51.4275
 31
0.0
  0
LINE
  5
2E8
330
17
100
AcDbEntity
  8
0
100
AcDbLine
 10
187.597
 20
-51.4275
 30
0.0
 11
187.759
 21
-51.4275
 31
0.0
  0
LINE
  5
2E9
330
17
100
AcDbEntity
  8
0
100
AcDbLine
 10
187.406
 20
-51.4275
 30
0.0
 11
187.597
 21
-51.4275
 31
0.0
  0
LINE
  5
2EA
330
17
100
AcDbEntity
  8
0
100
AcDbLine
 10
187.214
 20
-51.4275
 30
0.0
 11
187.406
 21
-51.4275
 31
0.0
  0
LINE
  5
2EB
330
17
100
AcDbEntity
  8
0
100
AcDbLine
 10
187.052
 20
-51.4275
 30
0.0
 11
187.214
 21
-51.4275
 31
0.0
  0
LINE
  5
2EC
330
17
100
AcDbEntity
  8
0
100
AcDbLine
 10
186.944
 20
-51.4275
 30
0.0
 11
187.052
 21
-51.4275
 31
0.0
  0
LINE
  5
2ED
330
17
100
AcDbEntity
  8
0
100
AcDbLine
 10
186.906
 20
-51.4275
 30
0.0
 11
186.944
 21
-51.4275
 31
0.0
  0
LINE
  5
2EE
330
17
100
AcDbEntity
  8
0
100
AcDbLine
 10
186.944
 20
-51.4275
 30
0.0
 11
186.944
 21
-51.4275
 31
0.0
  0
LINE
  5
2EF
330
17
100
AcDbEntity
  8
0
100
AcDbLine
 10
187.052
 20
-51.4275
 30
0.0
 11
187.052
 21
-51.4275
 31
0.0
  0
LINE
  5
2F0
330
17
100
AcDbEntity
  8
0
100
AcDbLine
 10
187.214
 20
-51.4275
 30
0.0
 11
187.214
 21
-51.4275
 31
0.0
  0
LINE
  5
2F1
330
17
100
AcDbEntity
  8
0
100
AcDbLine
 10
187.406
 20
-138.861
 30
0.0
 11
187.406
 21
-138.861
 31
0.0
  0
LINE
  5
2F2
330
17
100
AcDbEntity
  8
0
100
AcDbLine
 10
187.597
 20
-138.861
 30
0.0
 11
187.597
 21
-138.861
 31
0.0
  0
LINE
  5
2F3
330
17
100
AcDbEntity
  8
0
100
AcDbLine
 10
187.759
 20
-138.861
 30
0.0
 11
187.759
 21
-138.861
 31
0.0
  0
LINE
  5
2F4
330
17
100
AcDbEntity
  8
0
100
AcDbLine
 10
187.868
 20
-138.861
 30
0.0
 11
187.868
 21
-138.861
 31
0.0
  0
LINE
  5
2F5
330
17
100
AcDbEntity
  8
0
100
AcDbLine
 10
187.868
 20
-138.861
 30
0.0
 11
187.906
 21
-138.861
 31
0.0
  0
LINE
  5
2F6
330
17
100
AcDbEntity
  8
0
100
AcDbLine
 10
187.759
 20
-138.861
 30
0.0
 11
187.868
 21
-138.861
 31
0.0
  0
LINE
  5
2F7
330
17
100
AcDbEntity
  8
0
100
AcDbLine
 10
187.597
 20
-138.861
 30
0.0
 11
187.759
 21
-138.861
 31
0.0
  0
LINE
  5
2F8
330
17
100
AcDbEntity
  8
0
100
AcDbLine
 10
187.406
 20
-138.861
 30
0.0
 11
187.597
 21
-138.861
 31
0.0
  0
LINE
  5
2F9
330
17
100
AcDbEntity
  8
0
100
AcDbLine
 10
187.214
 20
-138.861
 30
0.0
 11
187.406
 21
-138.861
 31
0.0
  0
LINE
  5
2FA
330
17
100
AcDbEntity
  8
0
100
AcDbLine
 10
187.052
 20
-138.861
 30
0.0
 11
187.214
 21
-138.861
 31
0.0
  0
LINE
  5
2FB
330
17
100
AcDbEntity
  8
0
100
AcDbLine
 10
186.944
 20
-138.861
 30
0.0
 11
187.052
 21
-138.861
 31
0.0
  0
LINE
  5
2FC
330
17
100
AcDbEntity
  8
0
100
AcDbLine
 10
186.906
 20
-138.861
 30
0.0
 11
186.944
 21
-138.861
 31
0.0
  0
LINE
  5
2FD
330
17
100
AcDbEntity
  8
0
100
AcDbLine
 10
186.944
 20
-138.861
 30
0.0
 11
186.944
 21
-138.861
 31
0.0
  0
LINE
  5
2FE
330
17
100
AcDbEntity
  8
0
100
AcDbLine
 10
187.052
 20
-138.861
 30
0.0
 11
187.052
 21
-138.861
 31
0.0
  0
LINE
  5
2FF
330
17
100
AcDbEntity
  8
0
100
AcDbLine
 10
187.214
 20
-138.861
 30
0.0
 11
187.214
 21
-138.861
 31
0.0
  0
LINE
  5
300
330
17
100
AcDbEntity
  8
0
100
AcDbLine
 10
150.677
 20
-78.8614
 30
0.0
 11
147.077
 21
-78.8614
 31
0.0
  0
LINE
  5
301
330
17
100
AcDbEntity
  8
0
100
AcDbLine
 10
150.677
 20
-18.8614
 30
0.0
 11
150.677
 21
-78.8614
 31
0.0
  0
LINE
  5
302
330
17
100
AcDbEntity
  8
0
100
AcDbLine
 10
150.677
 20
-18.8614
 30
0.0
 11
147.077
 21
-18.8614
 31
0.0
  0
LINE
  5
303
330
17
100
AcDbEntity
  8
0
100
AcDbLine
 10
147.077
 20
-78.8614
 30
0.0
 11
147.077
 21
-18.8614
 31
0.0
  0
LINE
  5
304
330
17
100
AcDbEntity
  8
0
100
AcDbLine
 10
181.6
 20
-76.124
 30
0.0
 11
181.6
 21
-76.124
 31
0.0
  0
LINE
  5
305
330
17
100
AcDbEntity
  8
0
100
AcDbLine
 10
186.6
 20
-76.124
 30
0.0
 11
186.906
 21
-76.124
 31
0.0
  0
LINE
  5
306
330
17
100
AcDbEntity
  8
0
100
AcDbLine
 10
187.906
 20
-76.124
 30
0.0
 11
188.714
 21
-76.124
 31
0.0
  0
LINE
  5
307
330
17
100
AcDbEntity
  8
0
100
AcDbLine
 10
178.714
 20
-77.124
 30
0.0
 11
181.6
 21
-77.124
 31
0.0
  0
LINE
  5
308
330
17
100
AcDbEntity
  8
0
100
AcDbLine
 10
186.6
 20
-77.124
 30
0.0
 11
186.906
 21
-77.124
 31
0.0
  0
LINE
  5
309
330
17
100
AcDbEntity
  8
0
100
AcDbLine
 10
187.906
 20
-77.124
 30
0.0
 11
188.714
 21
-77.124
 31
0.0
  0
LINE
  5
30A
330
17
100
AcDbEntity
  8
0
100
AcDbLine
 10
188.714
 20
-76.8154
 30
0.0
 11
188.714
 21
-76.8154
 31
0.0
  0
LINE
  5
30B
330
17
100
AcDbEntity
  8
0
100
AcDbLine
 10
188.714
 20
-76.9776
 30
0.0
 11
188.714
 21
-76.9776
 31
0.0
  0
LINE
  5
30C
330
17
100
AcDbEntity
  8
0
100
AcDbLine
 10
188.714
 20
-77.086
 30
0.0
 11
188.714
 21
-77.086
 31
0.0
  0
LINE
  5
30D
330
17
100
AcDbEntity
  8
0
100
AcDbLine
 10
188.714
 20
-77.086
 30
0.0
 11
188.714
 21
-77.124
 31
0.0
  0
LINE
  5
30E
330
17
100
AcDbEntity
  8
0
100
AcDbLine
 10
188.714
 20
-76.9776
 30
0.0
 11
188.714
 21
-77.086
 31
0.0
  0
LINE
  5
30F
330
17
100
AcDbEntity
  8
0
100
AcDbLine
 10
188.714
 20
-76.8154
 30
0.0
 11
188.714
 21
-76.9776
 31
0.0
  0
LINE
  5
310
330
17
100
AcDbEntity
  8
0
100
AcDbLine
 10
188.714
 20
-76.624
 30
0.0
 11
188.714
 21
-76.8154
 31
0.0
  0
LINE
  5
311
330
17
100
AcDbEntity
  8
0
100
AcDbLine
 10
188.714
 20
-76.4327
 30
0.0
 11
188.714
 21
-76.624
 31
0.0
  0
LINE
  5
312
330
17
100
AcDbEntity
  8
0
100
AcDbLine
 10
188.714
 20
-76.2705
 30
0.0
 11
188.714
 21
-76.4327
 31
0.0
  0
LINE
  5
313
330
17
100
AcDbEntity
  8
0
100
AcDbLine
 10
188.714
 20
-76.1621
 30
0.0
 11
188.714
 21
-76.2705
 31
0.0
  0
LINE
  5
314
330
17
100
AcDbEntity
  8
0
100
AcDbLine
 10
188.714
 20
-76.124
 30
0.0
 11
188.714
 21
-76.1621
 31
0.0
  0
LINE
  5
315
330
17
100
AcDbEntity
  8
0
100
AcDbLine
 10
188.714
 20
-76.1621
 30
0.0
 11
188.714
 21
-76.1621
 31
0.0
  0
LINE
  5
316
330
17
100
AcDbEntity
  8
0
100
AcDbLine
 10
188.714
 20
-76.2705
 30
0.0
 11
188.714
 21
-76.2705
 31
0.0
  0
LINE
  5
317
330
17
100
AcDbEntity
  8
0
100
AcDbLine
 10
188.714
 20
-76.4327
 30
0.0
 11
188.714
 21
-76.4327
 31
0.0
  0
LINE
  5
318
330
17
100
AcDbEntity
  8
0
100
AcDbLine
 10
188.714
 20
-76.624
 30
0.0
 11
188.714
 21
-76.624
 31
0.0
  0
LINE
  5
319
330
17
100
AcDbEntity
  8
0
100
AcDbLine
 10
178.714
 20
-76.9776
 30
0.0
 11
178.714
 21
-76.9776
 31
0.0
  0
LINE
  5
31A
330
17
100
AcDbEntity
  8
0
100
AcDbLine
 10
178.714
 20
-77.086
 30
0.0
 11
178.714
 21
-77.086
 31
0.0
  0
LINE
  5
31B
330
17
100
AcDbEntity
  8
0
100
AcDbLine
 10
178.714
 20
-77.086
 30
0.0
 11
178.714
 21
-77.124
 31
0.0
  0
LINE
  5
31C
330
17
100
AcDbEntity
  8
0
100
AcDbLine
 10
178.714
 20
-76.9776
 30
0.0
 11
178.714
 21
-77.086
 31
0.0
  0
LINE
  5
31D
330
17
100
AcDbEntity
  8
0
100
AcDbLine
 10
178.714
 20
-76.8614
 30
0.0
 11
178.714
 21
-76.9776
 31
0.0
  0
LINE
  5
31E
330
17
100
AcDbEntity
  8
0
100
AcDbLine
 10
142.35
 20
-60.4483
 30
0.0
 11
142.35
 21
-53.8614
 31
0.0
  0
LINE
  5
31F
330
17
100
AcDbEntity
  8
0
100
AcDbLine
 10
143.35
 20
-60.4483
 30
0.0
 11
143.35
 21
-53.8614
 31
0.0
  0
LINE
  5
320
330
17
100
AcDbEntity
  8
0
100
AcDbLine
 10
142.85
 20
-60.4483
 30
0.0
 11
142.85
 21
-60.4483
 31
0.0
  0
LINE
  5
321
330
17
100
AcDbEntity
  8
0
100
AcDbLine
 10
143.041
 20
-60.4483
 30
0.0
 11
143.041
 21
-60.4483
 31
0.0
  0
LINE
  5
322
330
17
100
AcDbEntity
  8
0
100
AcDbLine
 10
143.203
 20
-60.4483
 30
0.0
 11
143.203
 21
-60.4483
 31
0.0
  0
LINE
  5
323
330
17
100
AcDbEntity
  8
0
100
AcDbLine
 10
143.312
 20
-60.4483
 30
0.0
 11
143.312
 21
-60.4483
 31
0.0
  0
LINE
  5
324
330
17
100
AcDbEntity
  8
0
100
AcDbLine
 10
143.312
 20
-60.4483
 30
0.0
 11
143.35
 21
-60.4483
 31
0.0
  0
LINE
  5
325
330
17
100
AcDbEntity
  8
0
100
AcDbLine
 10
143.203
 20
-60.4483
 30
0.0
 11
143.312
 21
-60.4483
 31
0.0
  0
LINE
  5
326
330
17
100
AcDbEntity
  8
0
100
AcDbLine
 10
143.041
 20
-60.4483
 30
0.0
 11
143.203
 21
-60.4483
 31
0.0
  0
LINE
  5
327
330
17
100
AcDbEntity
  8
0
100
AcDbLine
 10
142.85
 20
-60.4483
 30
0.0
 11
143.041
 21
-60.4483
 31
0.0
  0
LINE
  5
328
330
17
100
AcDbEntity
  8
0
100
AcDbLine
 10
142.658
 20
-60.4483
 30
0.0
 11
142.85
 21
-60.4483
 31
0.0
  0
LINE
  5
329
330
17
100
AcDbEntity
  8
0
100
AcDbLine
 10
142.496
 20
-60.4483
 30
0.0
 11
142.658
 21
-60.4483
 31
0.0
  0
LINE
  5
32A
330
17
100
AcDbEntity
  8
0
100
AcDbLine
 10
142.388
 20
-60.4483
 30
0.0
 11
142.496
 21
-60.4483
 31
0.0
  0
LINE
  5
32B
330
17
100
AcDbEntity
  8
0
100
AcDbLine
 10
142.35
 20
-60.4483
 30
0.0
 11
142.388
 21
-60.4483
 31
0.0
  0
LINE
  5
32C
330
17
100
AcDbEntity
  8
0
100
AcDbLine
 10
142.388
 20
-60.4483
 30
0.0
 11
142.388
 21
-60.4483
 31
0.0
  0
LINE
  5
32D
330
17
100
AcDbEntity
  8
0
100
AcDbLine
 10
142.496
 20
-60.4483
 30
0.0
 11
142.496
 21
-60.4483
 31
0.0
  0
LINE
  5
32E
330
17
100
AcDbEntity
  8
0
100
AcDbLine
 10
142.658
 20
-60.4483
 30
0.0
 11
142.658
 21
-60.4483
 31
0.0
  0
LINE
  5
32F
330
17
100
AcDbEntity
  8
0
100
AcDbLine
 10
155.268
 20
-60.4483
 30
0.0
 11
155.268
 21
-56.7328
 31
0.0
  0
LINE
  5
330
330
17
100
AcDbEntity
  8
0
100
AcDbLine
 10
155.268
 20
-51.7328
 30
0.0
 11
155.268
 21
-48.8614
 31
0.0
  0
LINE
  5
331
330
17
100
AcDbEntity
  8
0
100
AcDbLine
 10
156.268
 20
-60.4483
 30
0.0
 11
156.268
 21
-56.7328
 31
0.0
  0
LINE
  5
332
330
17
100
AcDbEntity
  8
0
100
AcDbLine
 10
156.268
 20
-51.7328
 30
0.0
 11
156.268
 21
-48.8614
 31
0.0
  0
LINE
  5
333
330
17
100
AcDbEntity
  8
0
100
AcDbLine
 10
155.768
 20
-48.8614
 30
0.0
 11
155.768
 21
-48.8614
 31
0.0
  0
LINE
  5
334
330
17
100
AcDbEntity
  8
0
100
AcDbLine
 10
155.96
 20
-48.8614
 30
0.0
 11
155.96
 21
-48.8614
 31
0.0
  0
LINE
  5
335
330
17
100
AcDbEntity
  8
0
100
AcDbLine
 10
156.122
 20
-48.8614
 30
0.0
 11
156.122
 21
-48.8614
 31
0.0
  0
LINE
  5
336
330
17
100
AcDbEntity
  8
0
100
AcDbLine
 10
156.23
 20
-48.8614
 30
0.0
 11
156.23
 21
-48.8614
 31
0.0
  0
LINE
  5
337
330
17
100
AcDbEntity
  8
0
100
AcDbLine
 10
156.23
 20
-48.8614
 30
0.0
 11
156.268
 21
-48.8614
 31
0.0
  0
LINE
  5
338
330
17
100
AcDbEntity
  8
0
100
AcDbLine
 10
156.122
 20
-48.8614
 30
0.0
 11
156.23
 21
-48.8614
 31
0.0
  0
LINE
  5
339
330
17
100
AcDbEntity
  8
0
100
AcDbLine
 10
155.96
 20
-48.8614
 30
0.0
 11
156.122
 21
-48.8614
 31
0.0
  0
LINE
  5
33A
330
17
100
AcDbEntity
  8
0
100
AcDbLine
 10
155.768
 20
-48.8614
 30
0.0
 11
155.96
 21
-48.8614
 31
0.0
  0
LINE
  5
33B
330
17
100
AcDbEntity
  8
0
100
AcDbLine
 10
155.577
 20
-48.8614
 30
0.0
 11
155.768
 21
-48.8614
 31
0.0
  0
LINE
  5
33C
330
17
100
AcDbEntity
  8
0
100
AcDbLine
 10
155.415
 20
-48.8614
 30
0.0
 11
155.577
 21
-48.8614
 31
0.0
  0
LINE
  5
33D
330
17
100
AcDbEntity
  8
0
100
AcDbLine
 10
155.306
 20
-48.8614
 30
0.0
 11
155.415
 21
-48.8614
 31
0.0
  0
LINE
  5
33E
330
17
100
AcDbEntity
  8
0
100
AcDbLine
 10
155.268
 20
-48.8614
 30
0.0
 11
155.306
 21
-48.8614
 31
0.0
  0
LINE
  5
33F
330
17
100
AcDbEntity
  8
0
100
AcDbLine
 10
155.306
 20
-48.8614
 30
0.0
 11
155.306
 21
-48.8614
 31
0.0
  0
LINE
  5
340
330
17
100
AcDbEntity
  8
0
100
AcDbLine
 10
155.415
 20
-48.8614
 30
0.0
 11
155.415
 21
-48.8614
 31
0.0
  0
LINE
  5
341
330
17
100
AcDbEntity
  8
0
100
AcDbLine
 10
155.577
 20
-48.8614
 30
0.0
 11
155.577
 21
-48.8614
 31
0.0
  0
LINE
  5
342
330
17
100
AcDbEntity
  8
0
100
AcDbLine
 10
155.96
 20
-60.4483
 30
0.0
 11
155.96
 21
-60.4483
 31
0.0
  0
LINE
  5
343
330
17
100
AcDbEntity
  8
0
100
AcDbLine
 10
156.122
 20
-60.4483
 30
0.0
 11
156.122
 21
-60.4483
 31
0.0
  0
LINE
  5
344
330
17
100
AcDbEntity
  8
0
100
AcDbLine
 10
156.23
 20
-60.4483
 30
0.0
 11
156.23
 21
-60.4483
 31
0.0
  0
LINE
  5
345
330
17
100
AcDbEntity
  8
0
100
AcDbLine
 10
156.23
 20
-60.4483
 30
0.0
 11
156.268
 21
-60.4483
 31
0.0
  0
LINE
  5
346
330
17
100
AcDbEntity
  8
0
100
AcDbLine
 10
156.122
 20
-60.4483
 30
0.0
 11
156.23
 21
-60.4483
 31
0.0
  0
LINE
  5
347
330
17
100
AcDbEntity
  8
0
100
AcDbLine
 10
155.96
 20
-60.4483
 30
0.0
 11
156.122
 21
-60.4483
 31
0.0
  0
LINE
  5
348
330
17
100
AcDbEntity
  8
0
100
AcDbLine
 10
155.768
 20
-60.4483
 30
0.0
 11
155.96
 21
-60.4483
 31
0.0
  0
LINE
  5
349
330
17
100
AcDbEntity
  8
0
100
AcDbLine
 10
155.577
 20
-60.4483
 30
0.0
 11
155.768
 21
-60.4483
 31
0.0
  0
LINE
  5
34A
330
17
100
AcDbEntity
  8
0
100
AcDbLine
 10
155.415
 20
-60.4483
 30
0.0
 11
155.577
 21
-60.4483
 31
0.0
  0
LINE
  5
34B
330
17
100
AcDbEntity
  8
0
100
AcDbLine
 10
155.306
 20
-60.4483
 30
0.0
 11
155.415
 21
-60.4483
 31
0.0
  0
LINE
  5
34C
330
17
100
AcDbEntity
  8
0
100
AcDbLine
 10
155.268
 20
-60.4483
 30
0.0
 11
155.306
 21
-60.4483
 31
0.0
  0
LINE
  5
34D
330
17
100
AcDbEntity
  8
0
100
AcDbLine
 10
155.306
 20
-60.4483
 30
0.0
 11
155.306
 21
-60.4483
 31
0.0
  0
LINE
  5
34E
330
17
100
AcDbEntity
  8
0
100
AcDbLine
 10
155.268
 20
-60.4483
 30
0.0
 11
150.677
 21
-60.4483
 31
0.0
  0
LINE
  5
34F
330
17
100
AcDbEntity
  8
0
100
AcDbLine
 10
147.077
 20
-60.4483
 30
0.0
 11
143.35
 21
-60.4483
 31
0.0
  0
LINE
  5
350
330
17
100
AcDbEntity
  8
0
100
AcDbLine
 10
155.883
 20
-61.4483
 30
0.0
 11
150.677
 21
-61.4483
 31
0.0
  0
LINE
  5
351
330
17
100
AcDbEntity
  8
0
100
AcDbLine
 10
147.077
 20
-61.4483
 30
0.0
 11
143.346
 21
-61.4483
 31
0.0
  0
LINE
  5
352
330
17
100
AcDbEntity
  8
0
100
AcDbLine
 10
143.346
 20
-61.1397
 30
0.0
 11
143.346
 21
-60.9483
 31
0.0
  0
LINE
  5
353
330
17
100
AcDbEntity
  8
0
100
AcDbLine
 10
143.346
 20
-61.3019
 30
0.0
 11
143.346
 21
-61.1397
 31
0.0
  0
LINE
  5
354
330
17
100
AcDbEntity
  8
0
100
AcDbLine
 10
143.346
 20
-61.4103
 30
0.0
 11
143.346
 21
-61.3019
 31
0.0
  0
LINE
  5
355
330
17
100
AcDbEntity
  8
0
100
AcDbLine
 10
143.346
 20
-61.4483
 30
0.0
 11
143.346
 21
-61.4103
 31
0.0
  0
LINE
  5
356
330
17
100
AcDbEntity
  8
0
100
AcDbLine
 10
143.346
 20
-61.4103
 30
0.0
 11
143.346
 21
-61.4103
 31
0.0
  0
LINE
  5
357
330
17
100
AcDbEntity
  8
0
100
AcDbLine
 10
143.346
 20
-61.3019
 30
0.0
 11
143.346
 21
-61.3019
 31
0.0
  0
LINE
  5
358
330
17
100
AcDbEntity
  8
0
100
AcDbLine
 10
143.346
 20
-61.1397
 30
0.0
 11
143.346
 21
-61.1397
 31
0.0
  0
LINE
  5
359
330
17
100
AcDbEntity
  8
0
100
AcDbLine
 10
143.346
 20
-60.9483
 30
0.0
 11
143.346
 21
-60.9483
 31
0.0
  0
LINE
  5
35A
330
17
100
AcDbEntity
  8
0
100
AcDbLine
 10
143.346
 20
-60.757
 30
0.0
 11
143.346
 21
-60.757
 31
0.0
  0
LINE
  5
35B
330
17
100
AcDbEntity
  8
0
100
AcDbLine
 10
143.346
 20
-60.5948
 30
0.0
 11
143.346
 21
-60.5948
 31
0.0
  0
LINE
  5
35C
330
17
100
AcDbEntity
  8
0
100
AcDbLine
 10
143.346
 20
-60.4864
 30
0.0
 11
143.346
 21
-60.4864
 31
0.0
  0
LINE
  5
35D
330
17
100
AcDbEntity
  8
0
100
AcDbLine
 10
143.346
 20
-60.4864
 30
0.0
 11
143.346
 21
-60.4483
 31
0.0
  0
LINE
  5
35E
330
17
100
AcDbEntity
  8
0
100
AcDbLine
 10
143.346
 20
-60.5948
 30
0.0
 11
143.346
 21
-60.4864
 31
0.0
  0
LINE
  5
35F
330
17
100
AcDbEntity
  8
0
100
AcDbLine
 10
143.346
 20
-60.757
 30
0.0
 11
143.346
 21
-60.5948
 31
0.0
  0
LINE
  5
360
330
17
100
AcDbEntity
  8
0
100
AcDbLine
 10
143.346
 20
-60.9483
 30
0.0
 11
143.346
 21
-60.757
 31
0.0
  0
LINE
  5
361
330
17
100
AcDbEntity
  8
0
100
AcDbLine
 10
155.883
 20
-61.1397
 30
0.0
 11
155.883
 21
-60.9483
 31
0.0
  0
LINE
  5
362
330
17
100
AcDbEntity
  8
0
100
AcDbLine
 10
155.883
 20
-61.3019
 30
0.0
 11
155.883
 21
-61.1397
 31
0.0
  0
LINE
  5
363
330
17
100
AcDbEntity
  8
0
100
AcDbLine
 10
155.883
 20
-61.4103
 30
0.0
 11
155.883
 21
-61.3019
 31
0.0
  0
LINE
  5
364
330
17
100
AcDbEntity
  8
0
100
AcDbLine
 10
155.883
 20
-61.4483
 30
0.0
 11
155.883
 21
-61.4103
 31
0.0
  0
LINE
  5
365
330
17
100
AcDbEntity
  8
0
100
AcDbLine
 10
155.883
 20
-61.4103
 30
0.0
 11
155.883
 21
-61.4103
 31
0.0
  0
LINE
  5
366
330
17
100
AcDbEntity
  8
0
100
AcDbLine
 10
155.883
 20
-61.3019
 30
0.0
 11
155.883
 21
-61.3019
 31
0.0
  0
LINE
  5
367
330
17
100
AcDbEntity
  8
0
100
AcDbLine
 10
155.883
 20
-61.1397
 30
0.0
 11
155.883
 21
-61.1397
 31
0.0
  0
LINE
  5
368
330
17
100
AcDbEntity
  8
0
100
AcDbLine
 10
155.883
 20
-60.9483
 30
0.0
 11
155.883
 21
-60.9483
 31
0.0
  0
LINE
  5
369
330
17
100
AcDbEntity
  8
0
100
AcDbLine
 10
155.883
 20
-60.757
 30
0.0
 11
155.883
 21
-60.757
 31
0.0
  0
LINE
  5
36A
330
17
100
AcDbEntity
  8
0
100
AcDbLine
 10
155.883
 20
-60.5948
 30
0.0
 11
155.883
 21
-60.5948
 31
0.0
  0
LINE
  5
36B
330
17
100
AcDbEntity
  8
0
100
AcDbLine
 10
155.883
 20
-60.4864
 30
0.0
 11
155.883
 21
-60.4864
 31
0.0
  0
LINE
  5
36C
330
17
100
AcDbEntity
  8
0
100
AcDbLine
 10
155.883
 20
-60.4864
 30
0.0
 11
155.883
 21
-60.4483
 31
0.0
  0
LINE
  5
36D
330
17
100
AcDbEntity
  8
0
100
AcDbLine
 10
155.883
 20
-60.5948
 30
0.0
 11
155.883
 21
-60.4864
 31
0.0
  0
LINE
  5
36E
330
17
100
AcDbEntity
  8
0
100
AcDbLine
 10
155.883
 20
-60.757
 30
0.0
 11
155.883
 21
-60.5948
 31
0.0
  0
LINE
  5
36F
330
17
100
AcDbEntity
  8
0
100
AcDbLine
 10
155.883
 20
-60.9483
 30
0.0
 11
155.883
 21
-60.757
 31
0.0
  0
LINE
  5
370
330
17
100
AcDbEntity
  8
0
100
AcDbLine
 10
186.6
 20
-120.045
 30
0.0
 11
186.906
 21
-120.045
 31
0.0
  0
LINE
  5
371
330
17
100
AcDbEntity
  8
0
100
AcDbLine
 10
186.6
 20
-121.045
 30
0.0
 11
186.906
 21
-121.045
 31
0.0
  0
LINE
  5
372
330
17
100
AcDbEntity
  8
0
100
AcDbLine
 10
186.6
 20
-127.861
 30
0.0
 11
186.906
 21
-127.861
 31
0.0
  0
LINE
  5
373
330
17
100
AcDbEntity
  8
0
100
AcDbLine
 10
187.906
 20
-127.861
 30
0.0
 11
188.346
 21
-127.861
 31
0.0
  0
LINE
  5
374
330
17
100
AcDbEntity
  8
0
100
AcDbLine
 10
186.6
 20
-129.861
 30
0.0
 11
186.906
 21
-129.861
 31
0.0
  0
LINE
  5
375
330
17
100
AcDbEntity
  8
0
100
AcDbLine
 10
187.906
 20
-129.861
 30
0.0
 11
188.346
 21
-129.861
 31
0.0
  0
LINE
  5
376
330
17
100
AcDbEntity
  8
0
100
AcDbLine
 10
186.6
 20
-70.8614
 30
0.0
 11
186.906
 21
-70.8614
 31
0.0
  0
LINE
  5
377
330
17
100
AcDbEntity
  8
0
100
AcDbLine
 10
187.906
 20
-70.8614
 30
0.0
 11
188.346
 21
-70.8614
 31
0.0
  0
LINE
  5
378
330
17
100
AcDbEntity
  8
0
100
AcDbLine
 10
186.6
 20
-72.8614
 30
0.0
 11
186.906
 21
-72.8614
 31
0.0
  0
LINE
  5
379
330
17
100
AcDbEntity
  8
0
100
AcDbLine
 10
187.906
 20
-72.8614
 30
0.0
 11
188.346
 21
-72.8614
 31
0.0
  0
LINE
  5
37A
330
17
100
AcDbEntity
  8
0
100
AcDbLine
 10
188.353
 20
-72.8541
 30
0.0
 11
188.353
 21
-72.8541
 31
0.0
  0
LINE
  5
37B
330
17
100
AcDbEntity
  8
0
100
AcDbLine
 10
188.353
 20
-72.7964
 30
0.0
 11
188.353
 21
-72.8541
 31
0.0
  0
LINE
  5
37C
330
17
100
AcDbEntity
  8
0
100
AcDbLine
 10
188.353
 20
-72.6844
 30
0.0
 11
188.353
 21
-72.7964
 31
0.0
  0
LINE
  5
37D
330
17
100
AcDbEntity
  8
0
100
AcDbLine
 10
188.353
 20
-72.5245
 30
0.0
 11
188.353
 21
-72.6844
 31
0.0
  0
LINE
  5
37E
330
17
100
AcDbEntity
  8
0
100
AcDbLine
 10
188.353
 20
-72.3261
 30
0.0
 11
188.353
 21
-72.5245
 31
0.0
  0
LINE
  5
37F
330
17
100
AcDbEntity
  8
0
100
AcDbLine
 10
188.353
 20
-72.1007
 30
0.0
 11
188.353
 21
-72.3261
 31
0.0
  0
LINE
  5
380
330
17
100
AcDbEntity
  8
0
100
AcDbLine
 10
188.353
 20
-71.8614
 30
0.0
 11
188.353
 21
-72.1007
 31
0.0
  0
LINE
  5
381
330
17
100
AcDbEntity
  8
0
100
AcDbLine
 10
188.353
 20
-71.6221
 30
0.0
 11
188.353
 21
-71.8614
 31
0.0
  0
LINE
  5
382
330
17
100
AcDbEntity
  8
0
100
AcDbLine
 10
188.353
 20
-71.3967
 30
0.0
 11
188.353
 21
-71.6221
 31
0.0
  0
LINE
  5
383
330
17
100
AcDbEntity
  8
0
100
AcDbLine
 10
188.353
 20
-71.1983
 30
0.0
 11
188.353
 21
-71.3967
 31
0.0
  0
LINE
  5
384
330
17
100
AcDbEntity
  8
0
100
AcDbLine
 10
188.353
 20
-71.0384
 30
0.0
 11
188.353
 21
-71.1983
 31
0.0
  0
LINE
  5
385
330
17
100
AcDbEntity
  8
0
100
AcDbLine
 10
188.353
 20
-70.9264
 30
0.0
 11
188.353
 21
-71.0384
 31
0.0
  0
LINE
  5
386
330
17
100
AcDbEntity
  8
0
100
AcDbLine
 10
188.353
 20
-70.8687
 30
0.0
 11
188.353
 21
-70.9264
 31
0.0
  0
LINE
  5
387
330
17
100
AcDbEntity
  8
0
100
AcDbLine
 10
188.353
 20
-70.8687
 30
0.0
 11
188.353
 21
-70.8687
 31
0.0
  0
LINE
  5
388
330
17
100
AcDbEntity
  8
0
100
AcDbLine
 10
34.4803
 20
-143.861
 30
0.0
 11
34.4803
 21
-143.861
 31
0.0
  0
LINE
  5
389
330
17
100
AcDbEntity
  8
0
100
AcDbLine
 10
34.4803
 20
-143.861
 30
0.0
 11
34.4803
 21
-138.861
 31
0.0
  0
LINE
  5
38A
330
17
100
AcDbEntity
  8
0
100
AcDbLine
 10
34.4803
 20
-143.861
 30
0.0
 11
34.4803
 21
-143.861
 31
0.0
  0
LINE
  5
38B
330
17
100
AcDbEntity
  8
0
100
AcDbLine
 10
40.5421
 20
-132.861
 30
0.0
 11
42.0421
 21
-132.861
 31
0.0
  0
LINE
  5
38C
330
17
100
AcDbEntity
  8
0
100
AcDbLine
 10
42.5421
 20
-132.861
 30
0.0
 11
44.0421
 21
-132.861
 31
0.0
  0
LINE
  5
38D
330
17
100
AcDbEntity
  8
0
100
AcDbLine
 10
44.5421
 20
-132.861
 30
0.0
 11
45.7
 21
-132.861
 31
0.0
  0
LINE
  5
38E
330
17
100
AcDbEntity
  8
0
100
AcDbLine
 10
45.7
 20
-138.842
 30
0.0
 11
35.6607
 21
-143.861
 31
0.0
  0
LINE
  5
38F
330
17
100
AcDbEntity
  8
0
100
AcDbLine
 10
35.6607
 20
-143.861
 30
0.0
 11
34.4803
 21
-143.861
 31
0.0
  0
LINE
  5
390
330
17
100
AcDbEntity
  8
0
100
AcDbLine
 10
34.4803
 20
-138.861
 30
0.0
 11
34.4803
 21
-143.861
 31
0.0
  0
LINE
  5
391
330
17
100
AcDbEntity
  8
0
100
AcDbLine
 10
40.0421
 20
-135.861
 30
0.0
 11
38.5421
 21
-135.861
 31
0.0
  0
LINE
  5
392
330
17
100
AcDbEntity
  8
0
100
AcDbLine
 10
38.0421
 20
-135.861
 30
0.0
 11
36.5421
 21
-135.861
 31
0.0
  0
LINE
  5
393
330
17
100
AcDbEntity
  8
0
100
AcDbLine
 10
36.0421
 20
-135.861
 30
0.0
 11
34.5421
 21
-135.861
 31
0.0
  0
LINE
  5
394
330
17
100
AcDbEntity
  8
0
100
AcDbLine
 10
119.7
 20
-9.86141
 30
0.0
 11
115.1
 21
-9.86141
 31
0.0
  0
LINE
  5
395
330
17
100
AcDbEntity
  8
0
100
AcDbLine
 10
115.1
 20
-27.8614
 30
0.0
 11
115.1
 21
-9.86141
 31
0.0
  0
LINE
  5
396
330
17
100
AcDbEntity
  8
0
100
AcDbLine
 10
115.1
 20
-27.8614
 30
0.0
 11
119.7
 21
-27.8614
 31
0.0
  0
LINE
  5
397
330
17
100
AcDbEntity
  8
0
100
AcDbLine
 10
119.7
 20
-9.86141
 30
0.0
 11
119.7
 21
-27.8614
 31
0.0
  0
LINE
  5
398
330
17
100
AcDbEntity
  8
0
100
AcDbLine
 10
119.7
 20
-27.8614
 30
0.0
 11
119.7
 21
-27.8614
 31
0.0
  0
LINE
  5
399
330
17
100
AcDbEntity
  8
0
100
AcDbLine
 10
119.7
 20
-69.8614
 30
0.0
 11
119.7
 21
-27.8614
 31
0.0
  0
LINE
  5
39A
330
17
100
AcDbEntity
  8
0
100
AcDbLine
 10
119.7
 20
-69.8614
 30
0.0
 11
119.7
 21
-69.8614
 31
0.0
  0
LINE
  5
39B
330
17
100
AcDbEntity
  8
0
100
AcDbLine
 10
115.1
 20
-27.8614
 30
0.0
 11
115.1
 21
-69.8614
 31
0.0
  0
LINE
  5
39C
330
17
100
AcDbEntity
  8
0
100
AcDbLine
 10
123.053
 20
-42.8614
 30
0.0
 11
123.053
 21
-56.4614
 31
0.0
  0
LINE
  5
39D
330
17
100
AcDbEntity
  8
0
100
AcDbLine
 10
139.053
 20
-42.8614
 30
0.0
 11
123.053
 21
-42.8614
 31
0.0
  0
LINE
  5
39E
330
17
100
AcDbEntity
  8
0
100
AcDbLine
 10
139.053
 20
-58.8614
 30
0.0
 11
139.053
 21
-53.8614
 31
0.0
  0
LINE
  5
39F
330
17
100
AcDbEntity
  8
0
100
AcDbLine
 10
139.053
 20
-48.8614
 30
0.0
 11
139.053
 21
-42.8614
 31
0.0
  0
LINE
  5
3A0
330
17
100
AcDbEntity
  8
0
100
AcDbLine
 10
133.022
 20
-58.8614
 30
0.0
 11
139.053
 21
-58.8614
 31
0.0
  0
LINE
  5
3A1
330
17
100
AcDbEntity
  8
0
100
AcDbLine
 10
119.7
 20
-78.8614
 30
0.0
 11
115.1
 21
-78.8614
 31
0.0
  0
LINE
  5
3A2
330
17
100
AcDbEntity
  8
0
100
AcDbLine
 10
115.1
 20
-78.8614
 30
0.0
 11
115.1
 21
-71.8614
 31
0.0
  0
LINE
  5
3A3
330
17
100
AcDbEntity
  8
0
100
AcDbLine
 10
115.1
 20
-9.86141
 30
0.0
 11
115.1
 21
-9.86141
 31
0.0
  0
LINE
  5
3A4
330
17
100
AcDbEntity
  8
0
100
AcDbLine
 10
119.7
 20
-78.8614
 30
0.0
 11
119.7
 21
-73.8614
 31
0.0
  0
LINE
  5
3A5
330
17
100
AcDbEntity
  8
0
100
AcDbLine
 10
119.7
 20
-71.8614
 30
0.0
 11
119.7
 21
-9.86141
 31
0.0
  0
LINE
  5
3A6
330
17
100
AcDbEntity
  8
0
100
AcDbLine
 10
50.7
 20
-87.8614
 30
0.0
 11
50.7
 21
-87.8614
 31
0.0
  0
LINE
  5
3A7
330
17
100
AcDbEntity
  8
0
100
AcDbLine
 10
50.7
 20
-129.861
 30
0.0
 11
50.7
 21
-129.861
 31
0.0
  0
LINE
  5
3A8
330
17
100
AcDbEntity
  8
0
100
AcDbLine
 10
50.7
 20
-129.861
 30
0.0
 11
50.7
 21
-87.8614
 31
0.0
  0
LINE
  5
3A9
330
17
100
AcDbEntity
  8
0
100
AcDbLine
 10
45.7
 20
-87.8614
 30
0.0
 11
45.7
 21
-129.861
 31
0.0
  0
LINE
  5
3AA
330
17
100
AcDbEntity
  8
0
100
AcDbLine
 10
50.7
 20
-87.8614
 30
0.0
 11
50.7
 21
-87.8614
 31
0.0
  0
LINE
  5
3AB
330
17
100
AcDbEntity
  8
0
100
AcDbLine
 10
45.7
 20
-87.8614
 30
0.0
 11
50.7
 21
-87.8614
 31
0.0
  0
LINE
  5
3AC
330
17
100
AcDbEntity
  8
0
100
AcDbLine
 10
50.7
 20
-71.8614
 30
0.0
 11
50.7
 21
-87.8614
 31
0.0
  0
LINE
  5
3AD
330
17
100
AcDbEntity
  8
0
100
AcDbLine
 10
50.7
 20
-71.8614
 30
0.0
 11
45.7
 21
-71.8614
 31
0.0
  0
LINE
  5
3AE
330
17
100
AcDbEntity
  8
0
100
AcDbLine
 10
45.7
 20
-87.8614
 30
0.0
 11
45.7
 21
-71.8614
 31
0.0
  0
LINE
  5
3AF
330
17
100
AcDbEntity
  8
0
100
AcDbLine
 10
50.7
 20
-69.8614
 30
0.0
 11
45.7
 21
-69.8614
 31
0.0
  0
LINE
  5
3B0
330
17
100
AcDbEntity
  8
0
100
AcDbLine
 10
50.7
 20
-53.8614
 30
0.0
 11
50.7
 21
-69.8614
 31
0.0
  0
LINE
  5
3B1
330
17
100
AcDbEntity
  8
0
100
AcDbLine
 10
50.7
 20
-53.8614
 30
0.0
 11
45.7
 21
-53.8614
 31
0.0
  0
LINE
  5
3B2
330
17
100
AcDbEntity
  8
0
100
AcDbLine
 10
45.7
 20
-69.8614
 30
0.0
 11
45.7
 21
-53.8614
 31
0.0
  0
LINE
  5
3B3
330
17
100
AcDbEntity
  8
0
100
AcDbLine
 10
50.7
 20
-27.8614
 30
0.0
 11
50.7
 21
-27.8614
 31
0.0
  0
LINE
  5
3B4
330
17
100
AcDbEntity
  8
0
100
AcDbLine
 10
50.7
 20
-53.8614
 30
0.0
 11
50.7
 21
-27.8614
 31
0.0
  0
LINE
  5
3B5
330
17
100
AcDbEntity
  8
0
100
AcDbLine
 10
50.7
 20
-53.8614
 30
0.0
 11
50.7
 21
-53.8614
 31
0.0
  0
LINE
  5
3B6
330
17
100
AcDbEntity
  8
0
100
AcDbLine
 10
45.7
 20
-27.8614
 30
0.0
 11
45.7
 21
-28.8614
 31
0.0
  0
LINE
  5
3B7
330
17
100
AcDbEntity
  8
0
100
AcDbLine
 10
45.7
 20
-52.8614
 30
0.0
 11
45.7
 21
-53.8614
 31
0.0
  0
LINE
  5
3B8
330
17
100
AcDbEntity
  8
0
100
AcDbLine
 10
45.7
 20
-27.8614
 30
0.0
 11
50.7
 21
-27.8614
 31
0.0
  0
LINE
  5
3B9
330
17
100
AcDbEntity
  8
0
100
AcDbLine
 10
50.7
 20
-9.86142
 30
0.0
 11
50.7
 21
-27.8614
 31
0.0
  0
LINE
  5
3BA
330
17
100
AcDbEntity
  8
0
100
AcDbLine
 10
50.7
 20
-9.86142
 30
0.0
 11
45.7
 21
-9.86142
 31
0.0
  0
LINE
  5
3BB
330
17
100
AcDbEntity
  8
0
100
AcDbLine
 10
45.7
 20
-27.8614
 30
0.0
 11
45.7
 21
-9.86142
 31
0.0
  0
LINE
  5
3BC
330
17
100
AcDbEntity
  8
0
100
AcDbLine
 10
115.1
 20
-9.86141
 30
0.0
 11
50.7
 21
-9.86142
 31
0.0
  0
LINE
  5
3BD
330
17
100
AcDbEntity
  8
0
100
AcDbLine
 10
53.822
 20
-27.8614
 30
0.0
 11
53.822
 21
-69.8614
 31
0.0
  0
LINE
  5
3BE
330
17
100
AcDbEntity
  8
0
100
AcDbLine
 10
113.822
 20
-27.8614
 30
0.0
 11
53.822
 21
-27.8614
 31
0.0
  0
LINE
  5
3BF
330
17
100
AcDbEntity
  8
0
100
AcDbLine
 10
113.822
 20
-69.8614
 30
0.0
 11
113.822
 21
-27.8614
 31
0.0
  0
LINE
  5
3C0
330
17
100
AcDbEntity
  8
0
100
AcDbLine
 10
45.7
 20
-27.8614
 30
0.0
 11
45.7
 21
-27.8614
 31
0.0
  0
LINE
  5
3C1
330
17
100
AcDbEntity
  8
0
100
AcDbLine
 10
50.7
 20
-53.8614
 30
0.0
 11
50.7
 21
-27.8614
 31
0.0
  0
LINE
  5
3C2
330
17
100
AcDbEntity
  8
0
100
AcDbLine
 10
48.68112564086914
 20
-87.69395840370049
 30
0.0
 11
48.68112564086914
 21
-88.36140644752373
 31
0.0
  0
LINE
  5
3C3
330
17
100
AcDbEntity
  8
0
100
AcDbLine
 10
48.78112316131592
 20
-88.36140644752373
 30
0.0
 11
48.78112316131592
 21
-87.69395840370049
 31
0.0
  0
LINE
  5
3C4
330
17
100
AcDbEntity
  8
0
100
AcDbLine
 10
48.78112316131592
 20
-88.36140644752373
 30
0.0
 11
48.751792907714844
 21
-88.36140644752373
 31
0.0
  0
LINE
  5
3C5
330
17
100
AcDbEntity
  8
0
100
AcDbLine
 10
48.68112564086914
 20
-88.36140644752373
 30
0.0
 11
48.751792907714844
 21
-88.36140644752373
 31
0.0
  0
LINE
  5
3C6
330
17
100
AcDbEntity
  8
0
100
AcDbLine
 10
48.68112564086914
 20
-87.36140740119805
 30
0.0
 11
48.68112564086914
 21
-87.69395840370049
 31
0.0
  0
LINE
  5
3C7
330
17
100
AcDbEntity
  8
0
100
AcDbLine
 10
48.78112316131592
 20
-87.36140740119805
 30
0.0
 11
48.78112316131592
 21
-87.69395840370049
 31
0.0
  0
LINE
  5
3C8
330
17
100
AcDbEntity
  8
0
100
AcDbLine
 10
48.78112316131592
 20
-87.36140740119805
 30
0.0
 11
48.71263027191162
 21
-87.36140740119805
 31
0.0
  0
LINE
  5
3C9
330
17
100
AcDbEntity
  8
0
100
AcDbLine
 10
48.68112564086914
 20
-87.36140740119805
 30
0.0
 11
48.71263027191162
 21
-87.36140740119805
 31
0.0
  0
LINE
  5
3CA
330
17
100
AcDbEntity
  8
0
100
AcDbLine
 10
49.7811222076416
 20
-88.47690117561211
 30
0.0
 11
49.7811222076416
 21
-88.86140835487237
 31
0.0
  0
LINE
  5
3CB
330
17
100
AcDbEntity
  8
0
100
AcDbLine
 10
49.88112449645996
 20
-88.47690117561211
 30
0.0
 11
49.88112449645996
 21
-88.86140835487237
 31
0.0
  0
LINE
  5
3CC
330
17
100
AcDbEntity
  8
0
100
AcDbLine
 10
49.88112449645996
 20
-88.86140835487237
 30
0.0
 11
49.85308647155762
 21
-88.86140835487237
 31
0.0
  0
LINE
  5
3CD
330
17
100
AcDbEntity
  8
0
100
AcDbLine
 10
49.7811222076416
 20
-88.86140835487237
 30
0.0
 11
49.85308647155762
 21
-88.86140835487237
 31
0.0
  0
LINE
  5
3CE
330
17
100
AcDbEntity
  8
0
100
AcDbLine
 10
49.7811222076416
 20
-87.36140740119805
 30
0.0
 11
49.7811222076416
 21
-88.47690117561211
 31
0.0
  0
LINE
  5
3CF
330
17
100
AcDbEntity
  8
0
100
AcDbLine
 10
49.88112449645996
 20
-88.47690117561211
 30
0.0
 11
49.88112449645996
 21
-87.36140740119805
 31
0.0
  0
LINE
  5
3D0
330
17
100
AcDbEntity
  8
0
100
AcDbLine
 10
49.88112449645996
 20
-87.36140740119805
 30
0.0
 11
49.81262683868408
 21
-87.36140740119805
 31
0.0
  0
LINE
  5
3D1
330
17
100
AcDbEntity
  8
0
100
AcDbLine
 10
49.7811222076416
 20
-87.36140740119805
 30
0.0
 11
49.81262683868408
 21
-87.36140740119805
 31
0.0
  0
LINE
  5
3D2
330
17
100
AcDbEntity
  8
0
100
AcDbLine
 10
47.781124114990234
 20
-129.3614078780352
 30
0.0
 11
49.22038555145264
 21
-129.3614078780352
 31
0.0
  0
LINE
  5
3D3
330
17
100
AcDbEntity
  8
0
100
AcDbLine
 10
47.781124114990234
 20
-129.86140978538384
 30
0.0
 11
49.22038555145264
 21
-129.86140978538384
 31
0.0
  0
LINE
  5
3D4
330
17
100
AcDbEntity
  8
0
100
AcDbLine
 10
47.781124114990234
 20
-129.86140978538384
 30
0.0
 11
47.781124114990234
 21
-129.7212244292437
 31
0.0
  0
LINE
  5
3D5
330
17
100
AcDbEntity
  8
0
100
AcDbLine
 10
47.781124114990234
 20
-129.3614078780352
 30
0.0
 11
47.781124114990234
 21
-129.7212244292437
 31
0.0
  0
LINE
  5
3D6
330
17
100
AcDbEntity
  8
0
100
AcDbLine
 10
49.22038555145264
 20
-129.3614078780352
 30
0.0
 11
49.7811222076416
 21
-129.3614078780352
 31
0.0
  0
LINE
  5
3D7
330
17
100
AcDbEntity
  8
0
100
AcDbLine
 10
49.7811222076416
 20
-129.86140978538384
 30
0.0
 11
49.22038555145264
 21
-129.86140978538384
 31
0.0
  0
LINE
  5
3D8
330
17
100
AcDbEntity
  8
0
100
AcDbLine
 10
49.7811222076416
 20
-129.86140978538384
 30
0.0
 11
49.7811222076416
 21
-129.50159323417535
 31
0.0
  0
LINE
  5
3D9
330
17
100
AcDbEntity
  8
0
100
AcDbLine
 10
49.7811222076416
 20
-129.3614078780352
 30
0.0
 11
49.7811222076416
 21
-129.50159323417535
 31
0.0
  0
LINE
  5
3DA
330
17
100
AcDbEntity
  8
0
100
AcDbLine
 10
48.58112335205078
 20
-88.36140644752373
 30
0.0
 11
49.075822830200195
 21
-88.36140644752373
 31
0.0
  0
LINE
  5
3DB
330
17
100
AcDbEntity
  8
0
100
AcDbLine
 10
48.58112335205078
 20
-129.3614078780352
 30
0.0
 11
49.075822830200195
 21
-129.3614078780352
 31
0.0
  0
LINE
  5
3DC
330
17
100
AcDbEntity
  8
0
100
AcDbLine
 10
48.58112335205078
 20
-129.3614078780352
 30
0.0
 11
48.58112335205078
 21
-117.33657133781304
 31
0.0
  0
LINE
  5
3DD
330
17
100
AcDbEntity
  8
0
100
AcDbLine
 10
48.58112335205078
 20
-88.36140644752373
 30
0.0
 11
48.58112335205078
 21
-117.33657133781304
 31
0.0
  0
LINE
  5
3DE
330
17
100
AcDbEntity
  8
0
100
AcDbLine
 10
49.075822830200195
 20
-88.36140644752373
 30
0.0
 11
49.28112506866455
 21
-88.36140644752373
 31
0.0
  0
LINE
  5
3DF
330
17
100
AcDbEntity
  8
0
100
AcDbLine
 10
49.28112506866455
 20
-129.3614078780352
 30
0.0
 11
49.075822830200195
 21
-129.3614078780352
 31
0.0
  0
LINE
  5
3E0
330
17
100
AcDbEntity
  8
0
100
AcDbLine
 10
49.28112506866455
 20
-129.3614078780352
 30
0.0
 11
49.28112506866455
 21
-100.38624775611748
 31
0.0
  0
LINE
  5
3E1
330
17
100
AcDbEntity
  8
0
100
AcDbLine
 10
49.28112506866455
 20
-88.36140644752373
 30
0.0
 11
49.28112506866455
 21
-100.38624775611748
 31
0.0
  0
LINE
  5
3E2
330
17
100
AcDbEntity
  8
0
100
AcDbLine
 10
49.28112506866455
 20
-88.18410885536065
 30
0.0
 11
49.28112506866455
 21
-88.86140835487237
 31
0.0
  0
LINE
  5
3E3
330
17
100
AcDbEntity
  8
0
100
AcDbLine
 10
49.7811222076416
 20
-88.86140835487237
 30
0.0
 11
49.7811222076416
 21
-88.18410885536065
 31
0.0
  0
LINE
  5
3E4
330
17
100
AcDbEntity
  8
0
100
AcDbLine
 10
49.7811222076416
 20
-88.86140835487237
 30
0.0
 11
49.640936851501465
 21
-88.86140835487237
 31
0.0
  0
LINE
  5
3E5
330
17
100
AcDbEntity
  8
0
100
AcDbLine
 10
49.28112506866455
 20
-88.86140835487237
 30
0.0
 11
49.640936851501465
 21
-88.86140835487237
 31
0.0
  0
LINE
  5
3E6
330
17
100
AcDbEntity
  8
0
100
AcDbLine
 10
49.28112506866455
 20
-87.86140930854668
 30
0.0
 11
49.28112506866455
 21
-88.18410885536065
 31
0.0
  0
LINE
  5
3E7
330
17
100
AcDbEntity
  8
0
100
AcDbLine
 10
49.7811222076416
 20
-87.86140930854668
 30
0.0
 11
49.7811222076416
 21
-88.18410885536065
 31
0.0
  0
LINE
  5
3E8
330
17
100
AcDbEntity
  8
0
100
AcDbLine
 10
49.7811222076416
 20
-87.86140930854668
 30
0.0
 11
49.43350791931152
 21
-87.86140930854668
 31
0.0
  0
LINE
  5
3E9
330
17
100
AcDbEntity
  8
0
100
AcDbLine
 10
49.28112506866455
 20
-87.86140930854668
 30
0.0
 11
49.43350791931152
 21
-87.86140930854668
 31
0.0
  0
LINE
  5
3EA
330
17
100
AcDbEntity
  8
0
100
AcDbLine
 10
48.78112316131592
 20
-88.21895611488213
 30
0.0
 11
48.78112316131592
 21
-88.36141121589532
 31
0.0
  0
LINE
  5
3EB
330
17
100
AcDbEntity
  8
0
100
AcDbLine
 10
49.28112506866455
 20
-88.21895611488213
 30
0.0
 11
49.28112506866455
 21
-88.36141121589532
 31
0.0
  0
LINE
  5
3EC
330
17
100
AcDbEntity
  8
0
100
AcDbLine
 10
49.28112506866455
 20
-88.36141121589532
 30
0.0
 11
49.13447856903076
 21
-88.36141121589532
 31
0.0
  0
LINE
  5
3ED
330
17
100
AcDbEntity
  8
0
100
AcDbLine
 10
48.78112316131592
 20
-88.36141121589532
 30
0.0
 11
49.13447856903076
 21
-88.36141121589532
 31
0.0
  0
LINE
  5
3EE
330
17
100
AcDbEntity
  8
0
100
AcDbLine
 10
48.78112316131592
 20
-87.86140930854668
 30
0.0
 11
48.78112316131592
 21
-88.21895611488213
 31
0.0
  0
LINE
  5
3EF
330
17
100
AcDbEntity
  8
0
100
AcDbLine
 10
49.28112506866455
 20
-88.21895611488213
 30
0.0
 11
49.28112506866455
 21
-87.86140930854668
 31
0.0
  0
LINE
  5
3F0
330
17
100
AcDbEntity
  8
0
100
AcDbLine
 10
49.28112506866455
 20
-87.86140930854668
 30
0.0
 11
48.93351078033447
 21
-87.86140930854668
 31
0.0
  0
LINE
  5
3F1
330
17
100
AcDbEntity
  8
0
100
AcDbLine
 10
48.78112316131592
 20
-87.86140930854668
 30
0.0
 11
48.93351078033447
 21
-87.86140930854668
 31
0.0
  0
LINE
  5
3F2
330
17
100
AcDbEntity
  8
0
100
AcDbLine
 10
45.70000171661377
 20
-27.861406924360885
 30
0.0
 11
45.737576484680176
 21
-27.861406924360885
 31
0.0
  0
LINE
  5
3F3
330
17
100
AcDbEntity
  8
0
100
AcDbLine
 10
47.10000038146973
 20
-27.861406924360885
 30
0.0
 11
45.737576484680176
 21
-27.861406924360885
 31
0.0
  0
LINE
  5
3F4
330
17
100
AcDbEntity
  8
0
100
AcDbLine
 10
45.70000171661377
 20
-53.86140835487236
 30
0.0
 11
47.06242561340332
 21
-53.86140835487236
 31
0.0
  0
LINE
  5
3F5
330
17
100
AcDbEntity
  8
0
100
AcDbLine
 10
47.10000038146973
 20
-53.86140835487236
 30
0.0
 11
47.06242561340332
 21
-53.86140835487236
 31
0.0
  0
LINE
  5
3F6
330
17
100
AcDbEntity
  8
0
100
AcDbLine
 10
47.10000038146973
 20
-28.69346869193901
 30
0.0
 11
47.10000038146973
 21
-27.889149310225143
 31
0.0
  0
LINE
  5
3F7
330
17
100
AcDbEntity
  8
0
100
AcDbLine
 10
47.10000038146973
 20
-27.861406924360885
 30
0.0
 11
47.10000038146973
 21
-27.889149310225143
 31
0.0
  0
LINE
  5
3F8
330
17
100
AcDbEntity
  8
0
100
AcDbLine
 10
47.10000038146973
 20
-53.0293561240374
 30
0.0
 11
47.10000038146973
 21
-53.86140835487236
 31
0.0
  0
LINE
  5
3F9
330
17
100
AcDbEntity
  8
0
100
AcDbLine
 10
47.10000038146973
 20
-53.0293561240374
 30
0.0
 11
47.10000038146973
 21
-33.06004774772514
 31
0.0
  0
LINE
  5
3FA
330
17
100
AcDbEntity
  8
0
100
AcDbLine
 10
47.10000038146973
 20
-28.69346869193901
 30
0.0
 11
47.10000038146973
 21
-33.06004774772514
 31
0.0
  0
LINE
  5
3FB
330
17
100
AcDbEntity
  8
0
100
AcDbLine
 10
45.70000171661377
 20
-28.69346869193901
 30
0.0
 11
45.70000171661377
 21
-27.889149310225143
 31
0.0
  0
LINE
  5
3FC
330
17
100
AcDbEntity
  8
0
100
AcDbLine
 10
45.70000171661377
 20
-27.861406924360885
 30
0.0
 11
45.70000171661377
 21
-27.889149310225143
 31
0.0
  0
LINE
  5
3FD
330
17
100
AcDbEntity
  8
0
100
AcDbLine
 10
45.70000171661377
 20
-53.86140835487236
 30
0.0
 11
45.70000171661377
 21
-53.0293561240374
 31
0.0
  0
LINE
  5
3FE
330
17
100
AcDbEntity
  8
0
100
AcDbLine
 10
45.70000171661377
 20
-53.0293561240374
 30
0.0
 11
45.70000171661377
 21
-33.06004774772514
 31
0.0
  0
LINE
  5
3FF
330
17
100
AcDbEntity
  8
0
100
AcDbLine
 10
45.70000171661377
 20
-28.69346869193901
 30
0.0
 11
45.70000171661377
 21
-33.06004774772514
 31
0.0
  0
LINE
  5
400
330
17
100
AcDbEntity
  8
0
100
AcDbLine
 10
116.94207429885864
 20
-28.181002261274948
 30
0.0
 11
116.94207429885864
 21
-28.361408831709518
 31
0.0
  0
LINE
  5
401
330
17
100
AcDbEntity
  8
0
100
AcDbLine
 10
116.84207201004028
 20
-28.361408831709518
 30
0.0
 11
116.84207201004028
 21
-28.181002261274948
 31
0.0
  0
LINE
  5
402
330
17
100
AcDbEntity
  8
0
100
AcDbLine
 10
116.84207201004028
 20
-28.361408831709518
 30
0.0
 11
116.92297220230103
 21
-28.361408831709518
 31
0.0
  0
LINE
  5
403
330
17
100
AcDbEntity
  8
0
100
AcDbLine
 10
116.94207429885864
 20
-28.361408831709518
 30
0.0
 11
116.92297220230103
 21
-28.361408831709518
 31
0.0
  0
LINE
  5
404
330
17
100
AcDbEntity
  8
0
100
AcDbLine
 10
116.94207429885864
 20
-27.361414553755417
 30
0.0
 11
116.94207429885864
 21
-28.181002261274948
 31
0.0
  0
LINE
  5
405
330
17
100
AcDbEntity
  8
0
100
AcDbLine
 10
116.84207201004028
 20
-27.361414553755417
 30
0.0
 11
116.84207201004028
 21
-28.181002261274948
 31
0.0
  0
LINE
  5
406
330
17
100
AcDbEntity
  8
0
100
AcDbLine
 10
116.84207201004028
 20
-27.361414553755417
 30
0.0
 11
116.86442613601685
 21
-27.361414553755417
 31
0.0
  0
LINE
  5
407
330
17
100
AcDbEntity
  8
0
100
AcDbLine
 10
116.94207429885864
 20
-27.361414553755417
 30
0.0
 11
116.86442613601685
 21
-27.361414553755417
 31
0.0
  0
LINE
  5
408
330
17
100
AcDbEntity
  8
0
100
AcDbLine
 10
115.84206819534302
 20
-27.72545111381401
 30
0.0
 11
115.84206819534302
 21
-28.86141073905815
 31
0.0
  0
LINE
  5
409
330
17
100
AcDbEntity
  8
0
100
AcDbLine
 10
115.74207544326782
 20
-27.72545111381401
 30
0.0
 11
115.74207544326782
 21
-28.86141073905815
 31
0.0
  0
LINE
  5
40A
330
17
100
AcDbEntity
  8
0
100
AcDbLine
 10
115.74207544326782
 20
-28.86141073905815
 30
0.0
 11
115.8249020576477
 21
-28.86141073905815
 31
0.0
  0
LINE
  5
40B
330
17
100
AcDbEntity
  8
0
100
AcDbLine
 10
115.84206819534302
 20
-28.86141073905815
 30
0.0
 11
115.8249020576477
 21
-28.86141073905815
 31
0.0
  0
LINE
  5
40C
330
17
100
AcDbEntity
  8
0
100
AcDbLine
 10
115.84206819534302
 20
-27.361414553755417
 30
0.0
 11
115.84206819534302
 21
-27.72545111381401
 31
0.0
  0
LINE
  5
40D
330
17
100
AcDbEntity
  8
0
100
AcDbLine
 10
115.74207544326782
 20
-27.72545111381401
 30
0.0
 11
115.74207544326782
 21
-27.361414553755417
 31
0.0
  0
LINE
  5
40E
330
17
100
AcDbEntity
  8
0
100
AcDbLine
 10
115.74207544326782
 20
-27.361414553755417
 30
0.0
 11
115.76442003250122
 21
-27.361414553755417
 31
0.0
  0
LINE
  5
40F
330
17
100
AcDbEntity
  8
0
100
AcDbLine
 10
115.84206819534302
 20
-27.361414553755417
 30
0.0
 11
115.76442003250122
 21
-27.361414553755417
 31
0.0
  0
LINE
  5
410
330
17
100
AcDbEntity
  8
0
100
AcDbLine
 10
117.84206628799438
 20
-69.36140549384942
 30
0.0
 11
117.49866724014282
 21
-69.36140549384942
 31
0.0
  0
LINE
  5
411
330
17
100
AcDbEntity
  8
0
100
AcDbLine
 10
117.84206628799438
 20
-69.86140740119805
 30
0.0
 11
117.49866724014282
 21
-69.86140740119805
 31
0.0
  0
LINE
  5
412
330
17
100
AcDbEntity
  8
0
100
AcDbLine
 10
117.84206628799438
 20
-69.86140740119805
 30
0.0
 11
117.84206628799438
 21
-69.44725525581231
 31
0.0
  0
LINE
  5
413
330
17
100
AcDbEntity
  8
0
100
AcDbLine
 10
117.84206628799438
 20
-69.36140549384942
 30
0.0
 11
117.84206628799438
 21
-69.44725525581231
 31
0.0
  0
LINE
  5
414
330
17
100
AcDbEntity
  8
0
100
AcDbLine
 10
117.49866724014282
 20
-69.36140549384942
 30
0.0
 11
115.84206819534302
 21
-69.36140549384942
 31
0.0
  0
LINE
  5
415
330
17
100
AcDbEntity
  8
0
100
AcDbLine
 10
115.84206819534302
 20
-69.86140740119805
 30
0.0
 11
117.49866724014282
 21
-69.86140740119805
 31
0.0
  0
LINE
  5
416
330
17
100
AcDbEntity
  8
0
100
AcDbLine
 10
115.84206819534302
 20
-69.86140740119805
 30
0.0
 11
115.84206819534302
 21
-69.77555763923516
 31
0.0
  0
LINE
  5
417
330
17
100
AcDbEntity
  8
0
100
AcDbLine
 10
115.84206819534302
 20
-69.36140549384942
 30
0.0
 11
115.84206819534302
 21
-69.77555763923516
 31
0.0
  0
LINE
  5
418
330
17
100
AcDbEntity
  8
0
100
AcDbLine
 10
117.04206705093384
 20
-28.361408831709518
 30
0.0
 11
116.90836191177368
 21
-28.361408831709518
 31
0.0
  0
LINE
  5
419
330
17
100
AcDbEntity
  8
0
100
AcDbLine
 10
117.04206705093384
 20
-69.36140549384942
 30
0.0
 11
116.90836191177368
 21
-69.36140549384942
 31
0.0
  0
LINE
  5
41A
330
17
100
AcDbEntity
  8
0
100
AcDbLine
 10
117.04206705093384
 20
-69.36140549384942
 30
0.0
 11
117.04206705093384
 21
-36.19288456642021
 31
0.0
  0
LINE
  5
41B
330
17
100
AcDbEntity
  8
0
100
AcDbLine
 10
117.04206705093384
 20
-28.361408831709518
 30
0.0
 11
117.04206705093384
 21
-36.19288456642021
 31
0.0
  0
LINE
  5
41C
330
17
100
AcDbEntity
  8
0
100
AcDbLine
 10
116.90836191177368
 20
-28.361408831709518
 30
0.0
 11
116.34207010269165
 21
-28.361408831709518
 31
0.0
  0
LINE
  5
41D
330
17
100
AcDbEntity
  8
0
100
AcDbLine
 10
116.34207010269165
 20
-69.36140549384942
 30
0.0
 11
116.90836191177368
 21
-69.36140549384942
 31
0.0
  0
LINE
  5
41E
330
17
100
AcDbEntity
  8
0
100
AcDbLine
 10
116.34207010269165
 20
-69.36140549384942
 30
0.0
 11
116.34207010269165
 21
-61.529922606581344
 31
0.0
  0
LINE
  5
41F
330
17
100
AcDbEntity
  8
0
100
AcDbLine
 10
116.34207010269165
 20
-28.361408831709518
 30
0.0
 11
116.34207010269165
 21
-61.529922606581344
 31
0.0
  0
LINE
  5
420
330
17
100
AcDbEntity
  8
0
100
AcDbLine
 10
116.34207010269165
 20
-28.699810626143112
 30
0.0
 11
116.34207010269165
 21
-28.86141073905815
 31
0.0
  0
LINE
  5
421
330
17
100
AcDbEntity
  8
0
100
AcDbLine
 10
115.84206819534302
 20
-28.86141073905815
 30
0.0
 11
115.84206819534302
 21
-28.699810626143112
 31
0.0
  0
LINE
  5
422
330
17
100
AcDbEntity
  8
0
100
AcDbLine
 10
115.84206819534302
 20
-28.86141073905815
 30
0.0
 11
116.25622034072876
 21
-28.86141073905815
 31
0.0
  0
LINE
  5
423
330
17
100
AcDbEntity
  8
0
100
AcDbLine
 10
116.34207010269165
 20
-28.86141073905815
 30
0.0
 11
116.25622034072876
 21
-28.86141073905815
 31
0.0
  0
LINE
  5
424
330
17
100
AcDbEntity
  8
0
100
AcDbLine
 10
116.34207010269165
 20
-27.861406924360885
 30
0.0
 11
116.34207010269165
 21
-28.699810626143112
 31
0.0
  0
LINE
  5
425
330
17
100
AcDbEntity
  8
0
100
AcDbLine
 10
115.84206819534302
 20
-27.861406924360885
 30
0.0
 11
115.84206819534302
 21
-28.699810626143112
 31
0.0
  0
LINE
  5
426
330
17
100
AcDbEntity
  8
0
100
AcDbLine
 10
115.84206819534302
 20
-27.861406924360885
 30
0.0
 11
115.94616174697876
 21
-27.861406924360885
 31
0.0
  0
LINE
  5
427
330
17
100
AcDbEntity
  8
0
100
AcDbLine
 10
116.34207010269165
 20
-27.861406924360885
 30
0.0
 11
115.94616174697876
 21
-27.861406924360885
 31
0.0
  0
LINE
  5
428
330
17
100
AcDbEntity
  8
0
100
AcDbLine
 10
116.84207201004028
 20
-27.968475939863815
 30
0.0
 11
116.84207201004028
 21
-28.361418368452682
 31
0.0
  0
LINE
  5
429
330
17
100
AcDbEntity
  8
0
100
AcDbLine
 10
116.34207010269165
 20
-27.968475939863815
 30
0.0
 11
116.34207010269165
 21
-28.361418368452682
 31
0.0
  0
LINE
  5
42A
330
17
100
AcDbEntity
  8
0
100
AcDbLine
 10
116.34207010269165
 20
-28.361418368452682
 30
0.0
 11
116.7465615272522
 21
-28.361418368452682
 31
0.0
  0
LINE
  5
42B
330
17
100
AcDbEntity
  8
0
100
AcDbLine
 10
116.84207201004028
 20
-28.361418368452682
 30
0.0
 11
116.7465615272522
 21
-28.361418368452682
 31
0.0
  0
LINE
  5
42C
330
17
100
AcDbEntity
  8
0
100
AcDbLine
 10
116.84207201004028
 20
-27.861406924360885
 30
0.0
 11
116.84207201004028
 21
-27.968475939863815
 31
0.0
  0
LINE
  5
42D
330
17
100
AcDbEntity
  8
0
100
AcDbLine
 10
116.34207010269165
 20
-27.968475939863815
 30
0.0
 11
116.34207010269165
 21
-27.861406924360885
 31
0.0
  0
LINE
  5
42E
330
17
100
AcDbEntity
  8
0
100
AcDbLine
 10
116.34207010269165
 20
-27.861406924360885
 30
0.0
 11
116.44616365432739
 21
-27.861406924360885
 31
0.0
  0
LINE
  5
42F
330
17
100
AcDbEntity
  8
0
100
AcDbLine
 10
116.84207201004028
 20
-27.861406924360885
 30
0.0
 11
116.44616365432739
 21
-27.861406924360885
 31
0.0
  0
LWPOLYLINE
  5
430
330
17
100
AcDbEntity
  8
0
100
AcDbPolyline
 90
8
 70
1
 10
97.9469895362854
 20
-58.86140835487236
 10
84.29269075393677
 20
-58.86140835487236
 10
70.5469822883606
 20
-58.86140835487236
 10
70.5469822883606
 20
-64.37975418769707
 10
70.5469822883606
 20
-69.86140740119805
 10
84.29269075393677
 20
-69.86140740119805
 10
97.9469895362854
 20
-69.86140740119805
 10
97.9469895362854
 20
-64.34306156837334
  0
LINE
  5
431
330
17
100
AcDbEntity
  8
0
100
AcDbLine
 10
143.8261914253235
 20
-51.86141026222099
 30
0.0
 11
141.99962854385376
 21
-51.86141026222099
 31
0.0
  0
LINE
  5
432
330
17
100
AcDbEntity
  8
0
100
AcDbLine
 10
141.99962854385376
 20
-51.86141026222099
 30
0.0
 11
138.9733910560608
 21
-51.86141026222099
 31
0.0
  0
LINE
  5
433
330
17
100
AcDbEntity
  8
0
100
AcDbLine
 10
138.9733910560608
 20
-51.86141026222099
 30
0.0
 11
138.6676526069641
 21
-51.86141026222099
 31
0.0
  0
LINE
  5
434
330
17
100
AcDbEntity
  8
0
100
AcDbLine
 10
138.6676526069641
 20
-51.86141026222099
 30
0.0
 11
138.2998490333557
 21
-51.86141026222099
 31
0.0
  0
LINE
  5
435
330
17
100
AcDbEntity
  8
0
100
AcDbLine
 10
143.8261914253235
 20
-53.86140835487236
 30
0.0
 11
141.99962854385376
 21
-53.86140835487236
 31
0.0
  0
LINE
  5
436
330
17
100
AcDbEntity
  8
0
100
AcDbLine
 10
138.9733910560608
 20
-53.86140835487236
 30
0.0
 11
141.99962854385376
 21
-53.86140835487236
 31
0.0
  0
LINE
  5
437
330
17
100
AcDbEntity
  8
0
100
AcDbLine
 10
138.9733910560608
 20
-53.86140835487236
 30
0.0
 11
138.6676526069641
 21
-53.86140835487236
 31
0.0
  0
LINE
  5
438
330
17
100
AcDbEntity
  8
0
100
AcDbLine
 10
138.6676526069641
 20
-53.86140835487236
 30
0.0
 11
138.2998490333557
 21
-53.86140835487236
 31
0.0
  0
LINE
  5
439
330
17
100
AcDbEntity
  8
0
100
AcDbLine
 10
144.7628903388977
 20
-51.86141026222099
 30
0.0
 11
143.8261914253235
 21
-51.86141026222099
 31
0.0
  0
LINE
  5
43A
330
17
100
AcDbEntity
  8
0
100
AcDbLine
 10
144.7628903388977
 20
-53.86140835487236
 30
0.0
 11
143.8261914253235
 21
-53.86140835487236
 31
0.0
  0
LINE
  5
43B
330
17
100
AcDbEntity
  8
0
100
AcDbLine
 10
144.7628903388977
 20
-53.86140835487236
 30
0.0
 11
144.7628903388977
 21
-52.061281325453415
 31
0.0
  0
LINE
  5
43C
330
17
100
AcDbEntity
  8
0
100
AcDbLine
 10
144.7628903388977
 20
-51.86141026222099
 30
0.0
 11
144.7628903388977
 21
-52.061281325453415
 31
0.0
  0
LINE
  5
43D
330
17
100
AcDbEntity
  8
0
100
AcDbLine
 10
138.02712678909302
 20
-53.86140835487236
 30
0.0
 11
138.2998490333557
 21
-53.86140835487236
 31
0.0
  0
LINE
  5
43E
330
17
100
AcDbEntity
  8
0
100
AcDbLine
 10
138.02712678909302
 20
-53.86140835487236
 30
0.0
 11
138.02712678909302
 21
-53.164844634169235
 31
0.0
  0
LINE
  5
43F
330
17
100
AcDbEntity
  8
0
100
AcDbLine
 10
138.02712678909302
 20
-51.86141026222099
 30
0.0
 11
138.02712678909302
 21
-53.164844634169235
 31
0.0
  0
LINE
  5
440
330
17
100
AcDbEntity
  8
0
100
AcDbLine
 10
138.2998490333557
 20
-51.86141026222099
 30
0.0
 11
138.02712678909302
 21
-51.86141026222099
 31
0.0
  0
LINE
  5
441
330
17
100
AcDbEntity
  8
0
100
AcDbLine
 10
143.8261914253235
 20
-48.86140835487236
 30
0.0
 11
141.99962854385376
 21
-48.86140835487236
 31
0.0
  0
LINE
  5
442
330
17
100
AcDbEntity
  8
0
100
AcDbLine
 10
141.99962854385376
 20
-48.86140835487236
 30
0.0
 11
138.9733910560608
 21
-48.86140835487236
 31
0.0
  0
LINE
  5
443
330
17
100
AcDbEntity
  8
0
100
AcDbLine
 10
138.9733910560608
 20
-48.86140835487236
 30
0.0
 11
138.6676526069641
 21
-48.86140835487236
 31
0.0
  0
LINE
  5
444
330
17
100
AcDbEntity
  8
0
100
AcDbLine
 10
138.6676526069641
 20
-48.86140835487236
 30
0.0
 11
138.2998490333557
 21
-48.86140835487236
 31
0.0
  0
LINE
  5
445
330
17
100
AcDbEntity
  8
0
100
AcDbLine
 10
143.8261914253235
 20
-51.86141026222099
 30
0.0
 11
141.99962854385376
 21
-51.86141026222099
 31
0.0
  0
LINE
  5
446
330
17
100
AcDbEntity
  8
0
100
AcDbLine
 10
138.9733910560608
 20
-51.86141026222099
 30
0.0
 11
141.99962854385376
 21
-51.86141026222099
 31
0.0
  0
LINE
  5
447
330
17
100
AcDbEntity
  8
0
100
AcDbLine
 10
138.9733910560608
 20
-51.86141026222099
 30
0.0
 11
138.6676526069641
 21
-51.86141026222099
 31
0.0
  0
LINE
  5
448
330
17
100
AcDbEntity
  8
0
100
AcDbLine
 10
138.6676526069641
 20
-51.86141026222099
 30
0.0
 11
138.2998490333557
 21
-51.86141026222099
 31
0.0
  0
LINE
  5
449
330
17
100
AcDbEntity
  8
0
100
AcDbLine
 10
144.7628903388977
 20
-48.86140835487236
 30
0.0
 11
143.8261914253235
 21
-48.86140835487236
 31
0.0
  0
LINE
  5
44A
330
17
100
AcDbEntity
  8
0
100
AcDbLine
 10
144.7628903388977
 20
-51.86141026222099
 30
0.0
 11
143.8261914253235
 21
-51.86141026222099
 31
0.0
  0
LINE
  5
44B
330
17
100
AcDbEntity
  8
0
100
AcDbLine
 10
144.7628903388977
 20
-51.86141026222099
 30
0.0
 11
144.7628903388977
 21
-49.16122448646416
 31
0.0
  0
LINE
  5
44C
330
17
100
AcDbEntity
  8
0
100
AcDbLine
 10
144.7628903388977
 20
-48.86140835487236
 30
0.0
 11
144.7628903388977
 21
-49.16122448646416
 31
0.0
  0
LINE
  5
44D
330
17
100
AcDbEntity
  8
0
100
AcDbLine
 10
138.02712678909302
 20
-51.86141026222099
 30
0.0
 11
138.2998490333557
 21
-51.86141026222099
 31
0.0
  0
LINE
  5
44E
330
17
100
AcDbEntity
  8
0
100
AcDbLine
 10
138.02712678909302
 20
-51.86141026222099
 30
0.0
 11
138.02712678909302
 21
-50.81655514442314
 31
0.0
  0
LINE
  5
44F
330
17
100
AcDbEntity
  8
0
100
AcDbLine
 10
138.02712678909302
 20
-48.86140835487236
 30
0.0
 11
138.02712678909302
 21
-50.81655514442314
 31
0.0
  0
LINE
  5
450
330
17
100
AcDbEntity
  8
0
100
AcDbLine
 10
138.2998490333557
 20
-48.86140835487236
 30
0.0
 11
138.02712678909302
 21
-48.86140835487236
 31
0.0
  0
LINE
  5
451
330
17
100
AcDbEntity
  8
0
100
AcDbLine
 10
146.86289072036743
 20
-48.86140835487236
 30
0.0
 11
145.37454843521118
 21
-48.86140835487236
 31
0.0
  0
LINE
  5
452
330
17
100
AcDbEntity
  8
0
100
AcDbLine
 10
146.86289072036743
 20
-51.86141026222099
 30
0.0
 11
145.37454843521118
 21
-51.86141026222099
 31
0.0
  0
LINE
  5
453
330
17
100
AcDbEntity
  8
0
100
AcDbLine
 10
146.86289072036743
 20
-51.86141026222099
 30
0.0
 11
146.86289072036743
 21
-49.3079091330706
 31
0.0
  0
LINE
  5
454
330
17
100
AcDbEntity
  8
0
100
AcDbLine
 10
146.86289072036743
 20
-48.86140835487236
 30
0.0
 11
146.86289072036743
 21
-49.3079091330706
 31
0.0
  0
LINE
  5
455
330
17
100
AcDbEntity
  8
0
100
AcDbLine
 10
145.37454843521118
 20
-48.86140835487236
 30
0.0
 11
136.86289072036743
 21
-48.86140835487236
 31
0.0
  0
LINE
  5
456
330
17
100
AcDbEntity
  8
0
100
AcDbLine
 10
136.86289072036743
 20
-51.86141026222099
 30
0.0
 11
145.37454843521118
 21
-51.86141026222099
 31
0.0
  0
LINE
  5
457
330
17
100
AcDbEntity
  8
0
100
AcDbLine
 10
136.86289072036743
 20
-51.86141026222099
 30
0.0
 11
136.86289072036743
 21
-51.41490948402275
 31
0.0
  0
LINE
  5
458
330
17
100
AcDbEntity
  8
0
100
AcDbLine
 10
136.86289072036743
 20
-48.86140835487236
 30
0.0
 11
136.86289072036743
 21
-51.41490948402275
 31
0.0
  0
LINE
  5
459
330
17
100
AcDbEntity
  8
0
100
AcDbLine
 10
158.32628726959229
 20
-54.73282826148857
 30
0.0
 11
157.04315662384033
 21
-54.73282826148857
 31
0.0
  0
LINE
  5
45A
330
17
100
AcDbEntity
  8
0
100
AcDbLine
 10
159.0903902053833
 20
-54.73282826148857
 30
0.0
 11
158.32628726959229
 21
-54.73282826148857
 31
0.0
  0
LINE
  5
45B
330
17
100
AcDbEntity
  8
0
100
AcDbLine
 10
158.32628726959229
 20
-56.73282635413994
 30
0.0
 11
157.04315662384033
 21
-56.73282635413994
 31
0.0
  0
LINE
  5
45C
330
17
100
AcDbEntity
  8
0
100
AcDbLine
 10
159.0903902053833
 20
-56.73282635413994
 30
0.0
 11
158.32628726959229
 21
-56.73282635413994
 31
0.0
  0
LINE
  5
45D
330
17
100
AcDbEntity
  8
0
100
AcDbLine
 10
153.03709506988525
 20
-54.73282826148857
 30
0.0
 11
157.04315662384033
 21
-54.73282826148857
 31
0.0
  0
LINE
  5
45E
330
17
100
AcDbEntity
  8
0
100
AcDbLine
 10
157.04315662384033
 20
-56.73282635413994
 30
0.0
 11
153.03709506988525
 21
-56.73282635413994
 31
0.0
  0
LINE
  5
45F
330
17
100
AcDbEntity
  8
0
100
AcDbLine
 10
153.03709506988525
 20
-56.73282635413994
 30
0.0
 11
153.03709506988525
 21
-56.44306194984306
 31
0.0
  0
LINE
  5
460
330
17
100
AcDbEntity
  8
0
100
AcDbLine
 10
153.03709506988525
 20
-54.73282826148857
 30
0.0
 11
153.03709506988525
 21
-56.44306194984306
 31
0.0
  0
LINE
  5
461
330
17
100
AcDbEntity
  8
0
100
AcDbLine
 10
159.90747928619385
 20
-56.73282635413994
 30
0.0
 11
159.0903902053833
 21
-56.73282635413994
 31
0.0
  0
LINE
  5
462
330
17
100
AcDbEntity
  8
0
100
AcDbLine
 10
159.90747928619385
 20
-56.73282635413994
 30
0.0
 11
159.90747928619385
 21
-55.045833708876266
 31
0.0
  0
LINE
  5
463
330
17
100
AcDbEntity
  8
0
100
AcDbLine
 10
159.90747928619385
 20
-54.73282826148857
 30
0.0
 11
159.90747928619385
 21
-55.045833708876266
 31
0.0
  0
LINE
  5
464
330
17
100
AcDbEntity
  8
0
100
AcDbLine
 10
159.90747928619385
 20
-54.73282826148857
 30
0.0
 11
159.0903902053833
 21
-54.73282826148857
 31
0.0
  0
LINE
  5
465
330
17
100
AcDbEntity
  8
0
100
AcDbLine
 10
158.32626819610596
 20
-51.73282635413994
 30
0.0
 11
157.04315662384033
 21
-51.73282635413994
 31
0.0
  0
LINE
  5
466
330
17
100
AcDbEntity
  8
0
100
AcDbLine
 10
159.0903902053833
 20
-51.73282635413994
 30
0.0
 11
158.32626819610596
 21
-51.73282635413994
 31
0.0
  0
LINE
  5
467
330
17
100
AcDbEntity
  8
0
100
AcDbLine
 10
158.32628726959229
 20
-54.73282826148857
 30
0.0
 11
157.04315662384033
 21
-54.73282826148857
 31
0.0
  0
LINE
  5
468
330
17
100
AcDbEntity
  8
0
100
AcDbLine
 10
159.0903902053833
 20
-54.73282826148857
 30
0.0
 11
158.32628726959229
 21
-54.73282826148857
 31
0.0
  0
LINE
  5
469
330
17
100
AcDbEntity
  8
0
100
AcDbLine
 10
153.03709506988525
 20
-51.73282635413994
 30
0.0
 11
157.04315662384033
 21
-51.73282635413994
 31
0.0
  0
LINE
  5
46A
330
17
100
AcDbEntity
  8
0
100
AcDbLine
 10
157.04315662384033
 20
-54.73282826148857
 30
0.0
 11
153.03709506988525
 21
-54.73282826148857
 31
0.0
  0
LINE
  5
46B
330
17
100
AcDbEntity
  8
0
100
AcDbLine
 10
153.03709506988525
 20
-54.73282826148857
 30
0.0
 11
153.03709506988525
 21
-54.298172118300094
 31
0.0
  0
LINE
  5
46C
330
17
100
AcDbEntity
  8
0
100
AcDbLine
 10
153.03709506988525
 20
-51.73282635413994
 30
0.0
 11
153.03709506988525
 21
-54.298172118300094
 31
0.0
  0
LINE
  5
46D
330
17
100
AcDbEntity
  8
0
100
AcDbLine
 10
159.90747928619385
 20
-54.73282826148857
 30
0.0
 11
159.0903902053833
 21
-54.73282826148857
 31
0.0
  0
LINE
  5
46E
330
17
100
AcDbEntity
  8
0
100
AcDbLine
 10
159.90747928619385
 20
-54.73282826148857
 30
0.0
 11
159.90747928619385
 21
-52.2023297568499
 31
0.0
  0
LINE
  5
46F
330
17
100
AcDbEntity
  8
0
100
AcDbLine
 10
159.90747928619385
 20
-51.73282635413994
 30
0.0
 11
159.90747928619385
 21
-52.2023297568499
 31
0.0
  0
LINE
  5
470
330
17
100
AcDbEntity
  8
0
100
AcDbLine
 10
159.90747928619385
 20
-51.73282635413994
 30
0.0
 11
159.0903902053833
 21
-51.73282635413994
 31
0.0
  0
LINE
  5
471
330
17
100
AcDbEntity
  8
0
100
AcDbLine
 10
150.9371042251587
 20
-51.73282635413994
 30
0.0
 11
159.05422687530518
 21
-51.73282635413994
 31
0.0
  0
LINE
  5
472
330
17
100
AcDbEntity
  8
0
100
AcDbLine
 10
150.9371042251587
 20
-54.73282826148857
 30
0.0
 11
159.05422687530518
 21
-54.73282826148857
 31
0.0
  0
LINE
  5
473
330
17
100
AcDbEntity
  8
0
100
AcDbLine
 10
150.9371042251587
 20
-54.73282826148857
 30
0.0
 11
150.9371042251587
 21
-54.16796696388115
 31
0.0
  0
LINE
  5
474
330
17
100
AcDbEntity
  8
0
100
AcDbLine
 10
150.9371042251587
 20
-51.73282635413994
 30
0.0
 11
150.9371042251587
 21
-54.16796696388115
 31
0.0
  0
LINE
  5
475
330
17
100
AcDbEntity
  8
0
100
AcDbLine
 10
159.05422687530518
 20
-51.73282635413994
 30
0.0
 11
160.9371042251587
 21
-51.73282635413994
 31
0.0
  0
LINE
  5
476
330
17
100
AcDbEntity
  8
0
100
AcDbLine
 10
160.9371042251587
 20
-54.73282826148857
 30
0.0
 11
159.05422687530518
 21
-54.73282826148857
 31
0.0
  0
LINE
  5
477
330
17
100
AcDbEntity
  8
0
100
AcDbLine
 10
160.9371042251587
 20
-54.73282826148857
 30
0.0
 11
160.9371042251587
 21
-52.29768765174736
 31
0.0
  0
LINE
  5
478
330
17
100
AcDbEntity
  8
0
100
AcDbLine
 10
160.9371042251587
 20
-51.73282635413994
 30
0.0
 11
160.9371042251587
 21
-52.29768765174736
 31
0.0
  0
LINE
  5
479
330
17
100
AcDbEntity
  8
0
100
AcDbLine
 10
98.95534753799438
 20
-138.86141073905816
 30
0.0
 11
15.299997329711914
 21
-138.86141073905816
 31
0.0
  0
LINE
  5
47A
330
17
100
AcDbEntity
  8
0
100
AcDbLine
 10
198.31850051879883
 20
-138.86141073905816
 30
0.0
 11
98.95534753799438
 21
-138.86141073905816
 31
0.0
  0
LWPOLYLINE
  5
47B
330
17
100
AcDbEntity
  8
0
100
AcDbPolyline
 90
10
 70
1
 10
45.7
 20
-9.103
 10
45.7
 20
-9.861
 10
91.655
 20
-9.861
 10
145.054
 20
-9.861
 10
186.6
 20
-9.861
 10
186.6
 20
-8.619
 10
186.6
 20
-7.861
 10
145.054
 20
-7.861
 10
91.655
 20
-7.861
 10
45.7
 20
-7.861
  0
LWPOLYLINE
  5
47C
330
17
100
AcDbEntity
  8
0
100
AcDbPolyline
 90
8
 70
1
 10
25.216
 20
-27.861
 10
39.055
 20
-27.861
 10
45.7
 20
-27.861
 10
45.7
 20
-27.103
 10
45.7
 20
-25.861
 10
39.055
 20
-25.861
 10
25.216
 20
-25.861
 10
25.216
 20
-26.811
  0
LWPOLYLINE
  5
47D
330
17
100
AcDbEntity
  8
0
100
AcDbPolyline
 90
8
 70
1
 10
45.7
 20
-71.861
 10
80.122
 20
-71.861
 10
119.7
 20
-71.861
 10
119.7
 20
-70.931
 10
119.7
 20
-69.861
 10
80.122
 20
-69.861
 10
45.7
 20
-69.861
 10
45.7
 20
-70.792
  0
LWPOLYLINE
  5
47E
330
17
100
AcDbEntity
  8
0
100
AcDbPolyline
 90
8
 70
1
 10
119.7
 20
-73.861
 10
145.653
 20
-73.861
 10
148.677
 20
-73.861
 10
148.677
 20
-72.07
 10
148.677
 20
-71.861
 10
122.725
 20
-71.861
 10
119.7
 20
-71.861
 10
119.7
 20
-73.653
  0
LWPOLYLINE
  5
47F
330
17
100
AcDbEntity
  8
0
100
AcDbPolyline
 90
8
 70
1
 10
150.677
 20
-76.861
 10
178.372
 20
-76.861
 10
181.6
 20
-76.861
 10
181.6
 20
-75.07
 10
181.6
 20
-74.861
 10
153.905
 20
-74.861
 10
150.677
 20
-74.861
 10
150.677
 20
-76.653
  0
LWPOLYLINE
  5
480
330
17
100
AcDbEntity
  8
0
100
AcDbPolyline
 90
8
 70
1
 10
119.7
 20
-80.861
 10
155.48
 20
-80.861
 10
186.6
 20
-80.861
 10
186.6
 20
-79.792
 10
186.6
 20
-78.861
 10
150.82
 20
-78.861
 10
119.7
 20
-78.861
 10
119.7
 20
-79.931
  0
LWPOLYLINE
  5
481
330
17
100
AcDbEntity
  8
0
100
AcDbPolyline
 90
8
 70
1
 10
30.468
 20
-86.478
 10
30.468
 20
-87.861
 10
35.161
 20
-87.861
 10
45.7
 20
-87.861
 10
45.7
 20
-87.245
 10
45.7
 20
-85.861
 10
35.161
 20
-85.861
 10
30.468
 20
-85.861
  0
LWPOLYLINE
  5
482
330
17
100
AcDbEntity
  8
0
100
AcDbPolyline
 90
8
 70
1
 10
186.6
 20
-86.792
 10
186.6
 20
-87.861
 10
193.577
 20
-87.861
 10
201.6
 20
-87.861
 10
201.6
 20
-86.931
 10
201.6
 20
-85.861
 10
194.623
 20
-85.861
 10
186.6
 20
-85.861
  0
LWPOLYLINE
  5
483
330
17
100
AcDbEntity
  8
0
100
AcDbPolyline
 90
8
 70
1
 10
111.242
 20
-129.861
 10
45.7
 20
-129.861
 10
45.7
 20
-134.048
 10
45.7
 20
-138.861
 10
111.242
 20
-138.861
 10
186.6
 20
-138.861
 10
186.6
 20
-134.675
 10
186.6
 20
-129.861
  0
LWPOLYLINE
  5
484
330
17
100
AcDbEntity
  8
0
100
AcDbPolyline
 90
8
 70
1
 10
45.7
 20
2.075
 10
45.7
 20
-7.861
 10
46.966
 20
-7.861
 10
47.7
 20
-7.861
 10
47.7
 20
-1.873
 10
47.7
 20
8.139
 10
46.472
 20
8.139
 10
45.7
 20
8.139
  0
LWPOLYLINE
  5
485
330
17
100
AcDbEntity
  8
0
100
AcDbPolyline
 90
8
 70
1
 10
45.7
 20
-27.861
 10
50.566
 20
-27.861
 10
50.7
 20
-27.861
 10
50.7
 20
-27.481
 10
50.7
 20
-9.861
 10
48.78
 20
-9.861
 10
45.7
 20
-9.861
 10
45.7
 20
-27.5
  0
LWPOLYLINE
  5
486
330
17
100
AcDbEntity
  8
0
100
AcDbPolyline
 90
8
 70
1
 10
45.834
 20
-53.861
 10
45.7
 20
-53.861
 10
45.7
 20
-54.183
 10
45.7
 20
-69.861
 10
48.78
 20
-69.861
 10
50.7
 20
-69.861
 10
50.7
 20
-54.199
 10
50.7
 20
-53.861
  0
LWPOLYLINE
  5
487
330
17
100
AcDbEntity
  8
0
100
AcDbPolyline
 90
8
 70
1
 10
45.7
 20
-85.354
 10
45.7
 20
-87.861
 10
49.131
 20
-87.861
 10
50.7
 20
-87.861
 10
50.7
 20
-85.198
 10
50.7
 20
-71.861
 10
48.463
 20
-71.861
 10
45.7
 20
-71.861
  0
LWPOLYLINE
  5
488
330
17
100
AcDbEntity
  8
0
100
AcDbPolyline
 90
8
 70
1
 10
111.0
 20
-129.861
 10
112.0
 20
-129.861
 10
112.0
 20
-95.349
 10
112.0
 20
-69.861
 10
111.15
 20
-69.861
 10
110.0
 20
-69.861
 10
110.0
 20
-99.861
 10
110.0
 20
-129.861
  0
LWPOLYLINE
  5
489
330
17
100
AcDbEntity
  8
0
100
AcDbPolyline
 90
8
 70
1
 10
29.814
 20
-138.861
 10
30.2
 20
-138.861
 10
30.2
 20
-133.343
 10
30.2
 20
-118.861
 10
29.186
 20
-118.861
 10
28.8
 20
-118.861
 10
28.8
 20
-124.38
 10
28.8
 20
-138.861
  0
LWPOLYLINE
  5
48A
330
17
100
AcDbEntity
  8
0
100
AcDbPolyline
 90
8
 70
1
 10
15.3
 20
-138.861
 10
17.156
 20
-138.861
 10
17.3
 20
-138.861
 10
17.3
 20
-138.573
 10
17.3
 20
-134.861
 10
15.444
 20
-134.861
 10
15.3
 20
-134.861
 10
15.3
 20
-135.15
  0
LWPOLYLINE
  5
48B
330
17
100
AcDbEntity
  8
0
100
AcDbPolyline
 90
8
 70
1
 10
184.6
 20
-7.861
 10
185.828
 20
-7.861
 10
186.6
 20
-7.861
 10
186.6
 20
-1.798
 10
186.6
 20
8.139
 10
185.334
 20
8.139
 10
184.6
 20
8.139
 10
184.6
 20
2.15
  0
LWPOLYLINE
  5
48C
330
17
100
AcDbEntity
  8
0
100
AcDbPolyline
 90
8
 70
1
 10
116.058
 20
-27.861
 10
119.7
 20
-27.861
 10
119.7
 20
-20.755
 10
119.7
 20
-9.861
 10
116.736
 20
-9.861
 10
115.1
 20
-9.861
 10
115.1
 20
-20.338
 10
115.1
 20
-27.861
  0
LWPOLYLINE
  5
48D
330
17
100
AcDbEntity
  8
0
100
AcDbPolyline
 90
20
 70
1
 10
181.6
 20
-84.717
 10
181.6
 20
-87.756
 10
181.6
 20
-99.639
 10
181.6
 20
-106.328
 10
181.6
 20
-119.452
 10
181.6
 20
-129.861
 10
184.775
 20
-129.861
 10
186.6
 20
-129.861
 10
186.6
 20
-119.452
 10
186.6
 20
-106.328
 10
186.6
 20
-99.639
 10
186.6
 20
-87.756
 10
186.6
 20
-84.717
 10
186.6
 20
-78.861
 10
186.6
 20
-52.711
 10
186.6
 20
-9.861
 10
183.355
 20
-9.861
 10
181.6
 20
-9.861
 10
181.6
 20
-35.226
 10
181.6
 20
-78.861
  0
LWPOLYLINE
  5
48E
330
17
100
AcDbEntity
  8
0
100
AcDbPolyline
 90
8
 70
1
 10
147.077
 20
-78.861
 10
147.449
 20
-78.861
 10
150.677
 20
-78.861
 10
150.677
 20
-25.062
 10
150.677
 20
-18.861
 10
150.305
 20
-18.861
 10
147.077
 20
-18.861
 10
147.077
 20
-72.661
  0
LWPOLYLINE
  5
48F
330
17
100
AcDbEntity
  8
0
100
AcDbPolyline
 90
8
 70
1
 10
196.319
 20
-138.861
 10
197.403
 20
-138.861
 10
198.319
 20
-138.861
 10
198.319
 20
-125.134
 10
198.319
 20
-108.861
 10
197.234
 20
-108.861
 10
196.319
 20
-108.861
 10
196.319
 20
-122.588
  0
LWPOLYLINE
  5
490
330
17
100
AcDbEntity
  8
0
100
AcDbPolyline
 90
10
 70
1
 10
45.7
 20
-9.103
 10
45.7
 20
-9.861
 10
91.655
 20
-9.861
 10
145.054
 20
-9.861
 10
186.6
 20
-9.861
 10
186.6
 20
-8.619
 10
186.6
 20
-7.861
 10
145.054
 20
-7.861
 10
91.655
 20
-7.861
 10
45.7
 20
-7.861
  0
LWPOLYLINE
  5
491
330
17
100
AcDbEntity
  8
0
100
AcDbPolyline
 90
8
 70
1
 10
25.216
 20
-27.861
 10
39.055
 20
-27.861
 10
45.7
 20
-27.861
 10
45.7
 20
-27.103
 10
45.7
 20
-25.861
 10
39.055
 20
-25.861
 10
25.216
 20
-25.861
 10
25.216
 20
-26.811
  0
LWPOLYLINE
  5
492
330
17
100
AcDbEntity
  8
0
100
AcDbPolyline
 90
8
 70
1
 10
45.7
 20
-71.861
 10
80.122
 20
-71.861
 10
119.7
 20
-71.861
 10
119.7
 20
-70.931
 10
119.7
 20
-69.861
 10
80.122
 20
-69.861
 10
45.7
 20
-69.861
 10
45.7
 20
-70.792
  0
LWPOLYLINE
  5
493
330
17
100
AcDbEntity
  8
0
100
AcDbPolyline
 90
8
 70
1
 10
119.7
 20
-73.861
 10
145.653
 20
-73.861
 10
148.677
 20
-73.861
 10
148.677
 20
-72.07
 10
148.677
 20
-71.861
 10
122.725
 20
-71.861
 10
119.7
 20
-71.861
 10
119.7
 20
-73.653
  0
LWPOLYLINE
  5
494
330
17
100
AcDbEntity
  8
0
100
AcDbPolyline
 90
8
 70
1
 10
150.677
 20
-76.861
 10
178.372
 20
-76.861
 10
181.6
 20
-76.861
 10
181.6
 20
-75.07
 10
181.6
 20
-74.861
 10
153.905
 20
-74.861
 10
150.677
 20
-74.861
 10
150.677
 20
-76.653
  0
LWPOLYLINE
  5
495
330
17
100
AcDbEntity
  8
0
100
AcDbPolyline
 90
8
 70
1
 10
119.7
 20
-80.861
 10
155.48
 20
-80.861
 10
186.6
 20
-80.861
 10
186.6
 20
-79.792
 10
186.6
 20
-78.861
 10
150.82
 20
-78.861
 10
119.7
 20
-78.861
 10
119.7
 20
-79.931
  0
LWPOLYLINE
  5
496
330
17
100
AcDbEntity
  8
0
100
AcDbPolyline
 90
8
 70
1
 10
30.468
 20
-86.478
 10
30.468
 20
-87.861
 10
35.161
 20
-87.861
 10
45.7
 20
-87.861
 10
45.7
 20
-87.245
 10
45.7
 20
-85.861
 10
35.161
 20
-85.861
 10
30.468
 20
-85.861
  0
LWPOLYLINE
  5
497
330
17
100
AcDbEntity
  8
0
100
AcDbPolyline
 90
8
 70
1
 10
186.6
 20
-86.792
 10
186.6
 20
-87.861
 10
193.577
 20
-87.861
 10
201.6
 20
-87.861
 10
201.6
 20
-86.931
 10
201.6
 20
-85.861
 10
194.623
 20
-85.861
 10
186.6
 20
-85.861
  0
LWPOLYLINE
  5
498
330
17
100
AcDbEntity
  8
0
100
AcDbPolyline
 90
8
 70
1
 10
111.242
 20
-129.861
 10
45.7
 20
-129.861
 10
45.7
 20
-134.048
 10
45.7
 20
-138.861
 10
111.242
 20
-138.861
 10
186.6
 20
-138.861
 10
186.6
 20
-134.675
 10
186.6
 20
-129.861
  0
LWPOLYLINE
  5
499
330
17
100
AcDbEntity
  8
0
100
AcDbPolyline
 90
8
 70
1
 10
45.7
 20
2.075
 10
45.7
 20
-7.861
 10
46.966
 20
-7.861
 10
47.7
 20
-7.861
 10
47.7
 20
-1.873
 10
47.7
 20
8.139
 10
46.472
 20
8.139
 10
45.7
 20
8.139
  0
LWPOLYLINE
  5
49A
330
17
100
AcDbEntity
  8
0
100
AcDbPolyline
 90
8
 70
1
 10
45.7
 20
-27.861
 10
50.566
 20
-27.861
 10
50.7
 20
-27.861
 10
50.7
 20
-27.481
 10
50.7
 20
-9.861
 10
48.78
 20
-9.861
 10
45.7
 20
-9.861
 10
45.7
 20
-27.5
  0
LWPOLYLINE
  5
49B
330
17
100
AcDbEntity
  8
0
100
AcDbPolyline
 90
8
 70
1
 10
45.834
 20
-53.861
 10
45.7
 20
-53.861
 10
45.7
 20
-54.183
 10
45.7
 20
-69.861
 10
48.78
 20
-69.861
 10
50.7
 20
-69.861
 10
50.7
 20
-54.199
 10
50.7
 20
-53.861
  0
LWPOLYLINE
  5
49C
330
17
100
AcDbEntity
  8
0
100
AcDbPolyline
 90
8
 70
1
 10
45.7
 20
-85.354
 10
45.7
 20
-87.861
 10
49.131
 20
-87.861
 10
50.7
 20
-87.861
 10
50.7
 20
-85.198
 10
50.7
 20
-71.861
 10
48.463
 20
-71.861
 10
45.7
 20
-71.861
  0
LWPOLYLINE
  5
49D
330
17
100
AcDbEntity
  8
0
100
AcDbPolyline
 90
8
 70
1
 10
111.0
 20
-129.861
 10
112.0
 20
-129.861
 10
112.0
 20
-95.349
 10
112.0
 20
-69.861
 10
111.15
 20
-69.861
 10
110.0
 20
-69.861
 10
110.0
 20
-99.861
 10
110.0
 20
-129.861
  0
LWPOLYLINE
  5
49E
330
17
100
AcDbEntity
  8
0
100
AcDbPolyline
 90
8
 70
1
 10
29.814
 20
-138.861
 10
30.2
 20
-138.861
 10
30.2
 20
-133.343
 10
30.2
 20
-118.861
 10
29.186
 20
-118.861
 10
28.8
 20
-118.861
 10
28.8
 20
-124.38
 10
28.8
 20
-138.861
  0
LWPOLYLINE
  5
49F
330
17
100
AcDbEntity
  8
0
100
AcDbPolyline
 90
8
 70
1
 10
15.3
 20
-138.861
 10
17.156
 20
-138.861
 10
17.3
 20
-138.861
 10
17.3
 20
-138.573
 10
17.3
 20
-134.861
 10
15.444
 20
-134.861
 10
15.3
 20
-134.861
 10
15.3
 20
-135.15
  0
LWPOLYLINE
  5
4A0
330
17
100
AcDbEntity
  8
0
100
AcDbPolyline
 90
8
 70
1
 10
184.6
 20
-7.861
 10
185.828
 20
-7.861
 10
186.6
 20
-7.861
 10
186.6
 20
-1.798
 10
186.6
 20
8.139
 10
185.334
 20
8.139
 10
184.6
 20
8.139
 10
184.6
 20
2.15
  0
LWPOLYLINE
  5
4A1
330
17
100
AcDbEntity
  8
0
100
AcDbPolyline
 90
8
 70
1
 10
116.058
 20
-27.861
 10
119.7
 20
-27.861
 10
119.7
 20
-20.755
 10
119.7
 20
-9.861
 10
116.736
 20
-9.861
 10
115.1
 20
-9.861
 10
115.1
 20
-20.338
 10
115.1
 20
-27.861
  0
LWPOLYLINE
  5
4A2
330
17
100
AcDbEntity
  8
0
100
AcDbPolyline
 90
20
 70
1
 10
181.6
 20
-84.717
 10
181.6
 20
-87.756
 10
181.6
 20
-99.639
 10
181.6
 20
-106.328
 10
181.6
 20
-119.452
 10
181.6
 20
-129.861
 10
184.775
 20
-129.861
 10
186.6
 20
-129.861
 10
186.6
 20
-119.452
 10
186.6
 20
-106.328
 10
186.6
 20
-99.639
 10
186.6
 20
-87.756
 10
186.6
 20
-84.717
 10
186.6
 20
-78.861
 10
186.6
 20
-52.711
 10
186.6
 20
-9.861
 10
183.355
 20
-9.861
 10
181.6
 20
-9.861
 10
181.6
 20
-35.226
 10
181.6
 20
-78.861
  0
LWPOLYLINE
  5
4A3
330
17
100
AcDbEntity
  8
0
100
AcDbPolyline
 90
8
 70
1
 10
147.077
 20
-78.861
 10
147.449
 20
-78.861
 10
150.677
 20
-78.861
 10
150.677
 20
-25.062
 10
150.677
 20
-18.861
 10
150.305
 20
-18.861
 10
147.077
 20
-18.861
 10
147.077
 20
-72.661
  0
LWPOLYLINE
  5
4A4
330
17
100
AcDbEntity
  8
0
100
AcDbPolyline
 90
8
 70
1
 10
196.319
 20
-138.861
 10
197.403
 20
-138.861
 10
198.319
 20
-138.861
 10
198.319
 20
-125.134
 10
198.319
 20
-108.861
 10
197.234
 20
-108.861
 10
196.319
 20
-108.861
 10
196.319
 20
-122.588
  0
LINE
  5
4A5
330
17
100
AcDbEntity
  8
0
100
AcDbLine
 10
70.8804
 20
-71.8614
 30
0.0
 11
70.8804
 21
-71.8614
 31
0.0
  0
LINE
  5
4A6
330
17
100
AcDbEntity
  8
0
100
AcDbLine
 10
70.3804
 20
-71.8614
 30
0.0
 11
70.3804
 21
-71.8614
 31
0.0
  0
LINE
  5
4A7
330
17
100
AcDbEntity
  8
0
100
AcDbLine
 10
46.3804
 20
-71.8614
 30
0.0
 11
46.3804
 21
-71.8614
 31
0.0
  0
LINE
  5
4A8
330
17
100
AcDbEntity
  8
0
100
AcDbLine
 10
45.8804
 20
-71.8614
 30
0.0
 11
45.8804
 21
-71.8614
 31
0.0
  0
LINE
  5
4A9
330
17
100
AcDbEntity
  8
0
100
AcDbLine
 10
38.0421
 20
-138.861
 30
0.0
 11
38.5421
 21
-138.861
 31
0.0
  0
LINE
  5
4AA
330
17
100
AcDbEntity
  8
0
100
AcDbLine
 10
38.5421
 20
-138.861
 30
0.0
 11
38.5421
 21
-87.8614
 31
0.0
  0
LINE
  5
4AB
330
17
100
AcDbEntity
  8
0
100
AcDbLine
 10
38.0421
 20
-138.861
 30
0.0
 11
38.0421
 21
-87.8614
 31
0.0
  0
LINE
  5
4AC
330
17
100
AcDbEntity
  8
0
100
AcDbLine
 10
40.0421
 20
-138.861
 30
0.0
 11
40.5421
 21
-138.861
 31
0.0
  0
LINE
  5
4AD
330
17
100
AcDbEntity
  8
0
100
AcDbLine
 10
40.5421
 20
-138.861
 30
0.0
 11
40.5421
 21
-87.8614
 31
0.0
  0
LINE
  5
4AE
330
17
100
AcDbEntity
  8
0
100
AcDbLine
 10
40.0421
 20
-138.861
 30
0.0
 11
40.0421
 21
-87.8614
 31
0.0
  0
LINE
  5
4AF
330
17
100
AcDbEntity
  8
0
100
AcDbLine
 10
74.3804
 20
-71.8614
 30
0.0
 11
74.3804
 21
-71.8614
 31
0.0
  0
LINE
  5
4B0
330
17
100
AcDbEntity
  8
0
100
AcDbLine
 10
73.8804
 20
-71.8614
 30
0.0
 11
73.8804
 21
-71.8614
 31
0.0
  0
LINE
  5
4B1
330
17
100
AcDbEntity
  8
0
100
AcDbLine
 10
32.0421
 20
-138.861
 30
0.0
 11
32.5421
 21
-138.861
 31
0.0
  0
LINE
  5
4B2
330
17
100
AcDbEntity
  8
0
100
AcDbLine
 10
32.5421
 20
-138.861
 30
0.0
 11
32.5421
 21
-87.8614
 31
0.0
  0
LINE
  5
4B3
330
17
100
AcDbEntity
  8
0
100
AcDbLine
 10
32.0421
 20
-138.861
 30
0.0
 11
32.0421
 21
-87.8614
 31
0.0
  0
LINE
  5
4B4
330
17
100
AcDbEntity
  8
0
100
AcDbLine
 10
63.8804
 20
-71.8614
 30
0.0
 11
63.8804
 21
-71.8614
 31
0.0
  0
LINE
  5
4B5
330
17
100
AcDbEntity
  8
0
100
AcDbLine
 10
63.3804
 20
-71.8614
 30
0.0
 11
63.3804
 21
-71.8614
 31
0.0
  0
LINE
  5
4B6
330
17
100
AcDbEntity
  8
0
100
AcDbLine
 10
49.8804
 20
-71.8614
 30
0.0
 11
49.8804
 21
-71.8614
 31
0.0
  0
LINE
  5
4B7
330
17
100
AcDbEntity
  8
0
100
AcDbLine
 10
49.3804
 20
-71.8614
 30
0.0
 11
49.3804
 21
-71.8614
 31
0.0
  0
LINE
  5
4B8
330
17
100
AcDbEntity
  8
0
100
AcDbLine
 10
44.0421
 20
-138.861
 30
0.0
 11
44.5421
 21
-138.861
 31
0.0
  0
LINE
  5
4B9
330
17
100
AcDbEntity
  8
0
100
AcDbLine
 10
44.5421
 20
-138.861
 30
0.0
 11
44.5421
 21
-87.8614
 31
0.0
  0
LINE
  5
4BA
330
17
100
AcDbEntity
  8
0
100
AcDbLine
 10
44.0421
 20
-138.861
 30
0.0
 11
44.0421
 21
-87.8614
 31
0.0
  0
LINE
  5
4BB
330
17
100
AcDbEntity
  8
0
100
AcDbLine
 10
95.222
 20
-51.8614
 30
0.0
 11
95.222
 21
-51.8614
 31
0.0
  0
LINE
  5
4BC
330
17
100
AcDbEntity
  8
0
100
AcDbLine
 10
30.7
 20
-88.8614
 30
0.0
 11
30.7
 21
-88.8614
 31
0.0
  0
LINE
  5
4BD
330
17
100
AcDbEntity
  8
0
100
AcDbLine
 10
30.7
 20
-138.861
 30
0.0
 11
30.7
 21
-138.861
 31
0.0
  0
LINE
  5
4BE
330
17
100
AcDbEntity
  8
0
100
AcDbLine
 10
36.0421
 20
-138.861
 30
0.0
 11
36.5421
 21
-138.861
 31
0.0
  0
LINE
  5
4BF
330
17
100
AcDbEntity
  8
0
100
AcDbLine
 10
36.5421
 20
-138.861
 30
0.0
 11
36.5421
 21
-87.8614
 31
0.0
  0
LINE
  5
4C0
330
17
100
AcDbEntity
  8
0
100
AcDbLine
 10
36.0421
 20
-138.861
 30
0.0
 11
36.0421
 21
-87.8614
 31
0.0
  0
LINE
  5
4C1
330
17
100
AcDbEntity
  8
0
100
AcDbLine
 10
34.0421
 20
-138.861
 30
0.0
 11
34.5421
 21
-138.861
 31
0.0
  0
LINE
  5
4C2
330
17
100
AcDbEntity
  8
0
100
AcDbLine
 10
34.5421
 20
-138.861
 30
0.0
 11
34.5421
 21
-87.8614
 31
0.0
  0
LINE
  5
4C3
330
17
100
AcDbEntity
  8
0
100
AcDbLine
 10
34.0421
 20
-138.861
 30
0.0
 11
34.0421
 21
-87.8614
 31
0.0
  0
LINE
  5
4C4
330
17
100
AcDbEntity
  8
0
100
AcDbLine
 10
67.3804
 20
-71.8614
 30
0.0
 11
67.3804
 21
-71.8614
 31
0.0
  0
LINE
  5
4C5
330
17
100
AcDbEntity
  8
0
100
AcDbLine
 10
66.8804
 20
-71.8614
 30
0.0
 11
66.8804
 21
-71.8614
 31
0.0
  0
LINE
  5
4C6
330
17
100
AcDbEntity
  8
0
100
AcDbLine
 10
91.8804
 20
-71.8614
 30
0.0
 11
91.8804
 21
-71.8614
 31
0.0
  0
LINE
  5
4C7
330
17
100
AcDbEntity
  8
0
100
AcDbLine
 10
91.3804
 20
-71.8614
 30
0.0
 11
91.3804
 21
-71.8614
 31
0.0
  0
LINE
  5
4C8
330
17
100
AcDbEntity
  8
0
100
AcDbLine
 10
77.8804
 20
-71.8614
 30
0.0
 11
77.8804
 21
-71.8614
 31
0.0
  0
LINE
  5
4C9
330
17
100
AcDbEntity
  8
0
100
AcDbLine
 10
77.3804
 20
-71.8614
 30
0.0
 11
77.3804
 21
-71.8614
 31
0.0
  0
LINE
  5
4CA
330
17
100
AcDbEntity
  8
0
100
AcDbLine
 10
88.3804
 20
-71.8614
 30
0.0
 11
88.3804
 21
-71.8614
 31
0.0
  0
LINE
  5
4CB
330
17
100
AcDbEntity
  8
0
100
AcDbLine
 10
87.8804
 20
-71.8614
 30
0.0
 11
87.8804
 21
-71.8614
 31
0.0
  0
LINE
  5
4CC
330
17
100
AcDbEntity
  8
0
100
AcDbLine
 10
47.2698
 20
-71.8614
 30
0.0
 11
47.2698
 21
-71.8614
 31
0.0
  0
LINE
  5
4CD
330
17
100
AcDbEntity
  8
0
100
AcDbLine
 10
84.8804
 20
-71.8614
 30
0.0
 11
84.8804
 21
-71.8614
 31
0.0
  0
LINE
  5
4CE
330
17
100
AcDbEntity
  8
0
100
AcDbLine
 10
84.3804
 20
-71.8614
 30
0.0
 11
84.3804
 21
-71.8614
 31
0.0
  0
LINE
  5
4CF
330
17
100
AcDbEntity
  8
0
100
AcDbLine
 10
81.3804
 20
-71.8614
 30
0.0
 11
81.3804
 21
-71.8614
 31
0.0
  0
LINE
  5
4D0
330
17
100
AcDbEntity
  8
0
100
AcDbLine
 10
80.8804
 20
-71.8614
 30
0.0
 11
80.8804
 21
-71.8614
 31
0.0
  0
LINE
  5
4D1
330
17
100
AcDbEntity
  8
0
100
AcDbLine
 10
112.88
 20
-71.8614
 30
0.0
 11
112.88
 21
-71.8614
 31
0.0
  0
LINE
  5
4D2
330
17
100
AcDbEntity
  8
0
100
AcDbLine
 10
112.38
 20
-71.8614
 30
0.0
 11
112.38
 21
-71.8614
 31
0.0
  0
LINE
  5
4D3
330
17
100
AcDbEntity
  8
0
100
AcDbLine
 10
42.0421
 20
-138.861
 30
0.0
 11
42.5421
 21
-138.861
 31
0.0
  0
LINE
  5
4D4
330
17
100
AcDbEntity
  8
0
100
AcDbLine
 10
42.5421
 20
-138.861
 30
0.0
 11
42.5421
 21
-87.8614
 31
0.0
  0
LINE
  5
4D5
330
17
100
AcDbEntity
  8
0
100
AcDbLine
 10
42.0421
 20
-138.861
 30
0.0
 11
42.0421
 21
-87.8614
 31
0.0
  0
LINE
  5
4D6
330
17
100
AcDbEntity
  8
0
100
AcDbLine
 10
30.7
 20
-88.8614
 30
0.0
 11
30.7
 21
-88.8614
 31
0.0
  0
LINE
  5
4D7
330
17
100
AcDbEntity
  8
0
100
AcDbLine
 10
30.7
 20
-138.861
 30
0.0
 11
30.7
 21
-138.861
 31
0.0
  0
LINE
  5
4D8
330
17
100
AcDbEntity
  8
0
100
AcDbLine
 10
30.7
 20
-88.8614
 30
0.0
 11
30.7
 21
-88.8614
 31
0.0
  0
LINE
  5
4D9
330
17
100
AcDbEntity
  8
0
100
AcDbLine
 10
30.7
 20
-138.861
 30
0.0
 11
30.7
 21
-138.861
 31
0.0
  0
LINE
  5
4DA
330
17
100
AcDbEntity
  8
0
100
AcDbLine
 10
30.7
 20
-88.8614
 30
0.0
 11
30.7
 21
-88.8614
 31
0.0
  0
LINE
  5
4DB
330
17
100
AcDbEntity
  8
0
100
AcDbLine
 10
30.7
 20
-138.861
 30
0.0
 11
30.7
 21
-138.861
 31
0.0
  0
LINE
  5
4DC
330
17
100
AcDbEntity
  8
0
100
AcDbLine
 10
30.7
 20
-88.8614
 30
0.0
 11
30.7
 21
-88.8614
 31
0.0
  0
LINE
  5
4DD
330
17
100
AcDbEntity
  8
0
100
AcDbLine
 10
30.7
 20
-138.861
 30
0.0
 11
30.7
 21
-138.861
 31
0.0
  0
LINE
  5
4DE
330
17
100
AcDbEntity
  8
0
100
AcDbLine
 10
30.2
 20
-88.8614
 30
0.0
 11
30.2
 21
-138.861
 31
0.0
  0
LINE
  5
4DF
330
17
100
AcDbEntity
  8
0
100
AcDbLine
 10
30.2
 20
-138.861
 30
0.0
 11
30.7
 21
-138.861
 31
0.0
  0
LINE
  5
4E0
330
17
100
AcDbEntity
  8
0
100
AcDbLine
 10
30.7
 20
-138.861
 30
0.0
 11
30.7
 21
-88.8614
 31
0.0
  0
LINE
  5
4E1
330
17
100
AcDbEntity
  8
0
100
AcDbLine
 10
30.2
 20
-88.8614
 30
0.0
 11
30.7
 21
-88.8614
 31
0.0
  0
LINE
  5
4E2
330
17
100
AcDbEntity
  8
0
100
AcDbLine
 10
30.7
 20
-88.8614
 30
0.0
 11
30.7
 21
-88.8614
 31
0.0
  0
LINE
  5
4E3
330
17
100
AcDbEntity
  8
0
100
AcDbLine
 10
30.7
 20
-138.861
 30
0.0
 11
30.7
 21
-138.861
 31
0.0
  0
LWPOLYLINE
  5
4E4
330
17
100
AcDbEntity
  8
0
100
AcDbPolyline
 90
8
 70
1
 10
30.70000648498535
 20
-88.86140835487237
 10
30.431241989135742
 20
-88.86140835487237
 10
30.20000457763672
 20
-88.86140835487237
 10
30.20000457763672
 20
-115.7380701323687
 10
30.20000457763672
 20
-138.86141073905816
 10
30.46877384185791
 20
-138.86141073905816
 10
30.70000648498535
 20
-138.86141073905816
 10
30.70000648498535
 20
-111.98476326667657
  0
ENDSEC
  0
SECTION
  2
OBJECTS
  0
DICTIONARY
  5
A
330
0
100
AcDbDictionary
280
0
281
1
  3
ACAD_COLOR
350
B
  3
ACAD_GROUP
350
C
  3
ACAD_LAYOUT
350
D
  3
ACAD_MATERIAL
350
E
  3
ACAD_MLEADERSTYLE
350
F
  3
ACAD_MLINESTYLE
350
10
  3
ACAD_PLOTSETTINGS
350
11
  3
ACAD_PLOTSTYLENAME
350
12
  3
ACAD_SCALELIST
350
14
  3
ACAD_TABLESTYLE
350
15
  3
ACAD_VISUALSTYLE
350
16
  3
EZDXF_META
350
2D
  0
DICTIONARY
  5
B
330
A
100
AcDbDictionary
280
0
281
1
  0
DICTIONARY
  5
C
330
A
100
AcDbDictionary
280
0
281
1
  0
DICTIONARY
  5
D
330
A
100
AcDbDictionary
280
0
281
1
  3
Model
350
1A
  3
Layout1
350
1E
  0
DICTIONARY
  5
E
330
A
100
AcDbDictionary
280
0
281
1
  3
ByBlock
350
1F
  3
ByLayer
350
20
  3
Global
350
21
  0
DICTIONARY
  5
F
330
A
100
AcDbDictionary
280
0
281
1
  3
Standard
350
2C
  0
DICTIONARY
  5
10
330
A
100
AcDbDictionary
280
0
281
1
  3
Standard
350
22
  0
DICTIONARY
  5
11
330
A
100
AcDbDictionary
280
0
281
1
  0
ACDBDICTIONARYWDFLT
  5
12
330
A
100
AcDbDictionary
280
0
281
1
  3
Normal
350
13
100
AcDbDictionaryWithDefault
340
13
  0
ACDBPLACEHOLDER
  5
13
330
12
  0
DICTIONARY
  5
14
330
A
100
AcDbDictionary
280
0
281
1
  0
DICTIONARY
  5
15
330
A
100
AcDbDictionary
280
0
281
1
  0
DICTIONARY
  5
16
330
A
100
AcDbDictionary
280
0
281
1
  0
LAYOUT
  5
1A
330
D
100
AcDbPlotSettings
  1

  4
A3
  6

 40
7.5
 41
20.0
 42
7.5
 43
20.0
 44
420.0
 45
297.0
 46
0.0
 47
0.0
 48
0.0
 49
0.0
140
0.0
141
0.0
142
1.0
143
1.0
 70
1024
 72
1
 73
0
 74
5
  7

 75
16
 76
0
 77
2
 78
300
147
1.0
148
0.0
149
0.0
100
AcDbLayout
  1
Model
 70
1
 71
0
 10
0.0
 20
0.0
 11
420.0
 21
297.0
 12
0.0
 22
0.0
 32
0.0
 14
1e+20
 24
1e+20
 34
1e+20
 15
-1e+20
 25
-1e+20
 35
-1e+20
146
0.0
 13
0.0
 23
0.0
 33
0.0
 16
1.0
 26
0.0
 36
0.0
 17
0.0
 27
1.0
 37
0.0
 76
1
330
17
  0
LAYOUT
  5
1E
330
D
100
AcDbPlotSettings
  1

  4
A3
  6

 40
7.5
 41
20.0
 42
7.5
 43
20.0
 44
420.0
 45
297.0
 46
0.0
 47
0.0
 48
0.0
 49
0.0
140
0.0
141
0.0
142
1.0
143
1.0
 70
0
 72
1
 73
0
 74
5
  7

 75
16
 76
0
 77
2
 78
300
147
1.0
148
0.0
149
0.0
100
AcDbLayout
  1
Layout1
 70
1
 71
1
 10
0.0
 20
0.0
 11
420.0
 21
297.0
 12
0.0
 22
0.0
 32
0.0
 14
1e+20
 24
1e+20
 34
1e+20
 15
-1e+20
 25
-1e+20
 35
-1e+20
146
0.0
 13
0.0
 23
0.0
 33
0.0
 16
1.0
 26
0.0
 36
0.0
 17
0.0
 27
1.0
 37
0.0
 76
1
330
1B
  0
MATERIAL
  5
1F
102
{ACAD_REACTORS
330
E
102
}
330
E
100
AcDbMaterial
  1
ByBlock
  2

 70
0
 40
1.0
 71
1
 41
1.0
 91
-1023410177
 42
1.0
 72
1
  3

 73
1
 74
1
 75
1
 44
0.5
 73
0
 45
1.0
 46
1.0
 77
1
  4

 78
1
 79
1
170
1
 48
1.0
171
1
  6

172
1
173
1
174
1
140
1.0
141
1.0
175
1
  7

176
1
177
1
178
1
143
1.0
179
1
  8

270
1
271
1
272
1
145
1.0
146
1.0
273
1
  9

274
1
275
1
276
1
 42
1.0
 72
1
  3

 73
1
 74
1
 75
1
 94
63
  0
MATERIAL
  5
20
102
{ACAD_REACTORS
330
E
102
}
330
E
100
AcDbMaterial
  1
ByLayer
  2

 70
0
 40
1.0
 71
1
 41
1.0
 91
-1023410177
 42
1.0
 72
1
  3

 73
1
 74
1
 75
1
 44
0.5
 73
0
 45
1.0
 46
1.0
 77
1
  4

 78
1
 79
1
170
1
 48
1.0
171
1
  6

172
1
173
1
174
1
140
1.0
141
1.0
175
1
  7

176
1
177
1
178
1
143
1.0
179
1
  8

270
1
271
1
272
1
145
1.0
146
1.0
273
1
  9

274
1
275
1
276
1
 42
1.0
 72
1
  3

 73
1
 74
1
 75
1
 94
63
  0
MATERIAL
  5
21
102
{ACAD_REACTORS
330
E
102
}
330
E
100
AcDbMaterial
  1
Global
  2

 70
0
 40
1.0
 71
1
 41
1.0
 91
-1023410177
 42
1.0
 72
1
  3

 73
1
 74
1
 75
1
 44
0.5
 73
0
 45
1.0
 46
1.0
 77
1
  4

 78
1
 79
1
170
1
 48
1.0
171
1
  6

172
1
173
1
174
1
140
1.0
141
1.0
175
1
  7

176
1
177
1
178
1
143
1.0
179
1
  8

270
1
271
1
272
1
145
1.0
146
1.0
273
1
  9

274
1
275
1
276
1
 42
1.0
 72
1
  3

 73
1
 74
1
 75
1
 94
63
  0
MLINESTYLE
  5
22
102
{ACAD_REACTORS
330
10
102
}
330
10
100
AcDbMlineStyle
  2
Standard
 70
0
  3

 62
256
 51
90.0
 52
90.0
 71
2
 49
0.5
 62
256
  6
BYLAYER
 49
-0.5
 62
256
  6
BYLAYER
  0
MLEADERSTYLE
  5
2C
102
{ACAD_REACTORS
330
F
102
}
330
F
100
AcDbMLeaderStyle
179
2
170
2
171
1
172
0
 90
2
 40
0.0
 41
0.0
173
1
 91
-1056964608
 92
-2
290
1
 42
2.0
291
1
 43
8.0
  3
Standard
 44
4.0
300

342
29
174
1
175
1
176
0
178
1
 93
-1056964608
 45
4.0
292
0
297
0
 46
4.0
 94
-1056964608
 47
1.0
 49
1.0
140
1.0
294
1
141
0.0
177
0
142
1.0
295
0
296
0
143
3.75
271
0
272
9
273
9
  0
DICTIONARY
  5
2D
330
A
100
AcDbDictionary
280
1
281
1
  3
CREATED_BY_EZDXF
350
2E
  3
WRITTEN_BY_EZDXF
350
4E7
  0
DICTIONARYVAR
  5
2E
330
2D
100
DictionaryVariables
280
0
  1
1.4.0 @ 2025-04-08T10:51:22.253104+00:00
  0
DICTIONARYVAR
  5
4E7
330
2D
100
DictionaryVariables
280
0
  1
1.4.0 @ 2025-04-08T10:51:22.299979+00:00
  0
ENDSEC
  0
EOF
