<svg xmlns="http://www.w3.org/2000/svg" xmlns:xlink="http://www.w3.org/1999/xlink" xmlns:ifc="http://www.ifcopenshell.org/ns" width="220mm" height="149.831mm" viewBox="0 0 220 149.831">
    <defs>
        <marker id="arrowend" markerWidth="10" markerHeight="7" refX="10" refY="3.5" orient="auto">
          <polygon points="0 0, 10 3.5, 0 7"/>
        </marker>
        <marker id="arrowstart" markerWidth="10" markerHeight="7" refX="0" refY="3.5" orient="auto">
          <polygon points="10 0, 0 3.5, 10 7"/>
        </marker>
    </defs>
    <g ifc:name="Elevation NORTH SECTION" class="section" ifc:plane="[[1.000000,0.000000,0.000000,0.000000],[0.000000,1.000000,0.000000,0.000000],[0.000000,0.000000,1.000000,0.000000],[0.000000,0.000000,0.000000,1.000000]]" ifc:matrix3="[[20.000000,0.000000,-55.376846],[0.000000,20.000000,148.450747],[0.000000,0.000000,1.000000]]">
        <g id="product-ed553496-dc6e-4ba5-a169-353d1e6be50c" class="IfcSlab material-concrete projection" ifc:name="Slab" ifc:guid="3jLJIMt6vBfQ5fDJqUQ_KC">
            <path d="M174.516,148.451 L174.516,139.451"/>
            <path d="M31.6669,139.451 L174.516,139.451"/>
            <path d="M31.6669,139.451 L31.6669,148.451"/>
            <path d="M31.6669,148.451 L174.516,148.451"/>
        </g>
        <g id="product-31b2efc8-799a-470a-aa87-494f1d098062" class="IfcSlab material-null projection" ifc:name="Slab" ifc:guid="0nik$8UPf72gg7IKyT2O1Y">
            <path d="M169.916,88.4507 L129.241,88.4507"/>
            <path d="M100.419,88.4507 L81.5357,88.4507"/>
            <path d="M31.6669,88.4507 L31.6669,88.4507"/>
            <path d="M169.916,90.4507 L115.716,90.4507"/>
            <path d="M100.419,90.4507 L81.5357,90.4507"/>
            <path d="M31.6669,90.4507 L31.6669,90.4507"/>
            <path d="M31.6669,90.4507 L31.6669,88.4507"/>
        </g>
        <g id="product-a93ec5c3-dcab-4c2e-904d-121932ea0e42" class="IfcSlab material-null projection" ifc:name="Slab" ifc:guid="2fFiN3tAjCBf1D4XaowWv2">
            <path d="M174.516,81.4507 L174.516,79.4507"/>
            <path d="M31.6669,79.4507 L174.516,79.4507"/>
            <path d="M31.6669,79.4507 L31.6669,81.4507"/>
            <path d="M31.6669,81.4507 L174.516,81.4507"/>
        </g>
        <g id="product-75ab17b6-0cb0-409e-a193-eb3e3f00ffe6" class="IfcSlab material-null projection" ifc:name="Slab" ifc:guid="1rgnUs3B10dg6Jwpu$0F$c">
            <path d="M67.5163,17.4507 L67.5163,19.4507"/>
            <path d="M67.5163,19.4507 L174.516,19.4507"/>
            <path d="M174.516,19.4507 L174.516,17.4507"/>
            <path d="M67.5163,17.4507 L174.516,17.4507"/>
        </g>
        <g id="product-129c453b-ce74-4e59-8804-4f22a3685ca3" class="IfcFurniture material-null projection" ifc:name="Furniture" ifc:guid="0Id4KxpdHEMOW4JoAZQ5oZ">
            <path d="M65.5354,131.451 L65.5354,131.451"/>
            <path d="M65.5354,139.451 L65.5354,131.451"/>
            <path d="M64.5354,139.451 L64.5354,131.451"/>
            <path d="M53.5354,139.451 L53.5354,131.451"/>
            <path d="M54.5354,139.451 L54.5354,131.451"/>
            <path d="M65.5354,130.451 L65.5354,130.451"/>
            <path d="M65.5354,121.451 L53.5354,121.451"/>
            <path d="M53.5354,121.451 L53.5354,130.451"/>
            <path d="M65.5354,121.451 L65.5354,130.451"/>
            <path d="M65.5354,131.451 L65.5354,130.451"/>
            <path d="M65.5354,130.451 L53.5354,130.451"/>
            <path d="M53.5354,130.451 L53.5354,131.451"/>
            <path d="M65.5354,131.451 L53.5354,131.451"/>
        </g>
        <g id="product-a2afbf85-97d0-4cbd-a381-755e0b7d17af" class="IfcFurniture material-null projection" ifc:name="Furniture" ifc:guid="2Yhx_5bz1ClQE1TLuBVHUl">
            <path d="M131.061,77.4507 L147.916,77.4507"/>
            <path d="M131.061,82.4507 L131.061,81.4507"/>
            <path d="M131.061,79.4507 L131.061,77.4507"/>
        </g>
        <g id="product-bd6e362f-829a-4727-9746-7b45fcc51da3" class="IfcDoor material-null projection" ifc:name="Door" ifc:guid="2zRZOlWff79vT6UqNynHsZ">
            <path d="M173.416,37.9507 L173.416,37.9507"/>
            <path d="M173.516,36.9507 L173.416,36.9507"/>
            <path d="M173.416,37.9507 L173.416,36.9507"/>
            <path d="M173.416,37.9507 L173.516,37.9507"/>
            <path d="M173.516,37.9507 L173.516,36.9507"/>
            <path d="M174.516,79.4507 L174.516,38.4507"/>
            <path d="M174.616,79.4507 L174.616,38.4507"/>
            <path d="M174.616,38.4507 L174.616,38.4507"/>
            <path d="M174.616,79.4507 L174.516,79.4507"/>
            <path d="M174.616,36.9507 L174.516,36.9507"/>
            <path d="M174.516,38.4507 L174.516,36.9507"/>
            <path d="M174.516,38.4507 L174.616,38.4507"/>
            <path d="M174.616,38.4507 L174.616,36.9507"/>
            <path d="M174.516,79.4507 L174.516,78.9507"/>
            <path d="M172.516,78.9507 L174.516,78.9507"/>
            <path d="M172.516,78.9507 L172.516,79.4507"/>
            <path d="M172.516,79.4507 L174.516,79.4507"/>
            <path d="M174.016,78.9507 L174.016,37.9507"/>
            <path d="M173.316,37.9507 L174.016,37.9507"/>
            <path d="M173.316,37.9507 L173.316,78.9507"/>
            <path d="M173.316,78.9507 L174.016,78.9507"/>
            <path d="M174.016,78.9507 L174.016,38.4507"/>
            <path d="M174.516,79.4507 L174.516,38.4507"/>
            <path d="M174.516,37.4507 L174.016,37.4507"/>
            <path d="M174.016,38.4507 L174.016,37.4507"/>
            <path d="M174.016,38.4507 L174.516,38.4507"/>
            <path d="M174.516,38.4507 L174.516,37.4507"/>
            <path d="M174.016,37.4507 L173.516,37.4507"/>
            <path d="M173.516,37.9507 L173.516,37.4507"/>
            <path d="M173.516,37.9507 L174.016,37.9507"/>
            <path d="M174.016,37.9507 L174.016,37.4507"/>
        </g>
        <g id="product-b38161fa-6d1d-44ce-aeac-39125f5020f9" class="IfcSlab material-null projection" ifc:name="Slab" ifc:guid="2pWM7wRHr4pgwiEH9VK23v">
            <path d="M192.516,37.4507 L174.516,37.4507"/>
            <path d="M192.516,35.4507 L192.516,37.4507"/>
            <path d="M192.516,35.4507 L174.516,35.4507"/>
            <path d="M174.516,37.4507 L174.516,35.4507"/>
            <path d="M67.5163,37.4507 L31.6669,37.4507"/>
            <path d="M67.5163,35.4507 L67.5163,37.4507"/>
            <path d="M67.5163,35.4507 L31.6669,35.4507"/>
            <path d="M31.6669,37.4507 L31.6669,35.4507"/>
        </g>
        <g id="product-94590a71-0991-4603-8eef-672098061345" class="IfcDoor material-null projection" ifc:name="Door" ifc:guid="2KMGfn2P560uxlPo2O1XD5">
            <path d="M115.716,138.951 L115.716,138.951"/>
            <path d="M115.716,118.751 L115.716,118.751"/>
            <path d="M115.716,119.151 L115.716,119.151"/>
        </g>
        <g id="product-2ae6c97d-89ef-4467-a05b-82af70b3ce28" class="IfcDoor material-null projection" ifc:name="Door" ifc:guid="0gvibzYUz4Pw1RWgzmiyue">
            <path d="M94.8149,38.4507 L94.8149,79.4507"/>
            <path d="M110.815,38.4507 L94.8149,38.4507"/>
            <path d="M110.815,79.4507 L110.815,38.4507"/>
            <path d="M94.8149,78.9507 L110.815,78.9507"/>
            <path d="M95.3149,58.7507 L97.7149,58.7507"/>
            <path d="M95.3149,59.1507 L97.7149,59.1507"/>
            <path d="M97.7149,59.1507 L97.7149,58.7507"/>
            <path d="M95.3149,59.1507 L95.3149,58.7507"/>
            <path d="M94.8149,78.9507 L110.815,78.9507"/>
        </g>
        <g id="product-506b3583-1694-43c3-89c8-d35a204f6170" class="IfcSlab material-null projection" ifc:name="Slab" ifc:guid="1GQpM35fH3mud8qreWJs5m">
            <path d="M174.516,95.4507 L189.516,95.4507"/>
            <path d="M174.516,97.4507 L189.516,97.4507"/>
            <path d="M174.516,97.4507 L174.516,95.4507"/>
            <path d="M31.6669,97.4507 L31.6669,95.4507"/>
            <path d="M16.6669,95.4507 L31.6669,95.4507"/>
            <path d="M16.6669,95.4507 L16.6669,97.4507"/>
            <path d="M16.6669,97.4507 L31.6669,97.4507"/>
        </g>
        <g id="product-b48b7371-296f-4a58-9368-380ee01c5e28" class="IfcWall material-brick projection" ifc:name="Wall" ifc:guid="2qYtDnAMzAM9DeE0xW75ue">
            <path d="M35.2669,139.451 L35.2669,81.4507"/>
        </g>
        <g id="product-b099e8fa-6012-4c05-9cd9-da1cca205e09" class="IfcWall material-brick projection" ifc:name="Wall" ifc:guid="2mcUZwO19C1PpPsXpA85u9">
            <path d="M169.916,88.4507 L169.835,88.4507"/>
            <path d="M174.516,19.4507 L174.516,19.4507"/>
            <path d="M169.916,19.4507 L169.916,19.4507"/>
            <path d="M174.516,80.4507 L174.516,79.4507"/>
            <path d="M174.516,35.4507 L174.516,19.4507"/>
            <path d="M72.1163,19.4507 L72.1163,19.4507"/>
        </g>
        <g id="product-a85b3499-f33c-400e-99a6-3ae28ba78386" class="IfcWall material-brick projection" ifc:name="Wall" ifc:guid="2eMpIPypn03fccEkABfuE6">
            <path d="M100.419,139.451 L100.419,81.4507"/>
            <path d="M115.716,139.451 L115.716,81.4507"/>
        </g>
        <g id="product-8dd96191-883d-4648-8e44-d153a37f7b06" class="IfcWindow material-null projection" ifc:name="Window" ifc:guid="2DsM6HY3r6I8v4qLEZVti6">
            <path d="M68.9663,40.8507 L68.9663,76.0507"/>
            <path d="M68.7663,40.8507 L68.9663,40.8507"/>
            <path d="M68.7663,40.8507 L68.7663,76.0507"/>
            <path d="M68.9663,76.0507 L68.7663,76.0507"/>
            <path d="M68.5163,39.4507 L68.5163,40.8507"/>
            <path d="M68.5163,40.8507 L69.2163,40.8507"/>
            <path d="M69.2163,39.4507 L69.2163,40.8507"/>
            <path d="M68.5163,39.4507 L69.2163,39.4507"/>
            <path d="M68.5163,76.0507 L68.5163,40.8507"/>
            <path d="M69.2163,76.0507 L69.2163,40.8507"/>
            <path d="M69.2163,40.8507 L69.2163,40.8507"/>
            <path d="M69.2163,76.0507 L69.2163,76.0507"/>
            <path d="M69.2163,76.0507 L69.2163,77.4507"/>
            <path d="M69.2163,76.0507 L68.5163,76.0507"/>
            <path d="M68.5163,76.0507 L68.5163,77.4507"/>
            <path d="M69.2163,77.4507 L68.5163,77.4507"/>
            <path d="M68.5163,79.4507 L69.5163,79.4507"/>
            <path d="M69.5163,79.4507 L69.5163,77.4507"/>
            <path d="M69.5163,77.4507 L68.5163,77.4507"/>
            <path d="M68.5163,79.4507 L68.5163,77.4507"/>
            <path d="M69.5163,77.4507 L69.5163,39.4507"/>
            <path d="M69.5163,39.4507 L69.5163,39.4507"/>
            <path d="M69.5163,77.4507 L69.5163,77.4507"/>
            <path d="M69.5163,37.4507 L68.5163,37.4507"/>
            <path d="M68.5163,39.4507 L68.5163,37.4507"/>
            <path d="M68.5163,39.4507 L69.5163,39.4507"/>
            <path d="M69.5163,39.4507 L69.5163,37.4507"/>
        </g>
        <g id="product-b0ab0dec-dc4b-4449-a923-44037aa95060" class="IfcWall material-brick projection" ifc:name="Wall" ifc:guid="2mgmtit4j4IQaZH0DwgL1W">
            <path d="M149.916,79.4507 L147.916,79.4507"/>
            <path d="M149.916,19.4507 L149.916,79.4507"/>
            <path d="M149.916,19.4507 L147.916,19.4507"/>
            <path d="M147.916,79.4507 L147.916,19.4507"/>
        </g>
        <g id="product-674e0295-6ac2-4660-8148-7c0f211bb9d7" class="IfcWall material-brick projection" ifc:name="Wall" ifc:guid="1dJWALQi96O858V0yX6xdN">
            <path d="M33.6669,81.4507 L33.6669,81.4507"/>
            <path d="M31.667,81.4507 L31.667,81.4507"/>
        </g>
        <g id="product-f837a7b4-2b90-4bd3-82f3-0c34978231ce" class="IfcWall material-brick projection" ifc:name="Wall" ifc:guid="3uDwUqAv1BquBp33INWZ7E">
            <path d="M33.6669,61.4507 L31.6669,61.4507"/>
            <path d="M31.6669,81.4507 L31.6669,81.4507"/>
            <path d="M31.6669,79.4507 L31.6669,61.4507"/>
        </g>
        <g id="product-094c4a54-300c-4315-be5b-60d48bacab97" class="IfcWall material-brick projection" ifc:name="Wall" ifc:guid="09J4fKC0n35RvRODIBhAkN">
            <path d="M198.846,148.451 L196.846,148.451"/>
            <path d="M198.846,118.451 L198.846,148.451"/>
            <path d="M198.846,118.451 L196.846,118.451"/>
            <path d="M196.846,148.451 L196.846,118.451"/>
        </g>
        <g id="product-277ed5d0-519a-4c60-b0db-6d0de721d53f" class="IfcWall material-brick projection" ifc:name="Wall" ifc:guid="0dVjNGKPfCOB3RRGtd8TK$">
            <path d="M-73.2445,118.451 L-73.3628,118.451"/>
            <path d="M-73.2445,148.451 L-73.3628,148.451"/>
            <path d="M-73.3628,148.451 L-73.3628,118.451"/>
            <path d="M31.617,118.451 L-73.2445,118.451"/>
            <path d="M31.617,148.451 L-73.2445,148.451"/>
            <path d="M-73.2445,148.451 L-73.2445,118.451"/>
        </g>
        <g id="product-0c2071cd-cb6c-4070-93ca-43771085f9a3" class="IfcWall material-brick projection" ifc:name="Wall" ifc:guid="0C877Dosn0S9FAGtSGXVcZ">
            <path d="M115.716,139.451 L115.716,90.4507"/>
        </g>
        <g id="product-d529905e-b5de-422b-903c-7cf857228a57" class="IfcWindow material-null projection" ifc:name="Window" ifc:guid="3LAP1UjTv2Av0yVFXN8efN">
            <path d="M87.4541,111.308 L99.4541,111.308"/>
            <path d="M87.4541,111.308 L87.4541,99.3084"/>
            <path d="M87.4541,99.3084 L99.4541,99.3084"/>
            <path d="M99.4541,111.308 L99.4541,99.3084"/>
            <path d="M93.4541,97.3084 L100.419,97.3084"/>
            <path d="M93.4541,113.308 L100.419,113.308"/>
        </g>
        <g id="product-a75d7c91-cfd1-48fb-984c-27161ed5062f" class="IfcWall material-brick projection" ifc:name="Wall" ifc:guid="2dNNoHpz58_vXC9nOUrGOl">
            <path d="M198.769,118.451 L190.016,118.451"/>
            <path d="M189.516,118.451 L174.516,118.451"/>
            <path d="M31.6669,118.451 L31.617,118.451"/>
            <path d="M196.846,148.451 L190.016,148.451"/>
            <path d="M189.516,148.451 L174.516,148.451"/>
            <path d="M31.6669,148.451 L31.617,148.451"/>
            <path d="M198.769,118.451 L198.769,118.451"/>
        </g>
        <g id="product-6869ec8e-eff0-4d94-9c69-bca2c439763e" class="IfcWall material-brick projection" ifc:name="Wall" ifc:guid="1eQUoEx$1Db9nflAB4ENO_">
            <path d="M72.5163,139.451 L67.5163,139.451"/>
            <path d="M72.5163,79.4507 L72.5163,139.451"/>
            <path d="M72.5163,79.4507 L67.5163,79.4507"/>
            <path d="M67.5163,139.451 L67.5163,79.4507"/>
        </g>
        <g id="product-7861c6ba-c478-4bac-8a9f-d9509ecbf10c" class="IfcWall material-brick projection" ifc:name="Wall" ifc:guid="1uOSQwn7XBh8gVsL2Uo$4C">
            <path d="M147.916,19.4507 L147.916,19.4507"/>
            <path d="M147.916,19.4507 L147.916,19.4507"/>
            <path d="M169.916,19.4507 L149.916,19.4507"/>
        </g>
        <g id="product-c5981e26-841d-4031-b914-a7f7cf97c18b" class="IfcWall material-brick projection" ifc:name="Wall" ifc:guid="35c1ucX1r0CRaKf$VFby6B">
            <path d="M81.5357,139.451 L81.5357,81.4507"/>
            <path d="M72.5163,139.451 L72.5163,81.4507"/>
        </g>
        <g id="product-cc8fa1fe-9735-465a-b1fc-1df122d3e0ab" class="IfcSlab material-null projection" ifc:name="Slab" ifc:guid="3CZw7_bpL6Mh7y7V4Yq_2h">
            <path d="M100.419,83.4507 L81.5357,83.4507"/>
        </g>
        <g id="product-cffeb9ce-827e-4d87-90db-68cde716f778" class="IfcWall material-brick projection" ifc:name="Wall" ifc:guid="3F$hdEWdvDXv3RQCtd5lTu">
            <path d="M129.916,19.4507 L127.916,19.4507"/>
            <path d="M127.916,79.4507 L127.916,19.4507"/>
            <path d="M129.916,79.4507 L127.916,79.4507"/>
            <path d="M129.916,19.4507 L129.916,79.4507"/>
        </g>
        <g id="product-44861dfc-df5a-40e2-bd94-76c59339eb80" class="IfcWall material-brick projection" ifc:name="Wall" ifc:guid="14XXtytrf0uhsKTiMJEUk0">
            <path d="M174.516,19.4507 L169.916,19.4507"/>
            <path d="M169.916,37.4507 L169.916,19.4507"/>
            <path d="M169.916,37.4507 L174.516,37.4507"/>
            <path d="M174.516,19.4507 L174.516,37.4507"/>
            <path d="M169.916,37.4507 L169.916,79.4507"/>
            <path d="M174.516,37.4507 L174.516,37.4507"/>
        </g>
        <g id="product-845ad5dd-7c04-464c-93c9-aee3d8874831" class="IfcWall material-brick projection" ifc:name="Wall" ifc:guid="24MjNTV0H6J9F9hkFOXqWn">
            <path d="M174.516,17.4507 L172.516,17.4507"/>
            <path d="M174.516,1.45072 L174.516,17.4507"/>
            <path d="M174.516,1.45072 L172.516,1.45072"/>
            <path d="M172.516,17.4507 L172.516,1.45072"/>
        </g>
        <g id="product-81e8a6d3-3d51-4c7b-aceb-3e26b781d637" class="IfcWall material-brick projection" ifc:name="Wall" ifc:guid="21wARJFL5CUwphFYQtWTOt">
            <path d="M69.5163,17.4507 L67.5163,17.4507"/>
            <path d="M69.5163,1.45073 L69.5163,17.4507"/>
            <path d="M69.5163,1.45073 L67.5163,1.45073"/>
            <path d="M67.5163,17.4507 L67.5163,1.45073"/>
        </g>
        <g id="product-c1160eab-6125-4060-aad2-9f8c9da2f9b4" class="IfcWall material-brick projection" ifc:name="Wall" ifc:guid="315WwhOIL0OAhIduoTelcq">
            <path d="M69.5163,1.45072 L67.5163,1.45072"/>
            <path d="M69.5163,17.4507 L69.5163,17.4507"/>
            <path d="M67.5163,1.45073 L67.5163,1.45072"/>
            <path d="M172.516,1.45072 L69.5163,1.45072"/>
            <path d="M172.516,17.4507 L69.5163,17.4507"/>
            <path d="M69.5163,17.4507 L69.5163,1.45072"/>
            <path d="M174.516,1.45072 L172.516,1.45072"/>
            <path d="M174.516,17.4507 L174.516,17.4507"/>
            <path d="M172.516,1.45072 L172.516,1.45072"/>
            <path d="M174.516,17.4507 L174.516,1.45072"/>
        </g>
        <g id="product-56644cc8-da0a-4c7c-a40e-1470d56ec1d5" class="IfcWall material-brick projection" ifc:name="Wall" ifc:guid="1MP4p8sWfCVAGE573LRi7L">
            <path d="M35.2669,81.4507 L31.6669,81.4507"/>
            <path d="M31.6669,139.451 L31.6669,81.4507"/>
            <path d="M35.2669,139.451 L31.6669,139.451"/>
            <path d="M35.2669,81.4507 L35.2669,139.451"/>
            <path d="M35.2669,97.4507 L35.2669,97.4507"/>
        </g>
        <g id="product-b286925f-6423-4a2a-ba47-95f4eccafa65" class="IfcWall material-brick projection" ifc:name="Wall" ifc:guid="2oXf9VP2DAAhf7bVJiolfb">
            <path d="M174.516,139.451 L174.516,139.451"/>
            <path d="M174.516,139.451 L174.516,97.4507"/>
            <path d="M174.516,95.4507 L174.516,90.3294"/>
            <path d="M85.4541,97.3084 L85.4541,113.308"/>
            <path d="M93.4541,97.3084 L85.4541,97.3084"/>
            <path d="M85.4541,113.308 L93.4541,113.308"/>
            <path d="M100.419,139.451 L81.5357,139.451"/>
        </g>
        <g id="product-ef49af77-bfa1-4876-8a02-87be3218c410" class="IfcWall material-brick projection" ifc:name="Wall" ifc:guid="3lIQztlw58Tee2Xxuo6CGG">
            <path d="M100.419,88.4507 L81.5357,88.4507"/>
        </g>
        <g id="product-53e8bd7c-02d7-4f9b-8098-63553f1928c3" class="IfcWall material-brick projection" ifc:name="Wall" ifc:guid="1JwBry0jTFcu2OOrK$6IZ3">
            <path d="M112.211,79.4507 L112.211,28.4507"/>
            <path d="M114.211,79.4507 L114.211,28.4507"/>
            <path d="M114.211,28.4507 L112.211,28.4507"/>
        </g>
        <g id="product-e7ee6d36-1dc8-460f-bfdf-c6ccb80af696" class="IfcWall material-brick projection" ifc:name="Wall" ifc:guid="3dxcqs7SX63x$Vniou2lQM">
            <path d="M115.716,97.4507 L115.716,97.4507"/>
            <path d="M115.716,139.451 L115.716,88.4507"/>
        </g>
        <g id="product-ccbba25f-e07b-47ed-a388-1785b8a298eb" class="IfcFurniture material-null projection" ifc:name="Furniture" ifc:guid="3Ckw9Vu7j7xQE85uMuefZh">
            <path d="M129.241,81.4507 L129.241,82.4507"/>
            <path d="M129.241,88.0624 L129.241,88.4507"/>
            <path d="M129.241,88.4507 L115.716,88.4507"/>
        </g>
        <g id="product-ff320a89-9f2c-4187-bf93-19c72ad3e859" class="IfcFurniture material-null projection" ifc:name="Furniture" ifc:guid="3$CWg9don1Xx_J6SSgq_XP">
            <path d="M149.835,81.4507 L149.835,82.4507"/>
            <path d="M149.835,88.1015 L149.835,88.4507"/>
            <path d="M169.835,81.4507 L169.835,88.4507"/>
        </g>
        <g id="product-bcb827ad-1b93-4692-aeac-4d117d685e71" class="IfcWall material-brick projection" ifc:name="Wall" ifc:guid="2yk2Uj6vD6agwiJH5zQ5vn">
            <path d="M67.5163,79.4507 L67.5163,37.4507"/>
            <path d="M67.5163,19.4507 L67.5163,19.4507"/>
            <path d="M67.5163,19.4507 L67.5163,19.4507"/>
            <path d="M72.1163,19.4507 L72.1163,19.4507"/>
        </g>
        <g id="product-3f61e368-6652-4d7a-9150-5bb92f22c6b2" class="IfcWall material-brick projection" ifc:name="Wall" ifc:guid="0$OUDePb9DUf5GMxal8iQo">
            <path d="M127.916,19.4507 L69.5163,19.4507"/>
            <path d="M93.8149,37.4507 L93.8149,79.4507"/>
            <path d="M111.815,37.4507 L93.8149,37.4507"/>
            <path d="M111.815,79.4507 L111.815,37.4507"/>
            <path d="M129.916,19.4507 L129.916,19.4507"/>
            <path d="M129.916,79.4507 L129.916,19.4507"/>
        </g>
        <g id="product-a99be65c-e4d1-4382-a390-f1329c094714" class="IfcStair material-concrete projection" ifc:name="Stair" ifc:guid="2fc_PSvD53WgEGyJAS2KSK">
            <path d="M189.516,90.3294 L174.516,90.3294"/>
            <path d="M174.516,85.4507 L189.516,85.4507"/>
            <path d="M174.516,80.4507 L189.516,80.4507"/>
            <path d="M174.516,80.4507 L189.516,80.4507"/>
            <path d="M174.516,90.3294 L174.516,80.4507"/>
            <path d="M189.516,87.9988 L189.516,90.3294"/>
            <path d="M189.516,80.4507 L189.516,80.4507"/>
            <path d="M189.516,80.4507 L189.516,90.3294"/>
        </g>
        <g id="product-f367128d-4cf7-4539-a756-bc32aa598839" class="IfcStair material-null projection" ifc:name="Stair" ifc:guid="3pPnADJFT5EQTMl3AgMOWv">
            <path d="M150.011,87.4507 L129.211,87.4507"/>
            <path d="M150.011,82.4507 L129.211,82.4507"/>
            <path d="M150.011,90.4507 L150.011,90.4507"/>
            <path d="M150.011,88.1015 L150.011,87.4507"/>
            <path d="M150.011,87.4507 L150.011,87.4507"/>
            <path d="M150.011,87.4507 L150.011,82.4507"/>
            <path d="M150.011,82.4507 L150.011,82.4507"/>
            <path d="M129.211,82.4507 L129.211,82.4507"/>
            <path d="M129.211,82.4507 L129.211,87.4507"/>
            <path d="M129.211,87.4507 L129.211,87.4507"/>
            <path d="M129.211,87.4507 L129.211,88.0624"/>
            <path d="M129.211,90.4507 L129.211,90.4507"/>
            <path d="M129.211,90.4507 L129.211,90.4507"/>
        </g>
        <g id="product-55f7435b-7421-4a3e-9253-7a8e655d244b" class="IfcWall material-brick projection" ifc:name="Wall" ifc:guid="1LzqDRT25AFf9JUevbNIHB">
            <path d="M174.516,119.451 L174.516,119.451"/>
            <path d="M174.516,93.4507 L174.516,93.4507"/>
            <path d="M174.516,119.451 L174.516,97.4507"/>
            <path d="M174.516,95.4507 L174.516,93.4507"/>
            <path d="M174.516,79.4507 L169.916,79.4507"/>
            <path d="M169.916,139.451 L169.916,79.4507"/>
            <path d="M174.516,139.451 L169.916,139.451"/>
            <path d="M174.516,79.4507 L174.516,139.451"/>
        </g>
        <g id="product-2874720a-6406-4d98-a209-bd64342b352e" class="IfcWall material-brick projection" ifc:name="Wall" ifc:guid="0eT78AP0PDcA89lMGqApKk">
            <path d="M69.5163,19.4507 L67.5163,19.4507"/>
            <path d="M67.5163,37.4507 L67.5163,19.4507"/>
            <path d="M67.5163,37.4507 L69.5163,37.4507"/>
            <path d="M69.5163,19.4507 L69.5163,37.4507"/>
            <path d="M67.5163,37.4507 L67.5163,79.4507"/>
            <path d="M69.5163,37.4507 L69.5163,37.4507"/>
            <path d="M69.5163,79.4507 L69.5163,37.4507"/>
        </g>
    <g ifc:guid="0Id4KxpdHEMOW4JoAZQ5oZ" ifc:name="Furniture" class="IfcFurniture material-null cut"><path d="M56.780128479003906,131.45073187553277 L53.53536605834961,131.45073187553277"/><path d="M56.780128479003906,130.45073282920708 L53.53536605834961,130.45073282920708"/><path d="M53.53536605834961,130.45073282920708 L53.53536605834961,130.72113287650933"/><path d="M53.53536605834961,131.45073187553277 L53.53536605834961,130.72113287650933"/><path d="M65.53536415100098,131.45073187553277 L56.780128479003906,131.45073187553277"/><path d="M65.53536415100098,130.45073282920708 L56.780128479003906,130.45073282920708"/><path d="M65.53536415100098,130.45073282920708 L65.53536415100098,131.1803365966021"/><path d="M65.53536415100098,131.45073187553277 L65.53536415100098,131.1803365966021"/></g><g ifc:guid="2fc_PSvD53WgEGyJAS2KSK" ifc:name="Stair" class="IfcStair material-concrete cut"><path d="M174.51632976531982,89.0997017642199 L174.51632976531982,90.32943618499627 L176.04093074798584,90.32943618499627 L189.51632976531982,90.32943022453179 L189.51632976531982,89.099700572127 L189.51632976531982,88.86987459861626 L189.51632976531982,88.5344101210772 L189.51632976531982,87.99870264732232 L189.51632976531982,87.00723898612847 L189.51632976531982,84.54778027736535 L189.51632976531982,80.93601060115685 L189.51632976531982,80.45071912013879 L175.06259441375732,80.45071971618523 L174.51632976531982,80.45071971618523 L174.51632976531982,80.93600642883172 L174.51632976531982,84.54777610504021 L174.51632976531982,87.00724017822137 L174.51632976531982,87.9987086077868 L174.51632976531982,88.5344113131701 L174.51632976531982,88.86988055908074 Z"/></g><g ifc:guid="2zRZOlWff79vT6UqNynHsZ" ifc:name="Door" class="IfcDoor material-null cut"><path d="M173.4163236618042,37.24705708228935 L173.4163236618042,37.950725676649704"/><path d="M173.51632595062256,37.950725676649704 L173.51632595062256,37.24705708228935"/><path d="M173.51632595062256,37.950725676649704 L173.49040508270264,37.950725676649704"/><path d="M173.4163236618042,37.950725676649704 L173.49040508270264,37.950725676649704"/><path d="M173.4163236618042,36.9507313986956 L173.4163236618042,37.24705708228935"/><path d="M173.51632595062256,36.9507313986956 L173.51632595062256,37.24705708228935"/><path d="M173.51632595062256,36.9507313986956 L173.44455242156982,36.9507313986956"/><path d="M173.4163236618042,36.9507313986956 L173.44455242156982,36.9507313986956"/><path d="M174.51632976531982,38.11022770606865 L174.51632976531982,38.45072758399834"/><path d="M174.61633205413818,38.11022770606865 L174.61633205413818,38.45072758399834"/><path d="M174.61633205413818,38.45072758399834 L174.59174633026123,38.45072758399834"/><path d="M174.51632976531982,38.45072758399834 L174.59174633026123,38.45072758399834"/><path d="M174.51632976531982,36.9507313986956 L174.51632976531982,38.11022770606865"/><path d="M174.61633205413818,38.11022770606865 L174.61633205413818,36.9507313986956"/><path d="M174.61633205413818,36.9507313986956 L174.54455852508545,36.9507313986956"/><path d="M174.51632976531982,36.9507313986956 L174.54455852508545,36.9507313986956"/><path d="M172.5163221359253,78.95072382890572 L174.0245008468628,78.95072382890572"/><path d="M172.5163221359253,79.45072573625436 L174.0245008468628,79.45072573625436"/><path d="M172.5163221359253,79.45072573625436 L172.5163221359253,79.3277685066401"/><path d="M172.5163221359253,78.95072382890572 L172.5163221359253,79.3277685066401"/><path d="M174.0245008468628,78.95072382890572 L174.51632976531982,78.9507235308825"/><path d="M174.51632976531982,79.45072543823113 L174.0245008468628,79.45072573625436"/><path d="M174.51632976531982,79.45072543823113 L174.51632976531982,79.07368552886834"/><path d="M174.51632976531982,78.9507235308825 L174.51632976531982,79.07368552886834"/><path d="M173.31634044647217,37.950725676649704 L173.83483409881592,37.950725676649704"/><path d="M173.31634044647217,78.95072382890572 L173.83483409881592,78.95072382890572"/><path d="M173.31634044647217,78.95072382890572 L173.31634044647217,68.31981551849236"/><path d="M173.31634044647217,37.950725676649704 L173.31634044647217,68.31981551849236"/><path d="M173.83483409881592,37.950725676649704 L174.01633739471436,37.950725676649704"/><path d="M174.01633739471436,78.95072382890572 L173.83483409881592,78.95072382890572"/><path d="M174.01633739471436,78.95072382890572 L174.01633739471436,48.58162892066826"/><path d="M174.01633739471436,37.950725676649704 L174.01633739471436,48.58162892066826"/><path d="M174.01633739471436,37.736330153578415 L174.01633739471436,38.45072758399834"/><path d="M174.51632976531982,38.45072758399834 L174.51632976531982,37.736330153578415"/><path d="M174.51632976531982,38.45072758399834 L174.39338207244873,38.45072758399834"/><path d="M174.01633739471436,38.45072758399834 L174.39338207244873,38.45072758399834"/><path d="M174.01633739471436,37.45072376930107 L174.01633739471436,37.736330153578415"/><path d="M174.51632976531982,37.45072376930107 L174.51632976531982,37.736330153578415"/><path d="M174.51632976531982,37.45072376930107 L174.15198802947998,37.45072376930107"/><path d="M174.01633739471436,37.45072376930107 L174.15198802947998,37.45072376930107"/><path d="M173.51632595062256,37.824411513441696 L173.51632595062256,37.95073521339287"/><path d="M174.01633739471436,37.824411513441696 L174.01633739471436,37.95073521339287"/><path d="M174.01633739471436,37.95073521339287 L173.8866949081421,37.95073521339287"/><path d="M173.51632595062256,37.95073521339287 L173.8866949081421,37.95073521339287"/><path d="M173.51632595062256,37.45072376930107 L173.51632595062256,37.824411513441696"/><path d="M174.01633739471436,37.824411513441696 L174.01633739471436,37.45072376930107"/><path d="M174.01633739471436,37.45072376930107 L173.6519956588745,37.45072376930107"/><path d="M173.51632595062256,37.45072376930107 L173.6519956588745,37.45072376930107"/></g><g ifc:guid="2DsM6HY3r6I8v4qLEZVti6" ifc:name="Window" class="IfcWindow material-null cut"><path d="M68.76628398895264,40.85073006355156 L68.76628398895264,59.53103554450859"/><path d="M68.96628856658936,40.85073006355156 L68.96628856658936,59.53103554450859"/><path d="M68.96628856658936,40.85073006355156 L68.87242794036865,40.85073006355156"/><path d="M68.87242794036865,40.85073006355156 L68.76628398895264,40.85073006355156"/><path d="M68.76628398895264,76.05073039435734 L68.76628398895264,59.53103554450859"/><path d="M68.96628856658936,59.53103554450859 L68.96628856658936,76.05073031985154"/><path d="M68.96628856658936,76.05073031985154 L68.8601541519165,76.05073039435734"/><path d="M68.8601541519165,76.05073039435734 L68.76628398895264,76.05073039435734"/><path d="M68.5162878036499,76.65235099398484 L68.5162878036499,76.05073039435734"/><path d="M69.21628475189209,76.05073031985154 L69.21628475189209,76.65235099398484"/><path d="M69.21628475189209,76.05073031985154 L68.84479999542236,76.05073039435734"/><path d="M68.5162878036499,76.05073039435734 L68.84479999542236,76.05073039435734"/><path d="M68.5162878036499,40.85073006355156 L68.5162878036499,40.24911415778984"/><path d="M69.21628475189209,40.24911415778984 L69.21628475189209,40.85073006355156"/><path d="M69.21628475189209,40.85073006355156 L68.88777256011963,40.85073006355156"/><path d="M68.5162878036499,40.85073006355156 L68.88777256011963,40.85073006355156"/><path d="M68.5162878036499,39.450736167067184 L68.5162878036499,40.24911415778984"/><path d="M69.21628475189209,39.450736167067184 L69.21628475189209,40.24911415778984"/><path d="M69.21628475189209,39.450736167067184 L68.88442516326904,39.450736167067184"/><path d="M68.88442516326904,39.450736167067184 L68.5162878036499,39.450736167067184"/><path d="M68.5162878036499,76.65235099398484 L68.5162878036499,77.45073390209069"/><path d="M69.21628475189209,76.65235099398484 L69.21628475189209,77.45073390209069"/><path d="M69.21628475189209,77.45073390209069 L68.84814739227295,77.45073390209069"/><path d="M68.84814739227295,77.45073390209069 L68.5162878036499,77.45073390209069"/><path d="M68.5162878036499,38.39890015327324 L68.5162878036499,39.450736167067184"/><path d="M69.51629161834717,39.450736167067184 L69.51629161834717,38.39890015327324"/><path d="M69.51629161834717,39.450736167067184 L69.0422010421753,39.450736167067184"/><path d="M68.5162878036499,39.450736167067184 L69.0422010421753,39.450736167067184"/><path d="M68.5162878036499,77.45073390209069 L68.5162878036499,78.50256514751305"/><path d="M69.51629161834717,78.50256484948983 L69.51629161834717,77.45073360406747"/><path d="M69.51629161834717,77.45073360406747 L68.99036884307861,77.45073390209069"/><path d="M68.5162878036499,77.45073390209069 L68.99036884307861,77.45073390209069"/><path d="M68.5162878036499,78.50256514751305 L68.5162878036499,79.45073199474206"/><path d="M69.51629161834717,78.50256484948983 L69.51629161834717,79.45073169671883"/><path d="M69.51629161834717,79.45073169671883 L69.08960819244385,79.45073199474206"/><path d="M68.5162878036499,79.45073199474206 L69.08960819244385,79.45073199474206"/><path d="M68.5162878036499,37.45072853767265 L68.5162878036499,38.39890015327324"/><path d="M69.51629161834717,37.45072853767265 L69.51629161834717,38.39890015327324"/><path d="M69.51629161834717,37.45072853767265 L68.94296169281006,37.45072853767265"/><path d="M68.5162878036499,37.45072853767265 L68.94296169281006,37.45072853767265"/></g><g ifc:guid="0qwiMYZ3f0vP4DqMJ3XU4j" ifc:name="Plane" class="IfcSite material-null cut"><path d="M111.17145538330078,148.45072996818413 L198.84628295898438,148.45072519981255"/><path d="M31.6347599029541,148.45073473655572 L111.17145538330078,148.45072996818413"/><path d="M-98.22872161865234,148.45074427329888 L-96.3229751586914,148.45074427329888"/><path d="M-96.3229751586914,148.45074427329888 L31.6347599029541,148.45073473655572"/></g><g class="IfcSlab 2fFiN3tAjCBf1D4XaowWv2 cut 2pWM7wRHr4pgwiEH9VK23v 1rgnUs3B10dg6Jwpu$0F$c 1GQpM35fH3mud8qreWJs5m material-null"><path d="M67.516,18.976 L67.516,19.451 L92.596,19.451 L174.516,19.451 L174.516,18.647 L174.516,17.451 L92.596,17.451 L67.516,17.451 Z"/></g><g class="IfcSlab 2fFiN3tAjCBf1D4XaowWv2 cut 2pWM7wRHr4pgwiEH9VK23v 1rgnUs3B10dg6Jwpu$0F$c 1GQpM35fH3mud8qreWJs5m material-null"><path d="M31.667,35.451 L31.667,35.818 L31.667,37.451 L40.069,37.451 L67.516,37.451 L67.516,36.982 L67.516,35.451 L40.069,35.451 Z"/></g><g class="IfcSlab 2fFiN3tAjCBf1D4XaowWv2 cut 2pWM7wRHr4pgwiEH9VK23v 1rgnUs3B10dg6Jwpu$0F$c 1GQpM35fH3mud8qreWJs5m material-null"><path d="M174.516,35.451 L174.516,35.919 L174.516,37.451 L188.297,37.451 L192.516,37.451 L192.516,37.084 L192.516,35.451 L188.297,35.451 Z"/></g><g class="IfcSlab 2fFiN3tAjCBf1D4XaowWv2 cut 2pWM7wRHr4pgwiEH9VK23v 1rgnUs3B10dg6Jwpu$0F$c 1GQpM35fH3mud8qreWJs5m material-null"><path d="M31.667,81.451 L65.149,81.451 L174.516,81.451 L174.516,79.919 L174.516,79.451 L65.149,79.451 L31.667,79.451 L31.667,80.982 Z"/></g><g class="IfcSlab 2fFiN3tAjCBf1D4XaowWv2 cut 2pWM7wRHr4pgwiEH9VK23v 1rgnUs3B10dg6Jwpu$0F$c 1GQpM35fH3mud8qreWJs5m material-null"><path d="M16.667,97.451 L25.635,97.451 L31.667,97.451 L31.667,96.647 L31.667,95.451 L22.698,95.451 L16.667,95.451 L16.667,96.255 Z"/></g><g class="IfcSlab cut material-concrete 3jLJIMt6vBfQ5fDJqUQ_KC"><path d="M117.077,139.451 L31.667,139.451 L31.667,143.07 L31.667,148.451 L117.077,148.451 L174.516,148.451 L174.516,144.832 L174.516,139.451 Z"/></g><g class="0eT78AP0PDcA89lMGqApKk material-brick 2mgmtit4j4IQaZH0DwgL1W 3F$hdEWdvDXv3RQCtd5lTu cut 1eQUoEx$1Db9nflAB4ENO_ 24MjNTV0H6J9F9hkFOXqWn IfcWall 09J4fKC0n35RvRODIBhAkN 14XXtytrf0uhsKTiMJEUk0 1MP4p8sWfCVAGE573LRi7L 1LzqDRT25AFf9JUevbNIHB 21wARJFL5CUwphFYQtWTOt"><path d="M67.516,11.017 L67.516,17.451 L68.332,17.451 L69.516,17.451 L69.516,7.839 L69.516,1.451 L68.729,1.451 L67.516,1.451 Z"/></g><g class="0eT78AP0PDcA89lMGqApKk material-brick 2mgmtit4j4IQaZH0DwgL1W 3F$hdEWdvDXv3RQCtd5lTu cut 1eQUoEx$1Db9nflAB4ENO_ 24MjNTV0H6J9F9hkFOXqWn IfcWall 09J4fKC0n35RvRODIBhAkN 14XXtytrf0uhsKTiMJEUk0 1MP4p8sWfCVAGE573LRi7L 1LzqDRT25AFf9JUevbNIHB 21wARJFL5CUwphFYQtWTOt"><path d="M172.516,11.063 L172.516,17.451 L173.303,17.451 L174.516,17.451 L174.516,7.884 L174.516,1.451 L173.701,1.451 L172.516,1.451 Z"/></g><g class="0eT78AP0PDcA89lMGqApKk material-brick 2mgmtit4j4IQaZH0DwgL1W 3F$hdEWdvDXv3RQCtd5lTu cut 1eQUoEx$1Db9nflAB4ENO_ 24MjNTV0H6J9F9hkFOXqWn IfcWall 09J4fKC0n35RvRODIBhAkN 14XXtytrf0uhsKTiMJEUk0 1MP4p8sWfCVAGE573LRi7L 1LzqDRT25AFf9JUevbNIHB 21wARJFL5CUwphFYQtWTOt"><path d="M69.516,23.194 L69.516,19.451 L69.149,19.451 L67.516,19.451 L67.516,24.19 L67.516,37.451 L67.899,37.451 L69.516,37.451 Z"/></g><g class="0eT78AP0PDcA89lMGqApKk material-brick 2mgmtit4j4IQaZH0DwgL1W 3F$hdEWdvDXv3RQCtd5lTu cut 1eQUoEx$1Db9nflAB4ENO_ 24MjNTV0H6J9F9hkFOXqWn IfcWall 09J4fKC0n35RvRODIBhAkN 14XXtytrf0uhsKTiMJEUk0 1MP4p8sWfCVAGE573LRi7L 1LzqDRT25AFf9JUevbNIHB 21wARJFL5CUwphFYQtWTOt"><path d="M173.268,37.451 L174.516,37.451 L174.516,33.768 L174.516,19.451 L172.599,19.451 L169.916,19.451 L169.916,33.768 L169.916,37.451 Z"/></g><g class="0eT78AP0PDcA89lMGqApKk material-brick 2mgmtit4j4IQaZH0DwgL1W 3F$hdEWdvDXv3RQCtd5lTu cut 1eQUoEx$1Db9nflAB4ENO_ 24MjNTV0H6J9F9hkFOXqWn IfcWall 09J4fKC0n35RvRODIBhAkN 14XXtytrf0uhsKTiMJEUk0 1MP4p8sWfCVAGE573LRi7L 1LzqDRT25AFf9JUevbNIHB 21wARJFL5CUwphFYQtWTOt"><path d="M129.916,26.34 L129.916,19.451 L128.312,19.451 L127.916,19.451 L127.916,25.021 L127.916,68.309 L127.916,79.451 L128.473,79.451 L129.916,79.451 L129.916,65.673 Z"/></g><g class="0eT78AP0PDcA89lMGqApKk material-brick 2mgmtit4j4IQaZH0DwgL1W 3F$hdEWdvDXv3RQCtd5lTu cut 1eQUoEx$1Db9nflAB4ENO_ 24MjNTV0H6J9F9hkFOXqWn IfcWall 09J4fKC0n35RvRODIBhAkN 14XXtytrf0uhsKTiMJEUk0 1MP4p8sWfCVAGE573LRi7L 1LzqDRT25AFf9JUevbNIHB 21wARJFL5CUwphFYQtWTOt"><path d="M147.916,77.239 L147.916,79.451 L147.999,79.451 L149.916,79.451 L149.916,28.412 L149.916,19.451 L149.648,19.451 L147.916,19.451 Z"/></g><g class="0eT78AP0PDcA89lMGqApKk material-brick 2mgmtit4j4IQaZH0DwgL1W 3F$hdEWdvDXv3RQCtd5lTu cut 1eQUoEx$1Db9nflAB4ENO_ 24MjNTV0H6J9F9hkFOXqWn IfcWall 09J4fKC0n35RvRODIBhAkN 14XXtytrf0uhsKTiMJEUk0 1MP4p8sWfCVAGE573LRi7L 1LzqDRT25AFf9JUevbNIHB 21wARJFL5CUwphFYQtWTOt"><path d="M67.516,112.708 L67.516,139.451 L70.034,139.451 L72.516,139.451 L72.516,109.667 L72.516,79.451 L70.288,79.451 L67.516,79.451 Z"/></g><g class="0eT78AP0PDcA89lMGqApKk material-brick 2mgmtit4j4IQaZH0DwgL1W 3F$hdEWdvDXv3RQCtd5lTu cut 1eQUoEx$1Db9nflAB4ENO_ 24MjNTV0H6J9F9hkFOXqWn IfcWall 09J4fKC0n35RvRODIBhAkN 14XXtytrf0uhsKTiMJEUk0 1MP4p8sWfCVAGE573LRi7L 1LzqDRT25AFf9JUevbNIHB 21wARJFL5CUwphFYQtWTOt"><path d="M174.516,127.018 L174.516,104.315 L174.516,88.153 L174.516,79.451 L172.599,79.451 L169.916,79.451 L169.916,87.846 L169.916,103.437 L169.916,127.458 L169.916,139.451 L172.599,139.451 L174.516,139.451 Z"/></g><g class="0eT78AP0PDcA89lMGqApKk material-brick 2mgmtit4j4IQaZH0DwgL1W 3F$hdEWdvDXv3RQCtd5lTu cut 1eQUoEx$1Db9nflAB4ENO_ 24MjNTV0H6J9F9hkFOXqWn IfcWall 09J4fKC0n35RvRODIBhAkN 14XXtytrf0uhsKTiMJEUk0 1MP4p8sWfCVAGE573LRi7L 1LzqDRT25AFf9JUevbNIHB 21wARJFL5CUwphFYQtWTOt"><path d="M31.667,111.484 L31.667,130.815 L31.667,136.559 L31.667,139.451 L32.172,139.451 L35.267,139.451 L35.267,130.815 L35.267,111.484 L35.267,97.451 L35.267,95.208 L35.267,81.451 L33.152,81.451 L31.667,81.451 L31.667,95.38 L31.667,97.451 Z"/></g><g class="0eT78AP0PDcA89lMGqApKk material-brick 2mgmtit4j4IQaZH0DwgL1W 3F$hdEWdvDXv3RQCtd5lTu cut 1eQUoEx$1Db9nflAB4ENO_ 24MjNTV0H6J9F9hkFOXqWn IfcWall 09J4fKC0n35RvRODIBhAkN 14XXtytrf0uhsKTiMJEUk0 1MP4p8sWfCVAGE573LRi7L 1LzqDRT25AFf9JUevbNIHB 21wARJFL5CUwphFYQtWTOt"><path d="M196.846,148.451 L197.798,148.451 L198.846,148.451 L198.846,132.721 L198.846,118.451 L197.895,118.451 L196.846,118.451 L196.846,134.181 Z"/></g><g class="IfcSlab 2fFiN3tAjCBf1D4XaowWv2 cut IfcMaterialLayer 2pWM7wRHr4pgwiEH9VK23v 1rgnUs3B10dg6Jwpu$0F$c 1GQpM35fH3mud8qreWJs5m material-null layer-material-Concrete"><path d="M67.516,19.451 L92.596,19.451 L174.516,19.451 L174.516,18.647 L174.516,17.451 L92.596,17.451 L67.516,17.451 L67.516,18.976 Z"/></g><g class="IfcSlab 2fFiN3tAjCBf1D4XaowWv2 cut IfcMaterialLayer 2pWM7wRHr4pgwiEH9VK23v 1rgnUs3B10dg6Jwpu$0F$c 1GQpM35fH3mud8qreWJs5m material-null layer-material-Concrete"><path d="M31.667,35.451 L31.667,35.818 L31.667,37.451 L40.069,37.451 L67.516,37.451 L67.516,36.982 L67.516,35.451 L40.069,35.451 Z"/></g><g class="IfcSlab 2fFiN3tAjCBf1D4XaowWv2 cut IfcMaterialLayer 2pWM7wRHr4pgwiEH9VK23v 1rgnUs3B10dg6Jwpu$0F$c 1GQpM35fH3mud8qreWJs5m material-null layer-material-Concrete"><path d="M174.516,35.451 L174.516,35.919 L174.516,37.451 L188.297,37.451 L192.516,37.451 L192.516,37.084 L192.516,35.451 L188.297,35.451 Z"/></g><g class="IfcSlab 2fFiN3tAjCBf1D4XaowWv2 cut IfcMaterialLayer 2pWM7wRHr4pgwiEH9VK23v 1rgnUs3B10dg6Jwpu$0F$c 1GQpM35fH3mud8qreWJs5m material-null layer-material-Concrete"><path d="M31.667,81.451 L65.149,81.451 L174.516,81.451 L174.516,79.919 L174.516,79.451 L65.149,79.451 L31.667,79.451 L31.667,80.982 Z"/></g><g class="IfcSlab 2fFiN3tAjCBf1D4XaowWv2 cut IfcMaterialLayer 2pWM7wRHr4pgwiEH9VK23v 1rgnUs3B10dg6Jwpu$0F$c 1GQpM35fH3mud8qreWJs5m material-null layer-material-Concrete"><path d="M16.667,97.451 L25.635,97.451 L31.667,97.451 L31.667,96.647 L31.667,95.451 L22.698,95.451 L16.667,95.451 L16.667,96.255 Z"/></g><g class="IfcSlab material-concrete cut IfcMaterialLayer 3jLJIMt6vBfQ5fDJqUQ_KC layer-material-Concrete"><path d="M117.077,139.451 L31.667,139.451 L31.667,143.07 L31.667,148.451 L117.077,148.451 L174.516,148.451 L174.516,144.832 L174.516,139.451 Z"/></g><g class="0eT78AP0PDcA89lMGqApKk material-brick 2mgmtit4j4IQaZH0DwgL1W 3F$hdEWdvDXv3RQCtd5lTu layer-material-Unknown cut 1eQUoEx$1Db9nflAB4ENO_ 24MjNTV0H6J9F9hkFOXqWn IfcWall 09J4fKC0n35RvRODIBhAkN 14XXtytrf0uhsKTiMJEUk0 1MP4p8sWfCVAGE573LRi7L 1LzqDRT25AFf9JUevbNIHB 21wARJFL5CUwphFYQtWTOt IfcMaterialLayer"><path d="M67.516,11.017 L67.516,17.451 L68.332,17.451 L69.516,17.451 L69.516,7.839 L69.516,1.451 L68.729,1.451 L67.516,1.451 Z"/></g><g class="0eT78AP0PDcA89lMGqApKk material-brick 2mgmtit4j4IQaZH0DwgL1W 3F$hdEWdvDXv3RQCtd5lTu layer-material-Unknown cut 1eQUoEx$1Db9nflAB4ENO_ 24MjNTV0H6J9F9hkFOXqWn IfcWall 09J4fKC0n35RvRODIBhAkN 14XXtytrf0uhsKTiMJEUk0 1MP4p8sWfCVAGE573LRi7L 1LzqDRT25AFf9JUevbNIHB 21wARJFL5CUwphFYQtWTOt IfcMaterialLayer"><path d="M172.516,11.063 L172.516,17.451 L173.303,17.451 L174.516,17.451 L174.516,7.884 L174.516,1.451 L173.701,1.451 L172.516,1.451 Z"/></g><g class="0eT78AP0PDcA89lMGqApKk material-brick 2mgmtit4j4IQaZH0DwgL1W 3F$hdEWdvDXv3RQCtd5lTu layer-material-Unknown cut 1eQUoEx$1Db9nflAB4ENO_ 24MjNTV0H6J9F9hkFOXqWn IfcWall 09J4fKC0n35RvRODIBhAkN 14XXtytrf0uhsKTiMJEUk0 1MP4p8sWfCVAGE573LRi7L 1LzqDRT25AFf9JUevbNIHB 21wARJFL5CUwphFYQtWTOt IfcMaterialLayer"><path d="M69.516,23.194 L69.516,19.451 L69.149,19.451 L67.516,19.451 L67.516,24.19 L67.516,37.451 L67.899,37.451 L69.516,37.451 Z"/></g><g class="0eT78AP0PDcA89lMGqApKk material-brick 2mgmtit4j4IQaZH0DwgL1W 3F$hdEWdvDXv3RQCtd5lTu layer-material-Unknown cut 1eQUoEx$1Db9nflAB4ENO_ 24MjNTV0H6J9F9hkFOXqWn IfcWall 09J4fKC0n35RvRODIBhAkN 14XXtytrf0uhsKTiMJEUk0 1MP4p8sWfCVAGE573LRi7L 1LzqDRT25AFf9JUevbNIHB 21wARJFL5CUwphFYQtWTOt IfcMaterialLayer"><path d="M173.268,37.451 L174.516,37.451 L174.516,33.768 L174.516,19.451 L172.599,19.451 L169.916,19.451 L169.916,33.768 L169.916,37.451 Z"/></g><g class="0eT78AP0PDcA89lMGqApKk material-brick 2mgmtit4j4IQaZH0DwgL1W 3F$hdEWdvDXv3RQCtd5lTu layer-material-Unknown cut 1eQUoEx$1Db9nflAB4ENO_ 24MjNTV0H6J9F9hkFOXqWn IfcWall 09J4fKC0n35RvRODIBhAkN 14XXtytrf0uhsKTiMJEUk0 1MP4p8sWfCVAGE573LRi7L 1LzqDRT25AFf9JUevbNIHB 21wARJFL5CUwphFYQtWTOt IfcMaterialLayer"><path d="M129.916,26.34 L129.916,19.451 L128.312,19.451 L127.916,19.451 L127.916,25.021 L127.916,68.309 L127.916,79.451 L128.473,79.451 L129.916,79.451 L129.916,65.673 Z"/></g><g class="0eT78AP0PDcA89lMGqApKk material-brick 2mgmtit4j4IQaZH0DwgL1W 3F$hdEWdvDXv3RQCtd5lTu layer-material-Unknown cut 1eQUoEx$1Db9nflAB4ENO_ 24MjNTV0H6J9F9hkFOXqWn IfcWall 09J4fKC0n35RvRODIBhAkN 14XXtytrf0uhsKTiMJEUk0 1MP4p8sWfCVAGE573LRi7L 1LzqDRT25AFf9JUevbNIHB 21wARJFL5CUwphFYQtWTOt IfcMaterialLayer"><path d="M147.916,77.239 L147.916,79.451 L147.999,79.451 L149.916,79.451 L149.916,28.412 L149.916,19.451 L149.648,19.451 L147.916,19.451 Z"/></g><g class="0eT78AP0PDcA89lMGqApKk material-brick 2mgmtit4j4IQaZH0DwgL1W 3F$hdEWdvDXv3RQCtd5lTu layer-material-Unknown cut 1eQUoEx$1Db9nflAB4ENO_ 24MjNTV0H6J9F9hkFOXqWn IfcWall 09J4fKC0n35RvRODIBhAkN 14XXtytrf0uhsKTiMJEUk0 1MP4p8sWfCVAGE573LRi7L 1LzqDRT25AFf9JUevbNIHB 21wARJFL5CUwphFYQtWTOt IfcMaterialLayer"><path d="M67.516,112.708 L67.516,139.451 L70.034,139.451 L72.516,139.451 L72.516,109.667 L72.516,79.451 L70.288,79.451 L67.516,79.451 Z"/></g><g class="0eT78AP0PDcA89lMGqApKk material-brick 2mgmtit4j4IQaZH0DwgL1W 3F$hdEWdvDXv3RQCtd5lTu layer-material-Unknown cut 1eQUoEx$1Db9nflAB4ENO_ 24MjNTV0H6J9F9hkFOXqWn IfcWall 09J4fKC0n35RvRODIBhAkN 14XXtytrf0uhsKTiMJEUk0 1MP4p8sWfCVAGE573LRi7L 1LzqDRT25AFf9JUevbNIHB 21wARJFL5CUwphFYQtWTOt IfcMaterialLayer"><path d="M174.516,127.018 L174.516,104.315 L174.516,88.153 L174.516,79.451 L172.599,79.451 L169.916,79.451 L169.916,87.846 L169.916,103.437 L169.916,127.458 L169.916,139.451 L172.599,139.451 L174.516,139.451 Z"/></g><g class="0eT78AP0PDcA89lMGqApKk material-brick 2mgmtit4j4IQaZH0DwgL1W 3F$hdEWdvDXv3RQCtd5lTu layer-material-Unknown cut 1eQUoEx$1Db9nflAB4ENO_ 24MjNTV0H6J9F9hkFOXqWn IfcWall 09J4fKC0n35RvRODIBhAkN 14XXtytrf0uhsKTiMJEUk0 1MP4p8sWfCVAGE573LRi7L 1LzqDRT25AFf9JUevbNIHB 21wARJFL5CUwphFYQtWTOt IfcMaterialLayer"><path d="M31.667,111.484 L31.667,130.815 L31.667,136.559 L31.667,139.451 L32.172,139.451 L35.267,139.451 L35.267,130.815 L35.267,111.484 L35.267,97.451 L35.267,95.208 L35.267,81.451 L33.152,81.451 L31.667,81.451 L31.667,95.38 L31.667,97.451 Z"/></g><g class="0eT78AP0PDcA89lMGqApKk material-brick 2mgmtit4j4IQaZH0DwgL1W 3F$hdEWdvDXv3RQCtd5lTu layer-material-Unknown cut 1eQUoEx$1Db9nflAB4ENO_ 24MjNTV0H6J9F9hkFOXqWn IfcWall 09J4fKC0n35RvRODIBhAkN 14XXtytrf0uhsKTiMJEUk0 1MP4p8sWfCVAGE573LRi7L 1LzqDRT25AFf9JUevbNIHB 21wARJFL5CUwphFYQtWTOt IfcMaterialLayer"><path d="M196.846,148.451 L197.798,148.451 L198.846,148.451 L198.846,132.721 L198.846,118.451 L197.895,118.451 L196.846,118.451 L196.846,134.181 Z"/></g><g id="product-9af575a5-6e06-4608-a248-ec27b4451a04" class="IfcColumn material-null projection" ifc:name="Column" ifc:guid="2QzNMbRWP62A98x2UqHHe4">
            <path d="M189.516,148.451 L190.016,148.451"/>
            <path d="M190.016,148.451 L190.016,37.4507"/>
            <path d="M189.516,148.451 L189.516,90.3294"/>
            <path d="M189.516,87.9988 L189.516,37.4507"/>
        </g>
        <g id="product-6d7c6645-8737-4c85-801c-d4628f98e2a1" class="IfcColumn material-null projection" ifc:name="Column" ifc:guid="1jV6P5XpTCXO0Sr6AFcEAX">
            <path d="M33.6669,60.9507 L33.6669,61.4507"/>
            <path d="M33.6669,61.4507 L34.1669,61.4507"/>
            <path d="M34.1669,61.4507 L34.1669,60.9507"/>
            <path d="M34.1669,60.9507 L33.6669,60.9507"/>
        </g>
        <g id="product-4dcd28d0-f571-4be2-add2-64b5b9e627b4" class="IfcColumn material-null projection" ifc:name="Column" ifc:guid="1DpIZGzN5BugtIPBMvvYUq">
            <path d="M33.6669,61.4507 L33.6669,81.4507"/>
            <path d="M33.6669,81.4507 L34.1669,81.4507"/>
            <path d="M34.1669,81.4507 L34.1669,61.4507"/>
            <path d="M33.6669,61.4507 L34.1669,61.4507"/>
        </g>
        <g ifc:guid="1jV6P5XpTCXO0Sr6AFcEAX" ifc:name="Column" class="IfcColumn material-null cut"><path d="M33.99830341339111,60.95073473655571 L33.66692066192627,60.95073473655571 L33.66692066192627,61.119344355696335 L33.66692066192627,61.45072710716118 L33.83553981781006,61.45072710716118 L34.1669225692749,61.45072710716118 L34.1669225692749,61.28211748802055 L34.1669225692749,60.95073473655571 Z"/></g></g>
</svg>