<svg xmlns="http://www.w3.org/2000/svg" xmlns:xlink="http://www.w3.org/1999/xlink" xmlns:ifc="http://www.ifcopenshell.org/ns" width="220mm" height="149.831mm" viewBox="0 0 220 149.831">
    <defs>
        <marker id="arrowend" markerWidth="10" markerHeight="7" refX="10" refY="3.5" orient="auto">
          <polygon points="0 0, 10 3.5, 0 7"/>
        </marker>
        <marker id="arrowstart" markerWidth="10" markerHeight="7" refX="0" refY="3.5" orient="auto">
          <polygon points="10 0, 0 3.5, 10 7"/>
        </marker>
    </defs>
    <g ifc:name="Elevation NORTH SECTION" class="section" ifc:plane="[[1.000000,0.000000,0.000000,0.000000],[0.000000,1.000000,0.000000,0.000000],[0.000000,0.000000,1.000000,0.000000],[0.000000,0.000000,0.000000,1.000000]]" ifc:matrix3="[[20.000000,0.000000,-55.376846],[0.000000,20.000000,148.450747],[0.000000,0.000000,1.000000]]">
        <g id="product-ed553496-dc6e-4ba5-a169-353d1e6be50c" class="IfcSlab material-concrete projection" ifc:name="Slab" ifc:guid="3jLJIMt6vBfQ5fDJqUQ_KC">
            <path d="M31.6669,139.451 L39.2859,139.451"/>
            <path d="M31.6669,148.451 L51.9163,148.451"/>
            <path d="M51.9163,139.451 L51.9163,139.451"/>
            <path d="M31.6669,148.451 L31.6669,139.451"/>
            <path d="M51.9163,139.451 L51.9163,148.451"/>
            <path d="M51.9163,148.451 L174.516,148.451"/>
            <path d="M174.516,148.451 L174.516,139.451"/>
            <path d="M51.9163,139.451 L174.516,139.451"/>
        </g>
        <g id="product-a93ec5c3-dcab-4c2e-904d-121932ea0e42" class="IfcSlab material-null projection" ifc:name="Slab" ifc:guid="2fFiN3tAjCBf1D4XaowWv2">
            <path d="M174.516,79.4507 L67.5163,79.4507"/>
            <path d="M67.5163,81.4507 L67.5163,79.4507"/>
            <path d="M174.516,81.4507 L67.5163,81.4507"/>
            <path d="M174.516,79.4507 L174.516,81.4507"/>
        </g>
        <g id="product-75ab17b6-0cb0-409e-a193-eb3e3f00ffe6" class="IfcSlab material-null projection" ifc:name="Slab" ifc:guid="1rgnUs3B10dg6Jwpu$0F$c">
            <path d="M67.5163,35.4507 L67.5163,35.4507"/>
            <path d="M67.5163,37.4507 L67.5163,37.4507"/>
        </g>
        <g id="product-31b2efc8-799a-470a-aa87-494f1d098062" class="IfcSlab material-null projection" ifc:name="Slab" ifc:guid="0nik$8UPf72gg7IKyT2O1Y">
            <path d="M67.5163,88.4507 L67.5163,88.4507"/>
            <path d="M81.5357,88.4507 L100.419,88.4507"/>
            <path d="M129.241,88.4507 L169.916,88.4507"/>
            <path d="M67.5163,90.4507 L67.5163,90.4507"/>
            <path d="M81.5357,90.4507 L100.419,90.4507"/>
            <path d="M115.716,90.4507 L169.916,90.4507"/>
            <path d="M67.5163,90.4507 L67.5163,88.4507"/>
        </g>
        <g id="product-a2afbf85-97d0-4cbd-a381-755e0b7d17af" class="IfcFurniture material-null projection" ifc:name="Furniture" ifc:guid="2Yhx_5bz1ClQE1TLuBVHUl">
            <path d="M131.061,77.4507 L147.916,77.4507"/>
            <path d="M131.061,82.4507 L131.061,81.4507"/>
            <path d="M131.061,79.4507 L131.061,77.4507"/>
        </g>
        <g id="product-129c453b-ce74-4e59-8804-4f22a3685ca3" class="IfcFurniture material-null projection" ifc:name="Furniture" ifc:guid="0Id4KxpdHEMOW4JoAZQ5oZ">
            <path d="M85.0711,131.451 L85.0711,131.451"/>
            <path d="M85.0711,139.451 L85.0711,131.451"/>
            <path d="M84.0711,139.451 L84.0711,131.451"/>
            <path d="M73.0711,139.451 L73.0711,131.451"/>
            <path d="M74.0711,139.451 L74.0711,131.451"/>
            <path d="M85.0711,130.451 L85.0711,130.451"/>
            <path d="M85.0711,121.451 L73.0711,121.451"/>
            <path d="M73.0711,121.451 L73.0711,130.451"/>
            <path d="M85.0711,121.451 L85.0711,130.451"/>
            <path d="M85.0711,131.451 L85.0711,130.451"/>
            <path d="M85.0711,130.451 L73.0711,130.451"/>
            <path d="M73.0711,130.451 L73.0711,131.451"/>
            <path d="M85.0711,131.451 L73.0711,131.451"/>
        </g>
        <g id="product-b38161fa-6d1d-44ce-aeac-39125f5020f9" class="IfcSlab material-null projection" ifc:name="Slab" ifc:guid="2pWM7wRHr4pgwiEH9VK23v">
            <path d="M67.5163,37.4507 L67.5163,35.4507"/>
            <path d="M55.5163,35.4507 L67.5163,35.4507"/>
            <path d="M55.5163,35.4507 L55.5163,37.4507"/>
            <path d="M55.5163,37.4507 L67.5163,37.4507"/>
            <path d="M192.516,37.4507 L192.516,35.4507"/>
            <path d="M174.516,35.4507 L192.516,35.4507"/>
            <path d="M174.516,35.4507 L174.516,37.4507"/>
            <path d="M174.516,37.4507 L192.516,37.4507"/>
        </g>
        <g id="product-506b3583-1694-43c3-89c8-d35a204f6170" class="IfcSlab material-null projection" ifc:name="Slab" ifc:guid="1GQpM35fH3mud8qreWJs5m">
            <path d="M67.5163,95.4507 L31.6669,95.4507"/>
            <path d="M31.6669,95.4507 L31.6669,95.4507"/>
            <path d="M189.516,95.4507 L174.516,95.4507"/>
            <path d="M189.516,97.4507 L174.516,97.4507"/>
            <path d="M174.516,97.4507 L174.516,95.4507"/>
        </g>
        <g id="product-04165b41-7972-4956-9767-446702c89694" class="IfcDoor material-null projection" ifc:name="Door" ifc:guid="045bj1UN99LfTdH6S2o9QK">
            <path d="M32.4916,97.4507 L32.4916,97.4507"/>
            <path d="M32.3916,97.4507 L32.3916,97.4507"/>
            <path d="M31.3916,139.451 L31.3916,139.451"/>
            <path d="M31.3916,98.4507 L31.3916,98.4507"/>
            <path d="M31.3916,96.9507 L31.3916,139.451"/>
            <path d="M31.2916,96.9507 L31.2916,139.451"/>
            <path d="M31.2916,139.451 L31.3916,139.451"/>
            <path d="M31.2916,96.9507 L31.3916,96.9507"/>
            <path d="M31.0916,118.751 L31.2916,118.751"/>
            <path d="M31.3916,118.751 L31.3916,118.751"/>
            <path d="M31.0916,119.151 L31.2916,119.151"/>
            <path d="M31.3916,119.151 L31.3916,119.151"/>
            <path d="M31.0916,119.151 L31.0916,118.751"/>
            <path d="M31.3916,139.451 L31.6669,139.451"/>
            <path d="M31.3916,97.4507 L31.6669,97.4507"/>
        </g>
        <g id="product-bd6e362f-829a-4727-9746-7b45fcc51da3" class="IfcDoor material-null projection" ifc:name="Door" ifc:guid="2zRZOlWff79vT6UqNynHsZ">
            <path d="M173.416,37.9507 L173.416,37.9507"/>
            <path d="M173.516,36.9507 L173.416,36.9507"/>
            <path d="M173.416,37.9507 L173.416,36.9507"/>
            <path d="M173.416,37.9507 L173.516,37.9507"/>
            <path d="M173.516,37.9507 L173.516,36.9507"/>
            <path d="M174.516,79.4507 L174.516,38.4507"/>
            <path d="M174.616,79.4507 L174.616,38.4507"/>
            <path d="M174.616,38.4507 L174.616,38.4507"/>
            <path d="M174.616,79.4507 L174.516,79.4507"/>
            <path d="M174.616,36.9507 L174.516,36.9507"/>
            <path d="M174.516,38.4507 L174.516,36.9507"/>
            <path d="M174.516,38.4507 L174.616,38.4507"/>
            <path d="M174.616,38.4507 L174.616,36.9507"/>
            <path d="M174.516,79.4507 L174.516,78.9507"/>
            <path d="M172.516,78.9507 L174.516,78.9507"/>
            <path d="M172.516,78.9507 L172.516,79.4507"/>
            <path d="M172.516,79.4507 L174.516,79.4507"/>
            <path d="M174.016,78.9507 L174.016,37.9507"/>
            <path d="M173.316,37.9507 L174.016,37.9507"/>
            <path d="M173.316,37.9507 L173.316,78.9507"/>
            <path d="M173.316,78.9507 L174.016,78.9507"/>
            <path d="M174.016,78.9507 L174.016,38.4507"/>
            <path d="M174.516,79.4507 L174.516,38.4507"/>
            <path d="M174.516,37.4507 L174.016,37.4507"/>
            <path d="M174.016,38.4507 L174.016,37.4507"/>
            <path d="M174.016,38.4507 L174.516,38.4507"/>
            <path d="M174.516,38.4507 L174.516,37.4507"/>
            <path d="M174.016,37.4507 L173.516,37.4507"/>
            <path d="M173.516,37.9507 L173.516,37.4507"/>
            <path d="M173.516,37.9507 L174.016,37.9507"/>
            <path d="M174.016,37.9507 L174.016,37.4507"/>
        </g>
        <g id="product-94590a71-0991-4603-8eef-672098061345" class="IfcDoor material-null projection" ifc:name="Door" ifc:guid="2KMGfn2P560uxlPo2O1XD5">
            <path d="M115.716,138.951 L115.716,138.951"/>
            <path d="M115.716,118.751 L115.716,118.751"/>
            <path d="M115.716,119.151 L115.716,119.151"/>
        </g>
        <g id="product-2ae6c97d-89ef-4467-a05b-82af70b3ce28" class="IfcDoor material-null projection" ifc:name="Door" ifc:guid="0gvibzYUz4Pw1RWgzmiyue">
            <path d="M94.8149,38.4507 L94.8149,79.4507"/>
            <path d="M110.815,38.4507 L94.8149,38.4507"/>
            <path d="M110.815,79.4507 L110.815,38.4507"/>
            <path d="M94.8149,78.9507 L110.815,78.9507"/>
            <path d="M95.3149,58.7507 L97.7149,58.7507"/>
            <path d="M95.3149,59.1507 L97.7149,59.1507"/>
            <path d="M97.7149,59.1507 L97.7149,58.7507"/>
            <path d="M95.3149,59.1507 L95.3149,58.7507"/>
            <path d="M94.8149,78.9507 L110.815,78.9507"/>
        </g>
        <g id="product-a85b3499-f33c-400e-99a6-3ae28ba78386" class="IfcWall material-brick projection" ifc:name="Wall" ifc:guid="2eMpIPypn03fccEkABfuE6">
            <path d="M100.419,139.451 L100.419,81.4507"/>
            <path d="M115.716,139.451 L115.716,81.4507"/>
        </g>
        <g id="product-b0ab0dec-dc4b-4449-a923-44037aa95060" class="IfcWall material-brick projection" ifc:name="Wall" ifc:guid="2mgmtit4j4IQaZH0DwgL1W">
            <path d="M149.916,79.4507 L147.916,79.4507"/>
            <path d="M149.916,24.4507 L149.916,79.4507"/>
            <path d="M149.916,24.4507 L147.916,24.4507"/>
            <path d="M147.916,79.4507 L147.916,24.4507"/>
        </g>
        <g id="product-674e0295-6ac2-4660-8148-7c0f211bb9d7" class="IfcWall material-brick projection" ifc:name="Wall" ifc:guid="1dJWALQi96O858V0yX6xdN">
            <path d="M31.667,68.4507 L33.6669,68.4507"/>
            <path d="M31.667,88.4507 L33.6669,88.4507"/>
            <path d="M33.6669,88.4507 L33.6669,68.4507"/>
            <path d="M31.667,88.4507 L31.667,68.4507"/>
        </g>
        <g id="product-094c4a54-300c-4315-be5b-60d48bacab97" class="IfcWall material-brick projection" ifc:name="Wall" ifc:guid="09J4fKC0n35RvRODIBhAkN">
            <path d="M198.846,148.451 L196.846,148.451"/>
            <path d="M198.846,118.451 L198.846,148.451"/>
            <path d="M198.846,118.451 L196.846,118.451"/>
            <path d="M196.846,148.451 L196.846,118.451"/>
        </g>
        <g id="product-277ed5d0-519a-4c60-b0db-6d0de721d53f" class="IfcWall material-brick projection" ifc:name="Wall" ifc:guid="0dVjNGKPfCOB3RRGtd8TK$">
            <path d="M-73.2445,118.451 L-73.3628,118.451"/>
            <path d="M-73.2445,148.451 L-73.3628,148.451"/>
            <path d="M-73.3628,148.451 L-73.3628,118.451"/>
            <path d="M31.2916,118.451 L-73.2445,118.451"/>
            <path d="M31.617,148.451 L-73.2445,148.451"/>
            <path d="M-73.2445,148.451 L-73.2445,118.451"/>
        </g>
        <g id="product-0c2071cd-cb6c-4070-93ca-43771085f9a3" class="IfcWall material-brick projection" ifc:name="Wall" ifc:guid="0C877Dosn0S9FAGtSGXVcZ">
            <path d="M115.716,139.451 L115.716,90.4507"/>
        </g>
        <g id="product-a75d7c91-cfd1-48fb-984c-27161ed5062f" class="IfcWall material-brick projection" ifc:name="Wall" ifc:guid="2dNNoHpz58_vXC9nOUrGOl">
            <path d="M198.769,118.451 L190.016,118.451"/>
            <path d="M189.516,118.451 L174.516,118.451"/>
            <path d="M196.846,148.451 L190.016,148.451"/>
            <path d="M189.516,148.451 L174.516,148.451"/>
            <path d="M31.6669,148.451 L31.617,148.451"/>
            <path d="M198.769,118.451 L198.769,118.451"/>
        </g>
        <g id="product-7861c6ba-c478-4bac-8a9f-d9509ecbf10c" class="IfcWall material-brick projection" ifc:name="Wall" ifc:guid="1uOSQwn7XBh8gVsL2Uo$4C">
            <path d="M147.916,24.4507 L147.916,24.4507"/>
            <path d="M149.916,24.4507 L149.916,24.4507"/>
        </g>
        <g id="product-cc8fa1fe-9735-465a-b1fc-1df122d3e0ab" class="IfcSlab material-null projection" ifc:name="Slab" ifc:guid="3CZw7_bpL6Mh7y7V4Yq_2h">
            <path d="M100.419,83.4507 L81.5357,83.4507"/>
        </g>
        <g id="product-d529905e-b5de-422b-903c-7cf857228a57" class="IfcWindow material-null projection" ifc:name="Window" ifc:guid="3LAP1UjTv2Av0yVFXN8efN">
            <path d="M87.4541,111.308 L99.4541,111.308"/>
            <path d="M87.4541,111.308 L87.4541,99.3084"/>
            <path d="M87.4541,99.3084 L99.4541,99.3084"/>
            <path d="M99.4541,111.308 L99.4541,99.3084"/>
            <path d="M93.4541,97.3084 L100.419,97.3084"/>
            <path d="M93.4541,113.308 L100.419,113.308"/>
        </g>
        <g id="product-d8854dec-3625-4a34-b2c6-852836a17fd2" class="IfcWindow material-null projection" ifc:name="Window" ifc:guid="3OXKtiDYLADBB6XIWseN$I">
            <path d="M142.064,43.4507 L147.916,43.4507"/>
            <path d="M142.064,67.4507 L147.916,67.4507"/>
            <path d="M147.916,66.4507 L143.064,66.4507"/>
            <path d="M147.916,44.4507 L143.064,44.4507"/>
            <path d="M143.064,66.4507 L143.064,44.4507"/>
            <path d="M142.064,43.4507 L129.916,43.4507"/>
            <path d="M142.064,67.4507 L129.916,67.4507"/>
            <path d="M141.064,66.4507 L129.916,66.4507"/>
            <path d="M141.064,66.4507 L141.064,44.4507"/>
            <path d="M141.064,44.4507 L129.916,44.4507"/>
            <path d="M147.916,42.4507 L129.916,42.4507"/>
            <path d="M147.916,68.4507 L129.916,68.4507"/>
            <path d="M147.916,67.4507 L129.916,67.4507"/>
            <path d="M147.916,43.4507 L129.916,43.4507"/>
        </g>
        <g id="product-ff320a89-9f2c-4187-bf93-19c72ad3e859" class="IfcFurniture material-null projection" ifc:name="Furniture" ifc:guid="3$CWg9don1Xx_J6SSgq_XP">
            <path d="M149.835,81.4507 L149.835,82.4507"/>
            <path d="M149.835,88.1015 L149.835,88.4507"/>
            <path d="M169.835,81.4507 L169.835,88.4507"/>
        </g>
        <g id="product-ccbba25f-e07b-47ed-a388-1785b8a298eb" class="IfcFurniture material-null projection" ifc:name="Furniture" ifc:guid="3Ckw9Vu7j7xQE85uMuefZh">
            <path d="M129.241,81.4507 L129.241,82.4507"/>
            <path d="M129.241,88.0624 L129.241,88.4507"/>
            <path d="M129.241,88.4507 L115.716,88.4507"/>
        </g>
        <g id="product-b48b7371-296f-4a58-9368-380ee01c5e28" class="IfcWall material-brick projection" ifc:name="Wall" ifc:guid="2qYtDnAMzAM9DeE0xW75ue">
            <path d="M51.5163,97.4507 L39.2859,97.4507"/>
            <path d="M31.6669,97.4507 L31.6669,97.4507"/>
            <path d="M51.9163,139.451 L39.2859,139.451"/>
            <path d="M31.6669,139.451 L31.6669,97.4507"/>
        </g>
        <g id="product-f367128d-4cf7-4539-a756-bc32aa598839" class="IfcStair material-null projection" ifc:name="Stair" ifc:guid="3pPnADJFT5EQTMl3AgMOWv">
            <path d="M150.011,87.4507 L129.211,87.4507"/>
            <path d="M150.011,82.4507 L129.211,82.4507"/>
            <path d="M150.011,90.4507 L150.011,90.4507"/>
            <path d="M150.011,88.1015 L150.011,87.4507"/>
            <path d="M150.011,87.4507 L150.011,87.4507"/>
            <path d="M150.011,87.4507 L150.011,82.4507"/>
            <path d="M150.011,82.4507 L150.011,82.4507"/>
            <path d="M129.211,82.4507 L129.211,82.4507"/>
            <path d="M129.211,82.4507 L129.211,87.4507"/>
            <path d="M129.211,87.4507 L129.211,87.4507"/>
            <path d="M129.211,87.4507 L129.211,88.0624"/>
            <path d="M129.211,90.4507 L129.211,90.4507"/>
            <path d="M129.211,90.4507 L129.211,90.4507"/>
        </g>
        <g id="product-a99be65c-e4d1-4382-a390-f1329c094714" class="IfcStair material-concrete projection" ifc:name="Stair" ifc:guid="2fc_PSvD53WgEGyJAS2KSK">
            <path d="M189.516,90.3294 L174.516,90.3294"/>
            <path d="M174.516,85.4507 L189.516,85.4507"/>
            <path d="M174.516,80.4507 L189.516,80.4507"/>
            <path d="M174.516,80.4507 L189.516,80.4507"/>
            <path d="M174.516,90.3294 L174.516,80.4507"/>
            <path d="M189.516,87.9988 L189.516,90.3294"/>
            <path d="M189.516,80.4507 L189.516,80.4507"/>
            <path d="M189.516,80.4507 L189.516,90.3294"/>
        </g>
        <g id="product-60a6e0e7-d031-410b-9f96-507354f608a6" class="IfcSlab material-null projection" ifc:name="Slab" ifc:guid="1Wfk3dq3512v_MK7DKzWYc">
            <path d="M67.5163,95.4507 L51.5163,95.4507"/>
            <path d="M51.5163,97.4507 L51.5163,95.4507"/>
            <path d="M67.5163,97.4507 L51.5163,97.4507"/>
            <path d="M67.5163,95.4507 L67.5163,97.4507"/>
            <path d="M51.5163,95.4507 L31.6669,95.4507"/>
            <path d="M39.2859,97.4507 L31.6669,97.4507"/>
            <path d="M31.6669,97.4507 L31.6669,95.4507"/>
            <path d="M51.5163,95.4507 L51.5163,95.4507"/>
        </g>
        <g id="product-cffeb9ce-827e-4d87-90db-68cde716f778" class="IfcWall material-brick projection" ifc:name="Wall" ifc:guid="3F$hdEWdvDXv3RQCtd5lTu">
            <path d="M129.916,24.4507 L127.916,24.4507"/>
            <path d="M127.916,79.4507 L127.916,24.4507"/>
            <path d="M129.916,79.4507 L127.916,79.4507"/>
            <path d="M129.916,24.4507 L129.916,79.4507"/>
        </g>
        <g id="product-55f7435b-7421-4a3e-9253-7a8e655d244b" class="IfcWall material-brick projection" ifc:name="Wall" ifc:guid="1LzqDRT25AFf9JUevbNIHB">
            <path d="M174.516,123.451 L174.516,123.451"/>
            <path d="M174.516,97.4507 L174.516,97.4507"/>
            <path d="M174.516,123.451 L174.516,97.4507"/>
            <path d="M174.516,79.4507 L169.916,79.4507"/>
            <path d="M169.916,139.451 L169.916,79.4507"/>
            <path d="M174.516,139.451 L169.916,139.451"/>
            <path d="M174.516,79.4507 L174.516,139.451"/>
        </g>
        <g id="product-44861dfc-df5a-40e2-bd94-76c59339eb80" class="IfcWall material-brick projection" ifc:name="Wall" ifc:guid="14XXtytrf0uhsKTiMJEUk0">
            <path d="M174.516,24.4507 L169.916,24.4507"/>
            <path d="M169.916,37.4507 L169.916,24.4507"/>
            <path d="M169.916,37.4507 L174.516,37.4507"/>
            <path d="M174.516,24.4507 L174.516,37.4507"/>
            <path d="M169.916,37.4507 L169.916,79.4507"/>
            <path d="M174.516,37.4507 L174.516,37.4507"/>
        </g>
        <g id="product-ef49af77-bfa1-4876-8a02-87be3218c410" class="IfcWall material-brick projection" ifc:name="Wall" ifc:guid="3lIQztlw58Tee2Xxuo6CGG">
            <path d="M100.419,88.4507 L81.5357,88.4507"/>
        </g>
        <g id="product-55689b8b-4e27-4099-80f7-784fc61578a5" class="IfcSlab material-null projection" ifc:name="Slab" ifc:guid="1LQ9kBJYT0cO3tU4$65NYb">
            <path d="M174.516,22.4507 L67.5163,22.4507"/>
            <path d="M67.5163,24.4507 L67.5163,22.4507"/>
            <path d="M174.516,24.4507 L67.5163,24.4507"/>
            <path d="M174.516,22.4507 L174.516,24.4507"/>
        </g>
        <g id="product-6869ec8e-eff0-4d94-9c69-bca2c439763e" class="IfcWall material-brick projection" ifc:name="Wall" ifc:guid="1eQUoEx$1Db9nflAB4ENO_">
            <path d="M72.5163,139.451 L67.5163,139.451"/>
            <path d="M72.5163,81.4507 L72.5163,139.451"/>
            <path d="M72.5163,81.4507 L67.5163,81.4507"/>
            <path d="M67.5163,139.451 L67.5163,81.4507"/>
        </g>
        <g id="product-c5981e26-841d-4031-b914-a7f7cf97c18b" class="IfcWall material-brick projection" ifc:name="Wall" ifc:guid="35c1ucX1r0CRaKf$VFby6B">
            <path d="M81.5357,139.451 L81.5357,131.451"/>
            <path d="M81.5357,121.451 L81.5357,81.4507"/>
            <path d="M72.5163,139.451 L72.5163,81.4507"/>
        </g>
        <g id="product-3283752b-6d4a-4ec2-aeda-3ede45fdd763" class="IfcWall material-brick projection" ifc:name="Wall" ifc:guid="0oWtKhRKfEmgxQFjv5$TTZ">
            <path d="M67.5163,81.4507 L67.5163,81.4507"/>
            <path d="M67.5163,95.4507 L67.5163,81.4507"/>
        </g>
        <g id="product-845ad5dd-7c04-464c-93c9-aee3d8874831" class="IfcWall material-brick projection" ifc:name="Wall" ifc:guid="24MjNTV0H6J9F9hkFOXqWn">
            <path d="M174.516,22.4507 L172.516,22.4507"/>
            <path d="M174.516,17.4507 L174.516,22.4507"/>
            <path d="M174.516,17.4507 L172.516,17.4507"/>
            <path d="M172.516,22.4507 L172.516,17.4507"/>
        </g>
        <g id="product-c1160eab-6125-4060-aad2-9f8c9da2f9b4" class="IfcWall material-brick projection" ifc:name="Wall" ifc:guid="315WwhOIL0OAhIduoTelcq">
            <path d="M114.056,17.4507 L112.056,17.4507"/>
            <path d="M114.056,22.4507 L114.056,22.4507"/>
            <path d="M112.056,17.4507 L112.056,17.4507"/>
            <path d="M172.516,17.4507 L114.056,17.4507"/>
            <path d="M172.516,22.4507 L114.056,22.4507"/>
            <path d="M114.056,22.4507 L114.056,17.4507"/>
            <path d="M174.516,17.4507 L172.516,17.4507"/>
            <path d="M174.516,22.4507 L174.516,22.4507"/>
            <path d="M172.516,17.4507 L172.516,17.4507"/>
            <path d="M174.516,22.4507 L174.516,17.4507"/>
        </g>
        <g id="product-dd23c3a3-db3e-4579-a3c7-61233d77aeab" class="IfcWall material-brick projection" ifc:name="Wall" ifc:guid="3T8yEZspv5UQF7OICzTwwh">
            <path d="M114.056,17.4507 L114.056,17.4507"/>
            <path d="M114.056,22.4507 L114.056,17.4507"/>
        </g>
        <g id="product-81e8a6d3-3d51-4c7b-aceb-3e26b781d637" class="IfcWall material-brick projection" ifc:name="Wall" ifc:guid="21wARJFL5CUwphFYQtWTOt">
            <path d="M69.5163,22.4507 L67.5163,22.4507"/>
            <path d="M69.5163,17.4507 L69.5163,22.4507"/>
            <path d="M69.5163,17.4507 L67.5163,17.4507"/>
            <path d="M67.5163,22.4507 L67.5163,17.4507"/>
        </g>
        <g id="product-f4bab40b-add6-41ad-82b2-e6f521cf3122" class="IfcWall material-brick projection" ifc:name="Wall" ifc:guid="3qkhGBhTP1hOAovlKXpp4Y">
            <path d="M69.5163,17.4507 L69.5163,17.4507"/>
            <path d="M114.056,17.4507 L69.5163,17.4507"/>
            <path d="M69.5163,22.4507 L69.5163,17.4507"/>
            <path d="M114.056,22.4507 L114.056,17.4507"/>
        </g>
        <g id="product-dc0a5214-49a8-42ad-8f73-e9999a4d609e" class="IfcSlab material-null projection" ifc:name="Slab" ifc:guid="3S2b8KIQX2hOzpwPcQJM2U">
            <path d="M127.917,80.4507 L127.917,80.0507"/>
            <path d="M71.1161,80.0507 L127.917,80.0507"/>
            <path d="M71.1161,80.0507 L71.1161,80.4507"/>
            <path d="M71.1161,80.4507 L127.917,80.4507"/>
            <path d="M147.876,80.4507 L147.876,80.0507"/>
            <path d="M129.916,80.0507 L147.876,80.0507"/>
            <path d="M129.916,80.0507 L129.916,80.4507"/>
            <path d="M129.916,80.4507 L147.876,80.4507"/>
            <path d="M169.917,80.4507 L169.917,80.0507"/>
            <path d="M149.916,80.0507 L169.917,80.0507"/>
            <path d="M149.916,80.0507 L149.916,80.4507"/>
            <path d="M149.916,80.4507 L169.917,80.4507"/>
        </g>
        <g id="product-46c4d34d-e6e4-465d-8995-086b1be65a23" class="IfcSlab material-null projection" ifc:name="Slab" ifc:guid="16nDDDvkH6NOcL26iRvbeZ">
            <path d="M67.5163,139.851 L67.5163,139.451"/>
            <path d="M55.5163,139.451 L67.5163,139.451"/>
            <path d="M55.5163,139.451 L55.5163,139.851"/>
            <path d="M55.5163,139.851 L67.5163,139.851"/>
            <path d="M72.5163,139.451 L72.5163,139.851"/>
            <path d="M72.5163,139.851 L169.916,139.851"/>
            <path d="M169.916,139.851 L169.916,139.451"/>
            <path d="M72.5163,139.451 L169.916,139.451"/>
            <path d="M31.6669,139.451 L31.6669,139.451"/>
        </g>
        <g id="product-e7ee6d36-1dc8-460f-bfdf-c6ccb80af696" class="IfcWall material-brick projection" ifc:name="Wall" ifc:guid="3dxcqs7SX63x$Vniou2lQM">
            <path d="M115.716,97.4507 L115.716,97.4507"/>
            <path d="M115.716,139.451 L115.716,88.4507"/>
        </g>
        <g id="product-56644cc8-da0a-4c7c-a40e-1470d56ec1d5" class="IfcWall material-brick projection" ifc:name="Wall" ifc:guid="1MP4p8sWfCVAGE573LRi7L">
            <path d="M55.5163,97.4507 L51.9163,97.4507"/>
            <path d="M51.9163,139.451 L51.9163,97.4507"/>
            <path d="M55.5163,139.451 L51.9163,139.451"/>
            <path d="M55.5163,97.4507 L55.5163,139.451"/>
        </g>
        <g id="product-b099e8fa-6012-4c05-9cd9-da1cca205e09" class="IfcWall material-brick projection" ifc:name="Wall" ifc:guid="2mcUZwO19C1PpPsXpA85u9">
            <path d="M174.516,24.4507 L174.516,24.4507"/>
            <path d="M174.516,80.4507 L174.516,79.4507"/>
            <path d="M174.516,35.4507 L174.516,24.4507"/>
            <path d="M147.916,42.4507 L129.916,42.4507"/>
            <path d="M129.916,68.4507 L147.916,68.4507"/>
            <path d="M169.916,88.4507 L169.835,88.4507"/>
        </g>
        <g id="product-2874720a-6406-4d98-a209-bd64342b352e" class="IfcWall material-brick projection" ifc:name="Wall" ifc:guid="0eT78AP0PDcA89lMGqApKk">
            <path d="M71.1163,24.4507 L67.5163,24.4507"/>
            <path d="M67.5163,79.4507 L67.5163,24.4507"/>
            <path d="M71.1163,79.4507 L67.5163,79.4507"/>
            <path d="M71.1163,24.4507 L71.1163,79.4507"/>
        </g>
        <g id="product-bcb827ad-1b93-4692-aeac-4d117d685e71" class="IfcWall material-brick projection" ifc:name="Wall" ifc:guid="2yk2Uj6vD6agwiJH5zQ5vn">
            <path d="M67.5163,81.4507 L67.5163,79.4507"/>
        </g>
        <g id="product-b286925f-6423-4a2a-ba47-95f4eccafa65" class="IfcWall material-brick projection" ifc:name="Wall" ifc:guid="2oXf9VP2DAAhf7bVJiolfb">
            <path d="M174.516,139.451 L174.516,139.451"/>
            <path d="M174.516,139.451 L174.516,97.4507"/>
            <path d="M174.516,95.4507 L174.516,90.3294"/>
            <path d="M85.4541,97.3084 L85.4541,113.308"/>
            <path d="M93.4541,97.3084 L85.4541,97.3084"/>
            <path d="M85.4541,113.308 L93.4541,113.308"/>
            <path d="M100.419,139.451 L85.0711,139.451"/>
            <path d="M84.0711,139.451 L81.5357,139.451"/>
        </g>
        <g id="product-3f61e368-6652-4d7a-9150-5bb92f22c6b2" class="IfcWall material-brick projection" ifc:name="Wall" ifc:guid="0$OUDePb9DUf5GMxal8iQo">
            <path d="M93.8149,37.4507 L93.8149,79.4507"/>
            <path d="M111.815,37.4507 L93.8149,37.4507"/>
            <path d="M111.815,79.4507 L111.815,37.4507"/>
            <path d="M129.916,79.4507 L129.916,24.4507"/>
        </g>
    <g ifc:guid="0Id4KxpdHEMOW4JoAZQ5oZ" ifc:name="Furniture" class="IfcFurniture material-null cut"><path d="M81.94015502929688,131.45073187553277 L73.07107925415039,131.45073187553277"/><path d="M81.94015502929688,130.45073282920708 L73.07107925415039,130.45073282920708"/><path d="M73.07107925415039,130.45073282920708 L73.07107925415039,131.18982565605035"/><path d="M73.07107925415039,131.45073187553277 L73.07107925415039,131.18982565605035"/><path d="M85.07107734680176,131.45073187553277 L81.94015502929688,131.45073187553277"/><path d="M85.07107734680176,130.45073282920708 L81.94015502929688,130.45073282920708"/><path d="M85.07107734680176,130.45073282920708 L85.07107734680176,130.7116438170611"/><path d="M85.07107734680176,131.45073187553277 L85.07107734680176,130.7116438170611"/></g><g ifc:guid="2fc_PSvD53WgEGyJAS2KSK" ifc:name="Stair" class="IfcStair material-concrete cut"><path d="M174.51632976531982,88.5344113131701 L174.51632976531982,88.86988055908074 L174.51632976531982,89.0997017642199 L174.51632976531982,89.26699531280389 L174.51632976531982,90.32943618499627 L187.9917287826538,90.32943022453179 L189.51632976531982,90.32943022453179 L189.51632976531982,89.26699412071099 L189.51632976531982,89.099700572127 L189.51632976531982,88.86987459861626 L189.51632976531982,88.5344101210772 L189.51632976531982,87.99870264732232 L189.51632976531982,87.00723898612847 L189.51632976531982,84.54778027736535 L189.51632976531982,80.93601060115685 L189.51632976531982,80.45071912013879 L188.97006511688232,80.45071912013879 L174.51632976531982,80.45071971618523 L174.51632976531982,80.93600642883172 L174.51632976531982,84.54777610504021 L174.51632976531982,87.00724017822137 L174.51632976531982,87.9987086077868 Z"/></g><g ifc:guid="2zRZOlWff79vT6UqNynHsZ" ifc:name="Door" class="IfcDoor material-null cut"><path d="M173.4163236618042,37.24705708228935 L173.4163236618042,37.950725676649704"/><path d="M173.51632595062256,37.950725676649704 L173.51632595062256,37.24705708228935"/><path d="M173.51632595062256,37.950725676649704 L173.49040508270264,37.950725676649704"/><path d="M173.4163236618042,37.950725676649704 L173.49040508270264,37.950725676649704"/><path d="M173.4163236618042,36.9507313986956 L173.4163236618042,37.24705708228935"/><path d="M173.51632595062256,36.9507313986956 L173.51632595062256,37.24705708228935"/><path d="M173.51632595062256,36.9507313986956 L173.44455242156982,36.9507313986956"/><path d="M173.4163236618042,36.9507313986956 L173.44455242156982,36.9507313986956"/><path d="M174.51632976531982,38.11022770606865 L174.51632976531982,38.45072758399834"/><path d="M174.61633205413818,38.11022770606865 L174.61633205413818,38.45072758399834"/><path d="M174.61633205413818,38.45072758399834 L174.59174633026123,38.45072758399834"/><path d="M174.51632976531982,38.45072758399834 L174.59174633026123,38.45072758399834"/><path d="M174.51632976531982,36.9507313986956 L174.51632976531982,38.11022770606865"/><path d="M174.61633205413818,38.11022770606865 L174.61633205413818,36.9507313986956"/><path d="M174.61633205413818,36.9507313986956 L174.54455852508545,36.9507313986956"/><path d="M174.51632976531982,36.9507313986956 L174.54455852508545,36.9507313986956"/><path d="M172.5163221359253,78.95072382890572 L174.0245008468628,78.95072382890572"/><path d="M172.5163221359253,79.45072573625436 L174.0245008468628,79.45072573625436"/><path d="M172.5163221359253,79.45072573625436 L172.5163221359253,79.3277685066401"/><path d="M172.5163221359253,78.95072382890572 L172.5163221359253,79.3277685066401"/><path d="M174.0245008468628,78.95072382890572 L174.51632976531982,78.9507235308825"/><path d="M174.51632976531982,79.45072543823113 L174.0245008468628,79.45072573625436"/><path d="M174.51632976531982,79.45072543823113 L174.51632976531982,79.07368552886834"/><path d="M174.51632976531982,78.9507235308825 L174.51632976531982,79.07368552886834"/><path d="M173.31634044647217,37.950725676649704 L173.83483409881592,37.950725676649704"/><path d="M173.31634044647217,78.95072382890572 L173.83483409881592,78.95072382890572"/><path d="M173.31634044647217,78.95072382890572 L173.31634044647217,68.31981551849236"/><path d="M173.31634044647217,37.950725676649704 L173.31634044647217,68.31981551849236"/><path d="M173.83483409881592,37.950725676649704 L174.01633739471436,37.950725676649704"/><path d="M174.01633739471436,78.95072382890572 L173.83483409881592,78.95072382890572"/><path d="M174.01633739471436,78.95072382890572 L174.01633739471436,48.58162892066826"/><path d="M174.01633739471436,37.950725676649704 L174.01633739471436,48.58162892066826"/><path d="M174.01633739471436,37.736330153578415 L174.01633739471436,38.45072758399834"/><path d="M174.51632976531982,38.45072758399834 L174.51632976531982,37.736330153578415"/><path d="M174.51632976531982,38.45072758399834 L174.39338207244873,38.45072758399834"/><path d="M174.01633739471436,38.45072758399834 L174.39338207244873,38.45072758399834"/><path d="M174.01633739471436,37.45072376930107 L174.01633739471436,37.736330153578415"/><path d="M174.51632976531982,37.45072376930107 L174.51632976531982,37.736330153578415"/><path d="M174.51632976531982,37.45072376930107 L174.15198802947998,37.45072376930107"/><path d="M174.01633739471436,37.45072376930107 L174.15198802947998,37.45072376930107"/><path d="M173.51632595062256,37.824411513441696 L173.51632595062256,37.95073521339287"/><path d="M174.01633739471436,37.824411513441696 L174.01633739471436,37.95073521339287"/><path d="M174.01633739471436,37.95073521339287 L173.8866949081421,37.95073521339287"/><path d="M173.51632595062256,37.95073521339287 L173.8866949081421,37.95073521339287"/><path d="M173.51632595062256,37.45072376930107 L173.51632595062256,37.824411513441696"/><path d="M174.01633739471436,37.824411513441696 L174.01633739471436,37.45072376930107"/><path d="M174.01633739471436,37.45072376930107 L173.6519956588745,37.45072376930107"/><path d="M173.51632595062256,37.45072376930107 L173.6519956588745,37.45072376930107"/></g><g ifc:guid="0qwiMYZ3f0vP4DqMJ3XU4j" ifc:name="Plane" class="IfcSite material-null cut"><path d="M111.17145538330078,148.45072996818413 L198.84628295898438,148.45072519981255"/><path d="M31.6347599029541,148.45073473655572 L111.17145538330078,148.45072996818413"/><path d="M-98.22872161865234,148.45074427329888 L-96.3229751586914,148.45074427329888"/><path d="M-96.3229751586914,148.45074427329888 L31.6347599029541,148.45073473655572"/></g><g class="3jLJIMt6vBfQ5fDJqUQ_KC IfcSlab cut material-concrete"><path d="M54.765,139.451 L53.129,139.451 L51.916,139.451 L51.916,147.823 L51.916,148.451 L53.129,148.451 L54.765,148.451 L125.654,148.451 L174.516,148.451 L174.516,144.832 L174.516,139.451 L125.654,139.451 Z"/></g><g class="3S2b8KIQX2hOzpwPcQJM2U cut 1Wfk3dq3512v_MK7DKzWYc IfcSlab 2pWM7wRHr4pgwiEH9VK23v 1LQ9kBJYT0cO3tU4$65NYb 16nDDDvkH6NOcL26iRvbeZ 2fFiN3tAjCBf1D4XaowWv2 material-null"><path d="M67.516,22.92 L67.516,24.451 L101.735,24.451 L126.815,24.451 L174.516,24.451 L174.516,23.255 L174.516,22.451 L126.815,22.451 L101.735,22.451 L67.516,22.451 Z"/></g><g class="3S2b8KIQX2hOzpwPcQJM2U cut 1Wfk3dq3512v_MK7DKzWYc IfcSlab 2pWM7wRHr4pgwiEH9VK23v 1LQ9kBJYT0cO3tU4$65NYb 16nDDDvkH6NOcL26iRvbeZ 2fFiN3tAjCBf1D4XaowWv2 material-null"><path d="M55.516,37.451 L61.313,37.451 L67.516,37.451 L67.516,36.417 L67.516,35.451 L61.313,35.451 L55.516,35.451 L55.516,36.637 Z"/></g><g class="3S2b8KIQX2hOzpwPcQJM2U cut 1Wfk3dq3512v_MK7DKzWYc IfcSlab 2pWM7wRHr4pgwiEH9VK23v 1LQ9kBJYT0cO3tU4$65NYb 16nDDDvkH6NOcL26iRvbeZ 2fFiN3tAjCBf1D4XaowWv2 material-null"><path d="M174.516,36.255 L174.516,37.451 L181.754,37.451 L192.516,37.451 L192.516,36.495 L192.516,35.451 L181.754,35.451 L174.516,35.451 Z"/></g><g class="3S2b8KIQX2hOzpwPcQJM2U cut 1Wfk3dq3512v_MK7DKzWYc IfcSlab 2pWM7wRHr4pgwiEH9VK23v 1LQ9kBJYT0cO3tU4$65NYb 16nDDDvkH6NOcL26iRvbeZ 2fFiN3tAjCBf1D4XaowWv2 material-null"><path d="M67.516,81.451 L149.437,81.451 L174.516,81.451 L174.516,80.982 L174.516,79.451 L92.596,79.451 L67.516,79.451 L67.516,79.92 Z"/></g><g class="3S2b8KIQX2hOzpwPcQJM2U cut 1Wfk3dq3512v_MK7DKzWYc IfcSlab 2pWM7wRHr4pgwiEH9VK23v 1LQ9kBJYT0cO3tU4$65NYb 16nDDDvkH6NOcL26iRvbeZ 2fFiN3tAjCBf1D4XaowWv2 material-null"><path d="M51.516,97.451 L52.631,97.451 L67.516,97.451 L67.516,96.731 L67.516,95.451 L52.631,95.451 L51.516,95.451 L51.516,95.59 Z"/></g><g class="3S2b8KIQX2hOzpwPcQJM2U cut 1Wfk3dq3512v_MK7DKzWYc IfcSlab 2pWM7wRHr4pgwiEH9VK23v 1LQ9kBJYT0cO3tU4$65NYb 16nDDDvkH6NOcL26iRvbeZ 2fFiN3tAjCBf1D4XaowWv2 material-null"><path d="M67.516,139.451 L55.516,139.451 L55.516,139.851 L67.516,139.851 Z"/></g><g class="3S2b8KIQX2hOzpwPcQJM2U cut 1Wfk3dq3512v_MK7DKzWYc IfcSlab 2pWM7wRHr4pgwiEH9VK23v 1LQ9kBJYT0cO3tU4$65NYb 16nDDDvkH6NOcL26iRvbeZ 2fFiN3tAjCBf1D4XaowWv2 material-null"><path d="M169.916,139.451 L72.516,139.451 L72.516,139.851 L169.916,139.851 Z"/></g><g class="21wARJFL5CUwphFYQtWTOt 14XXtytrf0uhsKTiMJEUk0 0eT78AP0PDcA89lMGqApKk cut material-brick 2mgmtit4j4IQaZH0DwgL1W 24MjNTV0H6J9F9hkFOXqWn 09J4fKC0n35RvRODIBhAkN 1LzqDRT25AFf9JUevbNIHB 3F$hdEWdvDXv3RQCtd5lTu 1eQUoEx$1Db9nflAB4ENO_ 1MP4p8sWfCVAGE573LRi7L IfcWall"><path d="M67.516,18.655 L67.516,22.451 L69.078,22.451 L69.516,22.451 L69.516,21.355 L69.516,17.451 L67.998,17.451 L67.516,17.451 Z"/></g><g class="21wARJFL5CUwphFYQtWTOt 14XXtytrf0uhsKTiMJEUk0 0eT78AP0PDcA89lMGqApKk cut material-brick 2mgmtit4j4IQaZH0DwgL1W 24MjNTV0H6J9F9hkFOXqWn 09J4fKC0n35RvRODIBhAkN 1LzqDRT25AFf9JUevbNIHB 3F$hdEWdvDXv3RQCtd5lTu 1eQUoEx$1Db9nflAB4ENO_ 1MP4p8sWfCVAGE573LRi7L IfcWall"><path d="M172.516,20.455 L172.516,22.451 L173.303,22.451 L174.516,22.451 L174.516,19.461 L174.516,17.451 L173.701,17.451 L172.516,17.451 Z"/></g><g class="21wARJFL5CUwphFYQtWTOt 14XXtytrf0uhsKTiMJEUk0 0eT78AP0PDcA89lMGqApKk cut material-brick 2mgmtit4j4IQaZH0DwgL1W 24MjNTV0H6J9F9hkFOXqWn 09J4fKC0n35RvRODIBhAkN 1LzqDRT25AFf9JUevbNIHB 3F$hdEWdvDXv3RQCtd5lTu 1eQUoEx$1Db9nflAB4ENO_ 1MP4p8sWfCVAGE573LRi7L IfcWall"><path d="M169.916,37.451 L173.268,37.451 L174.516,37.451 L174.516,34.791 L174.516,24.451 L172.599,24.451 L169.916,24.451 L169.916,34.791 Z"/></g><g class="21wARJFL5CUwphFYQtWTOt 14XXtytrf0uhsKTiMJEUk0 0eT78AP0PDcA89lMGqApKk cut material-brick 2mgmtit4j4IQaZH0DwgL1W 24MjNTV0H6J9F9hkFOXqWn 09J4fKC0n35RvRODIBhAkN 1LzqDRT25AFf9JUevbNIHB 3F$hdEWdvDXv3RQCtd5lTu 1eQUoEx$1Db9nflAB4ENO_ 1MP4p8sWfCVAGE573LRi7L IfcWall"><path d="M71.116,49.412 L71.116,30.869 L71.116,24.451 L70.455,24.451 L67.516,24.451 L67.516,31.398 L67.516,51.467 L67.516,64.013 L67.516,79.451 L70.455,79.451 L71.116,79.451 L71.116,65.187 Z"/></g><g class="21wARJFL5CUwphFYQtWTOt 14XXtytrf0uhsKTiMJEUk0 0eT78AP0PDcA89lMGqApKk cut material-brick 2mgmtit4j4IQaZH0DwgL1W 24MjNTV0H6J9F9hkFOXqWn 09J4fKC0n35RvRODIBhAkN 1LzqDRT25AFf9JUevbNIHB 3F$hdEWdvDXv3RQCtd5lTu 1eQUoEx$1Db9nflAB4ENO_ 1MP4p8sWfCVAGE573LRi7L IfcWall"><path d="M129.916,29.617 L129.916,24.451 L128.312,24.451 L127.916,24.451 L127.916,28.629 L127.916,68.309 L127.916,79.451 L128.473,79.451 L129.916,79.451 L129.916,65.673 Z"/></g><g class="21wARJFL5CUwphFYQtWTOt 14XXtytrf0uhsKTiMJEUk0 0eT78AP0PDcA89lMGqApKk cut material-brick 2mgmtit4j4IQaZH0DwgL1W 24MjNTV0H6J9F9hkFOXqWn 09J4fKC0n35RvRODIBhAkN 1LzqDRT25AFf9JUevbNIHB 3F$hdEWdvDXv3RQCtd5lTu 1eQUoEx$1Db9nflAB4ENO_ 1MP4p8sWfCVAGE573LRi7L IfcWall"><path d="M147.916,77.423 L147.916,79.451 L147.999,79.451 L149.916,79.451 L149.916,32.665 L149.916,24.451 L149.648,24.451 L147.916,24.451 Z"/></g><g class="21wARJFL5CUwphFYQtWTOt 14XXtytrf0uhsKTiMJEUk0 0eT78AP0PDcA89lMGqApKk cut material-brick 2mgmtit4j4IQaZH0DwgL1W 24MjNTV0H6J9F9hkFOXqWn 09J4fKC0n35RvRODIBhAkN 1LzqDRT25AFf9JUevbNIHB 3F$hdEWdvDXv3RQCtd5lTu 1eQUoEx$1Db9nflAB4ENO_ 1MP4p8sWfCVAGE573LRi7L IfcWall"><path d="M174.516,129.741 L174.516,113.963 L174.516,90.374 L174.516,79.451 L172.599,79.451 L169.916,79.451 L169.916,89.974 L169.916,114.897 L169.916,130.097 L169.916,139.451 L172.599,139.451 L174.516,139.451 Z"/></g><g class="21wARJFL5CUwphFYQtWTOt 14XXtytrf0uhsKTiMJEUk0 0eT78AP0PDcA89lMGqApKk cut material-brick 2mgmtit4j4IQaZH0DwgL1W 24MjNTV0H6J9F9hkFOXqWn 09J4fKC0n35RvRODIBhAkN 1LzqDRT25AFf9JUevbNIHB 3F$hdEWdvDXv3RQCtd5lTu 1eQUoEx$1Db9nflAB4ENO_ 1MP4p8sWfCVAGE573LRi7L IfcWall"><path d="M67.516,113.599 L67.516,139.451 L70.034,139.451 L72.516,139.451 L72.516,110.66 L72.516,81.451 L70.288,81.451 L67.516,81.451 Z"/></g><g class="21wARJFL5CUwphFYQtWTOt 14XXtytrf0uhsKTiMJEUk0 0eT78AP0PDcA89lMGqApKk cut material-brick 2mgmtit4j4IQaZH0DwgL1W 24MjNTV0H6J9F9hkFOXqWn 09J4fKC0n35RvRODIBhAkN 1LzqDRT25AFf9JUevbNIHB 3F$hdEWdvDXv3RQCtd5lTu 1eQUoEx$1Db9nflAB4ENO_ 1MP4p8sWfCVAGE573LRi7L IfcWall"><path d="M55.516,133.507 L55.516,107.109 L55.516,97.451 L53.254,97.451 L51.916,97.451 L51.916,107.109 L51.916,133.507 L51.916,137.85 L51.916,139.451 L52.19,139.451 L55.516,139.451 L55.516,137.85 Z"/></g><g class="21wARJFL5CUwphFYQtWTOt 14XXtytrf0uhsKTiMJEUk0 0eT78AP0PDcA89lMGqApKk cut material-brick 2mgmtit4j4IQaZH0DwgL1W 24MjNTV0H6J9F9hkFOXqWn 09J4fKC0n35RvRODIBhAkN 1LzqDRT25AFf9JUevbNIHB 3F$hdEWdvDXv3RQCtd5lTu 1eQUoEx$1Db9nflAB4ENO_ 1MP4p8sWfCVAGE573LRi7L IfcWall"><path d="M196.846,148.451 L197.798,148.451 L198.846,148.451 L198.846,132.721 L198.846,118.451 L197.895,118.451 L196.846,118.451 L196.846,134.181 Z"/></g><g class="cut IfcMaterialLayer IfcSlab 3jLJIMt6vBfQ5fDJqUQ_KC layer-material-Concrete material-concrete"><path d="M54.765,139.451 L53.129,139.451 L51.916,139.451 L51.916,147.823 L51.916,148.451 L53.129,148.451 L54.765,148.451 L125.654,148.451 L174.516,148.451 L174.516,144.832 L174.516,139.451 L125.654,139.451 Z"/></g><g class="3S2b8KIQX2hOzpwPcQJM2U cut IfcMaterialLayer 1Wfk3dq3512v_MK7DKzWYc IfcSlab 2pWM7wRHr4pgwiEH9VK23v 1LQ9kBJYT0cO3tU4$65NYb 16nDDDvkH6NOcL26iRvbeZ layer-material-Concrete 2fFiN3tAjCBf1D4XaowWv2 material-null"><path d="M67.516,22.92 L67.516,24.451 L101.735,24.451 L126.815,24.451 L174.516,24.451 L174.516,23.255 L174.516,22.451 L126.815,22.451 L101.735,22.451 L67.516,22.451 Z"/></g><g class="3S2b8KIQX2hOzpwPcQJM2U cut IfcMaterialLayer 1Wfk3dq3512v_MK7DKzWYc IfcSlab 2pWM7wRHr4pgwiEH9VK23v 1LQ9kBJYT0cO3tU4$65NYb 16nDDDvkH6NOcL26iRvbeZ layer-material-Concrete 2fFiN3tAjCBf1D4XaowWv2 material-null"><path d="M55.516,37.451 L61.313,37.451 L67.516,37.451 L67.516,36.417 L67.516,35.451 L61.313,35.451 L55.516,35.451 L55.516,36.637 Z"/></g><g class="3S2b8KIQX2hOzpwPcQJM2U cut IfcMaterialLayer 1Wfk3dq3512v_MK7DKzWYc IfcSlab 2pWM7wRHr4pgwiEH9VK23v 1LQ9kBJYT0cO3tU4$65NYb 16nDDDvkH6NOcL26iRvbeZ layer-material-Concrete 2fFiN3tAjCBf1D4XaowWv2 material-null"><path d="M174.516,36.255 L174.516,37.451 L181.754,37.451 L192.516,37.451 L192.516,36.495 L192.516,35.451 L181.754,35.451 L174.516,35.451 Z"/></g><g class="3S2b8KIQX2hOzpwPcQJM2U cut IfcMaterialLayer 1Wfk3dq3512v_MK7DKzWYc IfcSlab 2pWM7wRHr4pgwiEH9VK23v 1LQ9kBJYT0cO3tU4$65NYb 16nDDDvkH6NOcL26iRvbeZ layer-material-Concrete 2fFiN3tAjCBf1D4XaowWv2 material-null"><path d="M67.516,81.451 L149.437,81.451 L174.516,81.451 L174.516,80.982 L174.516,79.451 L92.596,79.451 L67.516,79.451 L67.516,79.92 Z"/></g><g class="3S2b8KIQX2hOzpwPcQJM2U cut IfcMaterialLayer 1Wfk3dq3512v_MK7DKzWYc IfcSlab 2pWM7wRHr4pgwiEH9VK23v 1LQ9kBJYT0cO3tU4$65NYb 16nDDDvkH6NOcL26iRvbeZ layer-material-Concrete 2fFiN3tAjCBf1D4XaowWv2 material-null"><path d="M51.516,97.451 L52.631,97.451 L67.516,97.451 L67.516,96.731 L67.516,95.451 L52.631,95.451 L51.516,95.451 L51.516,95.59 Z"/></g><g class="3S2b8KIQX2hOzpwPcQJM2U cut IfcMaterialLayer 1Wfk3dq3512v_MK7DKzWYc IfcSlab 2pWM7wRHr4pgwiEH9VK23v 1LQ9kBJYT0cO3tU4$65NYb 16nDDDvkH6NOcL26iRvbeZ layer-material-Concrete 2fFiN3tAjCBf1D4XaowWv2 material-null"><path d="M67.516,139.451 L55.516,139.451 L55.516,139.651 L67.516,139.651 Z"/></g><g class="3S2b8KIQX2hOzpwPcQJM2U cut IfcMaterialLayer 1Wfk3dq3512v_MK7DKzWYc IfcSlab 2pWM7wRHr4pgwiEH9VK23v 1LQ9kBJYT0cO3tU4$65NYb 16nDDDvkH6NOcL26iRvbeZ layer-material-Concrete 2fFiN3tAjCBf1D4XaowWv2 material-null"><path d="M169.916,139.451 L72.516,139.451 L72.516,139.651 L169.916,139.651 Z"/></g><g class="21wARJFL5CUwphFYQtWTOt 14XXtytrf0uhsKTiMJEUk0 0eT78AP0PDcA89lMGqApKk cut IfcMaterialLayer material-brick 2mgmtit4j4IQaZH0DwgL1W 24MjNTV0H6J9F9hkFOXqWn 09J4fKC0n35RvRODIBhAkN 1LzqDRT25AFf9JUevbNIHB 3F$hdEWdvDXv3RQCtd5lTu layer-material-Unknown 1eQUoEx$1Db9nflAB4ENO_ 1MP4p8sWfCVAGE573LRi7L IfcWall"><path d="M67.516,18.655 L67.516,22.451 L69.078,22.451 L69.516,22.451 L69.516,21.355 L69.516,17.451 L67.998,17.451 L67.516,17.451 Z"/></g><g class="21wARJFL5CUwphFYQtWTOt 14XXtytrf0uhsKTiMJEUk0 0eT78AP0PDcA89lMGqApKk cut IfcMaterialLayer material-brick 2mgmtit4j4IQaZH0DwgL1W 24MjNTV0H6J9F9hkFOXqWn 09J4fKC0n35RvRODIBhAkN 1LzqDRT25AFf9JUevbNIHB 3F$hdEWdvDXv3RQCtd5lTu layer-material-Unknown 1eQUoEx$1Db9nflAB4ENO_ 1MP4p8sWfCVAGE573LRi7L IfcWall"><path d="M172.516,20.455 L172.516,22.451 L173.303,22.451 L174.516,22.451 L174.516,19.461 L174.516,17.451 L173.701,17.451 L172.516,17.451 Z"/></g><g class="21wARJFL5CUwphFYQtWTOt 14XXtytrf0uhsKTiMJEUk0 0eT78AP0PDcA89lMGqApKk cut IfcMaterialLayer material-brick 2mgmtit4j4IQaZH0DwgL1W 24MjNTV0H6J9F9hkFOXqWn 09J4fKC0n35RvRODIBhAkN 1LzqDRT25AFf9JUevbNIHB 3F$hdEWdvDXv3RQCtd5lTu layer-material-Unknown 1eQUoEx$1Db9nflAB4ENO_ 1MP4p8sWfCVAGE573LRi7L IfcWall"><path d="M169.916,37.451 L173.268,37.451 L174.516,37.451 L174.516,34.791 L174.516,24.451 L172.599,24.451 L169.916,24.451 L169.916,34.791 Z"/></g><g class="21wARJFL5CUwphFYQtWTOt 14XXtytrf0uhsKTiMJEUk0 0eT78AP0PDcA89lMGqApKk cut IfcMaterialLayer material-brick 2mgmtit4j4IQaZH0DwgL1W 24MjNTV0H6J9F9hkFOXqWn 09J4fKC0n35RvRODIBhAkN 1LzqDRT25AFf9JUevbNIHB 3F$hdEWdvDXv3RQCtd5lTu layer-material-Unknown 1eQUoEx$1Db9nflAB4ENO_ 1MP4p8sWfCVAGE573LRi7L IfcWall"><path d="M71.116,49.412 L71.116,30.869 L71.116,24.451 L70.455,24.451 L67.516,24.451 L67.516,31.398 L67.516,51.467 L67.516,64.013 L67.516,79.451 L70.455,79.451 L71.116,79.451 L71.116,65.187 Z"/></g><g class="21wARJFL5CUwphFYQtWTOt 14XXtytrf0uhsKTiMJEUk0 0eT78AP0PDcA89lMGqApKk cut IfcMaterialLayer material-brick 2mgmtit4j4IQaZH0DwgL1W 24MjNTV0H6J9F9hkFOXqWn 09J4fKC0n35RvRODIBhAkN 1LzqDRT25AFf9JUevbNIHB 3F$hdEWdvDXv3RQCtd5lTu layer-material-Unknown 1eQUoEx$1Db9nflAB4ENO_ 1MP4p8sWfCVAGE573LRi7L IfcWall"><path d="M129.916,29.617 L129.916,24.451 L128.312,24.451 L127.916,24.451 L127.916,28.629 L127.916,68.309 L127.916,79.451 L128.473,79.451 L129.916,79.451 L129.916,65.673 Z"/></g><g class="21wARJFL5CUwphFYQtWTOt 14XXtytrf0uhsKTiMJEUk0 0eT78AP0PDcA89lMGqApKk cut IfcMaterialLayer material-brick 2mgmtit4j4IQaZH0DwgL1W 24MjNTV0H6J9F9hkFOXqWn 09J4fKC0n35RvRODIBhAkN 1LzqDRT25AFf9JUevbNIHB 3F$hdEWdvDXv3RQCtd5lTu layer-material-Unknown 1eQUoEx$1Db9nflAB4ENO_ 1MP4p8sWfCVAGE573LRi7L IfcWall"><path d="M147.916,77.423 L147.916,79.451 L147.999,79.451 L149.916,79.451 L149.916,32.665 L149.916,24.451 L149.648,24.451 L147.916,24.451 Z"/></g><g class="21wARJFL5CUwphFYQtWTOt 14XXtytrf0uhsKTiMJEUk0 0eT78AP0PDcA89lMGqApKk cut IfcMaterialLayer material-brick 2mgmtit4j4IQaZH0DwgL1W 24MjNTV0H6J9F9hkFOXqWn 09J4fKC0n35RvRODIBhAkN 1LzqDRT25AFf9JUevbNIHB 3F$hdEWdvDXv3RQCtd5lTu layer-material-Unknown 1eQUoEx$1Db9nflAB4ENO_ 1MP4p8sWfCVAGE573LRi7L IfcWall"><path d="M174.516,129.741 L174.516,113.963 L174.516,90.374 L174.516,79.451 L172.599,79.451 L169.916,79.451 L169.916,89.974 L169.916,114.897 L169.916,130.097 L169.916,139.451 L172.599,139.451 L174.516,139.451 Z"/></g><g class="21wARJFL5CUwphFYQtWTOt 14XXtytrf0uhsKTiMJEUk0 0eT78AP0PDcA89lMGqApKk cut IfcMaterialLayer material-brick 2mgmtit4j4IQaZH0DwgL1W 24MjNTV0H6J9F9hkFOXqWn 09J4fKC0n35RvRODIBhAkN 1LzqDRT25AFf9JUevbNIHB 3F$hdEWdvDXv3RQCtd5lTu layer-material-Unknown 1eQUoEx$1Db9nflAB4ENO_ 1MP4p8sWfCVAGE573LRi7L IfcWall"><path d="M67.516,113.599 L67.516,139.451 L70.034,139.451 L72.516,139.451 L72.516,110.66 L72.516,81.451 L70.288,81.451 L67.516,81.451 Z"/></g><g class="21wARJFL5CUwphFYQtWTOt 14XXtytrf0uhsKTiMJEUk0 0eT78AP0PDcA89lMGqApKk cut IfcMaterialLayer material-brick 2mgmtit4j4IQaZH0DwgL1W 24MjNTV0H6J9F9hkFOXqWn 09J4fKC0n35RvRODIBhAkN 1LzqDRT25AFf9JUevbNIHB 3F$hdEWdvDXv3RQCtd5lTu layer-material-Unknown 1eQUoEx$1Db9nflAB4ENO_ 1MP4p8sWfCVAGE573LRi7L IfcWall"><path d="M55.516,133.507 L55.516,107.109 L55.516,97.451 L53.254,97.451 L51.916,97.451 L51.916,107.109 L51.916,133.507 L51.916,137.85 L51.916,139.451 L52.19,139.451 L55.516,139.451 L55.516,137.85 Z"/></g><g class="21wARJFL5CUwphFYQtWTOt 14XXtytrf0uhsKTiMJEUk0 0eT78AP0PDcA89lMGqApKk cut IfcMaterialLayer material-brick 2mgmtit4j4IQaZH0DwgL1W 24MjNTV0H6J9F9hkFOXqWn 09J4fKC0n35RvRODIBhAkN 1LzqDRT25AFf9JUevbNIHB 3F$hdEWdvDXv3RQCtd5lTu layer-material-Unknown 1eQUoEx$1Db9nflAB4ENO_ 1MP4p8sWfCVAGE573LRi7L IfcWall"><path d="M196.846,148.451 L197.798,148.451 L198.846,148.451 L198.846,132.721 L198.846,118.451 L197.895,118.451 L196.846,118.451 L196.846,134.181 Z"/></g><g class="3S2b8KIQX2hOzpwPcQJM2U cut layer-material-Stone IfcMaterialLayer IfcSlab 16nDDDvkH6NOcL26iRvbeZ material-null"><path d="M127.917,80.451 L127.917,80.251 L71.116,80.251 L71.116,80.451 Z"/></g><g class="3S2b8KIQX2hOzpwPcQJM2U cut layer-material-Stone IfcMaterialLayer IfcSlab 16nDDDvkH6NOcL26iRvbeZ material-null"><path d="M129.916,80.251 L129.916,80.451 L147.876,80.451 L147.876,80.251 Z"/></g><g class="3S2b8KIQX2hOzpwPcQJM2U cut layer-material-Stone IfcMaterialLayer IfcSlab 16nDDDvkH6NOcL26iRvbeZ material-null"><path d="M169.917,80.451 L169.917,80.251 L149.916,80.251 L149.916,80.451 Z"/></g><g class="3S2b8KIQX2hOzpwPcQJM2U cut layer-material-Stone IfcMaterialLayer IfcSlab 16nDDDvkH6NOcL26iRvbeZ material-null"><path d="M67.516,139.651 L55.516,139.651 L55.516,139.851 L67.516,139.851 Z"/></g><g class="3S2b8KIQX2hOzpwPcQJM2U cut layer-material-Stone IfcMaterialLayer IfcSlab 16nDDDvkH6NOcL26iRvbeZ material-null"><path d="M169.916,139.651 L72.516,139.651 L72.516,139.851 L169.916,139.851 Z"/></g><g id="product-9af575a5-6e06-4608-a248-ec27b4451a04" class="IfcColumn material-null projection" ifc:name="Column" ifc:guid="2QzNMbRWP62A98x2UqHHe4">
            <path d="M189.516,148.451 L190.016,148.451"/>
            <path d="M190.016,148.451 L190.016,37.4507"/>
            <path d="M189.516,148.451 L189.516,90.3294"/>
            <path d="M189.516,87.9988 L189.516,37.4507"/>
        </g>
        </g>
</svg>