<svg xmlns="http://www.w3.org/2000/svg" xmlns:xlink="http://www.w3.org/1999/xlink" xmlns:ifc="http://www.ifcopenshell.org/ns" width="220mm" height="149.831mm" viewBox="0 0 220 149.831">
    <defs>
        <marker id="arrowend" markerWidth="10" markerHeight="7" refX="10" refY="3.5" orient="auto">
          <polygon points="0 0, 10 3.5, 0 7"/>
        </marker>
        <marker id="arrowstart" markerWidth="10" markerHeight="7" refX="0" refY="3.5" orient="auto">
          <polygon points="10 0, 0 3.5, 10 7"/>
        </marker>
    </defs>
    <g ifc:name="Elevation SOUTH SECTION" class="section" ifc:plane="[[1.000000,0.000000,0.000000,0.000000],[0.000000,1.000000,0.000000,0.000000],[0.000000,0.000000,1.000000,0.000000],[0.000000,0.000000,0.000000,1.000000]]" ifc:matrix3="[[20.000000,0.000000,-14.934959],[0.000000,20.000000,148.285784],[0.000000,0.000000,1.000000]]">
        <g id="product-ed553496-dc6e-4ba5-a169-353d1e6be50c" class="IfcSlab material-concrete projection" ifc:name="Slab" ifc:guid="3jLJIMt6vBfQ5fDJqUQ_KC">
            <path d="M33.5968,139.286 L44.7165,139.286"/>
            <path d="M33.5968,148.286 L33.5968,148.286"/>
            <path d="M44.7771,148.286 L44.8165,148.286"/>
            <path d="M44.8165,148.286 L44.8165,148.286"/>
            <path d="M33.5968,148.286 L33.5968,139.286"/>
            <path d="M44.8165,139.286 L44.8165,148.286"/>
            <path d="M44.8165,148.286 L185.716,148.286"/>
            <path d="M185.716,148.286 L185.716,139.286"/>
            <path d="M44.8165,139.286 L185.716,139.286"/>
        </g>
        <g id="product-a93ec5c3-dcab-4c2e-904d-121932ea0e42" class="IfcSlab material-null projection" ifc:name="Slab" ifc:guid="2fFiN3tAjCBf1D4XaowWv2">
            <path d="M118.816,79.2858 L44.8165,79.2858"/>
            <path d="M44.8165,81.2858 L44.8165,79.2858"/>
            <path d="M118.816,81.2858 L44.8165,81.2858"/>
            <path d="M118.816,79.2858 L118.816,81.2858"/>
        </g>
        <g id="product-a655fe05-b5e3-4cef-abf8-e14238d07b74" class="IfcWall material-brick projection" ifc:name="Wall" ifc:guid="2cLVu5jUDCxwluuK8uq7jq">
            <path d="M61.8164,81.2858 L49.8165,81.2858"/>
            <path d="M61.8164,139.286 L61.8164,81.2858"/>
        </g>
        <g id="product-31b2efc8-799a-470a-aa87-494f1d098062" class="IfcSlab material-null projection" ifc:name="Slab" ifc:guid="0nik$8UPf72gg7IKyT2O1Y">
            <path d="M118.816,88.2858 L118.816,90.2858"/>
            <path d="M118.816,90.2858 L185.716,90.2858"/>
            <path d="M185.716,90.2858 L185.716,88.2858"/>
            <path d="M118.816,88.2858 L185.716,88.2858"/>
        </g>
        <g id="product-75ab17b6-0cb0-409e-a193-eb3e3f00ffe6" class="IfcSlab material-null projection" ifc:name="Slab" ifc:guid="1rgnUs3B10dg6Jwpu$0F$c">
            <path d="M114.217,35.2858 L114.217,37.2858"/>
            <path d="M114.217,37.2858 L185.716,37.2858"/>
            <path d="M185.716,37.2858 L185.716,35.2858"/>
            <path d="M114.217,35.2858 L185.716,35.2858"/>
        </g>
        <g id="product-129c453b-ce74-4e59-8804-4f22a3685ca3" class="IfcFurniture material-null projection" ifc:name="Furniture" ifc:guid="0Id4KxpdHEMOW4JoAZQ5oZ">
            <path d="M100.385,131.286 L99.3847,131.286"/>
            <path d="M99.3847,139.286 L99.3847,131.286"/>
            <path d="M100.385,139.286 L100.385,131.286"/>
            <path d="M100.385,139.286 L100.385,131.286"/>
            <path d="M106.385,131.286 L107.385,131.286"/>
            <path d="M107.385,139.286 L107.385,131.286"/>
            <path d="M106.385,139.286 L106.385,131.286"/>
            <path d="M107.385,131.286 L107.385,131.286"/>
            <path d="M107.385,139.286 L107.385,131.286"/>
            <path d="M107.385,130.286 L106.385,130.286"/>
            <path d="M107.385,121.286 L106.385,121.286"/>
            <path d="M106.385,121.286 L106.385,130.286"/>
            <path d="M107.385,121.286 L107.385,130.286"/>
            <path d="M107.385,131.286 L99.3847,131.286"/>
            <path d="M107.385,130.286 L99.3847,130.286"/>
            <path d="M99.3847,130.286 L99.3847,131.286"/>
            <path d="M107.385,130.286 L107.385,131.286"/>
        </g>
        <g id="product-dee92345-948d-4324-b047-046a8c386d18" class="IfcFurniture material-null projection" ifc:name="Furniture" ifc:guid="3UwID5b8r39B1716gCE6qO">
            <path d="M69.6634,68.2858 L69.6634,79.2858"/>
            <path d="M69.6634,79.2858 L97.0635,79.2858"/>
            <path d="M97.0635,79.2858 L97.0635,68.2858"/>
            <path d="M69.6634,68.2858 L97.0635,68.2858"/>
        </g>
        <g id="product-b38161fa-6d1d-44ce-aeac-39125f5020f9" class="IfcSlab material-null projection" ifc:name="Slab" ifc:guid="2pWM7wRHr4pgwiEH9VK23v">
            <path d="M44.8165,37.2858 L44.8165,35.2858"/>
            <path d="M24.332,35.2858 L44.8165,35.2858"/>
            <path d="M24.332,35.2858 L24.332,37.2858"/>
            <path d="M24.332,37.2858 L44.8165,37.2858"/>
            <path d="M201.716,37.2858 L201.716,35.2858"/>
            <path d="M185.716,35.2858 L201.716,35.2858"/>
            <path d="M185.716,35.2858 L185.716,37.2858"/>
            <path d="M185.716,37.2858 L201.716,37.2858"/>
        </g>
        <g id="product-04165b41-7972-4956-9767-446702c89694" class="IfcDoor material-null projection" ifc:name="Door" ifc:guid="045bj1UN99LfTdH6S2o9QK">
            <path d="M128.816,138.786 L128.816,139.286"/>
            <path d="M129.816,97.2858 L129.816,97.2858"/>
            <path d="M111.116,138.786 L128.316,138.786"/>
            <path d="M128.316,139.286 L128.316,138.786"/>
            <path d="M127.816,118.586 L125.416,118.586"/>
            <path d="M127.816,118.986 L125.416,118.986"/>
            <path d="M125.416,118.986 L125.416,118.586"/>
            <path d="M127.816,118.986 L127.816,118.586"/>
            <path d="M111.116,97.7858 L128.816,97.7858"/>
            <path d="M128.316,138.786 L128.816,138.786"/>
            <path d="M128.816,138.786 L128.816,97.7858"/>
        </g>
        <g id="product-506b3583-1694-43c3-89c8-d35a204f6170" class="IfcSlab material-null projection" ifc:name="Slab" ifc:guid="1GQpM35fH3mud8qreWJs5m">
            <path d="M200.716,95.2858 L185.716,95.2858"/>
            <path d="M185.716,97.2858 L185.716,95.2858"/>
            <path d="M200.716,97.2858 L185.716,97.2858"/>
            <path d="M200.716,95.2858 L200.716,97.2858"/>
        </g>
        <g id="product-2ae6c97d-89ef-4467-a05b-82af70b3ce28" class="IfcDoor material-null projection" ifc:name="Door" ifc:guid="0gvibzYUz4Pw1RWgzmiyue">
            <path d="M116.059,36.7858 L115.959,36.7858"/>
            <path d="M115.959,36.7858 L115.959,37.7858"/>
            <path d="M115.959,37.7858 L116.059,37.7858"/>
            <path d="M116.059,36.7858 L116.059,37.7858"/>
            <path d="M114.959,36.7858 L114.859,36.7858"/>
            <path d="M114.859,36.7858 L114.859,38.2858"/>
            <path d="M114.859,38.2858 L114.959,38.2858"/>
            <path d="M114.959,36.7858 L114.959,38.2858"/>
            <path d="M114.959,38.2858 L114.959,58.5858"/>
            <path d="M114.959,58.9858 L114.959,78.7858"/>
            <path d="M114.859,38.2858 L114.859,58.5858"/>
            <path d="M114.859,58.9858 L114.859,79.2858"/>
            <path d="M114.959,78.7858 L114.959,79.2858"/>
            <path d="M114.959,79.2858 L116.959,79.2858"/>
            <path d="M116.959,79.2858 L116.959,78.7858"/>
            <path d="M114.959,78.7858 L116.959,78.7858"/>
            <path d="M116.559,58.5858 L116.159,58.5858"/>
            <path d="M116.559,58.9858 L116.159,58.9858"/>
            <path d="M116.159,58.9858 L116.159,58.5858"/>
            <path d="M116.559,58.9858 L116.559,58.9858"/>
            <path d="M116.959,58.5858 L116.559,58.5858"/>
            <path d="M116.959,58.9858 L116.559,58.9858"/>
            <path d="M116.559,58.9858 L116.559,58.5858"/>
            <path d="M116.959,58.9858 L116.959,58.5858"/>
            <path d="M115.059,58.5858 L115.459,58.5858"/>
            <path d="M115.059,58.9858 L115.459,58.9858"/>
            <path d="M115.059,58.9858 L115.059,58.9858"/>
            <path d="M114.659,58.5858 L115.059,58.5858"/>
            <path d="M114.659,58.9858 L115.059,58.9858"/>
            <path d="M115.059,58.9858 L115.059,58.5858"/>
            <path d="M114.659,58.9858 L114.659,58.5858"/>
            <path d="M115.459,37.7858 L115.459,78.7858"/>
            <path d="M115.459,78.7858 L116.159,78.7858"/>
            <path d="M116.159,78.7858 L116.159,37.7858"/>
            <path d="M115.459,37.7858 L116.159,37.7858"/>
            <path d="M115.459,37.2858 L114.959,37.2858"/>
            <path d="M114.959,37.2858 L114.959,38.2858"/>
            <path d="M114.959,38.2858 L115.459,38.2858"/>
            <path d="M115.459,37.2858 L115.459,38.2858"/>
            <path d="M114.959,38.2858 L114.959,58.5858"/>
            <path d="M114.959,58.9858 L114.959,78.7858"/>
            <path d="M115.959,37.2858 L115.459,37.2858"/>
            <path d="M115.459,37.2858 L115.459,37.7858"/>
            <path d="M115.459,37.7858 L115.959,37.7858"/>
            <path d="M115.959,37.2858 L115.959,37.7858"/>
        </g>
        <g id="product-ff36a207-4950-4967-be5b-774b89a4ed2d" class="IfcDoor material-Wood projection" ifc:name="Door" ifc:guid="3$Dg87IL19PxvRTqk9fEqj">
            <path d="M44.7165,139.286 L44.7165,139.286"/>
            <path d="M44.7165,97.2858 L44.7165,139.286"/>
            <path d="M44.7165,139.286 L44.8165,139.286"/>
            <path d="M44.7165,118.586 L44.5165,118.586"/>
            <path d="M44.7165,118.986 L44.5165,118.986"/>
            <path d="M44.5165,118.986 L44.5165,118.586"/>
        </g>
        <g id="product-e46f25f7-67ed-451c-abf4-91d3d784ef6c" class="IfcWall material-brick projection" ifc:name="Wall" ifc:guid="3aRoNtP_r57AlqaTFNXEzi">
            <path d="M180.716,90.2858 L133.316,90.2858"/>
            <path d="M133.316,139.286 L133.316,90.2858"/>
        </g>
        <g id="product-eb0606c7-e099-4082-940a-04f24c3751c7" class="IfcWall material-brick projection" ifc:name="Wall" ifc:guid="3h1WR7u9b0WfGA1F9CDr77">
            <path d="M29.3165,128.286 L27.9165,128.286"/>
            <path d="M27.9165,148.286 L27.9165,128.286"/>
            <path d="M29.3165,148.286 L27.9165,148.286"/>
            <path d="M29.3165,128.286 L29.3165,148.286"/>
        </g>
        <g id="product-a85b3499-f33c-400e-99a6-3ae28ba78386" class="IfcWall material-brick projection" ifc:name="Wall" ifc:guid="2eMpIPypn03fccEkABfuE6">
            <path d="M111.116,79.2858 L109.116,79.2858"/>
            <path d="M109.116,139.286 L109.116,79.2858"/>
            <path d="M111.116,139.286 L109.116,139.286"/>
            <path d="M111.116,79.2858 L111.116,139.286"/>
        </g>
        <g id="product-d8f87285-31fa-4960-b7fe-d7bf3c913fca" class="IfcWall material-brick projection" ifc:name="Wall" ifc:guid="3O_7A5CVf9OBV_rxyyaJ$A">
            <path d="M16.4165,144.286 L16.4165,144.286"/>
            <path d="M16.4165,148.286 L14.4165,148.286"/>
            <path d="M14.4165,148.286 L14.4165,148.286"/>
            <path d="M16.4165,148.286 L16.4165,144.286"/>
        </g>
        <g id="product-6645303e-234d-40f3-8172-f15fab9a68b9" class="IfcFurniture material-null projection" ifc:name="Furniture" ifc:guid="1cHJ0_8qr0yu5oyL_hccYv">
            <path d="M91.4571,121.286 L91.4571,121.286"/>
            <path d="M91.4571,121.286 L91.4571,121.286"/>
            <path d="M91.4571,121.286 L91.4571,126.686"/>
            <path d="M91.4571,121.286 L80.4571,121.286"/>
            <path d="M80.4571,121.286 L80.4571,131.286"/>
            <path d="M91.4571,131.286 L91.4571,139.286"/>
            <path d="M91.4571,131.286 L80.4571,131.286"/>
            <path d="M80.4571,131.286 L80.4571,139.286"/>
            <path d="M92.9571,126.686 L92.9571,126.686"/>
            <path d="M92.9571,126.686 L92.9571,126.686"/>
            <path d="M92.9571,126.686 L92.9571,139.286"/>
            <path d="M92.9571,126.686 L92.9571,139.286"/>
            <path d="M92.9571,126.686 L91.4571,126.686"/>
            <path d="M91.4571,139.286 L91.4571,126.686"/>
            <path d="M80.4571,126.686 L80.4571,126.686"/>
            <path d="M80.4571,126.686 L80.4571,126.686"/>
            <path d="M80.4571,126.686 L78.9571,126.686"/>
            <path d="M80.4571,126.686 L80.4571,139.286"/>
            <path d="M78.9571,126.686 L78.9571,139.286"/>
        </g>
        <g id="product-7506072a-87c1-4477-afc1-19a737541d1c" class="IfcFurniture material-null projection" ifc:name="Furniture" ifc:guid="1r1WSgXy54Tw$16QStL1qS">
            <path d="M75.8661,121.286 L75.8661,121.286"/>
            <path d="M75.8661,121.286 L75.8661,121.286"/>
            <path d="M75.8661,121.286 L75.8661,126.686"/>
            <path d="M75.8661,121.286 L64.8661,121.286"/>
            <path d="M64.8661,121.286 L64.8661,131.286"/>
            <path d="M75.8661,131.286 L75.8661,139.286"/>
            <path d="M75.8661,131.286 L64.8661,131.286"/>
            <path d="M64.8661,131.286 L64.8661,139.286"/>
            <path d="M77.3661,126.686 L77.3661,126.686"/>
            <path d="M77.3661,126.686 L77.3661,126.686"/>
            <path d="M77.3661,126.686 L77.3661,139.286"/>
            <path d="M77.3661,126.686 L77.3661,139.286"/>
            <path d="M77.3661,126.686 L75.8661,126.686"/>
            <path d="M75.8661,139.286 L75.8661,126.686"/>
            <path d="M64.8661,126.686 L64.8661,126.686"/>
            <path d="M64.8661,126.686 L64.8661,126.686"/>
            <path d="M64.8661,126.686 L63.3661,126.686"/>
            <path d="M64.8661,126.686 L64.8661,139.286"/>
            <path d="M63.3661,126.686 L63.3661,139.286"/>
        </g>
        <g id="product-30ac477c-4348-4834-bfb9-94bc4c5ab7fd" class="IfcWall material-brick projection" ifc:name="Wall" ifc:guid="0mh4TyGqX8DB_vbBnCMhVz">
            <path d="M190.683,118.286 L189.462,118.286"/>
            <path d="M187.462,118.286 L187.022,118.286"/>
            <path d="M186.022,118.286 L185.716,118.286"/>
            <path d="M189.305,148.286 L100.541,148.286"/>
        </g>
        <g id="product-b2ff2ee8-54db-47d1-a183-9679bab79e8f" class="IfcWall material-brick projection" ifc:name="Wall" ifc:guid="2o$oxeLDj7qQ63bdcwjvwF">
            <path d="M16.4165,144.286 L14.4165,144.286"/>
            <path d="M14.4165,148.286 L14.4165,144.286"/>
            <path d="M16.4165,148.286 L14.4165,148.286"/>
            <path d="M16.4165,144.286 L16.4165,148.286"/>
        </g>
        <g id="product-674e0295-6ac2-4660-8148-7c0f211bb9d7" class="IfcWall material-brick projection" ifc:name="Wall" ifc:guid="1dJWALQi96O858V0yX6xdN">
            <path d="M183.717,68.2858 L185.717,68.2858"/>
            <path d="M185.716,88.2858 L185.717,88.2858"/>
            <path d="M185.717,88.2858 L185.717,86.5484"/>
            <path d="M185.717,85.5484 L185.717,82.2858"/>
            <path d="M185.717,80.2858 L185.717,70.8727"/>
            <path d="M185.717,69.8727 L185.717,68.2858"/>
            <path d="M183.717,72.2858 L183.717,70.8727"/>
            <path d="M183.717,69.8727 L183.717,68.2858"/>
        </g>
        <g id="product-277ed5d0-519a-4c60-b0db-6d0de721d53f" class="IfcWall material-brick projection" ifc:name="Wall" ifc:guid="0dVjNGKPfCOB3RRGtd8TK$">
            <path d="M195.435,118.286 L189.462,118.286"/>
            <path d="M195.438,148.286 L189.305,148.286"/>
            <path d="M197.435,118.286 L197.435,118.286"/>
            <path d="M197.435,148.286 L195.438,148.286"/>
            <path d="M195.438,148.286 L195.438,148.286"/>
            <path d="M197.435,148.286 L197.435,118.286"/>
        </g>
        <g id="product-718f0eab-98bd-4476-9076-73e11be70412" class="IfcWall material-brick projection" ifc:name="Wall" ifc:guid="1nZmwhcBr4Tf1sS_4RvmGI">
            <path d="M16.0906,118.286 L14.4165,118.286"/>
            <path d="M14.4165,144.286 L14.4165,118.286"/>
            <path d="M23.2165,118.286 L16.0906,118.286"/>
            <path d="M100.541,148.286 L44.7771,148.286"/>
            <path d="M33.5968,148.286 L16.0906,148.286"/>
            <path d="M16.0906,144.286 L16.0906,118.286"/>
        </g>
        <g id="product-a75d7c91-cfd1-48fb-984c-27161ed5062f" class="IfcWall material-brick projection" ifc:name="Wall" ifc:guid="2dNNoHpz58_vXC9nOUrGOl">
            <path d="M197.435,148.286 L195.435,148.286"/>
            <path d="M197.435,118.286 L197.435,148.286"/>
            <path d="M197.435,118.286 L195.435,118.286"/>
            <path d="M195.435,148.286 L195.435,118.286"/>
        </g>
        <g id="product-cc8fa1fe-9735-465a-b1fc-1df122d3e0ab" class="IfcSlab material-null projection" ifc:name="Slab" ifc:guid="3CZw7_bpL6Mh7y7V4Yq_2h">
            <path d="M147.794,81.2858 L118.816,81.2858"/>
            <path d="M118.816,83.2858 L118.816,81.2858"/>
            <path d="M147.794,83.2858 L118.816,83.2858"/>
            <path d="M147.794,81.2858 L147.794,83.2858"/>
        </g>
        <g id="product-d529905e-b5de-422b-903c-7cf857228a57" class="IfcWindow material-null projection" ifc:name="Window" ifc:guid="3LAP1UjTv2Av0yVFXN8efN">
            <path d="M180.716,113.143 L180.716,113.143"/>
            <path d="M180.716,97.1435 L180.716,97.1435"/>
            <path d="M180.716,97.1435 L180.716,113.143"/>
        </g>
        <g id="product-65276981-cfd5-4154-9f95-efa025d7e834" class="IfcWindow material-null projection" ifc:name="Window" ifc:guid="1b9sc1pzL1L9_Lxw0br_Wq">
            <path d="M124.17,51.2858 L136.17,51.2858"/>
            <path d="M124.17,51.2858 L124.17,39.2858"/>
            <path d="M124.17,39.2858 L136.17,39.2858"/>
            <path d="M136.17,51.2858 L136.17,39.2858"/>
            <path d="M137.17,52.2858 L137.17,52.2858"/>
            <path d="M137.17,38.2858 L137.17,38.2858"/>
            <path d="M138.17,37.2858 L138.17,53.2858"/>
        </g>
        <g id="product-eb4e52d1-a86f-4028-ba22-b1b00baa2b1a" class="IfcWindow material-null projection" ifc:name="Window" ifc:guid="3hJbBHg6z0ABeYiR0BgYiQ">
            <path d="M78.7908,98.2858 L93.2908,98.2858"/>
            <path d="M78.7908,122.286 L80.4571,122.286"/>
            <path d="M91.4571,122.286 L93.2908,122.286"/>
            <path d="M92.2908,121.286 L79.7908,121.286"/>
            <path d="M92.2908,121.286 L92.2908,99.2858"/>
            <path d="M92.2908,99.2858 L79.7908,99.2858"/>
            <path d="M79.7908,121.286 L79.7908,99.2858"/>
            <path d="M77.7908,99.2858 L77.7908,99.2858"/>
            <path d="M77.7908,121.286 L77.7908,121.286"/>
            <path d="M78.7908,98.2858 L64.2908,98.2858"/>
            <path d="M78.7908,122.286 L75.8661,122.286"/>
            <path d="M64.8661,122.286 L64.2908,122.286"/>
            <path d="M77.7908,121.286 L75.8661,121.286"/>
            <path d="M77.7908,121.286 L77.7908,99.2858"/>
            <path d="M77.7908,99.2858 L65.2908,99.2858"/>
            <path d="M65.2908,121.286 L65.2908,99.2858"/>
            <path d="M93.7165,123.286 L91.4571,123.286"/>
            <path d="M80.4571,123.286 L75.8661,123.286"/>
            <path d="M64.8661,123.286 L63.2908,123.286"/>
            <path d="M63.2908,123.286 L63.2908,97.2858"/>
            <path d="M93.2908,122.286 L91.4571,122.286"/>
            <path d="M80.4571,122.286 L75.8661,122.286"/>
            <path d="M64.8661,122.286 L64.2908,122.286"/>
            <path d="M93.2908,98.2858 L64.2908,98.2858"/>
        </g>
        <g id="product-9fb8c9e3-8245-4f53-90e6-eb2225b56897" class="IfcWindow material-null projection" ifc:name="Window" ifc:guid="2VkCdZWaLFKv3cwo8bjMYN">
            <path d="M45.6165,38.2858 L44.8165,38.2858"/>
            <path d="M45.6165,62.2858 L44.8165,62.2858"/>
            <path d="M45.6165,62.2858 L45.6165,38.2858"/>
            <path d="M44.8165,62.2858 L44.8165,62.2858"/>
            <path d="M44.8165,62.2858 L44.8165,62.2858"/>
            <path d="M46.2165,38.2858 L44.8165,38.2858"/>
            <path d="M44.8165,37.2858 L46.2165,37.2858"/>
            <path d="M46.2165,38.2858 L46.2165,38.2858"/>
            <path d="M46.2165,62.2858 L44.8165,62.2858"/>
            <path d="M46.2165,62.2858 L46.2165,62.2858"/>
            <path d="M46.2165,63.2858 L44.8165,63.2858"/>
            <path d="M46.2165,38.2858 L46.2165,62.2858"/>
            <path d="M46.2165,62.2858 L46.2165,62.2858"/>
            <path d="M46.2165,62.2858 L46.2165,62.2858"/>
            <path d="M46.2165,37.2858 L46.2165,63.2858"/>
            <path d="M46.2165,37.2858 L46.2165,63.2858"/>
            <path d="M44.8165,62.2858 L44.8165,62.2858"/>
            <path d="M44.8165,63.2858 L44.8165,37.2858"/>
            <path d="M44.8165,37.2858 L44.8165,37.2858"/>
            <path d="M44.8165,63.2858 L44.8165,62.2858"/>
            <path d="M44.8165,38.2858 L44.8165,37.2858"/>
        </g>
        <g id="product-2479ba2e-dd40-4304-a152-0c4ac9bb3f47" class="IfcWindow material-null projection" ifc:name="Window" ifc:guid="0aURektK131A5I34h9kpz7">
            <path d="M80.8465,34.2858 L95.3465,34.2858"/>
            <path d="M80.8465,58.2858 L95.3465,58.2858"/>
            <path d="M94.3465,57.2858 L81.8465,57.2858"/>
            <path d="M94.3465,57.2858 L94.3465,35.2858"/>
            <path d="M94.3465,35.2858 L81.8465,35.2858"/>
            <path d="M81.8465,57.2858 L81.8465,35.2858"/>
            <path d="M79.8465,35.2858 L79.8465,35.2858"/>
            <path d="M79.8465,57.2858 L79.8465,57.2858"/>
            <path d="M80.8465,34.2858 L66.3465,34.2858"/>
            <path d="M80.8465,58.2858 L66.3465,58.2858"/>
            <path d="M79.8465,57.2858 L67.3465,57.2858"/>
            <path d="M79.8465,57.2858 L79.8465,35.2858"/>
            <path d="M79.8465,35.2858 L67.3465,35.2858"/>
            <path d="M67.3465,57.2858 L67.3465,35.2858"/>
            <path d="M96.3465,33.2858 L65.3465,33.2858"/>
            <path d="M96.3465,33.2858 L96.3465,59.2858"/>
            <path d="M96.3465,59.2858 L65.3465,59.2858"/>
            <path d="M65.3465,59.2858 L65.3465,33.2858"/>
            <path d="M95.3465,58.2858 L66.3465,58.2858"/>
            <path d="M95.3465,34.2858 L66.3465,34.2858"/>
        </g>
        <g id="product-e60e4a49-2c7e-43b7-b2e0-c9d4afc2270f" class="IfcPipeFitting material-null projection" ifc:name="PipeFitting" ifc:guid="3c3af9B7v3jxBWoTIlmYSF">
            <path d="M149.044,70.8727 L149.294,70.8727"/>
            <path d="M148.711,70.8727 L148.789,70.8346"/>
            <path d="M148.711,70.8727 L149.044,70.8727"/>
            <path d="M149.044,69.8727 L149.294,69.8727"/>
            <path d="M148.598,69.8727 L148.711,69.8727"/>
            <path d="M148.711,69.8727 L149.044,69.8727"/>
            <path d="M154.416,69.8727 L155.098,69.8727"/>
            <path d="M154.416,70.8727 L155.098,70.8727"/>
            <path d="M148.244,70.0191 L148.244,70.0191"/>
            <path d="M148.407,69.9108 L148.407,69.9108"/>
            <path d="M148.598,69.8727 L148.598,69.8727"/>
            <path d="M148.789,69.9108 L148.789,69.9108"/>
            <path d="M149.06,70.1814 L149.06,70.1814"/>
            <path d="M149.098,70.3727 L149.098,70.3727"/>
            <path d="M149.06,70.564 L149.06,70.564"/>
            <path d="M148.952,70.7262 L148.952,70.7262"/>
            <path d="M148.789,70.8346 L148.789,70.8346"/>
            <path d="M148.598,70.8727 L148.598,70.8727"/>
            <path d="M148.407,70.8346 L148.407,70.8346"/>
            <path d="M148.244,70.7262 L148.244,70.7263"/>
            <path d="M148.244,70.7262 L148.244,70.7262"/>
            <path d="M149.06,70.1814 L149.06,70.1814"/>
            <path d="M149.098,70.3727 L149.098,70.3727"/>
            <path d="M149.06,70.564 L149.06,70.564"/>
            <path d="M148.952,70.7262 L148.952,70.7262"/>
            <path d="M148.244,70.7262 L148.244,70.7262"/>
            <path d="M155.098,70.564 L155.098,70.564"/>
            <path d="M155.098,70.7262 L155.098,70.7262"/>
            <path d="M155.098,70.8346 L155.098,70.8346"/>
            <path d="M155.098,70.8346 L155.098,70.8727"/>
            <path d="M155.098,70.7262 L155.098,70.8346"/>
            <path d="M155.098,70.564 L155.098,70.7262"/>
            <path d="M155.098,70.3727 L155.098,70.564"/>
            <path d="M155.098,70.1814 L155.098,70.3727"/>
            <path d="M155.098,70.0191 L155.098,70.1814"/>
            <path d="M155.098,69.9108 L155.098,70.0191"/>
            <path d="M155.098,69.8727 L155.098,69.9108"/>
            <path d="M155.098,69.9108 L155.098,69.9108"/>
            <path d="M155.098,70.0191 L155.098,70.0191"/>
            <path d="M155.098,70.1814 L155.098,70.1814"/>
            <path d="M155.098,70.3727 L155.098,70.3727"/>
            <path d="M149.098,70.3727 L149.098,70.3727"/>
            <path d="M149.06,70.1814 L149.06,70.1814"/>
            <path d="M148.244,70.7262 L148.244,70.7262"/>
            <path d="M148.952,70.7262 L148.952,70.7262"/>
            <path d="M149.06,70.564 L149.06,70.564"/>
        </g>
        <g id="product-c33884ac-d3d1-4990-b410-971b39b4ed42" class="IfcPipeSegment material-null projection" ifc:name="PipeSegment" ifc:guid="33E8Iiqz59aBGGbnivjEr2">
            <path d="M187.462,103.716 L187.462,97.2858"/>
            <path d="M187.462,95.2858 L187.462,86.5484"/>
            <path d="M187.462,85.5484 L187.462,82.2858"/>
            <path d="M187.462,80.2858 L187.462,59.1457"/>
            <path d="M187.462,103.716 L187.462,148.286"/>
            <path d="M189.462,103.716 L189.462,97.2858"/>
            <path d="M189.462,95.2858 L189.462,59.1457"/>
            <path d="M189.462,103.716 L189.462,148.286"/>
            <path d="M188.462,59.1457 L188.462,59.1457"/>
            <path d="M188.702,59.1457 L188.702,59.1457"/>
            <path d="M188.927,59.1457 L188.927,59.1457"/>
            <path d="M189.125,59.1457 L189.125,59.1457"/>
            <path d="M189.285,59.1457 L189.285,59.1457"/>
            <path d="M189.397,59.1457 L189.397,59.1457"/>
            <path d="M189.455,59.1457 L189.455,59.1457"/>
            <path d="M189.455,59.1457 L189.462,59.1457"/>
            <path d="M189.397,59.1457 L189.455,59.1457"/>
            <path d="M189.285,59.1457 L189.397,59.1457"/>
            <path d="M189.125,59.1457 L189.285,59.1457"/>
            <path d="M188.927,59.1457 L189.125,59.1457"/>
            <path d="M188.702,59.1457 L188.927,59.1457"/>
            <path d="M188.462,59.1457 L188.702,59.1457"/>
            <path d="M188.223,59.1457 L188.462,59.1457"/>
            <path d="M187.998,59.1457 L188.223,59.1457"/>
            <path d="M187.799,59.1457 L187.998,59.1457"/>
            <path d="M187.639,59.1457 L187.799,59.1457"/>
            <path d="M187.527,59.1457 L187.639,59.1457"/>
            <path d="M187.47,59.1457 L187.527,59.1457"/>
            <path d="M187.462,59.1457 L187.47,59.1457"/>
            <path d="M187.47,59.1457 L187.47,59.1457"/>
            <path d="M187.527,59.1457 L187.527,59.1457"/>
            <path d="M187.639,59.1457 L187.639,59.1457"/>
            <path d="M187.799,59.1457 L187.799,59.1457"/>
            <path d="M187.998,59.1457 L187.998,59.1457"/>
            <path d="M188.223,59.1457 L188.223,59.1457"/>
            <path d="M188.462,148.286 L188.462,148.286"/>
            <path d="M188.702,148.286 L188.702,148.286"/>
            <path d="M188.927,148.286 L188.927,148.286"/>
            <path d="M189.125,148.286 L189.125,148.286"/>
            <path d="M189.285,148.286 L189.285,148.286"/>
            <path d="M189.397,148.286 L189.397,148.286"/>
            <path d="M189.455,148.286 L189.455,148.286"/>
            <path d="M189.455,148.286 L189.462,148.286"/>
            <path d="M189.397,148.286 L189.455,148.286"/>
            <path d="M189.285,148.286 L189.397,148.286"/>
            <path d="M189.125,148.286 L189.285,148.286"/>
            <path d="M188.927,148.286 L189.125,148.286"/>
            <path d="M188.702,148.286 L188.927,148.286"/>
            <path d="M188.462,148.286 L188.702,148.286"/>
            <path d="M188.223,148.286 L188.462,148.286"/>
            <path d="M187.998,148.286 L188.223,148.286"/>
            <path d="M187.799,148.286 L187.998,148.286"/>
            <path d="M187.639,148.286 L187.799,148.286"/>
            <path d="M187.527,148.286 L187.639,148.286"/>
            <path d="M187.47,148.286 L187.527,148.286"/>
            <path d="M187.462,148.286 L187.47,148.286"/>
            <path d="M187.47,148.286 L187.47,148.286"/>
            <path d="M187.527,148.286 L187.527,148.286"/>
            <path d="M187.639,148.286 L187.639,148.286"/>
            <path d="M187.799,148.286 L187.799,148.286"/>
            <path d="M187.998,148.286 L187.998,148.286"/>
            <path d="M188.223,148.286 L188.223,148.286"/>
        </g>
        <g id="product-9aa0de0f-3a83-41db-b6c2-5948f6dfb5bc" class="IfcPipeSegment material-null projection" ifc:name="PipeSegment" ifc:guid="2QeDuFEeD1sxR2MKZstxMy">
            <path d="M160.554,80.2858 L183.716,80.2858"/>
            <path d="M185.716,80.2858 L186.022,80.2858"/>
            <path d="M187.022,80.2858 L187.462,80.2858"/>
            <path d="M160.554,80.2858 L157.556,80.2858"/>
            <path d="M155.556,80.2858 L154.416,80.2858"/>
            <path d="M160.554,82.2858 L183.716,82.2858"/>
            <path d="M185.716,82.2858 L186.022,82.2858"/>
            <path d="M187.022,82.2858 L187.462,82.2858"/>
            <path d="M160.554,82.2858 L154.416,82.2858"/>
            <path d="M187.47,82.2785 L187.47,82.2785"/>
            <path d="M187.47,82.2208 L187.47,82.2785"/>
            <path d="M187.47,82.1088 L187.47,82.2208"/>
            <path d="M187.47,81.9489 L187.47,82.1088"/>
            <path d="M187.47,81.7505 L187.47,81.9489"/>
            <path d="M187.47,81.5251 L187.47,81.7505"/>
            <path d="M187.47,81.2858 L187.47,81.5251"/>
            <path d="M187.47,81.0465 L187.47,81.2858"/>
            <path d="M187.47,80.821 L187.47,81.0465"/>
            <path d="M187.47,80.6226 L187.47,80.821"/>
            <path d="M187.47,80.4628 L187.47,80.6226"/>
            <path d="M187.47,80.3508 L187.47,80.4628"/>
            <path d="M187.47,80.2931 L187.47,80.3508"/>
            <path d="M187.47,80.293 L187.47,80.2931"/>
        </g>
        <g id="product-5da1585f-6e4c-494a-919c-83a96fb025ce" class="IfcPipeSegment material-null projection" ifc:name="PipeSegment" ifc:guid="1TeLXVRan9If6SWwbli2NE">
            <path d="M186.022,148.286 L186.022,97.2858"/>
            <path d="M186.022,95.2858 L186.022,86.5465"/>
            <path d="M186.022,85.5503 L186.022,60.8518"/>
            <path d="M187.022,148.286 L187.022,97.2858"/>
            <path d="M187.022,95.2858 L187.022,86.5465"/>
            <path d="M187.022,85.5503 L187.022,60.8518"/>
            <path d="M186.522,60.8518 L186.522,60.8518"/>
            <path d="M186.714,60.8518 L186.714,60.8518"/>
            <path d="M186.876,60.8518 L186.876,60.8518"/>
            <path d="M186.984,60.8518 L186.984,60.8518"/>
            <path d="M186.984,60.8518 L187.022,60.8518"/>
            <path d="M186.876,60.8518 L186.984,60.8518"/>
            <path d="M186.714,60.8518 L186.876,60.8518"/>
            <path d="M186.522,60.8518 L186.714,60.8518"/>
            <path d="M186.331,60.8518 L186.522,60.8518"/>
            <path d="M186.169,60.8518 L186.331,60.8518"/>
            <path d="M186.06,60.8518 L186.169,60.8518"/>
            <path d="M186.022,60.8518 L186.06,60.8518"/>
            <path d="M186.06,60.8518 L186.06,60.8518"/>
            <path d="M186.169,60.8518 L186.169,60.8518"/>
            <path d="M186.331,60.8518 L186.331,60.8518"/>
            <path d="M186.522,148.286 L186.522,148.286"/>
            <path d="M186.714,148.286 L186.714,148.286"/>
            <path d="M186.876,148.286 L186.876,148.286"/>
            <path d="M186.984,148.286 L186.984,148.286"/>
            <path d="M186.984,148.286 L187.022,148.286"/>
            <path d="M186.876,148.286 L186.984,148.286"/>
            <path d="M186.714,148.286 L186.876,148.286"/>
            <path d="M186.522,148.286 L186.714,148.286"/>
            <path d="M186.331,148.286 L186.522,148.286"/>
            <path d="M186.169,148.286 L186.331,148.286"/>
            <path d="M186.06,148.286 L186.169,148.286"/>
            <path d="M186.022,148.286 L186.06,148.286"/>
            <path d="M186.06,148.286 L186.06,148.286"/>
            <path d="M186.169,148.286 L186.169,148.286"/>
            <path d="M186.331,148.286 L186.331,148.286"/>
        </g>
        <g id="product-caa11bcf-e8df-41a1-8950-ed560d6a73e7" class="IfcPipeSegment material-null projection" ifc:name="PipeSegment" ifc:guid="3AeHlFwDz1eObGxLODQdFd">
            <path d="M155.098,69.8727 L186.022,69.8727"/>
            <path d="M155.098,70.8727 L186.022,70.8727"/>
            <path d="M155.098,70.564 L155.098,70.564"/>
            <path d="M155.098,70.7262 L155.098,70.7262"/>
            <path d="M155.098,70.8346 L155.098,70.8346"/>
            <path d="M155.098,70.8346 L155.098,70.8727"/>
            <path d="M155.098,70.7262 L155.098,70.8346"/>
            <path d="M155.098,70.564 L155.098,70.7262"/>
            <path d="M155.098,70.3727 L155.098,70.564"/>
            <path d="M155.098,70.1814 L155.098,70.3727"/>
            <path d="M155.098,70.0191 L155.098,70.1814"/>
            <path d="M155.098,69.9108 L155.098,70.0191"/>
            <path d="M155.098,69.8727 L155.098,69.9108"/>
            <path d="M155.098,69.9108 L155.098,69.9108"/>
            <path d="M155.098,70.0191 L155.098,70.0191"/>
            <path d="M155.098,70.1814 L155.098,70.1814"/>
            <path d="M155.098,70.3727 L155.098,70.3727"/>
        </g>
        <g id="product-913be1ac-1db2-4820-960b-c3a908e5f478" class="IfcPipeSegment material-null projection" ifc:name="PipeSegment" ifc:guid="2HE_6i7R9889OBmwa8vVHu">
            <path d="M155.556,76.2858 L155.556,72.2858"/>
            <path d="M155.556,76.2858 L155.556,80.2858"/>
            <path d="M157.556,76.2858 L157.556,72.2858"/>
            <path d="M157.556,76.2858 L157.556,80.2858"/>
            <path d="M156.556,72.2858 L156.556,72.2858"/>
            <path d="M156.796,72.2858 L156.796,72.2858"/>
            <path d="M157.021,72.2858 L157.021,72.2858"/>
            <path d="M157.219,72.2858 L157.219,72.2858"/>
            <path d="M157.379,72.2858 L157.379,72.2858"/>
            <path d="M157.491,72.2858 L157.491,72.2858"/>
            <path d="M157.549,72.2858 L157.549,72.2858"/>
            <path d="M157.549,72.2858 L157.556,72.2858"/>
            <path d="M157.491,72.2858 L157.549,72.2858"/>
            <path d="M157.379,72.2858 L157.491,72.2858"/>
            <path d="M157.219,72.2858 L157.379,72.2858"/>
            <path d="M157.021,72.2858 L157.219,72.2858"/>
            <path d="M156.796,72.2858 L157.021,72.2858"/>
            <path d="M156.556,72.2858 L156.796,72.2858"/>
            <path d="M156.317,72.2858 L156.556,72.2858"/>
            <path d="M156.092,72.2858 L156.317,72.2858"/>
            <path d="M155.893,72.2858 L156.092,72.2858"/>
            <path d="M155.733,72.2858 L155.893,72.2858"/>
            <path d="M155.621,72.2858 L155.733,72.2858"/>
            <path d="M155.564,72.2858 L155.621,72.2858"/>
            <path d="M155.556,72.2858 L155.564,72.2858"/>
            <path d="M155.564,72.2858 L155.564,72.2858"/>
            <path d="M155.621,72.2858 L155.621,72.2858"/>
            <path d="M155.733,72.2858 L155.733,72.2858"/>
            <path d="M155.893,72.2858 L155.893,72.2858"/>
            <path d="M156.092,72.2858 L156.092,72.2858"/>
            <path d="M156.317,72.2858 L156.317,72.2858"/>
            <path d="M157.549,80.2858 L157.556,80.2858"/>
            <path d="M157.491,80.2858 L157.549,80.2858"/>
            <path d="M157.379,80.2858 L157.491,80.2858"/>
            <path d="M157.219,80.2858 L157.379,80.2858"/>
            <path d="M157.021,80.2858 L157.219,80.2858"/>
            <path d="M156.796,80.2858 L157.021,80.2858"/>
            <path d="M156.556,80.2858 L156.796,80.2858"/>
            <path d="M156.317,80.2858 L156.556,80.2858"/>
            <path d="M156.092,80.2858 L156.317,80.2858"/>
            <path d="M155.893,80.2858 L156.092,80.2858"/>
            <path d="M155.733,80.2858 L155.893,80.2858"/>
            <path d="M155.621,80.2858 L155.733,80.2858"/>
            <path d="M155.564,80.2858 L155.621,80.2858"/>
            <path d="M155.556,80.2858 L155.564,80.2858"/>
        </g>
        <g id="product-9ed461fe-ea92-4f3b-838e-8fd80e14a47e" class="IfcPipeSegment material-null projection" ifc:name="PipeSegment" ifc:guid="2Ur67_wf9FEuEEZzWE5AH_">
            <path d="M177.831,85.5484 L183.716,85.5484"/>
            <path d="M185.716,85.5484 L186.022,85.5484"/>
            <path d="M187.022,85.5484 L187.831,85.5484"/>
            <path d="M177.831,86.5484 L183.716,86.5484"/>
            <path d="M185.716,86.5484 L186.022,86.5484"/>
            <path d="M187.022,86.5484 L187.831,86.5484"/>
            <path d="M187.831,86.2397 L187.831,86.2397"/>
            <path d="M187.831,86.402 L187.831,86.402"/>
            <path d="M187.831,86.5103 L187.831,86.5103"/>
            <path d="M187.831,86.5103 L187.831,86.5484"/>
            <path d="M187.831,86.402 L187.831,86.5103"/>
            <path d="M187.831,86.2397 L187.831,86.402"/>
            <path d="M187.831,86.0484 L187.831,86.2397"/>
            <path d="M187.831,85.8571 L187.831,86.0484"/>
            <path d="M187.831,85.6948 L187.831,85.8571"/>
            <path d="M187.831,85.5865 L187.831,85.6948"/>
            <path d="M187.831,85.5484 L187.831,85.5865"/>
            <path d="M187.831,85.5865 L187.831,85.5865"/>
            <path d="M187.831,85.6948 L187.831,85.6948"/>
            <path d="M187.831,85.8571 L187.831,85.8571"/>
            <path d="M187.831,86.0484 L187.831,86.0484"/>
            <path d="M177.831,86.2397 L177.831,86.2397"/>
            <path d="M177.831,86.402 L177.831,86.402"/>
            <path d="M177.831,86.5103 L177.831,86.5103"/>
            <path d="M177.831,86.5103 L177.831,86.5484"/>
            <path d="M177.831,86.402 L177.831,86.5103"/>
            <path d="M177.831,86.2397 L177.831,86.402"/>
            <path d="M177.831,86.0484 L177.831,86.2397"/>
            <path d="M177.831,85.8571 L177.831,86.0484"/>
            <path d="M177.831,85.6948 L177.831,85.8571"/>
            <path d="M177.831,85.5865 L177.831,85.6948"/>
            <path d="M177.831,85.5484 L177.831,85.5865"/>
            <path d="M177.831,85.5865 L177.831,85.5865"/>
            <path d="M177.831,85.6948 L177.831,85.6948"/>
            <path d="M177.831,85.8571 L177.831,85.8571"/>
            <path d="M177.831,86.0484 L177.831,86.0484"/>
        </g>
        <g id="product-e46f1abe-c781-4e09-9707-b8ddd40fb4c3" class="IfcSanitaryTerminal material-null projection" ifc:name="SanitaryTerminal" ifc:guid="3aRng_nu5E2PS7kDtK3xJ3">
            <path d="M137.134,58.2858 L137.134,61.2858"/>
            <path d="M136.879,61.2858 L136.879,58.2858"/>
            <path d="M143.879,61.2858 L143.879,58.2858"/>
            <path d="M136.994,58.2858 L137.134,58.2858"/>
            <path d="M136.908,58.2858 L136.994,58.2858"/>
            <path d="M136.879,58.2858 L136.908,58.2858"/>
            <path d="M137.134,58.2858 L143.879,58.2858"/>
            <path d="M136.994,61.2858 L137.134,61.2858"/>
            <path d="M136.908,61.2858 L136.994,61.2858"/>
            <path d="M136.879,61.2858 L136.908,61.2858"/>
            <path d="M137.134,61.2858 L143.879,61.2858"/>
            <path d="M143.879,58.2858 L144.979,58.2858"/>
            <path d="M143.879,61.2858 L144.979,61.2858"/>
            <path d="M144.979,58.2858 L143.879,58.2858"/>
            <path d="M144.979,61.2858 L143.879,61.2858"/>
            <path d="M135.979,58.2858 L135.979,61.2858"/>
            <path d="M145.979,61.2858 L145.979,58.2858"/>
            <path d="M136.004,58.2858 L135.979,58.2858"/>
            <path d="M136.078,58.2858 L136.004,58.2858"/>
            <path d="M136.198,58.2858 L136.078,58.2858"/>
            <path d="M136.356,58.2858 L136.198,58.2858"/>
            <path d="M136.545,58.2858 L136.356,58.2858"/>
            <path d="M136.757,58.2858 L136.545,58.2858"/>
            <path d="M136.879,58.2858 L136.757,58.2858"/>
            <path d="M135.979,58.2858 L135.979,58.2858"/>
            <path d="M135.979,58.2858 L137.134,58.2858"/>
            <path d="M143.879,58.2858 L145.979,58.2858"/>
            <path d="M145.979,58.2858 L145.979,58.2858"/>
            <path d="M145.202,58.2858 L144.979,58.2858"/>
            <path d="M145.413,58.2858 L145.202,58.2858"/>
            <path d="M145.603,58.2858 L145.413,58.2858"/>
            <path d="M145.761,58.2858 L145.603,58.2858"/>
            <path d="M145.88,58.2858 L145.761,58.2858"/>
            <path d="M145.954,58.2858 L145.88,58.2858"/>
            <path d="M145.979,58.2858 L145.954,58.2858"/>
            <path d="M136.004,61.2858 L135.979,61.2858"/>
            <path d="M136.078,61.2858 L136.004,61.2858"/>
            <path d="M136.198,61.2858 L136.078,61.2858"/>
            <path d="M136.356,61.2858 L136.198,61.2858"/>
            <path d="M136.545,61.2858 L136.356,61.2858"/>
            <path d="M136.757,61.2858 L136.545,61.2858"/>
            <path d="M136.879,61.2858 L136.757,61.2858"/>
            <path d="M135.979,61.2858 L135.979,61.2858"/>
            <path d="M135.979,61.2858 L137.134,61.2858"/>
            <path d="M143.879,61.2858 L145.979,61.2858"/>
            <path d="M145.979,61.2858 L145.979,61.2858"/>
            <path d="M145.202,61.2858 L144.979,61.2858"/>
            <path d="M145.413,61.2858 L145.202,61.2858"/>
            <path d="M145.603,61.2858 L145.413,61.2858"/>
            <path d="M145.761,61.2858 L145.603,61.2858"/>
            <path d="M145.88,61.2858 L145.761,61.2858"/>
            <path d="M145.954,61.2858 L145.88,61.2858"/>
            <path d="M145.979,61.2858 L145.954,61.2858"/>
            <path d="M144.979,58.2858 L143.879,58.2858"/>
            <path d="M144.979,61.2858 L143.879,61.2858"/>
            <path d="M137.134,61.2858 L137.134,63.2858"/>
            <path d="M136.879,63.2858 L136.879,61.2858"/>
            <path d="M143.879,63.2858 L143.879,61.2858"/>
            <path d="M136.994,61.2858 L137.134,61.2858"/>
            <path d="M136.908,61.2858 L136.994,61.2858"/>
            <path d="M136.879,61.2858 L136.908,61.2858"/>
            <path d="M137.134,61.2858 L143.879,61.2858"/>
            <path d="M136.994,63.2858 L137.134,63.2858"/>
            <path d="M136.908,63.2858 L136.994,63.2858"/>
            <path d="M136.879,63.2858 L136.908,63.2858"/>
            <path d="M137.134,63.2858 L143.879,63.2858"/>
        </g>
        <g id="product-1f8b3719-0f01-4b8a-8770-a75b38c858f3" class="IfcPipeSegment material-null projection" ifc:name="PipeSegment" ifc:guid="0VYpSP3m5BYeTmfriuo5Zp">
            <path d="M141.466,69.8727 L141.466,63.2858"/>
            <path d="M142.466,69.8727 L142.466,69.8287"/>
            <path d="M141.966,69.8727 L141.966,69.8727"/>
            <path d="M142.158,69.8727 L142.158,69.8727"/>
            <path d="M142.32,69.8727 L142.32,69.8727"/>
            <path d="M142.428,69.8727 L142.428,69.8727"/>
            <path d="M142.428,69.8727 L142.466,69.8727"/>
            <path d="M142.32,69.8727 L142.428,69.8727"/>
            <path d="M142.158,69.8727 L142.32,69.8727"/>
            <path d="M141.966,69.8727 L142.158,69.8727"/>
            <path d="M141.775,69.8727 L141.966,69.8727"/>
            <path d="M141.613,69.8727 L141.775,69.8727"/>
            <path d="M141.504,69.8727 L141.613,69.8727"/>
            <path d="M141.466,69.8727 L141.504,69.8727"/>
            <path d="M141.504,69.8727 L141.504,69.8727"/>
            <path d="M141.613,69.8727 L141.613,69.8727"/>
            <path d="M141.775,69.8727 L141.775,69.8727"/>
        </g>
        <g id="product-c207e768-c12c-4181-9a82-00a5bf1a0353" class="IfcPipeSegment material-null projection" ifc:name="PipeSegment" ifc:guid="321_TemIn1WPg20AM$6WDJ">
            <path d="M185.716,129.469 L186.022,129.469"/>
            <path d="M185.716,130.469 L186.022,130.469"/>
        </g>
        <g id="product-1aea34e2-4709-4134-9f55-324f749cc800" class="IfcPipeFitting material-null projection" ifc:name="PipeFitting" ifc:guid="0QwZJYHmb1D9zLCazqdCW0">
            <path d="M149.06,70.564 L149.098,70.3727"/>
            <path d="M148.952,70.7262 L149.06,70.564"/>
            <path d="M148.789,70.8346 L148.952,70.7262"/>
            <path d="M148.598,70.8727 L148.789,70.8346"/>
            <path d="M148.407,70.8346 L148.598,70.8727"/>
            <path d="M148.244,70.7262 L148.407,70.8346"/>
            <path d="M148.136,70.564 L148.244,70.7262"/>
            <path d="M148.244,70.0191 L148.136,70.1814"/>
            <path d="M148.407,69.9108 L148.244,70.0191"/>
            <path d="M148.598,69.8727 L148.407,69.9108"/>
            <path d="M148.789,69.9108 L148.598,69.8727"/>
            <path d="M148.952,70.0191 L148.789,69.9108"/>
            <path d="M149.06,70.1814 L148.952,70.0191"/>
            <path d="M149.098,70.3727 L149.06,70.1814"/>
            <path d="M149.06,70.564 L149.098,70.3727"/>
            <path d="M148.952,70.7262 L149.06,70.564"/>
            <path d="M148.952,70.7263 L148.952,70.7262"/>
            <path d="M148.789,69.9108 L148.789,69.9108"/>
            <path d="M148.952,70.0191 L148.952,70.0191"/>
            <path d="M149.06,70.1814 L148.952,70.0191"/>
            <path d="M149.098,70.3727 L149.06,70.1814"/>
        </g>
        <g id="product-7875e336-8fb4-4e93-98d7-f882ae8b7134" class="IfcSanitaryTerminal material-null projection" ifc:name="SanitaryTerminal" ifc:guid="1uTUCsZxHEavZN_8AkYt4q">
            <path d="M132.139,65.8858 L121.139,65.8858"/>
            <path d="M132.139,77.2858 L132.139,77.2858"/>
            <path d="M121.139,73.2858 L121.139,65.8858"/>
            <path d="M132.139,76.2858 L132.139,65.8858"/>
            <path d="M132.139,77.2858 L121.139,77.2858"/>
            <path d="M121.139,80.8858 L121.139,77.2858"/>
            <path d="M132.139,80.8858 L132.139,77.2858"/>
            <path d="M121.252,76.2858 L121.139,76.2858"/>
            <path d="M121.584,76.2858 L121.252,76.2858"/>
            <path d="M122.121,76.2858 L121.584,76.2858"/>
            <path d="M122.833,76.2858 L122.121,76.2858"/>
            <path d="M123.686,76.2858 L122.833,76.2858"/>
            <path d="M124.637,76.2858 L123.686,76.2858"/>
            <path d="M125.639,76.2858 L124.637,76.2858"/>
            <path d="M121.252,77.2858 L121.158,77.2858"/>
            <path d="M121.584,77.2858 L121.252,77.2858"/>
            <path d="M122.121,77.2858 L121.584,77.2858"/>
            <path d="M122.833,77.2858 L122.121,77.2858"/>
            <path d="M123.686,77.2858 L122.833,77.2858"/>
            <path d="M124.637,77.2858 L123.686,77.2858"/>
            <path d="M125.639,77.2858 L124.637,77.2858"/>
            <path d="M121.139,77.2858 L121.139,76.2858"/>
            <path d="M127.639,76.2858 L125.639,76.2858"/>
            <path d="M127.639,77.2858 L125.639,77.2858"/>
            <path d="M128.64,76.2858 L127.639,76.2858"/>
            <path d="M129.591,76.2858 L128.64,76.2858"/>
            <path d="M130.445,76.2858 L129.591,76.2858"/>
            <path d="M131.157,76.2858 L130.445,76.2858"/>
            <path d="M131.693,76.2858 L131.157,76.2858"/>
            <path d="M132.026,76.2858 L131.693,76.2858"/>
            <path d="M132.139,76.2858 L132.026,76.2858"/>
            <path d="M128.64,77.2858 L127.639,77.2858"/>
            <path d="M129.591,77.2858 L128.64,77.2858"/>
            <path d="M130.445,77.2858 L129.591,77.2858"/>
            <path d="M131.157,77.2858 L130.445,77.2858"/>
            <path d="M131.693,77.2858 L131.157,77.2858"/>
            <path d="M132.026,77.2858 L131.693,77.2858"/>
            <path d="M132.12,77.2858 L132.026,77.2858"/>
            <path d="M132.139,77.2858 L132.139,76.2858"/>
            <path d="M132.026,73.2858 L132.139,73.2858"/>
            <path d="M131.693,73.2858 L132.026,73.2858"/>
            <path d="M131.157,73.2858 L131.693,73.2858"/>
            <path d="M130.445,73.2858 L131.157,73.2858"/>
            <path d="M129.591,73.2858 L130.445,73.2858"/>
            <path d="M128.64,73.2858 L129.591,73.2858"/>
            <path d="M127.639,73.2858 L128.64,73.2858"/>
            <path d="M132.026,76.2858 L132.139,76.2858"/>
            <path d="M131.693,76.2858 L132.026,76.2858"/>
            <path d="M131.157,76.2858 L131.693,76.2858"/>
            <path d="M130.445,76.2858 L131.157,76.2858"/>
            <path d="M129.591,76.2858 L130.445,76.2858"/>
            <path d="M128.64,76.2858 L129.591,76.2858"/>
            <path d="M127.639,76.2858 L128.64,76.2858"/>
            <path d="M132.139,76.2858 L132.139,73.2858"/>
            <path d="M125.639,73.2858 L127.639,73.2858"/>
            <path d="M125.639,76.2858 L127.639,76.2858"/>
            <path d="M124.637,73.2858 L125.639,73.2858"/>
            <path d="M123.686,73.2858 L124.637,73.2858"/>
            <path d="M122.833,73.2858 L123.686,73.2858"/>
            <path d="M122.121,73.2858 L122.833,73.2858"/>
            <path d="M121.584,73.2858 L122.121,73.2858"/>
            <path d="M121.252,73.2858 L121.584,73.2858"/>
            <path d="M121.139,73.2858 L121.252,73.2858"/>
            <path d="M124.637,76.2858 L125.639,76.2858"/>
            <path d="M123.686,76.2858 L124.637,76.2858"/>
            <path d="M122.833,76.2858 L123.686,76.2858"/>
            <path d="M122.121,76.2858 L122.833,76.2858"/>
            <path d="M121.584,76.2858 L122.121,76.2858"/>
            <path d="M121.252,76.2858 L121.584,76.2858"/>
            <path d="M121.139,76.2858 L121.252,76.2858"/>
            <path d="M121.139,76.2858 L121.139,73.2858"/>
        </g>
        <g id="product-e5e38305-6397-40b9-9208-9c2bd95b438f" class="IfcPipeSegment material-null projection" ifc:name="PipeSegment" ifc:guid="3buuC5OvT0kP88d2lPMqEF">
            <path d="M185.716,137.286 L186.022,137.286"/>
            <path d="M187.022,137.286 L187.462,137.286"/>
            <path d="M185.716,139.286 L186.022,139.286"/>
            <path d="M187.022,139.286 L187.462,139.286"/>
        </g>
        <g id="product-b089a812-85c5-47ee-9f3d-c1bfae462c58" class="IfcStair material-null projection" ifc:name="Stair" ifc:guid="2mYQWIXSL7xfyzmR_kHYnO">
            <path d="M33.5968,145.286 L33.5968,145.286"/>
            <path d="M33.5968,153.286 L33.5968,153.286"/>
            <path d="M39.5968,142.286 L39.5968,142.286"/>
            <path d="M33.5968,153.286 L33.5968,148.286"/>
            <path d="M33.5968,153.286 L33.5968,153.286"/>
            <path d="M39.5968,145.286 L39.5968,142.286"/>
            <path d="M39.5968,142.286 L44.8165,142.286"/>
            <path d="M44.8165,148.266 L34.7771,153.286"/>
            <path d="M34.7771,153.286 L33.5968,153.286"/>
            <path d="M33.5968,145.286 L33.5968,153.286"/>
            <path d="M39.5968,145.286 L33.5968,145.286"/>
        </g>
        <g id="product-de36d7a1-86a6-434a-a8e6-5b480459b347" class="IfcPipeSegment material-null projection" ifc:name="PipeSegment" ifc:guid="3UDjUXXgP3IgZcMqW4MRD7">
            <path d="M148.136,69.8727 L142.466,69.8727"/>
            <path d="M148.136,70.8727 L142.466,70.8727"/>
            <path d="M142.466,70.564 L142.466,70.3727"/>
            <path d="M142.466,70.7262 L142.466,70.564"/>
            <path d="M142.466,70.8346 L142.466,70.7262"/>
            <path d="M142.466,70.8727 L142.466,70.8346"/>
            <path d="M142.466,70.8346 L142.466,70.8346"/>
            <path d="M142.466,70.7262 L142.466,70.7262"/>
            <path d="M142.466,70.564 L142.466,70.564"/>
            <path d="M142.466,70.3727 L142.466,70.3727"/>
            <path d="M142.466,70.1814 L142.466,70.1814"/>
            <path d="M142.466,70.0191 L142.466,70.0191"/>
            <path d="M142.466,70.0191 L142.466,69.9108"/>
            <path d="M142.466,70.1814 L142.466,70.0191"/>
            <path d="M142.466,70.3727 L142.466,70.1814"/>
            <path d="M148.136,70.564 L148.136,70.3727"/>
            <path d="M148.136,70.7262 L148.136,70.564"/>
            <path d="M148.136,70.8346 L148.136,70.7262"/>
            <path d="M148.136,70.8727 L148.136,70.8346"/>
            <path d="M148.136,70.8346 L148.136,70.8346"/>
            <path d="M148.136,70.7262 L148.136,70.7262"/>
            <path d="M148.136,70.564 L148.136,70.564"/>
            <path d="M148.136,70.1814 L148.136,70.1814"/>
            <path d="M148.136,70.0191 L148.136,70.0191"/>
            <path d="M148.136,69.9108 L148.136,69.9108"/>
            <path d="M148.136,69.9108 L148.136,69.8727"/>
            <path d="M148.136,70.0191 L148.136,69.9108"/>
            <path d="M148.136,70.1814 L148.136,70.0191"/>
            <path d="M148.136,70.3727 L148.136,70.1814"/>
        </g>
        <g id="product-60a6e0e7-d031-410b-9f96-507354f608a6" class="IfcSlab material-null projection" ifc:name="Slab" ifc:guid="1Wfk3dq3512v_MK7DKzWYc">
            <path d="M118.816,95.2858 L118.816,95.2858"/>
            <path d="M61.8164,95.2858 L61.8164,95.2858"/>
            <path d="M118.816,97.2858 L111.116,97.2858"/>
            <path d="M93.7165,97.2858 L61.8164,97.2858"/>
        </g>
        <g id="product-5c0eb83f-9415-431e-a425-1adae69048ac" class="IfcWall material-brick projection" ifc:name="Wall" ifc:guid="1S3hW$b1L37gGb6jhca4Yi">
            <path d="M93.7165,97.2858 L61.8164,97.2858"/>
            <path d="M61.8164,97.2858 L61.8164,81.2858"/>
            <path d="M93.7165,97.2858 L93.7165,81.2858"/>
        </g>
        <g id="product-fba8db89-57d4-482f-bbf9-271df6a91925" class="IfcSlab material-null projection" ifc:name="Slab" ifc:guid="3xgDk9LzH8Bxlv9ntsgHab">
            <path d="M44.8165,97.2858 L28.8165,97.2858"/>
            <path d="M44.8165,95.2858 L44.8165,97.2858"/>
            <path d="M44.8165,95.2858 L28.8165,95.2858"/>
            <path d="M28.8165,97.2858 L28.8165,95.2858"/>
        </g>
        <g id="product-204fd489-c7ac-4d83-9bd3-2d177340a843" class="IfcWall material-brick projection" ifc:name="Wall" ifc:guid="0WJzI9nwnDWvlJBHTpGAX3">
            <path d="M183.716,72.2858 L157.556,72.2858"/>
            <path d="M155.556,72.2858 L154.416,72.2858"/>
            <path d="M154.416,88.2858 L154.416,82.2858"/>
            <path d="M154.416,80.2858 L154.416,72.2858"/>
            <path d="M185.716,72.2858 L185.716,72.2858"/>
        </g>
        <g id="product-5c912d3c-6204-4205-abea-de8a6e52ada5" class="IfcWall material-brick projection" ifc:name="Wall" ifc:guid="1SaIqyOWH21QlgtefkKgsb">
            <path d="M185.716,72.2858 L183.716,72.2858"/>
            <path d="M183.716,88.2858 L183.716,72.2858"/>
            <path d="M185.716,88.2858 L183.716,88.2858"/>
            <path d="M185.716,72.2858 L185.716,88.2858"/>
        </g>
        <g id="product-ef49af77-bfa1-4876-8a02-87be3218c410" class="IfcWall material-brick projection" ifc:name="Wall" ifc:guid="3lIQztlw58Tee2Xxuo6CGG">
            <path d="M154.416,88.2858 L150.816,88.2858"/>
            <path d="M154.416,37.2858 L154.416,88.2858"/>
            <path d="M154.416,37.2858 L150.816,37.2858"/>
            <path d="M150.816,88.2858 L150.816,37.2858"/>
        </g>
        <g id="product-55689b8b-4e27-4099-80f7-784fc61578a5" class="IfcSlab material-null projection" ifc:name="Slab" ifc:guid="1LQ9kBJYT0cO3tU4$65NYb">
            <path d="M118.817,24.2858 L44.8165,24.2858"/>
            <path d="M118.817,22.2858 L118.817,24.2858"/>
            <path d="M118.817,22.2858 L44.8165,22.2858"/>
            <path d="M44.8165,24.2858 L44.8165,22.2858"/>
        </g>
        <g id="product-6869ec8e-eff0-4d94-9c69-bca2c439763e" class="IfcWall material-brick projection" ifc:name="Wall" ifc:guid="1eQUoEx$1Db9nflAB4ENO_">
            <path d="M109.116,81.2858 L93.7165,81.2858"/>
            <path d="M93.7165,139.286 L93.7165,97.2858"/>
        </g>
        <g id="product-2a3e7e28-6c63-4382-872b-d15843789c67" class="IfcWall material-brick projection" ifc:name="Wall" ifc:guid="0gFdueR6D3WeShqLX3U9nd">
            <path d="M133.316,97.2858 L118.816,97.2858"/>
            <path d="M118.816,97.2858 L118.816,90.2858"/>
        </g>
        <g id="product-3283752b-6d4a-4ec2-aeda-3ede45fdd763" class="IfcWall material-brick projection" ifc:name="Wall" ifc:guid="0oWtKhRKfEmgxQFjv5$TTZ">
            <path d="M118.816,97.2858 L111.116,97.2858"/>
            <path d="M118.816,97.2858 L118.816,90.2858"/>
            <path d="M118.816,88.2858 L118.816,83.2858"/>
        </g>
        <g id="product-005f5c36-d80c-4434-a2e1-04cb68960d1f" class="IfcWall material-brick projection" ifc:name="Wall" ifc:guid="00Nrmss0n4DABX1CjebWqV">
            <path d="M46.8165,22.2858 L44.8165,22.2858"/>
            <path d="M46.8165,17.2858 L46.8165,22.2858"/>
            <path d="M46.8165,17.2858 L44.8165,17.2858"/>
            <path d="M44.8165,22.2858 L44.8165,17.2858"/>
        </g>
        <g id="product-81e8a6d3-3d51-4c7b-aceb-3e26b781d637" class="IfcWall material-brick projection" ifc:name="Wall" ifc:guid="21wARJFL5CUwphFYQtWTOt">
            <path d="M116.816,17.2858 L46.8165,17.2858"/>
            <path d="M46.8165,22.2858 L46.8165,17.2858"/>
            <path d="M118.816,17.2858 L118.816,17.2858"/>
            <path d="M118.816,22.2858 L118.816,17.2858"/>
        </g>
        <g id="product-f4bab40b-add6-41ad-82b2-e6f521cf3122" class="IfcWall material-brick projection" ifc:name="Wall" ifc:guid="3qkhGBhTP1hOAovlKXpp4Y">
            <path d="M118.816,22.2858 L116.816,22.2858"/>
            <path d="M118.816,17.2858 L118.816,22.2858"/>
            <path d="M118.816,17.2858 L116.816,17.2858"/>
            <path d="M116.816,22.2858 L116.816,17.2858"/>
        </g>
        <g id="product-dc0a5214-49a8-42ad-8f73-e9999a4d609e" class="IfcSlab material-null projection" ifc:name="Slab" ifc:guid="3S2b8KIQX2hOzpwPcQJM2U">
            <path d="M49.8165,79.8858 L49.8165,80.2858"/>
            <path d="M49.8165,80.2858 L118.816,80.2858"/>
            <path d="M118.816,80.2858 L118.816,79.8858"/>
            <path d="M49.8165,79.8858 L118.816,79.8858"/>
        </g>
        <g id="product-e793434e-99b5-49bd-8bb0-77330e7e2510" class="IfcSlab material-null projection" ifc:name="Slab" ifc:guid="3daqDEcRL9lOkmTpCEVYKG">
            <path d="M150.816,81.2858 L150.816,80.8858"/>
            <path d="M118.816,80.8858 L150.816,80.8858"/>
            <path d="M118.816,80.8858 L118.816,81.2858"/>
            <path d="M118.816,81.2858 L150.816,81.2858"/>
        </g>
        <g id="product-46c4d34d-e6e4-465d-8995-086b1be65a23" class="IfcSlab material-null projection" ifc:name="Slab" ifc:guid="16nDDDvkH6NOcL26iRvbeZ">
            <path d="M26.8165,139.286 L27.9165,139.286"/>
            <path d="M29.8165,139.286 L44.8165,139.286"/>
            <path d="M26.8165,139.686 L27.9165,139.686"/>
            <path d="M29.8165,139.686 L44.8165,139.686"/>
            <path d="M26.8165,139.686 L26.8165,139.286"/>
            <path d="M49.8165,139.286 L49.8165,139.686"/>
            <path d="M49.8165,139.686 L109.116,139.686"/>
            <path d="M109.116,139.686 L109.116,139.286"/>
            <path d="M49.8165,139.286 L109.116,139.286"/>
            <path d="M111.116,139.286 L111.116,139.686"/>
            <path d="M111.116,139.686 L180.716,139.686"/>
            <path d="M180.716,139.686 L180.716,139.286"/>
            <path d="M111.116,139.286 L180.716,139.286"/>
        </g>
        <g id="product-e6b2a40c-6358-4d07-89b9-5544490caccc" class="IfcWall material-brick projection" ifc:name="Wall" ifc:guid="3cigGCOrXD1ucvLKH93ApC">
            <path d="M44.7165,97.2858 L26.8165,97.2858"/>
            <path d="M26.8165,97.2858 L26.8165,97.2858"/>
            <path d="M26.8165,148.286 L26.8165,148.286"/>
            <path d="M26.8165,148.286 L26.8165,139.686"/>
            <path d="M26.8165,139.286 L26.8165,97.2858"/>
        </g>
        <g id="product-ac99cc03-afe7-4cc0-b4a1-fbbfde7d21d1" class="IfcWall material-brick projection" ifc:name="Wall" ifc:guid="2icSm3h_TCmBIX_x$UVI7H">
            <path d="M185.716,139.286 L185.716,97.2858"/>
            <path d="M185.716,97.2858 L185.716,97.2858"/>
            <path d="M133.316,97.2858 L129.316,97.2858"/>
            <path d="M129.316,139.286 L129.316,97.2858"/>
        </g>
        <g id="product-d0781fbc-2271-4eec-855b-11e9abc09e7e" class="IfcDoor material-null projection" ifc:name="Door" ifc:guid="3GU1_y8d5Ex8LR4Uchm9v_">
            <path d="M25.1769,96.3858 L25.1769,97.2858"/>
            <path d="M25.0769,96.3858 L25.0769,97.2858"/>
            <path d="M25.0769,96.3858 L25.1769,96.3858"/>
            <path d="M24.0769,96.3858 L24.0769,97.2858"/>
            <path d="M23.9769,96.3858 L23.9769,97.2858"/>
            <path d="M23.9769,96.3858 L24.0769,96.3858"/>
            <path d="M24.5769,96.8858 L24.5769,97.2858"/>
            <path d="M24.0769,96.8858 L24.5769,96.8858"/>
            <path d="M24.5769,96.8858 L24.5769,97.2858"/>
            <path d="M24.5769,96.8858 L25.0769,96.8858"/>
        </g>
        <g id="product-b286925f-6423-4a2a-ba47-95f4eccafa65" class="IfcWall material-brick projection" ifc:name="Wall" ifc:guid="2oXf9VP2DAAhf7bVJiolfb">
            <path d="M185.716,139.286 L180.716,139.286"/>
            <path d="M185.716,88.2858 L185.716,139.286"/>
            <path d="M185.716,88.2858 L180.716,88.2858"/>
            <path d="M180.716,139.286 L180.716,88.2858"/>
        </g>
        <g id="product-f0fe0500-ccc3-47ec-a353-cab80bdf7cb5" class="IfcWall material-brick projection" ifc:name="Wall" ifc:guid="3m$WK0pCD7xADJohWBttor">
            <path d="M26.8089,97.2858 L26.8165,97.2858"/>
            <path d="M26.8165,138.886 L26.8165,97.2858"/>
            <path d="M26.8165,138.886 L26.8165,138.886"/>
            <path d="M26.8165,148.286 L26.8165,138.886"/>
            <path d="M26.8089,138.886 L26.8165,138.886"/>
            <path d="M26.8089,97.2858 L26.8089,138.886"/>
            <path d="M26.8089,97.2858 L23.2165,97.2858"/>
            <path d="M23.2165,148.286 L23.2165,97.2858"/>
            <path d="M26.8165,148.286 L23.2165,148.286"/>
        </g>
        <g id="product-56644cc8-da0a-4c7c-a40e-1470d56ec1d5" class="IfcWall material-brick projection" ifc:name="Wall" ifc:guid="1MP4p8sWfCVAGE573LRi7L">
            <path d="M63.2908,123.286 L64.8661,123.286"/>
            <path d="M75.8661,123.286 L80.4571,123.286"/>
            <path d="M91.4571,123.286 L93.7165,123.286"/>
            <path d="M63.2908,97.2858 L63.2908,123.286"/>
        </g>
        <g id="product-6457862d-5958-424d-a49a-b3793c683cab" class="IfcWall material-brick projection" ifc:name="Wall" ifc:guid="1aLuOjMLX2JQIQitayQ3oh">
            <path d="M49.8165,139.286 L44.8165,139.286"/>
            <path d="M49.8165,81.2858 L49.8165,139.286"/>
            <path d="M49.8165,81.2858 L44.8165,81.2858"/>
            <path d="M44.8165,139.286 L44.8165,81.2858"/>
            <path d="M49.8165,139.286 L49.8165,139.286"/>
        </g>
        <g id="product-2874720a-6406-4d98-a209-bd64342b352e" class="IfcWall material-brick projection" ifc:name="Wall" ifc:guid="0eT78AP0PDcA89lMGqApKk">
            <path d="M118.816,79.2858 L118.816,79.2858"/>
            <path d="M118.816,37.2858 L118.816,37.2858"/>
            <path d="M118.816,35.2858 L118.816,24.2858"/>
            <path d="M65.3465,33.2858 L65.3465,59.2858"/>
            <path d="M96.3465,33.2858 L65.3465,33.2858"/>
            <path d="M96.3465,59.2858 L96.3465,33.2858"/>
            <path d="M65.3465,59.2858 L96.3465,59.2858"/>
            <path d="M44.8165,37.2858 L44.8165,37.2858"/>
            <path d="M49.8165,63.2858 L49.8165,37.2858"/>
        </g>
        <g id="product-bcb827ad-1b93-4692-aeac-4d117d685e71" class="IfcWall material-brick projection" ifc:name="Wall" ifc:guid="2yk2Uj6vD6agwiJH5zQ5vn">
            <path d="M154.416,72.2858 L154.416,70.8727"/>
            <path d="M154.416,69.8727 L154.416,37.2858"/>
            <path d="M150.816,88.2858 L150.816,88.2858"/>
            <path d="M138.17,53.2858 L138.17,37.2858"/>
            <path d="M122.17,53.2858 L138.17,53.2858"/>
            <path d="M122.17,37.2858 L122.17,53.2858"/>
            <path d="M118.816,88.2858 L118.816,83.2858"/>
            <path d="M118.816,80.8858 L118.816,37.2858"/>
        </g>
        <g id="product-3f61e368-6652-4d7a-9150-5bb92f22c6b2" class="IfcWall material-brick projection" ifc:name="Wall" ifc:guid="0$OUDePb9DUf5GMxal8iQo">
            <path d="M118.816,24.2858 L114.216,24.2858"/>
            <path d="M114.216,37.2858 L114.216,24.2858"/>
            <path d="M114.216,37.2858 L118.816,37.2858"/>
            <path d="M118.816,24.2858 L118.816,37.2858"/>
            <path d="M118.816,37.2858 L118.816,37.2858"/>
            <path d="M118.816,79.2858 L118.816,37.2858"/>
            <path d="M114.216,37.2858 L114.216,79.2858"/>
        </g>
        <g id="product-d49bfcb9-089c-4bde-8eda-d74a7bc79e51" class="IfcWall material-brick projection" ifc:name="Wall" ifc:guid="3Kc$ov29nBtexQrqfxnvvH">
            <path d="M49.8165,79.2858 L44.8165,79.2858"/>
            <path d="M49.8165,63.2858 L49.8165,79.2858"/>
            <path d="M49.8165,63.2858 L44.8165,63.2858"/>
            <path d="M44.8165,79.2858 L44.8165,63.2858"/>
            <path d="M49.8165,37.2858 L49.8165,37.2858"/>
            <path d="M49.8165,63.2858 L49.8165,37.2858"/>
            <path d="M49.8165,63.2858 L49.8165,63.2858"/>
            <path d="M44.8165,37.2858 L44.8165,38.2858"/>
            <path d="M44.8165,62.2858 L44.8165,63.2858"/>
            <path d="M44.8165,37.2858 L49.8165,37.2858"/>
            <path d="M49.8165,24.2858 L49.8165,37.2858"/>
            <path d="M49.8165,24.2858 L44.8165,24.2858"/>
            <path d="M44.8165,37.2858 L44.8165,24.2858"/>
        </g>
    <g ifc:guid="3UwID5b8r39B1716gCE6qO" ifc:name="Furniture" class="IfcFurniture material-null cut"><path d="M97.06345796585083,68.28577530586114 L83.4091591835022,68.28577530586114 L69.66345310211182,68.28577530586114 L69.66345310211182,73.80412113868584 L69.66345310211182,79.28577435218682 L83.4091591835022,79.28577435218682 L97.06345796585083,79.28577435218682 L97.06345796585083,73.76742851936211 Z"/></g><g ifc:guid="0gvibzYUz4Pw1RWgzmiyue" ifc:name="Door" class="IfcDoor material-null cut"><path d="M116.05854272842407,37.605366828077926 L116.05854272842407,37.7857733985125"/><path d="M115.95854043960571,37.7857733985125 L115.95854043960571,37.605366828077926"/><path d="M115.95854043960571,37.7857733985125 L116.03944063186646,37.7857733985125"/><path d="M116.05854272842407,37.7857733985125 L116.03944063186646,37.7857733985125"/><path d="M116.05854272842407,36.785779120558395 L116.05854272842407,37.605366828077926"/><path d="M115.95854043960571,36.785779120558395 L115.95854043960571,37.605366828077926"/><path d="M115.95854043960571,36.785779120558395 L115.98089456558228,36.785779120558395"/><path d="M116.05854272842407,36.785779120558395 L115.98089456558228,36.785779120558395"/><path d="M114.95853662490845,37.14981568061699 L114.95853662490845,38.28577530586113"/><path d="M114.85854387283325,37.14981568061699 L114.85854387283325,38.28577530586113"/><path d="M114.85854387283325,38.28577530586113 L114.94137048721313,38.28577530586113"/><path d="M114.95853662490845,38.28577530586113 L114.94137048721313,38.28577530586113"/><path d="M114.95853662490845,36.785779120558395 L114.95853662490845,37.14981568061699"/><path d="M114.85854387283325,37.14981568061699 L114.85854387283325,36.785779120558395"/><path d="M114.85854387283325,36.785779120558395 L114.88088846206665,36.785779120558395"/><path d="M114.95853662490845,36.785779120558395 L114.88088846206665,36.785779120558395"/><path d="M116.95853471755981,78.78577244483819 L116.61513566970825,78.78577244483819"/><path d="M116.95853471755981,79.28577435218682 L116.61513566970825,79.28577435218682"/><path d="M116.95853471755981,79.28577435218682 L116.95853471755981,78.87162220680108"/><path d="M116.95853471755981,78.78577244483819 L116.95853471755981,78.87162220680108"/><path d="M116.61513566970825,78.78577244483819 L114.95853662490845,78.78577244483819"/><path d="M114.95853662490845,79.28577435218682 L116.61513566970825,79.28577435218682"/><path d="M114.95853662490845,79.28577435218682 L114.95853662490845,79.19992459022393"/><path d="M114.95853662490845,78.78577244483819 L114.95853662490845,79.19992459022393"/><path d="M116.15853548049927,37.7857733985125 L116.02483034133911,37.7857733985125"/><path d="M116.15853548049927,78.78577244483819 L116.02483034133911,78.78577244483819"/><path d="M116.15853548049927,78.78577244483819 L116.15853548049927,45.61725151740898"/><path d="M116.15853548049927,37.7857733985125 L116.15853548049927,45.61725151740898"/><path d="M116.02483034133911,37.7857733985125 L115.45853853225708,37.7857733985125"/><path d="M115.45853853225708,78.78577244483819 L116.02483034133911,78.78577244483819"/><path d="M115.45853853225708,78.78577244483819 L115.45853853225708,70.95429909431328"/><path d="M115.45853853225708,37.7857733985125 L115.45853853225708,70.95429909431328"/><path d="M115.45853853225708,38.12417519294609 L115.45853853225708,38.28577530586113"/><path d="M114.95853662490845,38.28577530586113 L114.95853662490845,38.12417519294609"/><path d="M114.95853662490845,38.28577530586113 L115.37268877029419,38.28577530586113"/><path d="M115.45853853225708,38.28577530586113 L115.37268877029419,38.28577530586113"/><path d="M115.45853853225708,37.285771491163864 L115.45853853225708,38.12417519294609"/><path d="M114.95853662490845,37.285771491163864 L114.95853662490845,38.12417519294609"/><path d="M114.95853662490845,37.285771491163864 L115.06263017654419,37.285771491163864"/><path d="M115.45853853225708,37.285771491163864 L115.06263017654419,37.285771491163864"/><path d="M115.95854043960571,37.39284050666679 L115.95854043960571,37.78578293525566"/><path d="M115.45853853225708,37.39284050666679 L115.45853853225708,37.78578293525566"/><path d="M115.45853853225708,37.78578293525566 L115.86302995681763,37.78578293525566"/><path d="M115.95854043960571,37.78578293525566 L115.86302995681763,37.78578293525566"/><path d="M115.95854043960571,37.285771491163864 L115.95854043960571,37.39284050666679"/><path d="M115.45853853225708,37.39284050666679 L115.45853853225708,37.285771491163864"/><path d="M115.45853853225708,37.285771491163864 L115.56263208389282,37.285771491163864"/><path d="M115.95854043960571,37.285771491163864 L115.56263208389282,37.285771491163864"/></g><g ifc:guid="2VkCdZWaLFKv3cwo8bjMYN" ifc:name="Window" class="IfcWindow material-null cut"><path d="M46.216468811035156,37.285771491163864 L46.17889404296875,37.285771491163864"/><path d="M46.216468811035156,37.31351387702812 L46.216468811035156,37.285771491163864"/><path d="M46.216468811035156,63.28577530586113 L44.854044914245605,63.28577530586113"/><path d="M46.216468811035156,63.28577530586113 L46.216468811035156,63.258042456740036"/><path d="M46.216468811035156,38.11783325874199 L46.216468811035156,37.31351387702812"/><path d="M46.216468811035156,63.258042456740036 L46.216468811035156,62.45372307502617"/><path d="M46.216468811035156,62.45372307502617 L46.216468811035156,58.087191702955856"/><path d="M46.216468811035156,58.087191702955856 L46.216468811035156,38.11783325874199"/><path d="M46.17889404296875,37.285771491163864 L44.8164701461792,37.285771491163864"/><path d="M44.8164701461792,37.285771491163864 L44.8164701461792,37.31351387702812"/><path d="M44.854044914245605,63.28577530586113 L44.8164701461792,63.28577530586113"/><path d="M44.8164701461792,63.258042456740036 L44.8164701461792,63.28577530586113"/><path d="M44.8164701461792,62.45372307502617 L44.8164701461792,63.258042456740036"/><path d="M44.8164701461792,37.31351387702812 L44.8164701461792,38.11783325874199"/><path d="M44.8164701461792,38.11783325874199 L44.8164701461792,42.48438370429863"/><path d="M44.8164701461792,42.48438370429863 L44.8164701461792,62.45372307502617"/></g><g ifc:guid="3aRng_nu5E2PS7kDtK3xJ3" ifc:name="SanitaryTerminal" class="IfcSanitaryTerminal material-null cut"><path d="M142.94265985488892,61.28577721320976 L141.1160969734192,61.28577721320976"/><path d="M141.1160969734192,61.28577721320976 L138.08984994888306,61.28577721320976"/><path d="M138.08984994888306,61.28577721320976 L137.78412103652954,61.28577721320976"/><path d="M137.78412103652954,61.28577721320976 L137.41631746292114,61.28577721320976"/><path d="M142.94265985488892,63.28577530586113 L141.11608743667603,63.28577530586113"/><path d="M138.08984994888306,63.28577530586113 L141.11608743667603,63.28577530586113"/><path d="M138.08984994888306,63.28577530586113 L137.78412103652954,63.28577530586113"/><path d="M137.78412103652954,63.28577530586113 L137.41631746292114,63.28577530586113"/><path d="M143.87935876846313,61.28577721320976 L142.94265985488892,61.28577721320976"/><path d="M143.87935876846313,63.28577530586113 L142.94265985488892,63.28577530586113"/><path d="M143.87935876846313,63.28577530586113 L143.87935876846313,61.485648276442184"/><path d="M143.87935876846313,61.28577721320976 L143.87935876846313,61.485648276442184"/><path d="M137.14359521865845,63.28577530586113 L137.41631746292114,63.28577530586113"/><path d="M137.14359521865845,63.28577530586113 L137.14359521865845,62.58920204841484"/><path d="M137.14359521865845,61.28577721320976 L137.14359521865845,62.58920204841484"/><path d="M137.41631746292114,61.28577721320976 L137.14359521865845,61.28577721320976"/><path d="M142.94265985488892,58.28577530586113 L141.1160969734192,58.28577530586113"/><path d="M141.1160969734192,58.28577530586113 L138.08985948562622,58.28577530586113"/><path d="M138.08985948562622,58.28577530586113 L137.78412103652954,58.28577530586113"/><path d="M137.78412103652954,58.28577530586113 L137.41631746292114,58.28577530586113"/><path d="M142.94265985488892,61.28577721320976 L141.1160969734192,61.28577721320976"/><path d="M138.08984994888306,61.28577721320976 L141.1160969734192,61.28577721320976"/><path d="M138.08984994888306,61.28577721320976 L137.78412103652954,61.28577721320976"/><path d="M137.78412103652954,61.28577721320976 L137.41631746292114,61.28577721320976"/><path d="M143.87935876846313,58.28577530586113 L142.94265985488892,58.28577530586113"/><path d="M143.87935876846313,61.28577721320976 L142.94265985488892,61.28577721320976"/><path d="M143.87935876846313,61.28577721320976 L143.87935876846313,58.585591437452926"/><path d="M143.87935876846313,58.28577530586113 L143.87935876846313,58.585591437452926"/><path d="M137.14359521865845,61.28577721320976 L137.41631746292114,61.28577721320976"/><path d="M137.14359521865845,61.28577721320976 L137.14359521865845,60.24092209541191"/><path d="M137.14359521865845,58.28577530586113 L137.14359521865845,60.24092209541191"/><path d="M137.41631746292114,58.28577530586113 L137.14359521865845,58.28577530586113"/><path d="M145.97935914993286,58.28577530586113 L144.4910168647766,58.28577530586113"/><path d="M145.97935914993286,61.28577721320976 L144.4910168647766,61.28577721320976"/><path d="M145.97935914993286,61.28577721320976 L145.97935914993286,58.73227608405937"/><path d="M145.97935914993286,58.28577530586113 L145.97935914993286,58.73227608405937"/><path d="M144.4910168647766,58.28577530586113 L135.97935914993286,58.28577530586113"/><path d="M135.97935914993286,61.28577721320976 L144.4910168647766,61.28577721320976"/><path d="M135.97935914993286,61.28577721320976 L135.97935914993286,60.83927643501152"/><path d="M135.97935914993286,58.28577530586113 L135.97935914993286,60.83927643501152"/></g><g ifc:guid="0qwiMYZ3f0vP4DqMJ3XU4j" ifc:name="Plane" class="IfcSite material-null cut"><path d="M98.07181596755981,148.28577769004693 L14.416465759277344,148.28577769004693"/><path d="M197.43496894836426,148.28577769004693 L98.07181596755981,148.28577769004693"/></g><g class="3jLJIMt6vBfQ5fDJqUQ_KC IfcSlab cut material-concrete"><path d="M142.357,139.286 L71.151,139.286 L44.816,139.286 L44.816,146.604 L44.816,148.286 L71.151,148.286 L142.357,148.286 L185.716,148.286 L185.716,144.099 L185.716,139.286 Z"/></g><g class="3S2b8KIQX2hOzpwPcQJM2U 0nik$8UPf72gg7IKyT2O1Y cut 1GQpM35fH3mud8qreWJs5m 3xgDk9LzH8Bxlv9ntsgHab IfcSlab 2pWM7wRHr4pgwiEH9VK23v 3daqDEcRL9lOkmTpCEVYKG 1LQ9kBJYT0cO3tU4$65NYb 3CZw7_bpL6Mh7y7V4Yq_2h 16nDDDvkH6NOcL26iRvbeZ 2fFiN3tAjCBf1D4XaowWv2 material-null 1rgnUs3B10dg6Jwpu$0F$c"><path d="M44.816,23.044 L44.816,24.286 L111.956,24.286 L118.817,24.286 L118.817,22.471 L118.817,22.286 L111.956,22.286 L44.816,22.286 Z"/></g><g class="3S2b8KIQX2hOzpwPcQJM2U 0nik$8UPf72gg7IKyT2O1Y cut 1GQpM35fH3mud8qreWJs5m 3xgDk9LzH8Bxlv9ntsgHab IfcSlab 2pWM7wRHr4pgwiEH9VK23v 3daqDEcRL9lOkmTpCEVYKG 1LQ9kBJYT0cO3tU4$65NYb 3CZw7_bpL6Mh7y7V4Yq_2h 16nDDDvkH6NOcL26iRvbeZ 2fFiN3tAjCBf1D4XaowWv2 material-null 1rgnUs3B10dg6Jwpu$0F$c"><path d="M33.378,37.286 L44.816,37.286 L44.816,36.044 L44.816,35.286 L33.378,35.286 L24.332,35.286 L24.332,36.519 L24.332,37.286 Z"/></g><g class="3S2b8KIQX2hOzpwPcQJM2U 0nik$8UPf72gg7IKyT2O1Y cut 1GQpM35fH3mud8qreWJs5m 3xgDk9LzH8Bxlv9ntsgHab IfcSlab 2pWM7wRHr4pgwiEH9VK23v 3daqDEcRL9lOkmTpCEVYKG 1LQ9kBJYT0cO3tU4$65NYb 3CZw7_bpL6Mh7y7V4Yq_2h 16nDDDvkH6NOcL26iRvbeZ 2fFiN3tAjCBf1D4XaowWv2 material-null 1rgnUs3B10dg6Jwpu$0F$c"><path d="M118.816,79.286 L90.772,79.286 L44.816,79.286 L44.816,80.044 L44.816,81.286 L72.861,81.286 L118.816,81.286 L118.816,83.077 L118.816,83.286 L144.769,83.286 L147.794,83.286 L147.794,81.495 L147.794,81.286 L150.816,81.286 L150.816,80.886 L118.816,80.886 L118.816,80.528 L118.816,80.286 L118.816,79.886 Z"/></g><g class="3S2b8KIQX2hOzpwPcQJM2U 0nik$8UPf72gg7IKyT2O1Y cut 1GQpM35fH3mud8qreWJs5m 3xgDk9LzH8Bxlv9ntsgHab IfcSlab 2pWM7wRHr4pgwiEH9VK23v 3daqDEcRL9lOkmTpCEVYKG 1LQ9kBJYT0cO3tU4$65NYb 3CZw7_bpL6Mh7y7V4Yq_2h 16nDDDvkH6NOcL26iRvbeZ 2fFiN3tAjCBf1D4XaowWv2 material-null 1rgnUs3B10dg6Jwpu$0F$c"><path d="M28.816,97.286 L35.949,97.286 L44.816,97.286 L44.816,96.177 L44.816,95.286 L37.684,95.286 L28.816,95.286 L28.816,96.394 Z"/></g><g class="3S2b8KIQX2hOzpwPcQJM2U 0nik$8UPf72gg7IKyT2O1Y cut 1GQpM35fH3mud8qreWJs5m 3xgDk9LzH8Bxlv9ntsgHab IfcSlab 2pWM7wRHr4pgwiEH9VK23v 3daqDEcRL9lOkmTpCEVYKG 1LQ9kBJYT0cO3tU4$65NYb 3CZw7_bpL6Mh7y7V4Yq_2h 16nDDDvkH6NOcL26iRvbeZ 2fFiN3tAjCBf1D4XaowWv2 material-null 1rgnUs3B10dg6Jwpu$0F$c"><path d="M109.116,139.686 L109.116,139.286 L49.816,139.286 L49.816,139.686 Z"/></g><g class="3S2b8KIQX2hOzpwPcQJM2U 0nik$8UPf72gg7IKyT2O1Y cut 1GQpM35fH3mud8qreWJs5m 3xgDk9LzH8Bxlv9ntsgHab IfcSlab 2pWM7wRHr4pgwiEH9VK23v 3daqDEcRL9lOkmTpCEVYKG 1LQ9kBJYT0cO3tU4$65NYb 3CZw7_bpL6Mh7y7V4Yq_2h 16nDDDvkH6NOcL26iRvbeZ 2fFiN3tAjCBf1D4XaowWv2 material-null 1rgnUs3B10dg6Jwpu$0F$c"><path d="M114.217,37.286 L128.099,37.286 L154.424,37.286 L165.229,37.286 L185.716,37.286 L200.025,37.286 L201.716,37.286 L201.716,35.497 L201.716,35.286 L187.408,35.286 L185.716,35.286 L174.912,35.286 L154.424,35.286 L128.099,35.286 L114.217,35.286 L114.217,35.471 Z"/></g><g class="3S2b8KIQX2hOzpwPcQJM2U 0nik$8UPf72gg7IKyT2O1Y cut 1GQpM35fH3mud8qreWJs5m 3xgDk9LzH8Bxlv9ntsgHab IfcSlab 2pWM7wRHr4pgwiEH9VK23v 3daqDEcRL9lOkmTpCEVYKG 1LQ9kBJYT0cO3tU4$65NYb 3CZw7_bpL6Mh7y7V4Yq_2h 16nDDDvkH6NOcL26iRvbeZ 2fFiN3tAjCBf1D4XaowWv2 material-null 1rgnUs3B10dg6Jwpu$0F$c"><path d="M118.816,90.286 L160.362,90.286 L185.716,90.286 L185.716,89.044 L185.716,88.286 L144.171,88.286 L118.816,88.286 L118.816,89.528 Z"/></g><g class="3S2b8KIQX2hOzpwPcQJM2U 0nik$8UPf72gg7IKyT2O1Y cut 1GQpM35fH3mud8qreWJs5m 3xgDk9LzH8Bxlv9ntsgHab IfcSlab 2pWM7wRHr4pgwiEH9VK23v 3daqDEcRL9lOkmTpCEVYKG 1LQ9kBJYT0cO3tU4$65NYb 3CZw7_bpL6Mh7y7V4Yq_2h 16nDDDvkH6NOcL26iRvbeZ 2fFiN3tAjCBf1D4XaowWv2 material-null 1rgnUs3B10dg6Jwpu$0F$c"><path d="M193.739,97.286 L200.717,97.286 L200.717,96.216 L200.717,95.286 L192.694,95.286 L185.716,95.286 L185.716,96.355 L185.716,97.286 Z"/></g><g class="3S2b8KIQX2hOzpwPcQJM2U 0nik$8UPf72gg7IKyT2O1Y cut 1GQpM35fH3mud8qreWJs5m 3xgDk9LzH8Bxlv9ntsgHab IfcSlab 2pWM7wRHr4pgwiEH9VK23v 3daqDEcRL9lOkmTpCEVYKG 1LQ9kBJYT0cO3tU4$65NYb 3CZw7_bpL6Mh7y7V4Yq_2h 16nDDDvkH6NOcL26iRvbeZ 2fFiN3tAjCBf1D4XaowWv2 material-null 1rgnUs3B10dg6Jwpu$0F$c"><path d="M180.716,139.286 L111.116,139.286 L111.116,139.686 L180.716,139.686 Z"/></g><g class="3h1WR7u9b0WfGA1F9CDr77 cut material-brick 1aLuOjMLX2JQIQitayQ3oh 0$OUDePb9DUf5GMxal8iQo 2o$oxeLDj7qQ63bdcwjvwF 2dNNoHpz58_vXC9nOUrGOl 3Kc$ov29nBtexQrqfxnvvH 3lIQztlw58Tee2Xxuo6CGG 3qkhGBhTP1hOAovlKXpp4Y 1SaIqyOWH21QlgtefkKgsb 2oXf9VP2DAAhf7bVJiolfb 2eMpIPypn03fccEkABfuE6 IfcWall 00Nrmss0n4DABX1CjebWqV"><path d="M44.816,19.122 L44.816,22.286 L46.082,22.286 L46.816,22.286 L46.816,20.414 L46.816,17.286 L45.565,17.286 L44.816,17.286 Z"/></g><g class="3h1WR7u9b0WfGA1F9CDr77 cut material-brick 1aLuOjMLX2JQIQitayQ3oh 0$OUDePb9DUf5GMxal8iQo 2o$oxeLDj7qQ63bdcwjvwF 2dNNoHpz58_vXC9nOUrGOl 3Kc$ov29nBtexQrqfxnvvH 3lIQztlw58Tee2Xxuo6CGG 3qkhGBhTP1hOAovlKXpp4Y 1SaIqyOWH21QlgtefkKgsb 2oXf9VP2DAAhf7bVJiolfb 2eMpIPypn03fccEkABfuE6 IfcWall 00Nrmss0n4DABX1CjebWqV"><path d="M44.816,37.286 L49.682,37.286 L49.816,37.286 L49.816,36.999 L49.816,24.286 L47.946,24.286 L44.816,24.286 L44.816,37.024 Z"/></g><g class="3h1WR7u9b0WfGA1F9CDr77 cut material-brick 1aLuOjMLX2JQIQitayQ3oh 0$OUDePb9DUf5GMxal8iQo 2o$oxeLDj7qQ63bdcwjvwF 2dNNoHpz58_vXC9nOUrGOl 3Kc$ov29nBtexQrqfxnvvH 3lIQztlw58Tee2Xxuo6CGG 3qkhGBhTP1hOAovlKXpp4Y 1SaIqyOWH21QlgtefkKgsb 2oXf9VP2DAAhf7bVJiolfb 2eMpIPypn03fccEkABfuE6 IfcWall 00Nrmss0n4DABX1CjebWqV"><path d="M44.951,63.286 L44.816,63.286 L44.816,63.607 L44.816,79.286 L47.946,79.286 L49.816,79.286 L49.816,63.638 L49.816,63.286 Z"/></g><g class="3h1WR7u9b0WfGA1F9CDr77 cut material-brick 1aLuOjMLX2JQIQitayQ3oh 0$OUDePb9DUf5GMxal8iQo 2o$oxeLDj7qQ63bdcwjvwF 2dNNoHpz58_vXC9nOUrGOl 3Kc$ov29nBtexQrqfxnvvH 3lIQztlw58Tee2Xxuo6CGG 3qkhGBhTP1hOAovlKXpp4Y 1SaIqyOWH21QlgtefkKgsb 2oXf9VP2DAAhf7bVJiolfb 2eMpIPypn03fccEkABfuE6 IfcWall 00Nrmss0n4DABX1CjebWqV"><path d="M109.116,139.286 L110.116,139.286 L111.116,139.286 L111.116,104.774 L111.116,79.286 L110.267,79.286 L109.116,79.286 L109.116,109.286 Z"/></g><g class="3h1WR7u9b0WfGA1F9CDr77 cut material-brick 1aLuOjMLX2JQIQitayQ3oh 0$OUDePb9DUf5GMxal8iQo 2o$oxeLDj7qQ63bdcwjvwF 2dNNoHpz58_vXC9nOUrGOl 3Kc$ov29nBtexQrqfxnvvH 3lIQztlw58Tee2Xxuo6CGG 3qkhGBhTP1hOAovlKXpp4Y 1SaIqyOWH21QlgtefkKgsb 2oXf9VP2DAAhf7bVJiolfb 2eMpIPypn03fccEkABfuE6 IfcWall 00Nrmss0n4DABX1CjebWqV"><path d="M49.816,102.93 L49.816,98.321 L49.816,95.743 L49.816,81.286 L46.797,81.286 L44.816,81.286 L44.816,95.84 L44.816,98.321 L44.816,102.93 L44.816,132.831 L44.816,135.485 L44.816,139.286 L45.299,139.286 L49.816,139.286 L49.816,135.485 L49.816,132.831 Z"/></g><g class="3h1WR7u9b0WfGA1F9CDr77 cut material-brick 1aLuOjMLX2JQIQitayQ3oh 0$OUDePb9DUf5GMxal8iQo 2o$oxeLDj7qQ63bdcwjvwF 2dNNoHpz58_vXC9nOUrGOl 3Kc$ov29nBtexQrqfxnvvH 3lIQztlw58Tee2Xxuo6CGG 3qkhGBhTP1hOAovlKXpp4Y 1SaIqyOWH21QlgtefkKgsb 2oXf9VP2DAAhf7bVJiolfb 2eMpIPypn03fccEkABfuE6 IfcWall 00Nrmss0n4DABX1CjebWqV"><path d="M28.93,148.286 L29.316,148.286 L29.316,142.767 L29.316,128.286 L28.303,128.286 L27.916,128.286 L27.916,133.804 L27.916,148.286 Z"/></g><g class="3h1WR7u9b0WfGA1F9CDr77 cut material-brick 1aLuOjMLX2JQIQitayQ3oh 0$OUDePb9DUf5GMxal8iQo 2o$oxeLDj7qQ63bdcwjvwF 2dNNoHpz58_vXC9nOUrGOl 3Kc$ov29nBtexQrqfxnvvH 3lIQztlw58Tee2Xxuo6CGG 3qkhGBhTP1hOAovlKXpp4Y 1SaIqyOWH21QlgtefkKgsb 2oXf9VP2DAAhf7bVJiolfb 2eMpIPypn03fccEkABfuE6 IfcWall 00Nrmss0n4DABX1CjebWqV"><path d="M14.416,148.286 L16.272,148.286 L16.416,148.286 L16.416,147.997 L16.416,144.286 L14.561,144.286 L14.416,144.286 L14.416,144.574 Z"/></g><g class="3h1WR7u9b0WfGA1F9CDr77 cut material-brick 1aLuOjMLX2JQIQitayQ3oh 0$OUDePb9DUf5GMxal8iQo 2o$oxeLDj7qQ63bdcwjvwF 2dNNoHpz58_vXC9nOUrGOl 3Kc$ov29nBtexQrqfxnvvH 3lIQztlw58Tee2Xxuo6CGG 3qkhGBhTP1hOAovlKXpp4Y 1SaIqyOWH21QlgtefkKgsb 2oXf9VP2DAAhf7bVJiolfb 2eMpIPypn03fccEkABfuE6 IfcWall 00Nrmss0n4DABX1CjebWqV"><path d="M116.816,22.286 L117.074,22.286 L118.816,22.286 L118.816,17.733 L118.816,17.286 L118.629,17.286 L116.816,17.286 L116.816,21.614 Z"/></g><g class="3h1WR7u9b0WfGA1F9CDr77 cut material-brick 1aLuOjMLX2JQIQitayQ3oh 0$OUDePb9DUf5GMxal8iQo 2o$oxeLDj7qQ63bdcwjvwF 2dNNoHpz58_vXC9nOUrGOl 3Kc$ov29nBtexQrqfxnvvH 3lIQztlw58Tee2Xxuo6CGG 3qkhGBhTP1hOAovlKXpp4Y 1SaIqyOWH21QlgtefkKgsb 2oXf9VP2DAAhf7bVJiolfb 2eMpIPypn03fccEkABfuE6 IfcWall 00Nrmss0n4DABX1CjebWqV"><path d="M115.174,37.286 L118.816,37.286 L118.816,32.153 L118.816,24.286 L117.107,24.286 L114.216,24.286 L114.216,31.852 L114.216,37.286 Z"/></g><g class="3h1WR7u9b0WfGA1F9CDr77 cut material-brick 1aLuOjMLX2JQIQitayQ3oh 0$OUDePb9DUf5GMxal8iQo 2o$oxeLDj7qQ63bdcwjvwF 2dNNoHpz58_vXC9nOUrGOl 3Kc$ov29nBtexQrqfxnvvH 3lIQztlw58Tee2Xxuo6CGG 3qkhGBhTP1hOAovlKXpp4Y 1SaIqyOWH21QlgtefkKgsb 2oXf9VP2DAAhf7bVJiolfb 2eMpIPypn03fccEkABfuE6 IfcWall 00Nrmss0n4DABX1CjebWqV"><path d="M150.816,88.286 L151.15,88.286 L154.416,88.286 L154.416,42.014 L154.416,37.286 L154.044,37.286 L150.816,37.286 L150.816,83.015 Z"/></g><g class="3h1WR7u9b0WfGA1F9CDr77 cut material-brick 1aLuOjMLX2JQIQitayQ3oh 0$OUDePb9DUf5GMxal8iQo 2o$oxeLDj7qQ63bdcwjvwF 2dNNoHpz58_vXC9nOUrGOl 3Kc$ov29nBtexQrqfxnvvH 3lIQztlw58Tee2Xxuo6CGG 3qkhGBhTP1hOAovlKXpp4Y 1SaIqyOWH21QlgtefkKgsb 2oXf9VP2DAAhf7bVJiolfb 2eMpIPypn03fccEkABfuE6 IfcWall 00Nrmss0n4DABX1CjebWqV"><path d="M180.716,88.286 L180.716,94.141 L180.716,97.18 L180.716,109.064 L180.716,115.753 L180.716,128.876 L180.716,139.286 L183.891,139.286 L185.716,139.286 L185.716,128.876 L185.716,115.753 L185.716,109.064 L185.716,97.18 L185.716,94.141 L185.716,88.286 L185.716,73.769 L185.716,72.286 L185.522,72.286 L183.716,72.286 L183.716,86.733 L183.716,88.286 Z"/></g><g class="3h1WR7u9b0WfGA1F9CDr77 cut material-brick 1aLuOjMLX2JQIQitayQ3oh 0$OUDePb9DUf5GMxal8iQo 2o$oxeLDj7qQ63bdcwjvwF 2dNNoHpz58_vXC9nOUrGOl 3Kc$ov29nBtexQrqfxnvvH 3lIQztlw58Tee2Xxuo6CGG 3qkhGBhTP1hOAovlKXpp4Y 1SaIqyOWH21QlgtefkKgsb 2oXf9VP2DAAhf7bVJiolfb 2eMpIPypn03fccEkABfuE6 IfcWall 00Nrmss0n4DABX1CjebWqV"><path d="M195.435,148.286 L196.52,148.286 L197.435,148.286 L197.435,134.559 L197.435,118.286 L196.35,118.286 L195.435,118.286 L195.435,132.013 Z"/></g><g class="cut IfcMaterialLayer IfcSlab 3jLJIMt6vBfQ5fDJqUQ_KC layer-material-Concrete material-concrete"><path d="M142.357,139.286 L71.151,139.286 L44.816,139.286 L44.816,146.604 L44.816,148.286 L71.151,148.286 L142.357,148.286 L185.716,148.286 L185.716,144.099 L185.716,139.286 Z"/></g><g class="3S2b8KIQX2hOzpwPcQJM2U 0nik$8UPf72gg7IKyT2O1Y cut IfcMaterialLayer 1GQpM35fH3mud8qreWJs5m 3xgDk9LzH8Bxlv9ntsgHab IfcSlab 2pWM7wRHr4pgwiEH9VK23v 3daqDEcRL9lOkmTpCEVYKG 1LQ9kBJYT0cO3tU4$65NYb 3CZw7_bpL6Mh7y7V4Yq_2h 16nDDDvkH6NOcL26iRvbeZ layer-material-Concrete 2fFiN3tAjCBf1D4XaowWv2 material-null 1rgnUs3B10dg6Jwpu$0F$c"><path d="M44.816,23.044 L44.816,24.286 L111.956,24.286 L118.817,24.286 L118.817,22.471 L118.817,22.286 L111.956,22.286 L44.816,22.286 Z"/></g><g class="3S2b8KIQX2hOzpwPcQJM2U 0nik$8UPf72gg7IKyT2O1Y cut IfcMaterialLayer 1GQpM35fH3mud8qreWJs5m 3xgDk9LzH8Bxlv9ntsgHab IfcSlab 2pWM7wRHr4pgwiEH9VK23v 3daqDEcRL9lOkmTpCEVYKG 1LQ9kBJYT0cO3tU4$65NYb 3CZw7_bpL6Mh7y7V4Yq_2h 16nDDDvkH6NOcL26iRvbeZ layer-material-Concrete 2fFiN3tAjCBf1D4XaowWv2 material-null 1rgnUs3B10dg6Jwpu$0F$c"><path d="M33.378,37.286 L44.816,37.286 L44.816,36.044 L44.816,35.286 L33.378,35.286 L24.332,35.286 L24.332,36.519 L24.332,37.286 Z"/></g><g class="3S2b8KIQX2hOzpwPcQJM2U 0nik$8UPf72gg7IKyT2O1Y cut IfcMaterialLayer 1GQpM35fH3mud8qreWJs5m 3xgDk9LzH8Bxlv9ntsgHab IfcSlab 2pWM7wRHr4pgwiEH9VK23v 3daqDEcRL9lOkmTpCEVYKG 1LQ9kBJYT0cO3tU4$65NYb 3CZw7_bpL6Mh7y7V4Yq_2h 16nDDDvkH6NOcL26iRvbeZ layer-material-Concrete 2fFiN3tAjCBf1D4XaowWv2 material-null 1rgnUs3B10dg6Jwpu$0F$c"><path d="M118.816,79.286 L90.772,79.286 L44.816,79.286 L44.816,80.044 L44.816,81.286 L72.861,81.286 L118.816,81.286 L118.816,81.086 L150.816,81.086 L150.816,80.886 L118.816,80.886 L118.816,80.528 L118.816,80.086 L118.816,79.886 Z"/></g><g class="3S2b8KIQX2hOzpwPcQJM2U 0nik$8UPf72gg7IKyT2O1Y cut IfcMaterialLayer 1GQpM35fH3mud8qreWJs5m 3xgDk9LzH8Bxlv9ntsgHab IfcSlab 2pWM7wRHr4pgwiEH9VK23v 3daqDEcRL9lOkmTpCEVYKG 1LQ9kBJYT0cO3tU4$65NYb 3CZw7_bpL6Mh7y7V4Yq_2h 16nDDDvkH6NOcL26iRvbeZ layer-material-Concrete 2fFiN3tAjCBf1D4XaowWv2 material-null 1rgnUs3B10dg6Jwpu$0F$c"><path d="M144.769,83.286 L147.794,83.286 L147.794,81.495 L147.794,81.286 L121.841,81.286 L118.816,81.286 L118.816,83.077 L118.816,83.286 Z"/></g><g class="3S2b8KIQX2hOzpwPcQJM2U 0nik$8UPf72gg7IKyT2O1Y cut IfcMaterialLayer 1GQpM35fH3mud8qreWJs5m 3xgDk9LzH8Bxlv9ntsgHab IfcSlab 2pWM7wRHr4pgwiEH9VK23v 3daqDEcRL9lOkmTpCEVYKG 1LQ9kBJYT0cO3tU4$65NYb 3CZw7_bpL6Mh7y7V4Yq_2h 16nDDDvkH6NOcL26iRvbeZ layer-material-Concrete 2fFiN3tAjCBf1D4XaowWv2 material-null 1rgnUs3B10dg6Jwpu$0F$c"><path d="M28.816,97.286 L35.949,97.286 L44.816,97.286 L44.816,96.177 L44.816,95.286 L37.684,95.286 L28.816,95.286 L28.816,96.394 Z"/></g><g class="3S2b8KIQX2hOzpwPcQJM2U 0nik$8UPf72gg7IKyT2O1Y cut IfcMaterialLayer 1GQpM35fH3mud8qreWJs5m 3xgDk9LzH8Bxlv9ntsgHab IfcSlab 2pWM7wRHr4pgwiEH9VK23v 3daqDEcRL9lOkmTpCEVYKG 1LQ9kBJYT0cO3tU4$65NYb 3CZw7_bpL6Mh7y7V4Yq_2h 16nDDDvkH6NOcL26iRvbeZ layer-material-Concrete 2fFiN3tAjCBf1D4XaowWv2 material-null 1rgnUs3B10dg6Jwpu$0F$c"><path d="M109.116,139.486 L109.116,139.286 L49.816,139.286 L49.816,139.486 Z"/></g><g class="3S2b8KIQX2hOzpwPcQJM2U 0nik$8UPf72gg7IKyT2O1Y cut IfcMaterialLayer 1GQpM35fH3mud8qreWJs5m 3xgDk9LzH8Bxlv9ntsgHab IfcSlab 2pWM7wRHr4pgwiEH9VK23v 3daqDEcRL9lOkmTpCEVYKG 1LQ9kBJYT0cO3tU4$65NYb 3CZw7_bpL6Mh7y7V4Yq_2h 16nDDDvkH6NOcL26iRvbeZ layer-material-Concrete 2fFiN3tAjCBf1D4XaowWv2 material-null 1rgnUs3B10dg6Jwpu$0F$c"><path d="M114.217,37.286 L128.099,37.286 L154.424,37.286 L165.229,37.286 L185.716,37.286 L200.025,37.286 L201.716,37.286 L201.716,35.497 L201.716,35.286 L187.408,35.286 L185.716,35.286 L174.912,35.286 L154.424,35.286 L128.099,35.286 L114.217,35.286 L114.217,35.471 Z"/></g><g class="3S2b8KIQX2hOzpwPcQJM2U 0nik$8UPf72gg7IKyT2O1Y cut IfcMaterialLayer 1GQpM35fH3mud8qreWJs5m 3xgDk9LzH8Bxlv9ntsgHab IfcSlab 2pWM7wRHr4pgwiEH9VK23v 3daqDEcRL9lOkmTpCEVYKG 1LQ9kBJYT0cO3tU4$65NYb 3CZw7_bpL6Mh7y7V4Yq_2h 16nDDDvkH6NOcL26iRvbeZ layer-material-Concrete 2fFiN3tAjCBf1D4XaowWv2 material-null 1rgnUs3B10dg6Jwpu$0F$c"><path d="M118.816,90.286 L160.362,90.286 L185.716,90.286 L185.716,89.044 L185.716,88.286 L144.171,88.286 L118.816,88.286 L118.816,89.528 Z"/></g><g class="3S2b8KIQX2hOzpwPcQJM2U 0nik$8UPf72gg7IKyT2O1Y cut IfcMaterialLayer 1GQpM35fH3mud8qreWJs5m 3xgDk9LzH8Bxlv9ntsgHab IfcSlab 2pWM7wRHr4pgwiEH9VK23v 3daqDEcRL9lOkmTpCEVYKG 1LQ9kBJYT0cO3tU4$65NYb 3CZw7_bpL6Mh7y7V4Yq_2h 16nDDDvkH6NOcL26iRvbeZ layer-material-Concrete 2fFiN3tAjCBf1D4XaowWv2 material-null 1rgnUs3B10dg6Jwpu$0F$c"><path d="M193.739,97.286 L200.717,97.286 L200.717,96.216 L200.717,95.286 L192.694,95.286 L185.716,95.286 L185.716,96.355 L185.716,97.286 Z"/></g><g class="3S2b8KIQX2hOzpwPcQJM2U 0nik$8UPf72gg7IKyT2O1Y cut IfcMaterialLayer 1GQpM35fH3mud8qreWJs5m 3xgDk9LzH8Bxlv9ntsgHab IfcSlab 2pWM7wRHr4pgwiEH9VK23v 3daqDEcRL9lOkmTpCEVYKG 1LQ9kBJYT0cO3tU4$65NYb 3CZw7_bpL6Mh7y7V4Yq_2h 16nDDDvkH6NOcL26iRvbeZ layer-material-Concrete 2fFiN3tAjCBf1D4XaowWv2 material-null 1rgnUs3B10dg6Jwpu$0F$c"><path d="M180.716,139.286 L111.116,139.286 L111.116,139.486 L180.716,139.486 Z"/></g><g class="3h1WR7u9b0WfGA1F9CDr77 cut IfcMaterialLayer material-brick 1aLuOjMLX2JQIQitayQ3oh 0$OUDePb9DUf5GMxal8iQo 2o$oxeLDj7qQ63bdcwjvwF 3Kc$ov29nBtexQrqfxnvvH 2dNNoHpz58_vXC9nOUrGOl 3lIQztlw58Tee2Xxuo6CGG layer-material-Unknown 3qkhGBhTP1hOAovlKXpp4Y 1SaIqyOWH21QlgtefkKgsb 2oXf9VP2DAAhf7bVJiolfb 2eMpIPypn03fccEkABfuE6 IfcWall 00Nrmss0n4DABX1CjebWqV"><path d="M44.816,19.122 L44.816,22.286 L46.082,22.286 L46.816,22.286 L46.816,20.414 L46.816,17.286 L45.565,17.286 L44.816,17.286 Z"/></g><g class="3h1WR7u9b0WfGA1F9CDr77 cut IfcMaterialLayer material-brick 1aLuOjMLX2JQIQitayQ3oh 0$OUDePb9DUf5GMxal8iQo 2o$oxeLDj7qQ63bdcwjvwF 3Kc$ov29nBtexQrqfxnvvH 2dNNoHpz58_vXC9nOUrGOl 3lIQztlw58Tee2Xxuo6CGG layer-material-Unknown 3qkhGBhTP1hOAovlKXpp4Y 1SaIqyOWH21QlgtefkKgsb 2oXf9VP2DAAhf7bVJiolfb 2eMpIPypn03fccEkABfuE6 IfcWall 00Nrmss0n4DABX1CjebWqV"><path d="M44.816,37.286 L49.682,37.286 L49.816,37.286 L49.816,36.999 L49.816,24.286 L47.946,24.286 L44.816,24.286 L44.816,37.024 Z"/></g><g class="3h1WR7u9b0WfGA1F9CDr77 cut IfcMaterialLayer material-brick 1aLuOjMLX2JQIQitayQ3oh 0$OUDePb9DUf5GMxal8iQo 2o$oxeLDj7qQ63bdcwjvwF 3Kc$ov29nBtexQrqfxnvvH 2dNNoHpz58_vXC9nOUrGOl 3lIQztlw58Tee2Xxuo6CGG layer-material-Unknown 3qkhGBhTP1hOAovlKXpp4Y 1SaIqyOWH21QlgtefkKgsb 2oXf9VP2DAAhf7bVJiolfb 2eMpIPypn03fccEkABfuE6 IfcWall 00Nrmss0n4DABX1CjebWqV"><path d="M44.951,63.286 L44.816,63.286 L44.816,63.607 L44.816,79.286 L47.946,79.286 L49.816,79.286 L49.816,63.638 L49.816,63.286 Z"/></g><g class="3h1WR7u9b0WfGA1F9CDr77 cut IfcMaterialLayer material-brick 1aLuOjMLX2JQIQitayQ3oh 0$OUDePb9DUf5GMxal8iQo 2o$oxeLDj7qQ63bdcwjvwF 3Kc$ov29nBtexQrqfxnvvH 2dNNoHpz58_vXC9nOUrGOl 3lIQztlw58Tee2Xxuo6CGG layer-material-Unknown 3qkhGBhTP1hOAovlKXpp4Y 1SaIqyOWH21QlgtefkKgsb 2oXf9VP2DAAhf7bVJiolfb 2eMpIPypn03fccEkABfuE6 IfcWall 00Nrmss0n4DABX1CjebWqV"><path d="M109.116,139.286 L110.116,139.286 L111.116,139.286 L111.116,104.774 L111.116,79.286 L110.267,79.286 L109.116,79.286 L109.116,109.286 Z"/></g><g class="3h1WR7u9b0WfGA1F9CDr77 cut IfcMaterialLayer material-brick 1aLuOjMLX2JQIQitayQ3oh 0$OUDePb9DUf5GMxal8iQo 2o$oxeLDj7qQ63bdcwjvwF 3Kc$ov29nBtexQrqfxnvvH 2dNNoHpz58_vXC9nOUrGOl 3lIQztlw58Tee2Xxuo6CGG layer-material-Unknown 3qkhGBhTP1hOAovlKXpp4Y 1SaIqyOWH21QlgtefkKgsb 2oXf9VP2DAAhf7bVJiolfb 2eMpIPypn03fccEkABfuE6 IfcWall 00Nrmss0n4DABX1CjebWqV"><path d="M49.816,102.93 L49.816,98.321 L49.816,95.743 L49.816,81.286 L46.797,81.286 L44.816,81.286 L44.816,95.84 L44.816,98.321 L44.816,102.93 L44.816,132.831 L44.816,135.485 L44.816,139.286 L45.299,139.286 L49.816,139.286 L49.816,135.485 L49.816,132.831 Z"/></g><g class="3h1WR7u9b0WfGA1F9CDr77 cut IfcMaterialLayer material-brick 1aLuOjMLX2JQIQitayQ3oh 0$OUDePb9DUf5GMxal8iQo 2o$oxeLDj7qQ63bdcwjvwF 3Kc$ov29nBtexQrqfxnvvH 2dNNoHpz58_vXC9nOUrGOl 3lIQztlw58Tee2Xxuo6CGG layer-material-Unknown 3qkhGBhTP1hOAovlKXpp4Y 1SaIqyOWH21QlgtefkKgsb 2oXf9VP2DAAhf7bVJiolfb 2eMpIPypn03fccEkABfuE6 IfcWall 00Nrmss0n4DABX1CjebWqV"><path d="M28.93,148.286 L29.316,148.286 L29.316,142.767 L29.316,128.286 L28.303,128.286 L27.916,128.286 L27.916,133.804 L27.916,148.286 Z"/></g><g class="3h1WR7u9b0WfGA1F9CDr77 cut IfcMaterialLayer material-brick 1aLuOjMLX2JQIQitayQ3oh 0$OUDePb9DUf5GMxal8iQo 2o$oxeLDj7qQ63bdcwjvwF 3Kc$ov29nBtexQrqfxnvvH 2dNNoHpz58_vXC9nOUrGOl 3lIQztlw58Tee2Xxuo6CGG layer-material-Unknown 3qkhGBhTP1hOAovlKXpp4Y 1SaIqyOWH21QlgtefkKgsb 2oXf9VP2DAAhf7bVJiolfb 2eMpIPypn03fccEkABfuE6 IfcWall 00Nrmss0n4DABX1CjebWqV"><path d="M14.416,148.286 L16.272,148.286 L16.416,148.286 L16.416,147.997 L16.416,144.286 L14.561,144.286 L14.416,144.286 L14.416,144.574 Z"/></g><g class="3h1WR7u9b0WfGA1F9CDr77 cut IfcMaterialLayer material-brick 1aLuOjMLX2JQIQitayQ3oh 0$OUDePb9DUf5GMxal8iQo 2o$oxeLDj7qQ63bdcwjvwF 3Kc$ov29nBtexQrqfxnvvH 2dNNoHpz58_vXC9nOUrGOl 3lIQztlw58Tee2Xxuo6CGG layer-material-Unknown 3qkhGBhTP1hOAovlKXpp4Y 1SaIqyOWH21QlgtefkKgsb 2oXf9VP2DAAhf7bVJiolfb 2eMpIPypn03fccEkABfuE6 IfcWall 00Nrmss0n4DABX1CjebWqV"><path d="M116.816,22.286 L117.074,22.286 L118.816,22.286 L118.816,17.733 L118.816,17.286 L118.629,17.286 L116.816,17.286 L116.816,21.614 Z"/></g><g class="3h1WR7u9b0WfGA1F9CDr77 cut IfcMaterialLayer material-brick 1aLuOjMLX2JQIQitayQ3oh 0$OUDePb9DUf5GMxal8iQo 2o$oxeLDj7qQ63bdcwjvwF 3Kc$ov29nBtexQrqfxnvvH 2dNNoHpz58_vXC9nOUrGOl 3lIQztlw58Tee2Xxuo6CGG layer-material-Unknown 3qkhGBhTP1hOAovlKXpp4Y 1SaIqyOWH21QlgtefkKgsb 2oXf9VP2DAAhf7bVJiolfb 2eMpIPypn03fccEkABfuE6 IfcWall 00Nrmss0n4DABX1CjebWqV"><path d="M115.174,37.286 L118.816,37.286 L118.816,32.153 L118.816,24.286 L117.107,24.286 L114.216,24.286 L114.216,31.852 L114.216,37.286 Z"/></g><g class="3h1WR7u9b0WfGA1F9CDr77 cut IfcMaterialLayer material-brick 1aLuOjMLX2JQIQitayQ3oh 0$OUDePb9DUf5GMxal8iQo 2o$oxeLDj7qQ63bdcwjvwF 3Kc$ov29nBtexQrqfxnvvH 2dNNoHpz58_vXC9nOUrGOl 3lIQztlw58Tee2Xxuo6CGG layer-material-Unknown 3qkhGBhTP1hOAovlKXpp4Y 1SaIqyOWH21QlgtefkKgsb 2oXf9VP2DAAhf7bVJiolfb 2eMpIPypn03fccEkABfuE6 IfcWall 00Nrmss0n4DABX1CjebWqV"><path d="M150.816,88.286 L151.15,88.286 L154.416,88.286 L154.416,42.014 L154.416,37.286 L154.044,37.286 L150.816,37.286 L150.816,83.015 Z"/></g><g class="3h1WR7u9b0WfGA1F9CDr77 cut IfcMaterialLayer material-brick 1aLuOjMLX2JQIQitayQ3oh 0$OUDePb9DUf5GMxal8iQo 2o$oxeLDj7qQ63bdcwjvwF 3Kc$ov29nBtexQrqfxnvvH 2dNNoHpz58_vXC9nOUrGOl 3lIQztlw58Tee2Xxuo6CGG layer-material-Unknown 3qkhGBhTP1hOAovlKXpp4Y 1SaIqyOWH21QlgtefkKgsb 2oXf9VP2DAAhf7bVJiolfb 2eMpIPypn03fccEkABfuE6 IfcWall 00Nrmss0n4DABX1CjebWqV"><path d="M180.716,88.286 L180.716,94.141 L180.716,97.18 L180.716,109.064 L180.716,115.753 L180.716,128.876 L180.716,139.286 L183.891,139.286 L185.716,139.286 L185.716,128.876 L185.716,115.753 L185.716,109.064 L185.716,97.18 L185.716,94.141 L185.716,88.286 L185.716,73.769 L185.716,72.286 L185.522,72.286 L183.716,72.286 L183.716,86.733 L183.716,88.286 Z"/></g><g class="3h1WR7u9b0WfGA1F9CDr77 cut IfcMaterialLayer material-brick 1aLuOjMLX2JQIQitayQ3oh 0$OUDePb9DUf5GMxal8iQo 2o$oxeLDj7qQ63bdcwjvwF 3Kc$ov29nBtexQrqfxnvvH 2dNNoHpz58_vXC9nOUrGOl 3lIQztlw58Tee2Xxuo6CGG layer-material-Unknown 3qkhGBhTP1hOAovlKXpp4Y 1SaIqyOWH21QlgtefkKgsb 2oXf9VP2DAAhf7bVJiolfb 2eMpIPypn03fccEkABfuE6 IfcWall 00Nrmss0n4DABX1CjebWqV"><path d="M195.435,148.286 L196.52,148.286 L197.435,148.286 L197.435,134.559 L197.435,118.286 L196.35,118.286 L195.435,118.286 L195.435,132.013 Z"/></g><g class="3S2b8KIQX2hOzpwPcQJM2U cut layer-material-Stone IfcMaterialLayer IfcSlab 3daqDEcRL9lOkmTpCEVYKG 16nDDDvkH6NOcL26iRvbeZ material-null"><path d="M49.816,80.086 L49.816,80.286 L118.816,80.286 L118.816,80.086 Z"/></g><g class="3S2b8KIQX2hOzpwPcQJM2U cut layer-material-Stone IfcMaterialLayer IfcSlab 3daqDEcRL9lOkmTpCEVYKG 16nDDDvkH6NOcL26iRvbeZ material-null"><path d="M150.816,81.286 L150.816,81.086 L118.816,81.086 L118.816,81.286 Z"/></g><g class="3S2b8KIQX2hOzpwPcQJM2U cut layer-material-Stone IfcMaterialLayer IfcSlab 3daqDEcRL9lOkmTpCEVYKG 16nDDDvkH6NOcL26iRvbeZ material-null"><path d="M49.816,139.486 L49.816,139.686 L109.116,139.686 L109.116,139.486 Z"/></g><g class="3S2b8KIQX2hOzpwPcQJM2U cut layer-material-Stone IfcMaterialLayer IfcSlab 3daqDEcRL9lOkmTpCEVYKG 16nDDDvkH6NOcL26iRvbeZ material-null"><path d="M111.116,139.486 L111.116,139.686 L180.716,139.686 L180.716,139.486 Z"/></g><g id="product-543e8191-33a1-438b-b361-ba965842c432" class="IfcColumn material-null projection" ifc:name="Column" ifc:guid="1KFe6HCw53YxDXkfPOGiGo">
            <path d="M29.8165,98.2858 L29.8165,98.2858"/>
            <path d="M29.8165,148.286 L29.8165,148.286"/>
        </g>
        <g id="product-630164aa-aac3-4b95-bfc4-42a5f9467a4c" class="IfcColumn material-null projection" ifc:name="Column" ifc:guid="1Z0MIggiDBbR$4GgNvHdfC">
            <path d="M29.3165,98.2858 L29.3165,148.286"/>
            <path d="M29.3165,148.286 L29.8165,148.286"/>
            <path d="M29.8165,148.286 L29.8165,98.2858"/>
            <path d="M29.3165,98.2858 L29.8165,98.2858"/>
        </g>
        </g>
</svg>